<svg width="721" height="971" viewBox="0 0 721 971" fill="none" xmlns="http://www.w3.org/2000/svg">
<g filter="url(#filter0_d_2134_1944)">
<rect x="125" y="144" width="387" height="765" rx="47.4318" fill="url(#paint0_linear_2134_1944)" shape-rendering="crispEdges"/>
<circle cx="318.004" cy="748.089" r="23.3192" fill="#15846C"/>
<circle cx="261.442" cy="804.65" r="23.3192" fill="#47D4E8"/>
<circle cx="374.565" cy="748.089" r="23.3192" fill="#71D535"/>
<circle cx="431.127" cy="748.089" r="23.3192" fill="#FAE52D"/>
<circle cx="204.881" cy="748.089" r="22.8231" fill="white" stroke="black" stroke-width="0.992308"/>
<path d="M205.377 741.516C207.275 743.952 209.197 746.91 209.979 749.114L212.745 751.829C212.782 751.5 212.819 751.159 212.819 750.819C212.819 745.973 205.377 737.669 205.377 737.669C205.377 737.669 203.913 739.313 202.276 741.553L204.062 743.306C204.484 742.685 204.93 742.089 205.377 741.516ZM197.203 740.031L195.454 741.748L199.572 745.79C198.617 747.568 197.935 749.345 197.935 750.819C197.935 754.849 201.271 758.124 205.377 758.124C207.262 758.124 208.974 757.43 210.276 756.298L213.539 759.5L215.3 757.783L197.203 740.031ZM205.377 755.689C202.636 755.689 200.415 753.509 200.415 750.819C200.415 749.978 200.812 748.846 201.42 747.604L208.515 754.569C207.647 755.25 206.568 755.689 205.377 755.689Z" fill="black"/>
<circle cx="374.565" cy="804.65" r="23.3192" fill="#FA41DC"/>
<circle cx="318.004" cy="804.65" r="23.3192" fill="#903FC2"/>
<circle cx="204.881" cy="804.65" r="23.3192" fill="#F59E38"/>
<circle cx="431.127" cy="804.65" r="23.3192" fill="#CF4B4B"/>
<circle cx="261.442" cy="748.089" r="23.3192" fill="#FFEEB1"/>
<path d="M257.475 741.241L254.995 742.63L256.384 740.15L254.995 737.669L257.475 739.058L259.956 737.669L258.567 740.15L259.956 742.63L257.475 741.241ZM269.383 750.966L271.864 749.577L270.475 752.057L271.864 754.538L269.383 753.149L266.902 754.538L268.292 752.057L266.902 749.577L269.383 750.966ZM271.864 737.669L270.475 740.15L271.864 742.63L269.383 741.241L266.902 742.63L268.292 740.15L266.902 737.669L269.383 739.058L271.864 737.669ZM263.271 748.366L265.692 745.945L263.588 743.841L261.167 746.262L263.271 748.366ZM264.293 742.918L266.615 745.24C267.002 745.607 267.002 746.252 266.615 746.639L255.034 758.22C254.647 758.607 254.002 758.607 253.635 758.22L251.313 755.898C250.926 755.53 250.926 754.885 251.313 754.498L262.893 742.918C263.28 742.531 263.925 742.531 264.293 742.918Z" fill="#9A7D17"/>
<g filter="url(#filter1_d_2134_1944)">
<rect x="217.285" y="85.7229" width="203.347" height="451.5" rx="14.6479" fill="#D9F4FF"/>
<rect x="229.348" y="128.805" width="178.36" height="62.0382" rx="8.61641" fill="white"/>
<rect x="229.348" y="215.831" width="178.36" height="38.7739" rx="8.61641" fill="white"/>
<rect x="229.348" y="259.775" width="178.36" height="38.7739" rx="8.61641" fill="white"/>
<rect x="229.348" y="303.718" width="178.36" height="38.7739" rx="8.61641" fill="white"/>
<rect x="229.348" y="347.662" width="178.36" height="38.7739" rx="8.61641" fill="white"/>
<rect x="229.348" y="391.606" width="178.36" height="38.7739" rx="8.61641" fill="white"/>
<rect x="229.348" y="435.55" width="178.36" height="38.7739" rx="8.61641" fill="white"/>
<rect x="229.348" y="479.493" width="178.36" height="38.7739" rx="8.61641" fill="white"/>
<rect x="229.348" y="196.013" width="40.4971" height="14.6479" rx="7.32395" fill="#6F65EB" fill-opacity="0.5"/>
<circle cx="250.027" cy="234.787" r="10.3397" fill="#645AD7"/>
<circle cx="250.027" cy="278.731" r="10.3397" fill="#645AD7"/>
<circle cx="250.027" cy="322.674" r="10.3397" fill="#645AD7"/>
<circle cx="250.027" cy="366.618" r="10.3397" fill="#645AD7"/>
<circle cx="250.027" cy="410.562" r="10.3397" fill="#645AD7"/>
<circle cx="250.027" cy="454.506" r="10.3397" fill="#645AD7"/>
<circle cx="250.027" cy="498.449" r="10.3397" fill="#645AD7"/>
<circle cx="397.368" cy="108.126" r="10.3397" fill="#645AD7"/>
</g>
<rect x="120" y="572.946" width="83.7385" height="29.9385" rx="14.9692" fill="white"/>
<path d="M141.335 593.915V582.555H136.941V581.412H147.05V582.555H142.656V593.915H141.335ZM151.9 594.005C150.924 594.005 150.066 593.802 149.328 593.397C148.59 592.981 148.012 592.415 147.596 591.7C147.179 590.974 146.97 590.146 146.97 589.218C146.97 588.289 147.167 587.467 147.56 586.753C147.965 586.038 148.512 585.479 149.203 585.074C149.906 584.657 150.692 584.449 151.561 584.449C152.442 584.449 153.222 584.651 153.901 585.056C154.591 585.449 155.133 586.009 155.526 586.735C155.919 587.449 156.116 588.277 156.116 589.218C156.116 589.277 156.11 589.343 156.098 589.414C156.098 589.474 156.098 589.539 156.098 589.611H147.935V588.664H155.419L154.919 589.039C154.919 588.36 154.77 587.759 154.472 587.235C154.186 586.699 153.794 586.282 153.293 585.985C152.793 585.687 152.216 585.538 151.561 585.538C150.918 585.538 150.34 585.687 149.828 585.985C149.316 586.282 148.917 586.699 148.632 587.235C148.346 587.771 148.203 588.384 148.203 589.075V589.271C148.203 589.986 148.358 590.617 148.667 591.165C148.989 591.7 149.429 592.123 149.989 592.433C150.561 592.73 151.21 592.879 151.936 592.879C152.507 592.879 153.037 592.778 153.526 592.576C154.026 592.373 154.454 592.064 154.812 591.647L155.526 592.468C155.109 592.969 154.585 593.35 153.954 593.612C153.335 593.874 152.65 594.005 151.9 594.005ZM150.382 583.073L152.829 580.858H154.526L151.632 583.073H150.382ZM170.414 584.449C171.176 584.449 171.837 584.598 172.397 584.895C172.968 585.181 173.409 585.622 173.718 586.217C174.04 586.812 174.201 587.563 174.201 588.468V593.915H172.932V588.593C172.932 587.604 172.694 586.86 172.218 586.36C171.754 585.848 171.093 585.592 170.235 585.592C169.592 585.592 169.033 585.729 168.556 586.003C168.092 586.265 167.729 586.652 167.467 587.164C167.217 587.664 167.092 588.271 167.092 588.985V593.915H165.824V588.593C165.824 587.604 165.585 586.86 165.109 586.36C164.633 585.848 163.966 585.592 163.109 585.592C162.477 585.592 161.924 585.729 161.447 586.003C160.971 586.265 160.602 586.652 160.34 587.164C160.09 587.664 159.965 588.271 159.965 588.985V593.915H158.697V584.538H159.911V587.074L159.715 586.628C160.001 585.949 160.459 585.419 161.09 585.038C161.733 584.645 162.489 584.449 163.359 584.449C164.276 584.449 165.055 584.681 165.699 585.145C166.342 585.598 166.758 586.282 166.949 587.199L166.449 587.003C166.723 586.241 167.205 585.628 167.895 585.163C168.598 584.687 169.438 584.449 170.414 584.449ZM183.516 593.915V591.843L183.463 591.504V588.039C183.463 587.241 183.236 586.628 182.784 586.199C182.343 585.77 181.682 585.556 180.801 585.556C180.194 585.556 179.616 585.657 179.069 585.86C178.521 586.062 178.057 586.33 177.676 586.663L177.104 585.717C177.58 585.312 178.152 585.002 178.819 584.788C179.485 584.562 180.188 584.449 180.926 584.449C182.141 584.449 183.076 584.752 183.731 585.36C184.397 585.955 184.731 586.866 184.731 588.092V593.915H183.516ZM180.283 594.005C179.581 594.005 178.967 593.891 178.444 593.665C177.932 593.427 177.539 593.106 177.265 592.701C176.991 592.284 176.854 591.808 176.854 591.272C176.854 590.784 176.967 590.343 177.193 589.95C177.431 589.545 177.812 589.224 178.336 588.985C178.872 588.735 179.587 588.61 180.48 588.61H183.713V589.557H180.515C179.611 589.557 178.979 589.718 178.622 590.039C178.277 590.361 178.104 590.76 178.104 591.236C178.104 591.772 178.313 592.201 178.729 592.522C179.146 592.844 179.73 593.004 180.48 593.004C181.194 593.004 181.807 592.844 182.32 592.522C182.843 592.189 183.224 591.712 183.463 591.093L183.748 591.968C183.51 592.588 183.094 593.082 182.498 593.451C181.915 593.82 181.176 594.005 180.283 594.005Z" fill="#3B3B3B"/>
<rect x="389" y="572.946" width="98.6" height="29.9385" rx="14.9692" fill="white"/>
<circle cx="404.381" cy="587.915" r="8.93077" fill="#645AD7" stroke="black" stroke-width="0.992308"/>
<path d="M426.946 587.003H433.555V588.128H426.946V587.003ZM427.089 592.772H434.608V593.915H425.767V581.412H434.34V582.555H427.089V592.772ZM437.447 593.915V580.662H438.716V593.915H437.447ZM446.227 594.005C445.251 594.005 444.394 593.802 443.655 593.397C442.917 592.981 442.339 592.415 441.923 591.7C441.506 590.974 441.298 590.146 441.298 589.218C441.298 588.289 441.494 587.467 441.887 586.753C442.292 586.038 442.84 585.479 443.53 585.074C444.233 584.657 445.019 584.449 445.888 584.449C446.769 584.449 447.549 584.651 448.228 585.056C448.918 585.449 449.46 586.009 449.853 586.735C450.246 587.449 450.443 588.277 450.443 589.218C450.443 589.277 450.437 589.343 450.425 589.414C450.425 589.474 450.425 589.539 450.425 589.611H442.262V588.664H449.746L449.246 589.039C449.246 588.36 449.097 587.759 448.799 587.235C448.514 586.699 448.121 586.282 447.621 585.985C447.12 585.687 446.543 585.538 445.888 585.538C445.245 585.538 444.667 585.687 444.155 585.985C443.643 586.282 443.244 586.699 442.959 587.235C442.673 587.771 442.53 588.384 442.53 589.075V589.271C442.53 589.986 442.685 590.617 442.994 591.165C443.316 591.7 443.756 592.123 444.316 592.433C444.888 592.73 445.537 592.879 446.263 592.879C446.835 592.879 447.365 592.778 447.853 592.576C448.353 592.373 448.782 592.064 449.139 591.647L449.853 592.468C449.436 592.969 448.913 593.35 448.281 593.612C447.662 593.874 446.978 594.005 446.227 594.005ZM464.741 584.449C465.503 584.449 466.164 584.598 466.724 584.895C467.295 585.181 467.736 585.622 468.045 586.217C468.367 586.812 468.528 587.563 468.528 588.468V593.915H467.26V588.593C467.26 587.604 467.021 586.86 466.545 586.36C466.081 585.848 465.42 585.592 464.562 585.592C463.919 585.592 463.36 585.729 462.883 586.003C462.419 586.265 462.056 586.652 461.794 587.164C461.544 587.664 461.419 588.271 461.419 588.985V593.915H460.151V588.593C460.151 587.604 459.913 586.86 459.436 586.36C458.96 585.848 458.293 585.592 457.436 585.592C456.805 585.592 456.251 585.729 455.775 586.003C455.298 586.265 454.929 586.652 454.667 587.164C454.417 587.664 454.292 588.271 454.292 588.985V593.915H453.024V584.538H454.239V587.074L454.042 586.628C454.328 585.949 454.786 585.419 455.417 585.038C456.06 584.645 456.817 584.449 457.686 584.449C458.603 584.449 459.383 584.681 460.026 585.145C460.669 585.598 461.085 586.282 461.276 587.199L460.776 587.003C461.05 586.241 461.532 585.628 462.223 585.163C462.925 584.687 463.765 584.449 464.741 584.449Z" fill="#3B3B3B"/>
<rect x="497.523" y="572.946" width="102.6" height="29.9385" rx="14.9692" fill="white"/>
<circle cx="512.904" cy="587.915" r="8.93077" fill="white" stroke="black" stroke-width="0.992308"/>
<path d="M534.29 593.915V581.412H538.97C540.03 581.412 540.941 581.585 541.703 581.93C542.465 582.264 543.048 582.752 543.453 583.395C543.87 584.026 544.078 584.794 544.078 585.699C544.078 586.58 543.87 587.342 543.453 587.985C543.048 588.616 542.465 589.105 541.703 589.45C540.941 589.795 540.03 589.968 538.97 589.968H535.022L535.612 589.343V593.915H534.29ZM535.612 589.45L535.022 588.807H538.934C540.184 588.807 541.131 588.539 541.774 588.003C542.429 587.455 542.756 586.687 542.756 585.699C542.756 584.699 542.429 583.925 541.774 583.377C541.131 582.829 540.184 582.555 538.934 582.555H535.022L535.612 581.93V589.45ZM552.458 593.915V591.843L552.404 591.504V588.039C552.404 587.241 552.178 586.628 551.725 586.199C551.285 585.77 550.624 585.556 549.743 585.556C549.135 585.556 548.558 585.657 548.01 585.86C547.462 586.062 546.998 586.33 546.617 586.663L546.045 585.717C546.522 585.312 547.093 585.002 547.76 584.788C548.427 584.562 549.129 584.449 549.868 584.449C551.082 584.449 552.017 584.752 552.672 585.36C553.339 585.955 553.672 586.866 553.672 588.092V593.915H552.458ZM549.225 594.005C548.522 594.005 547.909 593.891 547.385 593.665C546.873 593.427 546.48 593.106 546.206 592.701C545.932 592.284 545.795 591.808 545.795 591.272C545.795 590.784 545.908 590.343 546.135 589.95C546.373 589.545 546.754 589.224 547.278 588.985C547.814 588.735 548.528 588.61 549.421 588.61H552.654V589.557H549.457C548.552 589.557 547.921 589.718 547.563 590.039C547.218 590.361 547.045 590.76 547.045 591.236C547.045 591.772 547.254 592.201 547.671 592.522C548.087 592.844 548.671 593.004 549.421 593.004C550.136 593.004 550.749 592.844 551.261 592.522C551.785 592.189 552.166 591.712 552.404 591.093L552.69 591.968C552.452 592.588 552.035 593.082 551.439 593.451C550.856 593.82 550.118 594.005 549.225 594.005ZM561.904 584.449C562.666 584.449 563.332 584.598 563.904 584.895C564.487 585.181 564.94 585.622 565.261 586.217C565.595 586.812 565.762 587.563 565.762 588.468V593.915H564.493V588.593C564.493 587.604 564.243 586.86 563.743 586.36C563.255 585.848 562.564 585.592 561.671 585.592C561.004 585.592 560.421 585.729 559.921 586.003C559.433 586.265 559.052 586.652 558.778 587.164C558.516 587.664 558.385 588.271 558.385 588.985V593.915H557.117V584.538H558.331V587.11L558.135 586.628C558.432 585.949 558.909 585.419 559.564 585.038C560.219 584.645 560.999 584.449 561.904 584.449ZM573.17 594.005C572.194 594.005 571.336 593.802 570.598 593.397C569.86 592.981 569.282 592.415 568.866 591.7C568.449 590.974 568.24 590.146 568.24 589.218C568.24 588.289 568.437 587.467 568.83 586.753C569.235 586.038 569.782 585.479 570.473 585.074C571.176 584.657 571.962 584.449 572.831 584.449C573.712 584.449 574.492 584.651 575.171 585.056C575.861 585.449 576.403 586.009 576.796 586.735C577.189 587.449 577.386 588.277 577.386 589.218C577.386 589.277 577.38 589.343 577.368 589.414C577.368 589.474 577.368 589.539 577.368 589.611H569.205V588.664H576.689L576.189 589.039C576.189 588.36 576.04 587.759 575.742 587.235C575.457 586.699 575.064 586.282 574.563 585.985C574.063 585.687 573.486 585.538 572.831 585.538C572.188 585.538 571.61 585.687 571.098 585.985C570.586 586.282 570.187 586.699 569.902 587.235C569.616 587.771 569.473 588.384 569.473 589.075V589.271C569.473 589.986 569.628 590.617 569.937 591.165C570.259 591.7 570.699 592.123 571.259 592.433C571.831 592.73 572.48 592.879 573.206 592.879C573.778 592.879 574.307 592.778 574.796 592.576C575.296 592.373 575.724 592.064 576.082 591.647L576.796 592.468C576.379 592.969 575.855 593.35 575.224 593.612C574.605 593.874 573.92 594.005 573.17 594.005ZM579.967 593.915V580.662H581.235V593.915H579.967Z" fill="#3B3B3B"/>
<rect x="146.831" y="668.208" width="345.323" height="27.7846" rx="10.9154" fill="url(#paint1_linear_2134_1944)"/>
<g filter="url(#filter2_d_2134_1944)">
<rect x="476.277" y="664.238" width="15.8769" height="34.7308" rx="7.93846" fill="#00B2FF"/>
<rect x="477.765" y="665.727" width="12.9" height="31.7538" rx="6.45" stroke="white" stroke-width="2.97692"/>
</g>
<rect x="146.831" y="627.523" width="345.323" height="27.7846" rx="10.9154" fill="url(#paint2_linear_2134_1944)"/>
<g filter="url(#filter3_d_2134_1944)">
<rect x="317.508" y="623.553" width="15.8769" height="34.7308" rx="7.93846" fill="#00B2FF"/>
<rect x="318.996" y="625.042" width="12.9" height="31.7538" rx="6.45" stroke="white" stroke-width="2.97692"/>
</g>
<g filter="url(#filter4_d_2134_1944)">
<rect x="213.585" y="565.728" width="165.482" height="43.7665" rx="21.8833" fill="#C5C1F9" shape-rendering="crispEdges"/>
<circle cx="236.383" cy="587.611" r="13.2373" fill="#00B2FF" stroke="black" stroke-width="1.47081"/>
<path d="M279.969 578.079H284.258V596.611H279.969V578.079ZM271.55 596.611H267.261V578.079H271.55V596.611ZM280.286 589.013H271.232V585.386H280.286V589.013ZM297.088 596.611V593.831L296.823 593.223V588.245C296.823 587.363 296.549 586.675 296.002 586.18C295.473 585.686 294.652 585.439 293.54 585.439C292.781 585.439 292.031 585.563 291.29 585.81C290.566 586.039 289.948 586.357 289.436 586.763L287.954 583.877C288.73 583.33 289.666 582.906 290.76 582.606C291.854 582.306 292.966 582.156 294.096 582.156C296.267 582.156 297.952 582.668 299.153 583.692C300.353 584.715 300.953 586.313 300.953 588.484V596.611H297.088ZM292.746 596.823C291.634 596.823 290.681 596.638 289.887 596.267C289.092 595.879 288.483 595.358 288.06 594.705C287.636 594.052 287.424 593.32 287.424 592.508C287.424 591.661 287.627 590.919 288.033 590.284C288.457 589.649 289.119 589.154 290.019 588.801C290.919 588.431 292.093 588.245 293.54 588.245H297.326V590.655H293.99C293.019 590.655 292.349 590.813 291.978 591.131C291.625 591.449 291.449 591.846 291.449 592.322C291.449 592.852 291.652 593.276 292.057 593.593C292.481 593.893 293.055 594.043 293.778 594.043C294.467 594.043 295.084 593.884 295.632 593.567C296.179 593.231 296.576 592.746 296.823 592.111L297.458 594.017C297.158 594.935 296.611 595.632 295.817 596.108C295.023 596.585 293.999 596.823 292.746 596.823ZM292.11 580.541L295.684 576.729H300.132L295.34 580.541H292.11ZM310.515 596.823C308.839 596.823 307.532 596.4 306.597 595.552C305.662 594.688 305.194 593.408 305.194 591.714V579.217H309.324V591.661C309.324 592.261 309.483 592.728 309.8 593.064C310.118 593.381 310.551 593.54 311.098 593.54C311.751 593.54 312.307 593.364 312.766 593.011L313.878 595.923C313.454 596.223 312.942 596.452 312.342 596.611C311.76 596.753 311.151 596.823 310.515 596.823ZM302.996 585.863V582.686H312.871V585.863H302.996ZM321.71 596.823C320.033 596.823 318.727 596.4 317.792 595.552C316.856 594.688 316.389 593.408 316.389 591.714V579.217H320.519V591.661C320.519 592.261 320.678 592.728 320.995 593.064C321.313 593.381 321.745 593.54 322.293 593.54C322.946 593.54 323.502 593.364 323.96 593.011L325.072 595.923C324.649 596.223 324.137 596.452 323.537 596.611C322.954 596.753 322.345 596.823 321.71 596.823ZM314.191 585.863V582.686H324.066V585.863H314.191ZM334.02 596.823C332.396 596.823 330.967 596.505 329.731 595.87C328.513 595.235 327.569 594.37 326.898 593.276C326.228 592.164 325.892 590.902 325.892 589.49C325.892 588.06 326.219 586.798 326.872 585.704C327.542 584.592 328.451 583.727 329.599 583.109C330.746 582.474 332.043 582.156 333.49 582.156C334.885 582.156 336.138 582.456 337.25 583.056C338.379 583.639 339.271 584.486 339.924 585.598C340.577 586.692 340.903 588.007 340.903 589.543C340.903 589.701 340.895 589.887 340.877 590.099C340.859 590.293 340.842 590.478 340.824 590.655H329.255V588.245H338.653L337.065 588.96C337.065 588.219 336.915 587.575 336.614 587.028C336.314 586.48 335.9 586.057 335.37 585.757C334.841 585.439 334.223 585.28 333.517 585.28C332.811 585.28 332.184 585.439 331.637 585.757C331.108 586.057 330.693 586.489 330.393 587.054C330.093 587.601 329.943 588.254 329.943 589.013V589.649C329.943 590.425 330.111 591.113 330.446 591.714C330.799 592.296 331.284 592.746 331.902 593.064C332.537 593.364 333.279 593.514 334.126 593.514C334.885 593.514 335.547 593.399 336.111 593.17C336.694 592.94 337.223 592.596 337.7 592.137L339.897 594.52C339.244 595.261 338.424 595.835 337.435 596.241C336.447 596.629 335.308 596.823 334.02 596.823ZM331.002 580.541L334.576 576.729H339.024L334.232 580.541H331.002ZM343.653 596.611V582.368H347.598V586.392L347.042 585.227C347.465 584.221 348.145 583.462 349.08 582.95C350.016 582.421 351.154 582.156 352.496 582.156V585.969C352.319 585.951 352.16 585.942 352.019 585.942C351.878 585.924 351.728 585.916 351.569 585.916C350.439 585.916 349.522 586.242 348.816 586.895C348.127 587.531 347.783 588.528 347.783 589.887V596.611H343.653Z" fill="#140A7E"/>
</g>
<path d="M304.637 881.661L309.401 871.242H310.487L315.25 881.661H314.089L309.713 871.882H310.16L305.784 881.661H304.637ZM306.513 878.878L306.84 877.985H312.898L313.226 878.878H306.513ZM319.789 881.736C319.044 881.736 318.375 881.567 317.779 881.229C317.194 880.892 316.732 880.426 316.395 879.83C316.058 879.225 315.889 878.53 315.889 877.746C315.889 876.953 316.058 876.258 316.395 875.663C316.732 875.067 317.194 874.606 317.779 874.278C318.375 873.941 319.044 873.772 319.789 873.772C320.473 873.772 321.084 873.926 321.62 874.234C322.165 874.541 322.597 874.993 322.914 875.588C323.242 876.174 323.406 876.893 323.406 877.746C323.406 878.59 323.247 879.309 322.929 879.905C322.612 880.5 322.18 880.957 321.634 881.274C321.099 881.582 320.483 881.736 319.789 881.736ZM319.863 880.798C320.419 880.798 320.915 880.674 321.352 880.426C321.798 880.168 322.145 879.81 322.394 879.354C322.652 878.888 322.781 878.352 322.781 877.746C322.781 877.131 322.652 876.595 322.394 876.139C322.145 875.682 321.798 875.33 321.352 875.082C320.915 874.824 320.419 874.695 319.863 874.695C319.317 874.695 318.826 874.824 318.39 875.082C317.953 875.33 317.606 875.682 317.348 876.139C317.09 876.595 316.961 877.131 316.961 877.746C316.961 878.352 317.09 878.888 317.348 879.354C317.606 879.81 317.953 880.168 318.39 880.426C318.826 880.674 319.317 880.798 319.863 880.798ZM322.81 881.661V879.309L322.914 877.732L322.766 876.154V870.617H323.822V881.661H322.81ZM328.775 881.661L325.307 873.847H326.408L329.594 881.096H329.073L332.303 873.847H333.345L329.862 881.661H328.775ZM339.497 881.661V879.935L339.453 879.652V876.764C339.453 876.099 339.264 875.588 338.887 875.231C338.52 874.874 337.969 874.695 337.235 874.695C336.729 874.695 336.248 874.779 335.791 874.948C335.335 875.117 334.948 875.34 334.63 875.618L334.154 874.829C334.551 874.492 335.027 874.234 335.583 874.055C336.138 873.867 336.724 873.772 337.339 873.772C338.351 873.772 339.13 874.025 339.676 874.531C340.232 875.028 340.51 875.787 340.51 876.809V881.661H339.497ZM336.803 881.736C336.218 881.736 335.707 881.641 335.27 881.453C334.844 881.254 334.516 880.986 334.288 880.649C334.06 880.302 333.945 879.905 333.945 879.458C333.945 879.051 334.04 878.684 334.228 878.357C334.427 878.019 334.744 877.751 335.181 877.553C335.627 877.345 336.223 877.24 336.967 877.24H339.661V878.029H336.997C336.243 878.029 335.717 878.163 335.419 878.431C335.131 878.699 334.987 879.032 334.987 879.428C334.987 879.875 335.161 880.232 335.508 880.5C335.856 880.768 336.342 880.902 336.967 880.902C337.562 880.902 338.073 880.768 338.5 880.5C338.937 880.222 339.254 879.825 339.453 879.309L339.691 880.039C339.492 880.555 339.145 880.967 338.649 881.274C338.163 881.582 337.548 881.736 336.803 881.736ZM347.369 873.772C348.004 873.772 348.56 873.896 349.036 874.144C349.522 874.383 349.899 874.75 350.167 875.246C350.445 875.742 350.584 876.367 350.584 877.121V881.661H349.527V877.226C349.527 876.402 349.319 875.782 348.902 875.365C348.495 874.938 347.92 874.725 347.176 874.725C346.62 874.725 346.134 874.839 345.717 875.067C345.31 875.286 344.992 875.608 344.764 876.035C344.546 876.452 344.437 876.958 344.437 877.553V881.661H343.38V873.847H344.392V875.99L344.228 875.588C344.476 875.023 344.873 874.581 345.419 874.263C345.965 873.936 346.615 873.772 347.369 873.772ZM356.684 881.736C355.91 881.736 355.215 881.567 354.6 881.229C353.994 880.882 353.518 880.411 353.171 879.815C352.824 879.21 352.65 878.52 352.65 877.746C352.65 876.963 352.824 876.273 353.171 875.678C353.518 875.082 353.994 874.616 354.6 874.278C355.215 873.941 355.91 873.772 356.684 873.772C357.348 873.772 357.949 873.901 358.485 874.159C359.02 874.417 359.442 874.804 359.75 875.32L358.961 875.856C358.693 875.459 358.361 875.166 357.964 874.978C357.567 874.789 357.135 874.695 356.669 874.695C356.113 874.695 355.612 874.824 355.165 875.082C354.719 875.33 354.367 875.682 354.109 876.139C353.851 876.595 353.722 877.131 353.722 877.746C353.722 878.362 353.851 878.898 354.109 879.354C354.367 879.81 354.719 880.168 355.165 880.426C355.612 880.674 356.113 880.798 356.669 880.798C357.135 880.798 357.567 880.704 357.964 880.515C358.361 880.326 358.693 880.039 358.961 879.652L359.75 880.188C359.442 880.694 359.02 881.081 358.485 881.349C357.949 881.607 357.348 881.736 356.684 881.736ZM365.014 881.736C364.201 881.736 363.486 881.567 362.871 881.229C362.256 880.882 361.774 880.411 361.427 879.815C361.08 879.21 360.906 878.52 360.906 877.746C360.906 876.972 361.07 876.288 361.397 875.692C361.735 875.097 362.191 874.631 362.767 874.293C363.352 873.946 364.007 873.772 364.732 873.772C365.466 873.772 366.116 873.941 366.681 874.278C367.257 874.606 367.708 875.072 368.036 875.678C368.363 876.273 368.527 876.963 368.527 877.746C368.527 877.796 368.522 877.851 368.512 877.91C368.512 877.96 368.512 878.014 368.512 878.074H361.71V877.285H367.947L367.53 877.598C367.53 877.032 367.406 876.531 367.158 876.094C366.92 875.648 366.592 875.3 366.175 875.052C365.759 874.804 365.277 874.68 364.732 874.68C364.196 874.68 363.714 874.804 363.288 875.052C362.861 875.3 362.529 875.648 362.29 876.094C362.052 876.541 361.933 877.052 361.933 877.627V877.791C361.933 878.387 362.062 878.912 362.32 879.369C362.588 879.815 362.955 880.168 363.422 880.426C363.898 880.674 364.439 880.798 365.044 880.798C365.52 880.798 365.962 880.713 366.369 880.545C366.786 880.376 367.143 880.118 367.441 879.771L368.036 880.455C367.689 880.872 367.252 881.19 366.726 881.408C366.21 881.626 365.639 881.736 365.014 881.736ZM373.789 881.736C373.045 881.736 372.375 881.567 371.78 881.229C371.194 880.892 370.733 880.426 370.395 879.83C370.058 879.225 369.889 878.53 369.889 877.746C369.889 876.953 370.058 876.258 370.395 875.663C370.733 875.067 371.194 874.606 371.78 874.278C372.375 873.941 373.045 873.772 373.789 873.772C374.474 873.772 375.084 873.926 375.62 874.234C376.166 874.541 376.597 874.993 376.915 875.588C377.242 876.174 377.406 876.893 377.406 877.746C377.406 878.59 377.247 879.309 376.93 879.905C376.612 880.5 376.18 880.957 375.635 881.274C375.099 881.582 374.484 881.736 373.789 881.736ZM373.863 880.798C374.419 880.798 374.915 880.674 375.352 880.426C375.798 880.168 376.146 879.81 376.394 879.354C376.652 878.888 376.781 878.352 376.781 877.746C376.781 877.131 376.652 876.595 376.394 876.139C376.146 875.682 375.798 875.33 375.352 875.082C374.915 874.824 374.419 874.695 373.863 874.695C373.318 874.695 372.826 874.824 372.39 875.082C371.953 875.33 371.606 875.682 371.348 876.139C371.09 876.595 370.961 877.131 370.961 877.746C370.961 878.352 371.09 878.888 371.348 879.354C371.606 879.81 371.953 880.168 372.39 880.426C372.826 880.674 373.318 880.798 373.863 880.798ZM376.811 881.661V879.309L376.915 877.732L376.766 876.154V870.617H377.823V881.661H376.811Z" fill="black"/>
<rect x="257.969" y="865.677" width="36.7154" height="21.8308" rx="10.9154" fill="#CDCDCD"/>
<rect x="260.946" y="868.653" width="15.8769" height="15.8769" rx="7.93846" fill="#4F4F4F"/>
</g>
<defs>
<filter id="filter0_d_2134_1944" x="0" y="0.7229" width="720.123" height="1063.28" filterUnits="userSpaceOnUse" color-interpolation-filters="sRGB">
<feFlood flood-opacity="0" result="BackgroundImageFix"/>
<feColorMatrix in="SourceAlpha" type="matrix" values="0 0 0 0 0 0 0 0 0 0 0 0 0 0 0 0 0 0 127 0" result="hardAlpha"/>
<feOffset dy="35"/>
<feGaussianBlur stdDeviation="60"/>
<feComposite in2="hardAlpha" operator="out"/>
<feColorMatrix type="matrix" values="0 0 0 0 0.70041 0 0 0 0 0.400268 0 0 0 0 0.182924 0 0 0 0.25 0"/>
<feBlend mode="normal" in2="BackgroundImageFix" result="effect1_dropShadow_2134_1944"/>
<feBlend mode="normal" in="SourceGraphic" in2="effect1_dropShadow_2134_1944" result="shape"/>
</filter>
<filter id="filter1_d_2134_1944" x="122.285" y="56.7229" width="393.347" height="641.5" filterUnits="userSpaceOnUse" color-interpolation-filters="sRGB">
<feFlood flood-opacity="0" result="BackgroundImageFix"/>
<feColorMatrix in="SourceAlpha" type="matrix" values="0 0 0 0 0 0 0 0 0 0 0 0 0 0 0 0 0 0 127 0" result="hardAlpha"/>
<feOffset dy="66"/>
<feGaussianBlur stdDeviation="47.5"/>
<feComposite in2="hardAlpha" operator="out"/>
<feColorMatrix type="matrix" values="0 0 0 0 0.06375 0 0 0 0 0.399474 0 0 0 0 0.53625 0 0 0 0.25 0"/>
<feBlend mode="normal" in2="BackgroundImageFix" result="effect1_dropShadow_2134_1944"/>
<feBlend mode="normal" in="SourceGraphic" in2="effect1_dropShadow_2134_1944" result="shape"/>
</filter>
<filter id="filter2_d_2134_1944" x="472.277" y="664.238" width="23.877" height="42.7307" filterUnits="userSpaceOnUse" color-interpolation-filters="sRGB">
<feFlood flood-opacity="0" result="BackgroundImageFix"/>
<feColorMatrix in="SourceAlpha" type="matrix" values="0 0 0 0 0 0 0 0 0 0 0 0 0 0 0 0 0 0 127 0" result="hardAlpha"/>
<feOffset dy="4"/>
<feGaussianBlur stdDeviation="2"/>
<feComposite in2="hardAlpha" operator="out"/>
<feColorMatrix type="matrix" values="0 0 0 0 0 0 0 0 0 0 0 0 0 0 0 0 0 0 0.25 0"/>
<feBlend mode="normal" in2="BackgroundImageFix" result="effect1_dropShadow_2134_1944"/>
<feBlend mode="normal" in="SourceGraphic" in2="effect1_dropShadow_2134_1944" result="shape"/>
</filter>
<filter id="filter3_d_2134_1944" x="313.508" y="623.553" width="23.877" height="42.7307" filterUnits="userSpaceOnUse" color-interpolation-filters="sRGB">
<feFlood flood-opacity="0" result="BackgroundImageFix"/>
<feColorMatrix in="SourceAlpha" type="matrix" values="0 0 0 0 0 0 0 0 0 0 0 0 0 0 0 0 0 0 127 0" result="hardAlpha"/>
<feOffset dy="4"/>
<feGaussianBlur stdDeviation="2"/>
<feComposite in2="hardAlpha" operator="out"/>
<feColorMatrix type="matrix" values="0 0 0 0 0 0 0 0 0 0 0 0 0 0 0 0 0 0 0.25 0"/>
<feBlend mode="normal" in2="BackgroundImageFix" result="effect1_dropShadow_2134_1944"/>
<feBlend mode="normal" in="SourceGraphic" in2="effect1_dropShadow_2134_1944" result="shape"/>
</filter>
<filter id="filter4_d_2134_1944" x="190.585" y="548.728" width="211.482" height="89.7666" filterUnits="userSpaceOnUse" color-interpolation-filters="sRGB">
<feFlood flood-opacity="0" result="BackgroundImageFix"/>
<feColorMatrix in="SourceAlpha" type="matrix" values="0 0 0 0 0 0 0 0 0 0 0 0 0 0 0 0 0 0 127 0" result="hardAlpha"/>
<feOffset dy="6"/>
<feGaussianBlur stdDeviation="11.5"/>
<feComposite in2="hardAlpha" operator="out"/>
<feColorMatrix type="matrix" values="0 0 0 0 0.282333 0 0 0 0 0.422107 0 0 0 0 0.917667 0 0 0 0.25 0"/>
<feBlend mode="normal" in2="BackgroundImageFix" result="effect1_dropShadow_2134_1944"/>
<feBlend mode="normal" in="SourceGraphic" in2="effect1_dropShadow_2134_1944" result="shape"/>
</filter>
<linearGradient id="paint0_linear_2134_1944" x1="318.5" y1="144" x2="318.5" y2="909" gradientUnits="userSpaceOnUse">
<stop stop-color="#56AFD5"/>
<stop offset="0.588542" stop-color="#DDECF3"/>
</linearGradient>
<linearGradient id="paint1_linear_2134_1944" x1="146.831" y1="682.656" x2="492.154" y2="682.656" gradientUnits="userSpaceOnUse">
<stop stop-color="#808080"/>
<stop offset="1" stop-color="#00B2FF"/>
</linearGradient>
<linearGradient id="paint2_linear_2134_1944" x1="146.831" y1="641.971" x2="492.154" y2="641.971" gradientUnits="userSpaceOnUse">
<stop stop-color="#FF0000"/>
<stop offset="0.123904" stop-color="#FFD600"/>
<stop offset="0.25353" stop-color="#8FFF00"/>
<stop offset="0.37708" stop-color="#00FF5A"/>
<stop offset="0.49658" stop-color="#00E0FF"/>
<stop offset="0.628231" stop-color="#000EFF"/>
<stop offset="0.757858" stop-color="#CC00FF"/>
<stop offset="0.869255" stop-color="#FF009A"/>
<stop offset="1" stop-color="#FF0000"/>
</linearGradient>
</defs>
</svg>
