<svg width="219" height="219" viewBox="0 0 219 219" fill="none" xmlns="http://www.w3.org/2000/svg">
<circle cx="109.05" cy="109.05" r="109.05" fill="#08796A" fill-opacity="0.5"/>
<path d="M105.229 163.228C98.0109 163.228 90.8427 162.289 83.7239 160.411C76.704 158.433 70.6728 155.665 65.6303 152.105L75.122 133.715C79.0769 136.582 83.625 138.856 88.7664 140.537C94.0066 142.218 99.2962 143.059 104.635 143.059C110.667 143.059 115.412 141.872 118.873 139.499C122.333 137.126 124.064 133.814 124.064 129.562C124.064 126.893 123.372 124.52 121.987 122.444C120.603 120.367 118.131 118.785 114.572 117.698C111.111 116.61 106.217 116.066 99.8895 116.066H73.3423L78.6814 57.633H142.009V76.9131H87.2833L99.7412 65.9383L96.0335 107.613L83.5756 96.6381H105.525C115.808 96.6381 124.064 98.0717 130.293 100.939C136.62 103.707 141.218 107.514 144.085 112.359C146.953 117.203 148.386 122.691 148.386 128.821C148.386 134.951 146.854 140.636 143.789 145.876C140.724 151.018 135.978 155.22 129.551 158.483C123.223 161.646 115.116 163.228 105.229 163.228Z" fill="#08796A"/>
</svg>
