<svg width="822" height="604" viewBox="0 0 822 604" fill="none" xmlns="http://www.w3.org/2000/svg">
<g filter="url(#filter0_d_2134_1810)">
<rect x="61" y="46" width="700" height="482" rx="41" fill="white"/>
<line x1="150.25" y1="112.146" x2="722.756" y2="112.146" stroke="black" stroke-opacity="0.1" stroke-width="4.35366"/>
<line x1="150.25" y1="190.512" x2="722.756" y2="190.512" stroke="black" stroke-opacity="0.1" stroke-width="4.35366"/>
<line x1="150.25" y1="268.878" x2="722.756" y2="268.878" stroke="black" stroke-opacity="0.1" stroke-width="4.35366"/>
<line x1="150.25" y1="347.244" x2="722.756" y2="347.244" stroke="black" stroke-opacity="0.1" stroke-width="4.35366"/>
<line x1="150.25" y1="425.61" x2="722.756" y2="425.61" stroke="black" stroke-opacity="0.1" stroke-width="4.35366"/>
<mask id="mask0_2134_1810" style="mask-type:alpha" maskUnits="userSpaceOnUse" x="150" y="169" width="573" height="257">
<path d="M245.863 329.904C202.289 329.904 194.663 252.804 150 252.804V426H723V169C645.656 169 597.724 297.5 550.882 297.5C504.04 297.5 459.376 234.926 400.551 234.926C341.726 234.926 300.331 329.904 245.863 329.904Z" fill="url(#paint0_linear_2134_1810)"/>
</mask>
<g mask="url(#mask0_2134_1810)">
<path d="M258.5 390C214.963 390 194.875 268.5 150.25 268.5V425.61H722.756V175.274C645.479 175.274 597.588 300.442 550.787 300.442C503.985 300.442 459.36 239.491 400.585 239.491C341.811 239.491 312.921 390 258.5 390Z" fill="url(#paint1_linear_2134_1810)"/>
</g>
<path d="M150.25 269C194.875 269 213.463 389 257 389C311.421 389 341.811 239.491 400.585 239.491C459.36 239.491 503.985 300.442 550.787 300.442C597.588 300.442 645.479 175.274 722.756 175.274" stroke="url(#paint2_linear_2134_1810)" stroke-width="10.8841" stroke-linecap="round"/>
<path d="M658.865 491.616V470.283H662.126L671.451 485.856H669.745L678.918 470.283H682.179L682.209 491.616H678.461L678.43 476.165H679.222L671.421 489.178H669.653L661.729 476.165H662.644V491.616H658.865ZM684.301 491.616L693.901 470.283H697.802L707.432 491.616H703.287L695.029 472.386H696.613L688.385 491.616H684.301ZM688.72 486.679L689.787 483.57H701.307L702.373 486.679H688.72ZM693.291 468.546L697.406 464.371H701.886L696.583 468.546H693.291ZM713.26 491.92C711.899 491.92 710.64 491.656 709.481 491.128C708.344 490.6 707.409 489.838 706.678 488.842L708.933 486.13C709.522 486.943 710.162 487.552 710.853 487.959C711.564 488.365 712.336 488.568 713.169 488.568C715.384 488.568 716.491 487.258 716.491 484.637V473.605H708.902V470.283H720.453V484.423C720.453 486.943 719.833 488.822 718.594 490.061C717.375 491.301 715.597 491.92 713.26 491.92Z" fill="black"/>
<path d="M159.478 491.921C157.812 491.921 156.217 491.687 154.693 491.22C153.169 490.732 151.961 490.113 151.067 489.361L152.438 486.283C153.291 486.953 154.348 487.512 155.608 487.959C156.867 488.406 158.157 488.629 159.478 488.629C160.595 488.629 161.499 488.507 162.19 488.264C162.881 488.02 163.389 487.695 163.714 487.288C164.039 486.862 164.202 486.384 164.202 485.856C164.202 485.206 163.968 484.688 163.501 484.302C163.033 483.895 162.424 483.581 161.672 483.357C160.941 483.113 160.118 482.89 159.204 482.687C158.31 482.483 157.406 482.25 156.491 481.986C155.597 481.701 154.775 481.346 154.023 480.919C153.291 480.472 152.692 479.883 152.225 479.151C151.757 478.42 151.524 477.485 151.524 476.348C151.524 475.19 151.829 474.133 152.438 473.178C153.068 472.203 154.013 471.431 155.272 470.862C156.552 470.273 158.167 469.978 160.118 469.978C161.398 469.978 162.668 470.141 163.927 470.466C165.187 470.791 166.284 471.258 167.219 471.868L165.969 474.946C165.014 474.377 164.029 473.96 163.013 473.696C161.997 473.412 161.022 473.27 160.087 473.27C158.99 473.27 158.096 473.402 157.406 473.666C156.735 473.93 156.237 474.275 155.912 474.702C155.608 475.129 155.455 475.616 155.455 476.165C155.455 476.815 155.679 477.343 156.126 477.75C156.593 478.136 157.192 478.44 157.924 478.664C158.675 478.887 159.508 479.111 160.423 479.334C161.337 479.537 162.241 479.771 163.135 480.035C164.049 480.299 164.872 480.645 165.604 481.071C166.355 481.498 166.955 482.077 167.402 482.809C167.869 483.54 168.103 484.464 168.103 485.582C168.103 486.72 167.788 487.776 167.158 488.751C166.548 489.706 165.604 490.478 164.324 491.067C163.044 491.636 161.428 491.921 159.478 491.921ZM169.763 491.616V488.965L183.538 472.142L183.995 473.635H169.976V470.283H187.561V472.934L173.786 489.757L173.298 488.264H187.957V491.616H169.763ZM194.59 479.151H205.195V482.412H194.59V479.151ZM194.895 488.294H206.933V491.616H190.933V470.283H206.506V473.605H194.895V488.294ZM210.696 491.616V470.283H219.473C221.363 470.283 222.978 470.588 224.319 471.197C225.68 471.807 226.726 472.68 227.458 473.818C228.189 474.956 228.555 476.307 228.555 477.871C228.555 479.436 228.189 480.787 227.458 481.925C226.726 483.062 225.68 483.936 224.319 484.546C222.978 485.155 221.363 485.46 219.473 485.46H212.89L214.658 483.601V491.616H210.696ZM214.658 484.028L212.89 482.108H219.29C221.037 482.108 222.348 481.742 223.222 481.01C224.116 480.259 224.562 479.212 224.562 477.871C224.562 476.51 224.116 475.464 223.222 474.732C222.348 474.001 221.037 473.635 219.29 473.635H212.89L214.658 471.685V484.028Z" fill="black"/>
<path d="M92.5118 192.898V190.155L103.026 176.411H107.262L96.9002 190.155L94.9193 189.546H111.833V192.898H92.5118ZM104.214 197.744V192.898L104.336 189.546V185.249H108.054V197.744H104.214Z" fill="black"/>
<path d="M99.5211 276.414C98.0177 276.414 96.5447 276.201 95.1022 275.774C93.68 275.327 92.4813 274.718 91.5061 273.946L93.2127 270.868C93.9847 271.498 94.9193 272.006 96.0165 272.392C97.1136 272.778 98.2615 272.971 99.4602 272.971C100.882 272.971 101.99 272.686 102.782 272.117C103.574 271.528 103.971 270.736 103.971 269.74C103.971 268.765 103.605 267.993 102.873 267.424C102.142 266.855 100.964 266.571 99.3383 266.571H97.3879V263.858L103.483 256.605L104.001 258.099H92.5422V254.777H107.079V257.428L100.984 264.681L98.9116 263.462H100.1C102.721 263.462 104.682 264.051 105.982 265.23C107.303 266.388 107.963 267.881 107.963 269.71C107.963 270.908 107.658 272.016 107.049 273.032C106.439 274.047 105.505 274.87 104.245 275.5C103.006 276.11 101.431 276.414 99.5211 276.414Z" fill="black"/>
<path d="M92.5422 354.476V351.824L101.014 343.779C101.726 343.108 102.254 342.519 102.599 342.011C102.945 341.503 103.168 341.036 103.27 340.609C103.392 340.162 103.453 339.746 103.453 339.36C103.453 338.384 103.117 337.633 102.447 337.104C101.776 336.556 100.791 336.282 99.4907 336.282C98.4545 336.282 97.5098 336.464 96.6564 336.83C95.8234 337.196 95.1022 337.755 94.4927 338.506L91.7194 336.373C92.5524 335.256 93.6698 334.392 95.0717 333.783C96.4939 333.153 98.0786 332.838 99.8259 332.838C101.37 332.838 102.711 333.092 103.849 333.6C105.007 334.087 105.891 334.788 106.5 335.703C107.13 336.617 107.445 337.704 107.445 338.963C107.445 339.654 107.353 340.345 107.171 341.036C106.988 341.706 106.642 342.417 106.134 343.169C105.626 343.921 104.885 344.764 103.91 345.699L96.626 352.617L95.8031 351.123H108.268V354.476H92.5422Z" fill="black"/>
<path d="M100.584 432.841V413.032L102.321 414.83H96.0732V411.508H104.545V432.841H100.584Z" fill="black"/>
<path d="M99.8869 119.683C98.3834 119.683 96.9104 119.469 95.4679 119.043C94.0457 118.596 92.847 117.986 91.8718 117.214L93.5479 114.136C94.32 114.766 95.2546 115.274 96.3517 115.66C97.4691 116.046 98.6272 116.239 99.8259 116.239C101.228 116.239 102.325 115.944 103.117 115.355C103.93 114.766 104.336 113.974 104.336 112.978C104.336 112.308 104.164 111.718 103.818 111.21C103.493 110.703 102.904 110.317 102.051 110.052C101.218 109.788 100.07 109.656 98.6069 109.656H93.4565L94.5536 98.045H107.079V101.367H96.0165L98.0888 99.4774L97.266 108.163L95.1936 106.304H99.4907C101.604 106.304 103.3 106.588 104.58 107.157C105.88 107.706 106.825 108.478 107.414 109.473C108.024 110.449 108.329 111.566 108.329 112.826C108.329 114.065 108.024 115.203 107.414 116.239C106.805 117.275 105.87 118.108 104.611 118.738C103.371 119.368 101.797 119.683 99.8869 119.683Z" fill="black"/>
</g>
<defs>
<filter id="filter0_d_2134_1810" x="0" y="0" width="822" height="604" filterUnits="userSpaceOnUse" color-interpolation-filters="sRGB">
<feFlood flood-opacity="0" result="BackgroundImageFix"/>
<feColorMatrix in="SourceAlpha" type="matrix" values="0 0 0 0 0 0 0 0 0 0 0 0 0 0 0 0 0 0 127 0" result="hardAlpha"/>
<feOffset dy="15"/>
<feGaussianBlur stdDeviation="30.5"/>
<feComposite in2="hardAlpha" operator="out"/>
<feColorMatrix type="matrix" values="0 0 0 0 0.546962 0 0 0 0 0.744705 0 0 0 0 0.710315 0 0 0 0.25 0"/>
<feBlend mode="normal" in2="BackgroundImageFix" result="effect1_dropShadow_2134_1810"/>
<feBlend mode="normal" in="SourceGraphic" in2="effect1_dropShadow_2134_1810" result="shape"/>
</filter>
<linearGradient id="paint0_linear_2134_1810" x1="436.5" y1="169" x2="436.5" y2="426" gradientUnits="userSpaceOnUse">
<stop stop-color="#34C759" stop-opacity="0.55"/>
<stop offset="1" stop-color="#34C759" stop-opacity="0.02"/>
</linearGradient>
<linearGradient id="paint1_linear_2134_1810" x1="723" y1="425.61" x2="150" y2="425.61" gradientUnits="userSpaceOnUse">
<stop stop-color="#30B45B"/>
<stop offset="0.281844" stop-color="#FFB801"/>
<stop offset="0.5612" stop-color="#B2CA22"/>
<stop offset="0.810559" stop-color="#FF6719"/>
<stop offset="1" stop-color="#FDCC01"/>
</linearGradient>
<linearGradient id="paint2_linear_2134_1810" x1="436.503" y1="111.625" x2="436.503" y2="424.835" gradientUnits="userSpaceOnUse">
<stop stop-color="#247665"/>
<stop offset="0.250361" stop-color="#34C759"/>
<stop offset="0.500115" stop-color="#FFCC00"/>
<stop offset="0.751304" stop-color="#FF9500"/>
<stop offset="1" stop-color="#FF3B30"/>
</linearGradient>
</defs>
</svg>
