<svg width="830" height="464" viewBox="0 0 830 464" fill="none" xmlns="http://www.w3.org/2000/svg">
<g filter="url(#filter0_d_2146_5988)">
<rect x="73" y="56" width="683.755" height="233.477" rx="31.2693" fill="white"/>
<rect x="73" y="304.07" width="683.755" height="68.7924" rx="31.2693" fill="white"/>
<path d="M623.996 214.472C622.556 214.472 621.155 214.249 619.793 213.801C618.451 213.354 617.351 212.751 616.495 211.992L617.838 209.686C618.519 210.328 619.404 210.854 620.494 211.262C621.583 211.671 622.751 211.875 623.996 211.875C625.513 211.875 626.691 211.554 627.527 210.912C628.383 210.25 628.811 209.365 628.811 208.256C628.811 207.186 628.403 206.33 627.586 205.688C626.788 205.026 625.513 204.696 623.762 204.696H622.128V202.653L628.198 195.181L628.607 196.349H617.429V193.81H630.913V195.794L624.871 203.236L623.354 202.332H624.317C626.788 202.332 628.636 202.886 629.862 203.995C631.107 205.104 631.73 206.515 631.73 208.227C631.73 209.375 631.448 210.426 630.883 211.379C630.319 212.332 629.463 213.091 628.315 213.655C627.187 214.2 625.747 214.472 623.996 214.472ZM640.137 214.472C638.697 214.472 637.296 214.249 635.934 213.801C634.592 213.354 633.493 212.751 632.637 211.992L633.979 209.686C634.66 210.328 635.545 210.854 636.635 211.262C637.724 211.671 638.882 211.875 640.108 211.875C641.664 211.875 642.861 211.544 643.698 210.883C644.534 210.221 644.953 209.336 644.953 208.227C644.953 207.468 644.768 206.807 644.398 206.242C644.028 205.678 643.386 205.25 642.472 204.958C641.577 204.647 640.341 204.491 638.765 204.491H634.125L635.205 193.81H646.733V196.349H636.285L637.802 194.919L636.956 203.353L635.438 201.952H639.378C641.421 201.952 643.065 202.215 644.31 202.74C645.556 203.266 646.46 203.995 647.025 204.929C647.589 205.844 647.871 206.904 647.871 208.11C647.871 209.278 647.589 210.348 647.025 211.321C646.46 212.274 645.604 213.042 644.456 213.626C643.328 214.19 641.888 214.472 640.137 214.472ZM666.342 214.414C665.058 214.414 663.881 214.122 662.811 213.539C661.76 212.935 660.914 212.05 660.272 210.883C659.649 209.715 659.338 208.256 659.338 206.505C659.338 204.754 659.64 203.295 660.243 202.127C660.865 200.96 661.702 200.084 662.753 199.501C663.823 198.917 665.019 198.625 666.342 198.625C667.86 198.625 669.203 198.956 670.37 199.618C671.537 200.279 672.461 201.203 673.142 202.39C673.823 203.557 674.164 204.929 674.164 206.505C674.164 208.081 673.823 209.462 673.142 210.649C672.461 211.836 671.537 212.76 670.37 213.422C669.203 214.083 667.86 214.414 666.342 214.414ZM658.142 219.901V198.771H660.827V202.945L660.651 206.534L660.943 210.124V219.901H658.142ZM666.109 211.963C667.101 211.963 667.987 211.739 668.765 211.291C669.562 210.844 670.185 210.212 670.633 209.394C671.1 208.558 671.333 207.595 671.333 206.505C671.333 205.396 671.1 204.443 670.633 203.645C670.185 202.828 669.562 202.195 668.765 201.748C667.987 201.3 667.101 201.077 666.109 201.077C665.136 201.077 664.251 201.3 663.453 201.748C662.675 202.195 662.052 202.828 661.585 203.645C661.138 204.443 660.914 205.396 660.914 206.505C660.914 207.595 661.138 208.558 661.585 209.394C662.052 210.212 662.675 210.844 663.453 211.291C664.251 211.739 665.136 211.963 666.109 211.963ZM684.297 214.414C682.643 214.414 681.184 214.074 679.919 213.393C678.674 212.712 677.701 211.778 677.001 210.591C676.32 209.404 675.98 208.042 675.98 206.505C675.98 204.968 676.31 203.606 676.972 202.419C677.653 201.232 678.577 200.308 679.744 199.647C680.931 198.966 682.264 198.625 683.743 198.625C685.241 198.625 686.564 198.956 687.712 199.618C688.86 200.279 689.755 201.213 690.397 202.419C691.058 203.606 691.389 204.997 691.389 206.593C691.389 206.709 691.379 206.846 691.36 207.001C691.36 207.157 691.35 207.303 691.331 207.439H678.168V205.425H689.871L688.733 206.126C688.753 205.133 688.548 204.248 688.12 203.47C687.692 202.692 687.099 202.088 686.34 201.66C685.601 201.213 684.735 200.989 683.743 200.989C682.77 200.989 681.904 201.213 681.145 201.66C680.386 202.088 679.793 202.701 679.365 203.499C678.937 204.277 678.723 205.172 678.723 206.184V206.651C678.723 207.682 678.956 208.606 679.423 209.424C679.91 210.221 680.581 210.844 681.437 211.291C682.293 211.739 683.276 211.963 684.385 211.963C685.299 211.963 686.126 211.807 686.865 211.496C687.624 211.184 688.286 210.717 688.85 210.095L690.397 211.904C689.696 212.721 688.821 213.344 687.77 213.772C686.739 214.2 685.581 214.414 684.297 214.414ZM694.654 214.239V198.771H697.339V202.974L697.076 201.923C697.504 200.853 698.224 200.036 699.236 199.472C700.248 198.907 701.493 198.625 702.972 198.625V201.339C702.855 201.32 702.738 201.31 702.622 201.31C702.524 201.31 702.427 201.31 702.33 201.31C700.832 201.31 699.645 201.758 698.769 202.653C697.894 203.548 697.456 204.842 697.456 206.534V214.239H694.654ZM712.399 214.414C710.823 214.414 709.412 214.074 708.167 213.393C706.941 212.712 705.978 211.778 705.278 210.591C704.577 209.404 704.227 208.042 704.227 206.505C704.227 204.968 704.577 203.606 705.278 202.419C705.978 201.232 706.941 200.308 708.167 199.647C709.412 198.966 710.823 198.625 712.399 198.625C713.8 198.625 715.045 198.907 716.134 199.472C717.243 200.016 718.099 200.834 718.703 201.923L716.572 203.295C716.066 202.536 715.444 201.981 714.704 201.631C713.984 201.262 713.206 201.077 712.369 201.077C711.358 201.077 710.453 201.3 709.655 201.748C708.858 202.195 708.225 202.828 707.758 203.645C707.291 204.443 707.058 205.396 707.058 206.505C707.058 207.614 707.291 208.577 707.758 209.394C708.225 210.212 708.858 210.844 709.655 211.291C710.453 211.739 711.358 211.963 712.369 211.963C713.206 211.963 713.984 211.788 714.704 211.437C715.444 211.068 716.066 210.503 716.572 209.745L718.703 211.087C718.099 212.157 717.243 212.984 716.134 213.568C715.045 214.132 713.8 214.414 712.399 214.414Z" fill="black" fill-opacity="0.65"/>
<path d="M674.045 348.746V329.485L675.3 330.856H669.434V328.317H676.935V348.746H674.045ZM680.457 348.746V346.762L688.775 338.736C689.514 338.036 690.059 337.423 690.409 336.897C690.779 336.353 691.022 335.857 691.138 335.409C691.275 334.942 691.343 334.495 691.343 334.067C691.343 333.016 690.973 332.189 690.234 331.586C689.494 330.983 688.415 330.681 686.994 330.681C685.905 330.681 684.922 330.866 684.047 331.236C683.171 331.586 682.412 332.14 681.77 332.899L679.786 331.177C680.564 330.185 681.605 329.426 682.908 328.901C684.231 328.356 685.681 328.084 687.257 328.084C688.677 328.084 689.913 328.317 690.963 328.784C692.014 329.232 692.821 329.883 693.386 330.74C693.969 331.596 694.261 332.607 694.261 333.775C694.261 334.436 694.174 335.088 693.999 335.73C693.823 336.372 693.493 337.053 693.006 337.773C692.52 338.493 691.819 339.3 690.905 340.195L683.492 347.346L682.792 346.207H695.137V348.746H680.457ZM698.837 337.131C698.292 337.131 697.825 336.946 697.436 336.576C697.047 336.187 696.853 335.701 696.853 335.117C696.853 334.534 697.047 334.057 697.436 333.687C697.825 333.318 698.292 333.133 698.837 333.133C699.362 333.133 699.81 333.318 700.18 333.687C700.569 334.057 700.763 334.534 700.763 335.117C700.763 335.701 700.569 336.187 700.18 336.576C699.81 336.946 699.362 337.131 698.837 337.131ZM698.837 348.922C698.292 348.922 697.825 348.737 697.436 348.367C697.047 347.978 696.853 347.492 696.853 346.908C696.853 346.324 697.047 345.847 697.436 345.478C697.825 345.108 698.292 344.923 698.837 344.923C699.362 344.923 699.81 345.108 700.18 345.478C700.569 345.847 700.763 346.324 700.763 346.908C700.763 347.492 700.569 347.978 700.18 348.367C699.81 348.737 699.362 348.922 698.837 348.922ZM706.341 348.746V329.485L707.596 330.856H701.73V328.317H709.231V348.746H706.341ZM721.421 348.98C719.825 348.98 718.395 348.571 717.131 347.754C715.885 346.937 714.893 345.75 714.154 344.194C713.434 342.637 713.074 340.75 713.074 338.532C713.074 336.314 713.434 334.427 714.154 332.87C714.893 331.313 715.885 330.127 717.131 329.309C718.395 328.492 719.825 328.084 721.421 328.084C722.997 328.084 724.417 328.492 725.682 329.309C726.946 330.127 727.939 331.313 728.659 332.87C729.379 334.427 729.738 336.314 729.738 338.532C729.738 340.75 729.379 342.637 728.659 344.194C727.939 345.75 726.946 346.937 725.682 347.754C724.417 348.571 722.997 348.98 721.421 348.98ZM721.421 346.383C722.491 346.383 723.425 346.091 724.223 345.507C725.04 344.923 725.672 344.048 726.12 342.88C726.587 341.713 726.82 340.263 726.82 338.532C726.82 336.8 726.587 335.351 726.12 334.183C725.672 333.016 725.04 332.14 724.223 331.557C723.425 330.973 722.491 330.681 721.421 330.681C720.351 330.681 719.407 330.973 718.59 331.557C717.773 332.14 717.131 333.016 716.664 334.183C716.216 335.351 715.992 336.8 715.992 338.532C715.992 340.263 716.216 341.713 716.664 342.88C717.131 344.048 717.773 344.923 718.59 345.507C719.407 346.091 720.351 346.383 721.421 346.383Z" fill="black" fill-opacity="0.65"/>
<path d="M140.3 348.746V328.317H142.693L156.206 345.098H154.951V328.317H157.869V348.746H155.476L141.964 331.965H143.219V348.746H140.3ZM169.838 348.922C168.184 348.922 166.725 348.581 165.46 347.9C164.215 347.219 163.242 346.285 162.542 345.098C161.861 343.912 161.52 342.55 161.52 341.013C161.52 339.475 161.851 338.114 162.512 336.927C163.193 335.74 164.118 334.816 165.285 334.154C166.472 333.473 167.805 333.133 169.283 333.133C170.781 333.133 172.104 333.463 173.252 334.125C174.4 334.786 175.295 335.72 175.937 336.927C176.599 338.114 176.93 339.505 176.93 341.1C176.93 341.217 176.92 341.353 176.9 341.509C176.9 341.664 176.891 341.81 176.871 341.946H163.709V339.933H175.412L174.274 340.633C174.293 339.641 174.089 338.756 173.661 337.977C173.233 337.199 172.639 336.596 171.881 336.168C171.141 335.72 170.275 335.497 169.283 335.497C168.31 335.497 167.445 335.72 166.686 336.168C165.927 336.596 165.334 337.209 164.905 338.007C164.477 338.785 164.263 339.68 164.263 340.691V341.158C164.263 342.19 164.497 343.114 164.964 343.931C165.45 344.729 166.122 345.351 166.978 345.799C167.834 346.246 168.816 346.47 169.925 346.47C170.84 346.47 171.667 346.314 172.406 346.003C173.165 345.692 173.826 345.225 174.391 344.602L175.937 346.412C175.237 347.229 174.361 347.851 173.311 348.28C172.279 348.708 171.122 348.922 169.838 348.922ZM167.065 331.031L171.034 327.237H174.595L169.692 331.031H167.065ZM199.544 333.133C200.789 333.133 201.889 333.376 202.842 333.862C203.795 334.349 204.535 335.088 205.06 336.08C205.605 337.073 205.877 338.328 205.877 339.845V348.746H203.075V340.166C203.075 338.668 202.725 337.54 202.025 336.781C201.324 336.022 200.342 335.643 199.077 335.643C198.143 335.643 197.326 335.837 196.626 336.226C195.925 336.615 195.38 337.189 194.991 337.948C194.622 338.707 194.437 339.651 194.437 340.779V348.746H191.635V340.166C191.635 338.668 191.285 337.54 190.584 336.781C189.903 336.022 188.921 335.643 187.637 335.643C186.722 335.643 185.915 335.837 185.214 336.226C184.514 336.615 183.969 337.189 183.58 337.948C183.191 338.707 182.996 339.651 182.996 340.779V348.746H180.195V333.279H182.88V337.394L182.442 336.343C182.928 335.331 183.677 334.543 184.689 333.979C185.701 333.415 186.878 333.133 188.22 333.133C189.699 333.133 190.973 333.502 192.044 334.242C193.114 334.962 193.814 336.061 194.145 337.54L193.007 337.073C193.474 335.886 194.291 334.932 195.458 334.213C196.626 333.493 197.988 333.133 199.544 333.133ZM217.295 348.922C215.641 348.922 214.181 348.581 212.917 347.9C211.672 347.219 210.699 346.285 209.998 345.098C209.317 343.912 208.977 342.55 208.977 341.013C208.977 339.475 209.308 338.114 209.969 336.927C210.65 335.74 211.574 334.816 212.742 334.154C213.929 333.473 215.261 333.133 216.74 333.133C218.238 333.133 219.561 333.463 220.709 334.125C221.857 334.786 222.752 335.72 223.394 336.927C224.056 338.114 224.386 339.505 224.386 341.1C224.386 341.217 224.377 341.353 224.357 341.509C224.357 341.664 224.347 341.81 224.328 341.946H211.166V339.933H222.869L221.731 340.633C221.75 339.641 221.546 338.756 221.118 337.977C220.69 337.199 220.096 336.596 219.337 336.168C218.598 335.72 217.732 335.497 216.74 335.497C215.767 335.497 214.901 335.72 214.143 336.168C213.384 336.596 212.79 337.209 212.362 338.007C211.934 338.785 211.72 339.68 211.72 340.691V341.158C211.72 342.19 211.954 343.114 212.421 343.931C212.907 344.729 213.578 345.351 214.434 345.799C215.291 346.246 216.273 346.47 217.382 346.47C218.297 346.47 219.123 346.314 219.863 346.003C220.622 345.692 221.283 345.225 221.847 344.602L223.394 346.412C222.694 347.229 221.818 347.851 220.767 348.28C219.736 348.708 218.579 348.922 217.295 348.922ZM232.963 348.922C231.407 348.922 230.2 348.503 229.344 347.667C228.488 346.83 228.06 345.633 228.06 344.077V329.893H230.862V343.96C230.862 344.797 231.066 345.439 231.475 345.886C231.903 346.334 232.506 346.558 233.284 346.558C234.16 346.558 234.889 346.314 235.473 345.828L236.348 347.842C235.92 348.211 235.405 348.484 234.802 348.659C234.218 348.834 233.605 348.922 232.963 348.922ZM225.433 335.584V333.279H235.298V335.584H225.433ZM249.912 354.408C248.803 352.638 247.947 350.595 247.344 348.28C246.741 345.945 246.439 343.435 246.439 340.75C246.439 338.065 246.741 335.555 247.344 333.22C247.947 330.866 248.803 328.823 249.912 327.091H252.568C251.401 329.154 250.545 331.313 250 333.57C249.455 335.808 249.183 338.201 249.183 340.75C249.183 343.299 249.455 345.702 250 347.958C250.545 350.196 251.401 352.346 252.568 354.408H249.912ZM253.954 348.746V346.762L262.272 338.736C263.011 338.036 263.556 337.423 263.906 336.897C264.276 336.353 264.519 335.857 264.636 335.409C264.772 334.942 264.84 334.495 264.84 334.067C264.84 333.016 264.47 332.189 263.731 331.586C262.992 330.983 261.912 330.681 260.491 330.681C259.402 330.681 258.419 330.866 257.544 331.236C256.668 331.586 255.909 332.14 255.267 332.899L253.283 331.177C254.061 330.185 255.102 329.426 256.406 328.901C257.729 328.356 259.178 328.084 260.754 328.084C262.174 328.084 263.41 328.317 264.46 328.784C265.511 329.232 266.319 329.883 266.883 330.74C267.466 331.596 267.758 332.607 267.758 333.775C267.758 334.436 267.671 335.088 267.496 335.73C267.321 336.372 266.99 337.053 266.503 337.773C266.017 338.493 265.317 339.3 264.402 340.195L256.989 347.346L256.289 346.207H268.634V348.746H253.954ZM272.619 348.922C272.074 348.922 271.607 348.737 271.218 348.367C270.829 347.978 270.635 347.492 270.635 346.908C270.635 346.324 270.829 345.847 271.218 345.478C271.607 345.108 272.074 344.923 272.619 344.923C273.145 344.923 273.592 345.108 273.962 345.478C274.351 345.847 274.545 346.324 274.545 346.908C274.545 347.492 274.351 347.978 273.962 348.367C273.592 348.737 273.145 348.922 272.619 348.922ZM278.869 354.408H276.213C277.4 352.346 278.265 350.196 278.81 347.958C279.355 345.702 279.627 343.299 279.627 340.75C279.627 338.201 279.355 335.808 278.81 333.57C278.265 331.313 277.4 329.154 276.213 327.091H278.869C280.017 328.823 280.882 330.866 281.466 333.22C282.069 335.555 282.371 338.065 282.371 340.75C282.371 343.435 282.069 345.945 281.466 348.28C280.882 350.595 280.017 352.638 278.869 354.408Z" fill="black"/>
<path d="M130.588 340.348C131.224 339.713 131.224 338.682 130.588 338.046L120.228 327.686C119.592 327.05 118.561 327.05 117.925 327.686C117.29 328.321 117.29 329.352 117.925 329.988L127.135 339.197L117.925 348.407C117.29 349.042 117.29 350.073 117.925 350.709C118.561 351.345 119.592 351.345 120.228 350.709L130.588 340.348ZM105.56 340.825H129.437V337.569H105.56V340.825Z" fill="black"/>
<path d="M105.907 123.134V92.7453H111.725L124.662 114.191H121.58L134.3 92.7453H140.074L140.16 123.134H133.562L133.518 102.861H134.734L124.575 119.922H121.406L111.03 102.861H112.506V123.134H105.907ZM160.594 123.134V118.576L160.16 117.578V109.416C160.16 107.969 159.711 106.84 158.814 106.03C157.945 105.219 156.6 104.814 154.776 104.814C153.532 104.814 152.302 105.017 151.086 105.422C149.9 105.798 148.887 106.319 148.047 106.985L145.616 102.253C146.89 101.356 148.424 100.661 150.218 100.169C152.012 99.6769 153.836 99.4309 155.688 99.4309C159.248 99.4309 162.012 100.27 163.98 101.949C165.948 103.627 166.932 106.247 166.932 109.807V123.134H160.594ZM153.474 123.482C151.651 123.482 150.088 123.178 148.785 122.57C147.483 121.933 146.484 121.08 145.79 120.009C145.095 118.938 144.748 117.737 144.748 116.405C144.748 115.016 145.081 113.801 145.746 112.759C146.441 111.717 147.526 110.906 149.002 110.328C150.478 109.72 152.403 109.416 154.776 109.416H160.984V113.366H155.514C153.923 113.366 152.823 113.627 152.215 114.148C151.636 114.669 151.347 115.32 151.347 116.101C151.347 116.97 151.68 117.664 152.345 118.185C153.04 118.677 153.98 118.923 155.167 118.923C156.296 118.923 157.309 118.663 158.206 118.142C159.103 117.592 159.754 116.796 160.16 115.754L161.201 118.88C160.709 120.385 159.812 121.528 158.51 122.31C157.207 123.091 155.529 123.482 153.474 123.482ZM181.987 123.482C179.237 123.482 177.096 122.787 175.562 121.398C174.028 119.98 173.261 117.881 173.261 115.103V94.6121H180.033V115.016C180.033 116 180.294 116.767 180.815 117.317C181.336 117.838 182.045 118.098 182.942 118.098C184.013 118.098 184.924 117.809 185.677 117.23L187.5 122.006C186.806 122.498 185.966 122.874 184.982 123.134C184.027 123.366 183.029 123.482 181.987 123.482ZM169.657 105.509V100.299H185.851V105.509H169.657ZM201.547 123.482C198.884 123.482 196.54 122.961 194.514 121.919C192.517 120.877 190.969 119.459 189.869 117.664C188.769 115.841 188.219 113.772 188.219 111.456C188.219 109.112 188.755 107.043 189.826 105.248C190.925 103.425 192.416 102.007 194.297 100.994C196.178 99.9519 198.306 99.4309 200.679 99.4309C202.965 99.4309 205.02 99.9229 206.843 100.907C208.696 101.862 210.157 103.251 211.228 105.075C212.299 106.869 212.834 109.025 212.834 111.543C212.834 111.804 212.82 112.107 212.791 112.455C212.762 112.773 212.733 113.077 212.704 113.366H193.733V109.416H209.144L206.54 110.588C206.54 109.372 206.294 108.316 205.802 107.419C205.31 106.522 204.629 105.827 203.761 105.335C202.893 104.814 201.88 104.554 200.722 104.554C199.565 104.554 198.537 104.814 197.64 105.335C196.772 105.827 196.092 106.536 195.6 107.462C195.108 108.36 194.861 109.43 194.861 110.675V111.717C194.861 112.99 195.136 114.119 195.686 115.103C196.265 116.058 197.061 116.796 198.074 117.317C199.116 117.809 200.332 118.055 201.721 118.055C202.965 118.055 204.051 117.867 204.977 117.491C205.932 117.114 206.8 116.55 207.582 115.798L211.185 119.705C210.114 120.92 208.768 121.861 207.147 122.527C205.527 123.163 203.66 123.482 201.547 123.482ZM246.629 99.4309C248.482 99.4309 250.117 99.8071 251.535 100.56C252.982 101.283 254.111 102.412 254.921 103.946C255.761 105.451 256.18 107.39 256.18 109.763V123.134H249.408V110.805C249.408 108.924 249.017 107.535 248.236 106.637C247.454 105.74 246.355 105.292 244.936 105.292C243.952 105.292 243.07 105.523 242.288 105.986C241.507 106.42 240.899 107.086 240.465 107.983C240.031 108.88 239.814 110.024 239.814 111.413V123.134H233.041V110.805C233.041 108.924 232.651 107.535 231.869 106.637C231.117 105.74 230.031 105.292 228.613 105.292C227.629 105.292 226.746 105.523 225.965 105.986C225.183 106.42 224.576 107.086 224.142 107.983C223.707 108.88 223.49 110.024 223.49 111.413V123.134H216.718V99.7782H223.186V106.16L221.971 104.293C222.781 102.701 223.924 101.5 225.401 100.69C226.906 99.8506 228.613 99.4309 230.523 99.4309C232.665 99.4309 234.532 99.9808 236.124 101.081C237.744 102.151 238.815 103.801 239.336 106.03L236.948 105.378C237.73 103.555 238.974 102.108 240.682 101.037C242.418 99.9663 244.401 99.4309 246.629 99.4309ZM275.952 123.134V118.576L275.517 117.578V109.416C275.517 107.969 275.069 106.84 274.172 106.03C273.303 105.219 271.958 104.814 270.134 104.814C268.89 104.814 267.66 105.017 266.444 105.422C265.258 105.798 264.245 106.319 263.405 106.985L260.974 102.253C262.248 101.356 263.782 100.661 265.576 100.169C267.37 99.6769 269.194 99.4309 271.046 99.4309C274.606 99.4309 277.37 100.27 279.338 101.949C281.306 103.627 282.29 106.247 282.29 109.807V123.134H275.952ZM268.832 123.482C267.009 123.482 265.446 123.178 264.143 122.57C262.841 121.933 261.842 121.08 261.148 120.009C260.453 118.938 260.106 117.737 260.106 116.405C260.106 115.016 260.439 113.801 261.104 112.759C261.799 111.717 262.884 110.906 264.36 110.328C265.836 109.72 267.761 109.416 270.134 109.416H276.342V113.366H270.872C269.28 113.366 268.181 113.627 267.573 114.148C266.994 114.669 266.705 115.32 266.705 116.101C266.705 116.97 267.037 117.664 267.703 118.185C268.398 118.677 269.338 118.923 270.525 118.923C271.654 118.923 272.667 118.663 273.564 118.142C274.461 117.592 275.112 116.796 275.517 115.754L276.559 118.88C276.067 120.385 275.17 121.528 273.868 122.31C272.565 123.091 270.887 123.482 268.832 123.482ZM297.345 123.482C294.595 123.482 292.454 122.787 290.92 121.398C289.386 119.98 288.619 117.881 288.619 115.103V94.6121H295.391V115.016C295.391 116 295.652 116.767 296.173 117.317C296.694 117.838 297.403 118.098 298.3 118.098C299.371 118.098 300.282 117.809 301.035 117.23L302.858 122.006C302.164 122.498 301.324 122.874 300.34 123.134C299.385 123.366 298.387 123.482 297.345 123.482ZM285.015 105.509V100.299H301.209V105.509H285.015ZM306.035 123.134V99.7782H312.807V123.134H306.035ZM309.421 96.5222C308.176 96.5222 307.163 96.1605 306.382 95.4369C305.6 94.7134 305.21 93.8161 305.21 92.7453C305.21 91.6744 305.6 90.7772 306.382 90.0537C307.163 89.3301 308.176 88.9684 309.421 88.9684C310.665 88.9684 311.678 89.3157 312.46 90.0103C313.241 90.6759 313.632 91.5442 313.632 92.6151C313.632 93.7438 313.241 94.6844 312.46 95.4369C311.707 96.1605 310.694 96.5222 309.421 96.5222ZM324.067 118.359L324.241 110.11L335.138 99.7782H343.212L332.75 110.414L329.233 113.28L324.067 118.359ZM318.467 123.134V90.922H325.239V123.134H318.467ZM335.876 123.134L327.974 113.323L332.229 108.07L344.081 123.134H335.876ZM360.403 123.134V118.576L359.969 117.578V109.416C359.969 107.969 359.521 106.84 358.623 106.03C357.755 105.219 356.409 104.814 354.586 104.814C353.341 104.814 352.111 105.017 350.896 105.422C349.709 105.798 348.696 106.319 347.857 106.985L345.426 102.253C346.699 101.356 348.233 100.661 350.028 100.169C351.822 99.6769 353.645 99.4309 355.498 99.4309C359.057 99.4309 361.821 100.27 363.789 101.949C365.758 103.627 366.742 106.247 366.742 109.807V123.134H360.403ZM353.284 123.482C351.46 123.482 349.897 123.178 348.595 122.57C347.293 121.933 346.294 121.08 345.599 120.009C344.905 118.938 344.558 117.737 344.558 116.405C344.558 115.016 344.89 113.801 345.556 112.759C346.251 111.717 347.336 110.906 348.812 110.328C350.288 109.72 352.213 109.416 354.586 109.416H360.794V113.366H355.324C353.732 113.366 352.632 113.627 352.025 114.148C351.446 114.669 351.156 115.32 351.156 116.101C351.156 116.97 351.489 117.664 352.155 118.185C352.849 118.677 353.79 118.923 354.977 118.923C356.105 118.923 357.118 118.663 358.016 118.142C358.913 117.592 359.564 116.796 359.969 115.754L361.011 118.88C360.519 120.385 359.622 121.528 358.319 122.31C357.017 123.091 355.338 123.482 353.284 123.482Z" fill="#0A4135"/>
<path d="M105.369 161.058V140.629H107.762L116.926 156.068H115.642L124.689 140.629H127.082L127.111 161.058H124.309L124.28 145.036H124.951L116.897 158.577H115.554L107.441 145.036H108.17V161.058H105.369ZM141.81 161.058V157.789L141.664 157.177V151.602C141.664 150.415 141.314 149.501 140.613 148.859C139.932 148.197 138.901 147.867 137.52 147.867C136.605 147.867 135.71 148.022 134.835 148.334C133.959 148.625 133.22 149.024 132.617 149.53L131.449 147.429C132.247 146.787 133.201 146.3 134.31 145.97C135.438 145.619 136.615 145.444 137.841 145.444C139.962 145.444 141.596 145.96 142.744 146.991C143.892 148.022 144.466 149.598 144.466 151.719V161.058H141.81ZM136.732 161.233C135.584 161.233 134.572 161.039 133.697 160.65C132.841 160.26 132.179 159.725 131.712 159.044C131.245 158.344 131.012 157.556 131.012 156.68C131.012 155.844 131.206 155.085 131.595 154.404C132.004 153.723 132.656 153.178 133.551 152.77C134.465 152.361 135.691 152.157 137.228 152.157H142.131V154.171H137.345C135.944 154.171 135 154.404 134.514 154.871C134.027 155.338 133.784 155.902 133.784 156.564C133.784 157.322 134.086 157.935 134.689 158.402C135.292 158.85 136.129 159.074 137.199 159.074C138.249 159.074 139.164 158.84 139.942 158.373C140.74 157.906 141.314 157.225 141.664 156.33L142.219 158.256C141.849 159.171 141.197 159.9 140.263 160.445C139.329 160.971 138.152 161.233 136.732 161.233ZM135.856 143.343L139.825 139.549H143.386L138.483 143.343H135.856ZM153.461 161.233C152.177 161.233 150.951 161.058 149.784 160.708C148.636 160.358 147.731 159.93 147.07 159.424L148.237 157.206C148.899 157.653 149.716 158.033 150.689 158.344C151.662 158.655 152.654 158.811 153.666 158.811C154.969 158.811 155.903 158.626 156.467 158.256C157.051 157.887 157.343 157.371 157.343 156.71C157.343 156.223 157.168 155.844 156.818 155.571C156.467 155.299 156 155.095 155.417 154.959C154.852 154.822 154.22 154.706 153.52 154.608C152.819 154.492 152.119 154.355 151.418 154.2C150.718 154.025 150.076 153.791 149.492 153.499C148.909 153.188 148.442 152.77 148.091 152.244C147.741 151.7 147.566 150.98 147.566 150.085C147.566 149.151 147.829 148.334 148.354 147.633C148.879 146.933 149.619 146.398 150.572 146.028C151.545 145.639 152.693 145.444 154.016 145.444C155.028 145.444 156.049 145.571 157.08 145.824C158.131 146.057 158.987 146.398 159.648 146.845L158.452 149.063C157.751 148.596 157.022 148.275 156.263 148.1C155.504 147.925 154.745 147.837 153.987 147.837C152.761 147.837 151.846 148.042 151.243 148.45C150.64 148.839 150.339 149.345 150.339 149.968C150.339 150.493 150.514 150.902 150.864 151.194C151.234 151.466 151.701 151.68 152.265 151.836C152.848 151.991 153.49 152.128 154.191 152.244C154.891 152.342 155.592 152.478 156.292 152.653C156.993 152.809 157.625 153.032 158.189 153.324C158.773 153.616 159.24 154.025 159.59 154.55C159.96 155.075 160.145 155.776 160.145 156.651C160.145 157.585 159.872 158.393 159.327 159.074C158.783 159.755 158.014 160.29 157.022 160.679C156.03 161.048 154.843 161.233 153.461 161.233ZM169.646 161.233C168.089 161.233 166.708 160.893 165.501 160.212C164.295 159.531 163.342 158.597 162.641 157.41C161.941 156.204 161.591 154.842 161.591 153.324C161.591 151.787 161.941 150.425 162.641 149.238C163.342 148.051 164.295 147.127 165.501 146.466C166.708 145.785 168.089 145.444 169.646 145.444C171.183 145.444 172.554 145.785 173.761 146.466C174.986 147.127 175.94 148.051 176.621 149.238C177.321 150.406 177.671 151.768 177.671 153.324C177.671 154.861 177.321 156.223 176.621 157.41C175.94 158.597 174.986 159.531 173.761 160.212C172.554 160.893 171.183 161.233 169.646 161.233ZM169.646 158.782C170.638 158.782 171.523 158.558 172.301 158.11C173.099 157.663 173.722 157.031 174.169 156.213C174.617 155.377 174.84 154.414 174.84 153.324C174.84 152.215 174.617 151.262 174.169 150.464C173.722 149.647 173.099 149.015 172.301 148.567C171.523 148.12 170.638 147.896 169.646 147.896C168.653 147.896 167.768 148.12 166.99 148.567C166.212 149.015 165.589 149.647 165.122 150.464C164.655 151.262 164.422 152.215 164.422 153.324C164.422 154.414 164.655 155.377 165.122 156.213C165.589 157.031 166.212 157.663 166.99 158.11C167.768 158.558 168.653 158.782 169.646 158.782ZM187.312 161.233C185.814 161.233 184.472 160.902 183.285 160.241C182.117 159.579 181.193 158.655 180.512 157.468C179.831 156.282 179.491 154.9 179.491 153.324C179.491 151.748 179.831 150.377 180.512 149.209C181.193 148.022 182.117 147.098 183.285 146.437C184.472 145.775 185.814 145.444 187.312 145.444C188.616 145.444 189.793 145.736 190.844 146.32C191.894 146.904 192.731 147.779 193.353 148.946C193.995 150.114 194.316 151.573 194.316 153.324C194.316 155.075 194.005 156.534 193.383 157.702C192.779 158.869 191.953 159.755 190.902 160.358C189.851 160.941 188.655 161.233 187.312 161.233ZM187.546 158.782C188.518 158.782 189.394 158.558 190.172 158.11C190.97 157.663 191.593 157.031 192.04 156.213C192.507 155.377 192.741 154.414 192.741 153.324C192.741 152.215 192.507 151.262 192.04 150.464C191.593 149.647 190.97 149.015 190.172 148.567C189.394 148.12 188.518 147.896 187.546 147.896C186.553 147.896 185.668 148.12 184.89 148.567C184.112 149.015 183.489 149.647 183.022 150.464C182.555 151.262 182.322 152.215 182.322 153.324C182.322 154.414 182.555 155.377 183.022 156.213C183.489 157.031 184.112 157.663 184.89 158.11C185.668 158.558 186.553 158.782 187.546 158.782ZM192.828 161.058V156.885L193.003 153.295L192.711 149.705V139.403H195.513V161.058H192.828ZM200.597 161.058V144.219C200.597 142.701 201.035 141.495 201.911 140.6C202.806 139.685 204.07 139.228 205.705 139.228C206.308 139.228 206.882 139.306 207.427 139.461C207.991 139.598 208.467 139.821 208.857 140.133L208.01 142.263C207.718 142.03 207.388 141.855 207.018 141.738C206.648 141.602 206.259 141.534 205.851 141.534C205.033 141.534 204.411 141.767 203.983 142.234C203.555 142.682 203.341 143.353 203.341 144.248V146.32L203.399 147.604V161.058H200.597ZM197.971 147.896V145.59H207.835V147.896H197.971ZM216.249 161.233C214.693 161.233 213.311 160.893 212.105 160.212C210.899 159.531 209.945 158.597 209.245 157.41C208.544 156.204 208.194 154.842 208.194 153.324C208.194 151.787 208.544 150.425 209.245 149.238C209.945 148.051 210.899 147.127 212.105 146.466C213.311 145.785 214.693 145.444 216.249 145.444C217.786 145.444 219.158 145.785 220.364 146.466C221.59 147.127 222.543 148.051 223.224 149.238C223.925 150.406 224.275 151.768 224.275 153.324C224.275 154.861 223.925 156.223 223.224 157.41C222.543 158.597 221.59 159.531 220.364 160.212C219.158 160.893 217.786 161.233 216.249 161.233ZM216.249 158.782C217.241 158.782 218.127 158.558 218.905 158.11C219.703 157.663 220.325 157.031 220.773 156.213C221.22 155.377 221.444 154.414 221.444 153.324C221.444 152.215 221.22 151.262 220.773 150.464C220.325 149.647 219.703 149.015 218.905 148.567C218.127 148.12 217.241 147.896 216.249 147.896C215.257 147.896 214.371 148.12 213.593 148.567C212.815 149.015 212.192 149.647 211.725 150.464C211.258 151.262 211.025 152.215 211.025 153.324C211.025 154.414 211.258 155.377 211.725 156.213C212.192 157.031 212.815 157.663 213.593 158.11C214.371 158.558 215.257 158.782 216.249 158.782ZM229.801 157.322L229.859 153.733L238.76 145.59H242.146L235.316 152.303L233.799 153.587L229.801 157.322ZM227.524 161.058V139.403H230.326V161.058H227.524ZM239.344 161.058L233.274 153.528L235.083 151.281L242.788 161.058H239.344ZM251.106 161.233C249.783 161.233 248.615 160.99 247.604 160.504C246.611 160.017 245.833 159.278 245.269 158.286C244.724 157.274 244.452 156.009 244.452 154.492V145.59H247.253V154.171C247.253 155.688 247.613 156.826 248.333 157.585C249.073 158.344 250.104 158.723 251.427 158.723C252.4 158.723 253.246 158.529 253.966 158.14C254.686 157.731 255.24 157.147 255.629 156.389C256.019 155.61 256.213 154.676 256.213 153.587V145.59H259.015V161.058H256.359V156.885L256.797 157.994C256.291 159.025 255.532 159.823 254.52 160.387C253.509 160.951 252.371 161.233 251.106 161.233ZM249.559 143.343L253.528 139.549H257.089L252.186 143.343H249.559ZM277.823 161.233C276.169 161.233 274.71 160.893 273.445 160.212C272.2 159.531 271.227 158.597 270.527 157.41C269.846 156.223 269.505 154.861 269.505 153.324C269.505 151.787 269.836 150.425 270.498 149.238C271.179 148.051 272.103 147.127 273.27 146.466C274.457 145.785 275.79 145.444 277.269 145.444C278.767 145.444 280.09 145.775 281.238 146.437C282.386 147.098 283.281 148.032 283.923 149.238C284.584 150.425 284.915 151.816 284.915 153.412C284.915 153.528 284.905 153.665 284.886 153.82C284.886 153.976 284.876 154.122 284.857 154.258H271.694V152.244H283.397L282.259 152.945C282.279 151.952 282.074 151.067 281.646 150.289C281.218 149.511 280.625 148.908 279.866 148.48C279.127 148.032 278.261 147.808 277.269 147.808C276.296 147.808 275.43 148.032 274.671 148.48C273.912 148.908 273.319 149.52 272.891 150.318C272.463 151.096 272.249 151.991 272.249 153.003V153.47C272.249 154.501 272.482 155.425 272.949 156.243C273.436 157.04 274.107 157.663 274.963 158.11C275.819 158.558 276.802 158.782 277.911 158.782C278.825 158.782 279.652 158.626 280.391 158.315C281.15 158.003 281.812 157.536 282.376 156.914L283.923 158.723C283.222 159.541 282.347 160.163 281.296 160.591C280.265 161.019 279.107 161.233 277.823 161.233ZM294.951 166.895C293.531 166.895 292.149 166.691 290.807 166.282C289.484 165.893 288.404 165.329 287.567 164.589L288.91 162.43C289.63 163.052 290.515 163.539 291.565 163.889C292.616 164.259 293.715 164.444 294.863 164.444C296.692 164.444 298.035 164.015 298.891 163.159C299.747 162.303 300.175 161 300.175 159.249V155.98L300.467 152.916L300.321 149.822V145.59H302.977V158.957C302.977 161.681 302.296 163.685 300.934 164.969C299.572 166.253 297.577 166.895 294.951 166.895ZM294.601 160.416C293.102 160.416 291.76 160.105 290.573 159.482C289.406 158.84 288.472 157.955 287.771 156.826C287.09 155.698 286.75 154.394 286.75 152.916C286.75 151.417 287.09 150.114 287.771 149.005C288.472 147.876 289.406 147.001 290.573 146.378C291.76 145.756 293.102 145.444 294.601 145.444C295.924 145.444 297.13 145.717 298.22 146.261C299.309 146.787 300.175 147.604 300.817 148.713C301.478 149.822 301.809 151.223 301.809 152.916C301.809 154.589 301.478 155.98 300.817 157.089C300.175 158.198 299.309 159.035 298.22 159.599C297.13 160.144 295.924 160.416 294.601 160.416ZM294.922 157.965C295.953 157.965 296.867 157.751 297.665 157.322C298.463 156.894 299.085 156.301 299.533 155.542C300 154.783 300.233 153.908 300.233 152.916C300.233 151.923 300 151.048 299.533 150.289C299.085 149.53 298.463 148.946 297.665 148.538C296.867 148.11 295.953 147.896 294.922 147.896C293.89 147.896 292.966 148.11 292.149 148.538C291.351 148.946 290.719 149.53 290.252 150.289C289.805 151.048 289.581 151.923 289.581 152.916C289.581 153.908 289.805 154.783 290.252 155.542C290.719 156.301 291.351 156.894 292.149 157.322C292.966 157.751 293.89 157.965 294.922 157.965ZM308.376 166.895C307.636 166.895 306.917 166.769 306.216 166.516C305.516 166.282 304.913 165.932 304.407 165.465L305.603 163.364C305.992 163.733 306.42 164.015 306.887 164.21C307.354 164.405 307.851 164.502 308.376 164.502C309.057 164.502 309.621 164.327 310.069 163.977C310.516 163.626 310.934 163.004 311.323 162.109L312.287 159.978L312.578 159.628L318.649 145.59H321.392L313.892 162.605C313.444 163.694 312.938 164.551 312.374 165.173C311.829 165.796 311.226 166.234 310.565 166.486C309.903 166.759 309.174 166.895 308.376 166.895ZM312.053 161.554L304.99 145.59H307.909L313.921 159.365L312.053 161.554ZM329.842 161.233C328.188 161.233 326.729 160.893 325.464 160.212C324.219 159.531 323.246 158.597 322.545 157.41C321.864 156.223 321.524 154.861 321.524 153.324C321.524 151.787 321.855 150.425 322.516 149.238C323.197 148.051 324.121 147.127 325.289 146.466C326.476 145.785 327.808 145.444 329.287 145.444C330.785 145.444 332.108 145.775 333.256 146.437C334.404 147.098 335.299 148.032 335.941 149.238C336.603 150.425 336.934 151.816 336.934 153.412C336.934 153.528 336.924 153.665 336.904 153.82C336.904 153.976 336.895 154.122 336.875 154.258H323.713V152.244H335.416L334.278 152.945C334.297 151.952 334.093 151.067 333.665 150.289C333.237 149.511 332.643 148.908 331.885 148.48C331.145 148.032 330.279 147.808 329.287 147.808C328.314 147.808 327.448 148.032 326.69 148.48C325.931 148.908 325.337 149.52 324.909 150.318C324.481 151.096 324.267 151.991 324.267 153.003V153.47C324.267 154.501 324.501 155.425 324.968 156.243C325.454 157.04 326.125 157.663 326.982 158.11C327.838 158.558 328.82 158.782 329.929 158.782C330.844 158.782 331.671 158.626 332.41 158.315C333.169 158.003 333.83 157.536 334.394 156.914L335.941 158.723C335.241 159.541 334.365 160.163 333.315 160.591C332.283 161.019 331.126 161.233 329.842 161.233ZM348.458 145.444C349.722 145.444 350.832 145.688 351.785 146.174C352.758 146.66 353.517 147.4 354.061 148.392C354.606 149.384 354.878 150.639 354.878 152.157V161.058H352.077V152.478C352.077 150.98 351.707 149.851 350.968 149.092C350.248 148.334 349.226 147.954 347.903 147.954C346.911 147.954 346.045 148.149 345.306 148.538C344.567 148.927 343.993 149.501 343.584 150.26C343.195 151.019 343 151.962 343 153.091V161.058H340.199V145.59H342.884V149.764L342.446 148.655C342.952 147.643 343.73 146.855 344.781 146.291C345.831 145.726 347.057 145.444 348.458 145.444ZM359.438 161.058V139.403H362.24V161.058H359.438ZM373.852 161.233C372.198 161.233 370.738 160.893 369.474 160.212C368.229 159.531 367.256 158.597 366.555 157.41C365.874 156.223 365.534 154.861 365.534 153.324C365.534 151.787 365.865 150.425 366.526 149.238C367.207 148.051 368.131 147.127 369.299 146.466C370.486 145.785 371.818 145.444 373.297 145.444C374.795 145.444 376.118 145.775 377.266 146.437C378.414 147.098 379.309 148.032 379.951 149.238C380.613 150.425 380.943 151.816 380.943 153.412C380.943 153.528 380.934 153.665 380.914 153.82C380.914 153.976 380.904 154.122 380.885 154.258H367.723V152.244H379.426L378.288 152.945C378.307 151.952 378.103 151.067 377.675 150.289C377.247 149.511 376.653 148.908 375.894 148.48C375.155 148.032 374.289 147.808 373.297 147.808C372.324 147.808 371.458 148.032 370.7 148.48C369.941 148.908 369.347 149.52 368.919 150.318C368.491 151.096 368.277 151.991 368.277 153.003V153.47C368.277 154.501 368.511 155.425 368.978 156.243C369.464 157.04 370.135 157.663 370.991 158.11C371.848 158.558 372.83 158.782 373.939 158.782C374.854 158.782 375.68 158.626 376.42 158.315C377.179 158.003 377.84 157.536 378.404 156.914L379.951 158.723C379.251 159.541 378.375 160.163 377.324 160.591C376.293 161.019 375.136 161.233 373.852 161.233ZM389.52 161.233C387.964 161.233 386.757 160.815 385.901 159.978C385.045 159.142 384.617 157.945 384.617 156.389V142.205H387.419V156.272C387.419 157.108 387.623 157.751 388.032 158.198C388.46 158.646 389.063 158.869 389.841 158.869C390.717 158.869 391.446 158.626 392.03 158.14L392.905 160.153C392.477 160.523 391.962 160.795 391.359 160.971C390.775 161.146 390.162 161.233 389.52 161.233ZM381.99 147.896V145.59H391.855V147.896H381.99ZM402.042 161.233C400.388 161.233 398.929 160.893 397.664 160.212C396.419 159.531 395.446 158.597 394.746 157.41C394.065 156.223 393.724 154.861 393.724 153.324C393.724 151.787 394.055 150.425 394.717 149.238C395.398 148.051 396.322 147.127 397.489 146.466C398.676 145.785 400.009 145.444 401.487 145.444C402.986 145.444 404.309 145.775 405.456 146.437C406.604 147.098 407.499 148.032 408.141 149.238C408.803 150.425 409.134 151.816 409.134 153.412C409.134 153.528 409.124 153.665 409.105 153.82C409.105 153.976 409.095 154.122 409.075 154.258H395.913V152.244H407.616L406.478 152.945C406.497 151.952 406.293 151.067 405.865 150.289C405.437 149.511 404.844 148.908 404.085 148.48C403.345 148.032 402.48 147.808 401.487 147.808C400.515 147.808 399.649 148.032 398.89 148.48C398.131 148.908 397.538 149.52 397.11 150.318C396.682 151.096 396.468 151.991 396.468 153.003V153.47C396.468 154.501 396.701 155.425 397.168 156.243C397.654 157.04 398.326 157.663 399.182 158.11C400.038 158.558 401.02 158.782 402.129 158.782C403.044 158.782 403.871 158.626 404.61 158.315C405.369 158.003 406.03 157.536 406.595 156.914L408.141 158.723C407.441 159.541 406.566 160.163 405.515 160.591C404.484 161.019 403.326 161.233 402.042 161.233ZM414.675 157.322L414.734 153.733L423.635 145.59H427.02L420.191 152.303L418.674 153.587L414.675 157.322ZM412.399 161.058V139.403H415.201V161.058H412.399ZM424.219 161.058L418.148 153.528L419.958 151.281L427.662 161.058H424.219Z" fill="black" fill-opacity="0.7"/>
<rect x="191.301" y="186.239" width="65.1195" height="35.8157" rx="17.9079" fill="#247665" fill-opacity="0.27"/>
<path d="M207.988 214.239V194.977L209.243 196.349H203.377V193.81H210.877V214.239H207.988ZM214.399 214.239V212.254L222.717 204.229C223.456 203.528 224.001 202.915 224.351 202.39C224.721 201.845 224.964 201.349 225.081 200.902C225.217 200.435 225.285 199.987 225.285 199.559C225.285 198.508 224.915 197.682 224.176 197.078C223.437 196.475 222.357 196.174 220.937 196.174C219.847 196.174 218.865 196.359 217.989 196.728C217.113 197.078 216.355 197.633 215.713 198.392L213.728 196.67C214.506 195.678 215.547 194.919 216.851 194.393C218.174 193.849 219.623 193.576 221.199 193.576C222.62 193.576 223.855 193.81 224.906 194.277C225.956 194.724 226.764 195.376 227.328 196.232C227.912 197.088 228.204 198.1 228.204 199.267C228.204 199.929 228.116 200.581 227.941 201.223C227.766 201.865 227.435 202.546 226.949 203.266C226.462 203.985 225.762 204.793 224.847 205.688L217.434 212.838L216.734 211.7H229.079V214.239H214.399ZM237.099 214.472C235.659 214.472 234.258 214.249 232.896 213.801C231.554 213.354 230.454 212.751 229.598 211.992L230.941 209.686C231.622 210.328 232.507 210.854 233.597 211.262C234.686 211.671 235.854 211.875 237.099 211.875C238.616 211.875 239.794 211.554 240.63 210.912C241.486 210.25 241.914 209.365 241.914 208.256C241.914 207.186 241.506 206.33 240.689 205.688C239.891 205.026 238.616 204.696 236.865 204.696H235.231V202.653L241.301 195.181L241.71 196.349H230.532V193.81H244.016V195.794L237.974 203.236L236.457 202.332H237.42C239.891 202.332 241.739 202.886 242.965 203.995C244.21 205.104 244.833 206.515 244.833 208.227C244.833 209.375 244.551 210.426 243.986 211.379C243.422 212.332 242.566 213.091 241.418 213.655C240.29 214.2 238.85 214.472 237.099 214.472Z" fill="#247665"/>
<rect x="307.43" y="320.746" width="73.8021" height="35.8157" rx="17.9079" fill="#247665" fill-opacity="0.27"/>
<path d="M319.363 348.746V346.762L327.681 338.736C328.42 338.036 328.965 337.423 329.315 336.897C329.685 336.353 329.928 335.857 330.045 335.409C330.181 334.942 330.249 334.495 330.249 334.067C330.249 333.016 329.879 332.189 329.14 331.586C328.401 330.983 327.321 330.681 325.9 330.681C324.811 330.681 323.828 330.866 322.953 331.236C322.077 331.586 321.318 332.14 320.676 332.899L318.692 331.177C319.47 330.185 320.511 329.426 321.815 328.901C323.138 328.356 324.587 328.084 326.163 328.084C327.583 328.084 328.819 328.317 329.87 328.784C330.92 329.232 331.728 329.883 332.292 330.74C332.876 331.596 333.167 332.607 333.167 333.775C333.167 334.436 333.08 335.088 332.905 335.73C332.73 336.372 332.399 337.053 331.912 337.773C331.426 338.493 330.726 339.3 329.811 340.195L322.398 347.346L321.698 346.207H334.043V348.746H319.363ZM344.135 348.98C342.54 348.98 341.11 348.571 339.845 347.754C338.6 346.937 337.608 345.75 336.868 344.194C336.149 342.637 335.789 340.75 335.789 338.532C335.789 336.314 336.149 334.427 336.868 332.87C337.608 331.313 338.6 330.127 339.845 329.309C341.11 328.492 342.54 328.084 344.135 328.084C345.711 328.084 347.132 328.492 348.396 329.309C349.661 330.127 350.653 331.313 351.373 332.87C352.093 334.427 352.453 336.314 352.453 338.532C352.453 340.75 352.093 342.637 351.373 344.194C350.653 345.75 349.661 346.937 348.396 347.754C347.132 348.571 345.711 348.98 344.135 348.98ZM344.135 346.383C345.205 346.383 346.139 346.091 346.937 345.507C347.754 344.923 348.387 344.048 348.834 342.88C349.301 341.713 349.535 340.263 349.535 338.532C349.535 336.8 349.301 335.351 348.834 334.183C348.387 333.016 347.754 332.14 346.937 331.557C346.139 330.973 345.205 330.681 344.135 330.681C343.065 330.681 342.122 330.973 341.304 331.557C340.487 332.14 339.845 333.016 339.378 334.183C338.931 335.351 338.707 336.8 338.707 338.532C338.707 340.263 338.931 341.713 339.378 342.88C339.845 344.048 340.487 344.923 341.304 345.507C342.122 346.091 343.065 346.383 344.135 346.383ZM361.225 348.98C359.785 348.98 358.384 348.756 357.022 348.309C355.68 347.861 354.58 347.258 353.724 346.499L355.067 344.194C355.748 344.836 356.633 345.361 357.723 345.77C358.812 346.178 359.97 346.383 361.196 346.383C362.752 346.383 363.949 346.052 364.785 345.39C365.622 344.729 366.04 343.843 366.04 342.734C366.04 341.976 365.855 341.314 365.486 340.75C365.116 340.186 364.474 339.758 363.56 339.466C362.665 339.154 361.429 338.999 359.853 338.999H355.213L356.293 328.317H367.821V330.856H357.372L358.89 329.426L358.044 337.861L356.526 336.46H360.466C362.509 336.46 364.153 336.722 365.398 337.248C366.643 337.773 367.548 338.503 368.112 339.437C368.677 340.351 368.959 341.411 368.959 342.618C368.959 343.785 368.677 344.855 368.112 345.828C367.548 346.781 366.692 347.55 365.544 348.134C364.416 348.698 362.976 348.98 361.225 348.98Z" fill="#247665"/>
<path d="M103.413 209.219V207.176L113.861 193.81H117.013L106.653 207.176L105.164 206.709H121.479V209.219H103.413ZM114.766 214.239V209.219L114.854 206.709V202.273H117.597V214.239H114.766ZM125.099 214.414C124.554 214.414 124.087 214.229 123.698 213.86C123.309 213.47 123.114 212.984 123.114 212.4C123.114 211.817 123.309 211.34 123.698 210.97C124.087 210.601 124.554 210.416 125.099 210.416C125.624 210.416 126.072 210.601 126.441 210.97C126.83 211.34 127.025 211.817 127.025 212.4C127.025 212.984 126.83 213.47 126.441 213.86C126.072 214.229 125.624 214.414 125.099 214.414ZM144.252 214.414C142.695 214.414 141.314 214.074 140.107 213.393C138.901 212.712 137.948 211.778 137.247 210.591C136.547 209.385 136.197 208.023 136.197 206.505C136.197 204.968 136.547 203.606 137.247 202.419C137.948 201.232 138.901 200.308 140.107 199.647C141.314 198.966 142.695 198.625 144.252 198.625C145.789 198.625 147.16 198.966 148.367 199.647C149.592 200.308 150.546 201.232 151.227 202.419C151.927 203.587 152.277 204.949 152.277 206.505C152.277 208.042 151.927 209.404 151.227 210.591C150.546 211.778 149.592 212.712 148.367 213.393C147.16 214.074 145.789 214.414 144.252 214.414ZM144.252 211.963C145.244 211.963 146.129 211.739 146.907 211.291C147.705 210.844 148.328 210.212 148.775 209.394C149.223 208.558 149.446 207.595 149.446 206.505C149.446 205.396 149.223 204.443 148.775 203.645C148.328 202.828 147.705 202.195 146.907 201.748C146.129 201.3 145.244 201.077 144.252 201.077C143.259 201.077 142.374 201.3 141.596 201.748C140.817 202.195 140.195 202.828 139.728 203.645C139.261 204.443 139.027 205.396 139.027 206.505C139.027 207.595 139.261 208.558 139.728 209.394C140.195 210.212 140.817 210.844 141.596 211.291C142.374 211.739 143.259 211.963 144.252 211.963ZM142.034 196.524L146.003 192.73H149.563L144.66 196.524H142.034ZM155.527 214.239V198.771H158.212V202.974L157.949 201.923C158.377 200.853 159.097 200.036 160.109 199.472C161.12 198.907 162.366 198.625 163.844 198.625V201.339C163.728 201.32 163.611 201.31 163.494 201.31C163.397 201.31 163.299 201.31 163.202 201.31C161.704 201.31 160.517 201.758 159.642 202.653C158.766 203.548 158.328 204.842 158.328 206.534V214.239H155.527ZM175.134 214.239V210.97L174.988 210.357V204.783C174.988 203.596 174.638 202.682 173.937 202.04C173.256 201.378 172.225 201.048 170.844 201.048C169.929 201.048 169.034 201.203 168.159 201.515C167.283 201.806 166.544 202.205 165.941 202.711L164.773 200.61C165.571 199.968 166.524 199.481 167.633 199.151C168.762 198.8 169.939 198.625 171.165 198.625C173.285 198.625 174.92 199.141 176.068 200.172C177.216 201.203 177.79 202.779 177.79 204.9V214.239H175.134ZM170.056 214.414C168.908 214.414 167.896 214.22 167.02 213.83C166.164 213.441 165.503 212.906 165.036 212.225C164.569 211.525 164.335 210.737 164.335 209.861C164.335 209.025 164.53 208.266 164.919 207.585C165.328 206.904 165.98 206.359 166.874 205.951C167.789 205.542 169.015 205.338 170.552 205.338H175.455V207.351H170.669C169.268 207.351 168.324 207.585 167.838 208.052C167.351 208.519 167.108 209.083 167.108 209.745C167.108 210.503 167.41 211.116 168.013 211.583C168.616 212.031 169.452 212.254 170.523 212.254C171.573 212.254 172.488 212.021 173.266 211.554C174.064 211.087 174.638 210.406 174.988 209.511L175.542 211.437C175.173 212.352 174.521 213.081 173.587 213.626C172.653 214.151 171.476 214.414 170.056 214.414Z" fill="black"/>
<rect x="102.185" y="239.42" width="625.385" height="22.9308" rx="11.4654" fill="black" fill-opacity="0.1"/>
<rect x="102.185" y="239.42" width="383.57" height="22.9308" rx="11.4654" fill="#247665"/>
</g>
<defs>
<filter id="filter0_d_2146_5988" x="0.0239487" y="0.96888" width="829.707" height="462.814" filterUnits="userSpaceOnUse" color-interpolation-filters="sRGB">
<feFlood flood-opacity="0" result="BackgroundImageFix"/>
<feColorMatrix in="SourceAlpha" type="matrix" values="0 0 0 0 0 0 0 0 0 0 0 0 0 0 0 0 0 0 127 0" result="hardAlpha"/>
<feOffset dy="17.9449"/>
<feGaussianBlur stdDeviation="36.488"/>
<feComposite in2="hardAlpha" operator="out"/>
<feColorMatrix type="matrix" values="0 0 0 0 0.546962 0 0 0 0 0.744705 0 0 0 0 0.710315 0 0 0 0.25 0"/>
<feBlend mode="normal" in2="BackgroundImageFix" result="effect1_dropShadow_2146_5988"/>
<feBlend mode="normal" in="SourceGraphic" in2="effect1_dropShadow_2146_5988" result="shape"/>
</filter>
</defs>
</svg>
