<svg viewBox="0 0 33 34" fill="none" xmlns="http://www.w3.org/2000/svg">
  <g clip-path="url(#clip0_2136_2239)">
    <path
      d="M15.8854 10.4714C14.6954 10.4714 12.8533 9.11834 10.9133 9.16725C8.35394 9.19985 6.00647 10.6507 4.68601 12.9493C2.02881 17.5627 4.00133 24.3769 6.59333 28.1263C7.86488 29.9522 9.36465 32.0062 11.3535 31.941C13.2608 31.8595 13.9781 30.702 16.293 30.702C18.5915 30.702 19.2436 31.941 21.265 31.8921C23.3191 31.8595 24.6232 30.0337 25.8785 28.1915C27.3293 26.0723 27.9325 24.0183 27.9651 23.9042C27.9162 23.8878 23.9711 22.3718 23.9222 17.8072C23.8896 13.9926 27.0359 12.1668 27.1826 12.0853C25.3894 9.46068 22.6344 9.16725 21.6726 9.10204C19.1621 8.90642 17.0591 10.4714 15.8854 10.4714ZM20.1239 6.62415C21.1835 5.3526 21.8845 3.5757 21.6889 1.81509C20.1728 1.8803 18.347 2.82581 17.2548 4.09736C16.2767 5.22219 15.429 7.0317 15.6572 8.7597C17.3363 8.89011 19.0643 7.8957 20.1239 6.62415Z"
      fill="currentColor" />
  </g>
  <defs>
    <clipPath id="clip0_2136_2239">
      <rect width="32.6038" height="32.6038" fill="currentColor" transform="translate(0.0943604 0.66037)" />
    </clipPath>
  </defs>
</svg>