<svg viewBox="0 0 23 18" fill="none" xmlns="http://www.w3.org/2000/svg">
  <path
    d="M18.8867 1.62628C17.519 0.964016 16.0382 0.48334 14.4958 0.205616C14.4822 0.205166 14.4688 0.207803 14.4564 0.213339C14.4439 0.218876 14.4328 0.227178 14.4238 0.237661C14.2387 0.590157 14.0227 1.04947 13.8788 1.40196C12.2427 1.1456 10.5789 1.1456 8.9429 1.40196C8.79894 1.03879 8.58299 0.590157 8.38761 0.237661C8.37733 0.216297 8.34648 0.205616 8.31563 0.205616C6.77317 0.48334 5.30268 0.964016 3.92475 1.62628C3.91446 1.62628 3.90418 1.63696 3.8939 1.64764C1.0969 5.99509 0.325664 10.225 0.706139 14.4123C0.706139 14.4336 0.716422 14.455 0.736988 14.4657C2.58795 15.8757 4.36692 16.7302 6.12533 17.2963C6.15618 17.307 6.18703 17.2963 6.19731 17.275C6.60864 16.6875 6.97883 16.0679 7.2976 15.4163C7.31817 15.3736 7.2976 15.3309 7.25647 15.3202C6.67033 15.0852 6.11505 14.8075 5.57004 14.487C5.52891 14.4657 5.52891 14.4016 5.55976 14.3695C5.67287 14.2841 5.78599 14.1879 5.8991 14.1025C5.91967 14.0811 5.95052 14.0811 5.97108 14.0918C9.50847 15.7688 13.3235 15.7688 16.8198 14.0918C16.8403 14.0811 16.8712 14.0811 16.8917 14.1025C17.0048 14.1986 17.118 14.2841 17.2311 14.3802C17.2722 14.4123 17.2722 14.4764 17.2208 14.4977C16.6861 14.8288 16.1205 15.0959 15.5344 15.3309C15.4932 15.3416 15.4829 15.395 15.4932 15.427C15.8223 16.0786 16.1925 16.6981 16.5935 17.2856C16.6244 17.2963 16.6552 17.307 16.6861 17.2963C18.4548 16.7302 20.2337 15.8757 22.0847 14.4657C22.1053 14.455 22.1155 14.4336 22.1155 14.4123C22.568 9.57346 21.3649 5.37555 18.9278 1.64764C18.9175 1.63696 18.9072 1.62628 18.8867 1.62628V1.62628ZM7.83233 11.8593C6.77317 11.8593 5.88882 10.8446 5.88882 9.59482C5.88882 8.34506 6.7526 7.3303 7.83233 7.3303C8.92233 7.3303 9.78611 8.35575 9.77583 9.59482C9.77583 10.8446 8.91205 11.8593 7.83233 11.8593ZM14.9996 11.8593C13.9405 11.8593 13.0561 10.8446 13.0561 9.59482C13.0561 8.34506 13.9199 7.3303 14.9996 7.3303C16.0897 7.3303 16.9534 8.35575 16.9431 9.59482C16.9431 10.8446 16.0897 11.8593 14.9996 11.8593Z"
    fill="currentColor" />
</svg>