<svg viewBox="0 0 22 23" fill="none" xmlns="http://www.w3.org/2000/svg">
  <path
    d="M10.8388 0.956177C9.42095 0.956177 8.01696 1.24238 6.70701 1.79845C5.39706 2.35452 4.20682 3.16956 3.20423 4.19704C1.1794 6.27214 0.0418701 9.08657 0.0418701 12.0212C0.0418701 16.9119 3.1406 21.0613 7.42699 22.533C7.96684 22.6215 8.13959 22.2785 8.13959 21.9797V20.1097C5.14883 20.7736 4.51181 18.627 4.51181 18.627C4.01515 17.3435 3.31335 17.0004 3.31335 17.0004C2.33082 16.3144 3.38893 16.3365 3.38893 16.3365C4.46862 16.414 5.04086 17.4762 5.04086 17.4762C5.9802 19.1581 7.56735 18.6602 8.18277 18.3946C8.27995 17.6754 8.56067 17.1885 8.86298 16.9119C6.46606 16.6353 3.95037 15.6837 3.95037 11.4679C3.95037 10.2397 4.36065 9.25494 5.06245 8.46932C4.95449 8.19269 4.57659 7.04193 5.17042 5.54816C5.17042 5.54816 6.07737 5.2494 8.13959 6.67679C8.99255 6.43336 9.92108 6.31164 10.8388 6.31164C11.7566 6.31164 12.6851 6.43336 13.5381 6.67679C15.6003 5.2494 16.5072 5.54816 16.5072 5.54816C17.1011 7.04193 16.7232 8.19269 16.6152 8.46932C17.317 9.25494 17.7273 10.2397 17.7273 11.4679C17.7273 15.6948 15.2008 16.6242 12.7931 16.9009C13.1818 17.2439 13.5381 17.9188 13.5381 18.9479V21.9797C13.5381 22.2785 13.7108 22.6325 14.2615 22.533C18.5479 21.0502 21.6358 16.9119 21.6358 12.0212C21.6358 10.5681 21.3565 9.12926 20.8139 7.78679C20.2713 6.44432 19.476 5.22453 18.4734 4.19704C17.4708 3.16956 16.2806 2.35452 14.9706 1.79845C13.6607 1.24238 12.2567 0.956177 10.8388 0.956177V0.956177Z"
    fill="currentColor" />
</svg>