<svg viewBox="0 0 22 22" fill="none" xmlns="http://www.w3.org/2000/svg">
  <path
    d="M6.49601 0.296875H15.316C18.676 0.296875 21.406 3.02688 21.406 6.38688V15.2069C21.406 16.822 20.7644 18.3711 19.6223 19.5132C18.4802 20.6553 16.9312 21.2969 15.316 21.2969H6.49601C3.13601 21.2969 0.406006 18.5669 0.406006 15.2069V6.38688C0.406006 4.77171 1.04763 3.22269 2.18973 2.08059C3.33182 0.938498 4.88084 0.296875 6.49601 0.296875ZM6.28601 2.39687C5.28349 2.39687 4.32203 2.79512 3.61314 3.50401C2.90425 4.2129 2.50601 5.17436 2.50601 6.17687V15.4169C2.50601 17.5064 4.19651 19.1969 6.28601 19.1969H15.526C16.5285 19.1969 17.49 18.7986 18.1989 18.0897C18.9078 17.3809 19.306 16.4194 19.306 15.4169V6.17687C19.306 4.08737 17.6155 2.39687 15.526 2.39687H6.28601ZM16.4185 3.97187C16.7666 3.97187 17.1004 4.11016 17.3466 4.3563C17.5927 4.60244 17.731 4.93628 17.731 5.28437C17.731 5.63247 17.5927 5.96631 17.3466 6.21245C17.1004 6.45859 16.7666 6.59687 16.4185 6.59687C16.0704 6.59687 15.7366 6.45859 15.4904 6.21245C15.2443 5.96631 15.106 5.63247 15.106 5.28437C15.106 4.93628 15.2443 4.60244 15.4904 4.3563C15.7366 4.11016 16.0704 3.97187 16.4185 3.97187ZM10.906 5.54688C12.2984 5.54688 13.6337 6.1 14.6183 7.08456C15.6029 8.06913 16.156 9.40449 16.156 10.7969C16.156 12.1893 15.6029 13.5246 14.6183 14.5092C13.6337 15.4938 12.2984 16.0469 10.906 16.0469C9.51362 16.0469 8.17826 15.4938 7.1937 14.5092C6.20913 13.5246 5.65601 12.1893 5.65601 10.7969C5.65601 9.40449 6.20913 8.06913 7.1937 7.08456C8.17826 6.1 9.51362 5.54688 10.906 5.54688ZM10.906 7.64687C10.0706 7.64687 9.26936 7.97875 8.67862 8.56949C8.08788 9.16023 7.75601 9.96144 7.75601 10.7969C7.75601 11.6323 8.08788 12.4335 8.67862 13.0243C9.26936 13.615 10.0706 13.9469 10.906 13.9469C11.7414 13.9469 12.5427 13.615 13.1334 13.0243C13.7241 12.4335 14.056 11.6323 14.056 10.7969C14.056 9.96144 13.7241 9.16023 13.1334 8.56949C12.5427 7.97875 11.7414 7.64687 10.906 7.64687Z"
    fill="currentColor" />
</svg>