<svg viewBox="0 0 74 74" fill="none" xmlns="http://www.w3.org/2000/svg">
  <path
    d="M50.291 2.37235C49.6113 1.69257 48.8045 1.15333 47.9164 0.785435C47.0284 0.417536 46.0766 0.22818 45.1153 0.22818C44.1541 0.22818 43.2023 0.417536 42.3143 0.785435C41.4262 1.15333 40.6193 1.69257 39.9397 2.37235L31.3181 10.9967C29.8848 12.4302 28.9332 14.2742 28.5953 16.273C28.2573 18.2717 28.5499 20.3261 29.4323 22.1511L16.0462 28.8335C14.2274 29.7422 12.6177 31.0198 11.3198 32.5848C10.022 34.1499 9.06428 35.9682 8.50783 37.9239L0.457136 66.266C0.195842 67.187 0.185264 68.161 0.426496 69.0875C0.667728 70.0139 1.15201 70.8591 1.82929 71.5356C2.50656 72.2122 3.35224 72.6956 4.27889 72.9358C5.20554 73.176 6.17954 73.1644 7.10018 72.902L35.4264 64.8388C37.3805 64.2827 39.1974 63.3259 40.7615 62.0292C42.3257 60.7326 43.6028 59.1245 44.5115 57.3074L51.1961 43.9207C53.0215 44.8069 55.0776 45.1029 57.0789 44.7676C59.0803 44.4323 60.9276 43.4823 62.3646 42.0494L70.9886 33.425C71.6683 32.7454 72.2075 31.9385 72.5754 31.0504C72.9433 30.1623 73.1326 29.2104 73.1326 28.2492C73.1326 27.2879 72.9433 26.3361 72.5754 25.448C72.2075 24.5599 71.6683 23.753 70.9886 23.0733L50.2885 2.37235H50.291ZM43.3893 5.8221C43.6159 5.59527 43.8849 5.41531 44.1811 5.29254C44.4773 5.16976 44.7947 5.10657 45.1153 5.10657C45.4359 5.10657 45.7534 5.16976 46.0496 5.29254C46.3457 5.41531 46.6148 5.59527 46.8414 5.8221L67.5414 26.5231C67.9988 26.9806 68.2557 27.601 68.2557 28.248C68.2557 28.8949 67.9988 29.5153 67.5414 29.9728L58.915 38.5997L34.7629 14.4465L43.3893 5.8221ZM34.7653 24.7982L48.5491 38.5826C48.3639 38.7682 48.2099 38.9823 48.0929 39.2169L40.1495 55.1238C39.5441 56.3356 38.6931 57.408 37.6506 58.2728C36.6081 59.1377 35.397 59.776 34.0944 60.1472L9.73496 67.0784L24.7093 52.1035C26.2672 52.8457 28.0374 53.0137 29.7072 52.5778C31.377 52.1419 32.8391 51.1301 33.8356 49.7211C34.832 48.312 35.2987 46.5962 35.1532 44.8765C35.0077 43.1568 34.2595 41.5438 33.0405 40.3221C31.8203 39.0976 30.2061 38.3444 28.4838 38.1962C26.7616 38.0479 25.0424 38.5141 23.6309 39.5121C22.2195 40.5101 21.2068 41.9756 20.7723 43.6488C20.3378 45.322 20.5096 47.095 21.2572 48.6537L6.27803 63.6336L13.2065 39.256C13.5768 37.9526 14.2145 36.7406 15.0789 35.6973C15.9433 34.6539 17.0155 33.8019 18.2272 33.1957L34.131 25.2544C34.3658 25.1367 34.58 24.9818 34.7653 24.7958V24.7982Z"
    fill="currentColor" />
</svg>