<svg viewBox="0 0 26 27" fill="none" xmlns="http://www.w3.org/2000/svg">
  <path
    d="M21.5908 15.4209C21.5935 15.7861 21.4824 16.1432 21.2729 16.4424C21.0635 16.7417 20.766 16.9683 20.4219 17.0908L14.6106 19.2283L12.4732 25.0395C12.3466 25.3804 12.1188 25.6744 11.8203 25.882C11.5218 26.0897 11.1669 26.2009 10.8032 26.2009C10.4396 26.2009 10.0847 26.0897 9.78622 25.882C9.4877 25.6744 9.25987 25.3804 9.13334 25.0395L6.99586 19.2283L1.18458 17.0908C0.843697 16.9643 0.549699 16.7364 0.342087 16.4379C0.134474 16.1394 0.0231934 15.7845 0.0231934 15.4209C0.0231934 15.0573 0.134474 14.7024 0.342087 14.4039C0.549699 14.1053 0.843697 13.8775 1.18458 13.751L6.99586 11.6135L9.13334 5.80222C9.25987 5.46133 9.4877 5.16734 9.78622 4.95972C10.0847 4.75211 10.4396 4.64083 10.8032 4.64083C11.1669 4.64083 11.5218 4.75211 11.8203 4.95972C12.1188 5.16734 12.3466 5.46133 12.4732 5.80222L14.6106 11.6135L20.4219 13.751C20.766 13.8735 21.0635 14.1001 21.2729 14.3993C21.4824 14.6986 21.5935 15.0556 21.5908 15.4209V15.4209ZM15.2563 4.73348H17.0376V6.51472C17.0376 6.75092 17.1314 6.97745 17.2984 7.14448C17.4654 7.3115 17.692 7.40533 17.9282 7.40533C18.1644 7.40533 18.3909 7.3115 18.5579 7.14448C18.725 6.97745 18.8188 6.75092 18.8188 6.51472V4.73348H20.6C20.8362 4.73348 21.0628 4.63965 21.2298 4.47262C21.3968 4.3056 21.4907 4.07907 21.4907 3.84286C21.4907 3.60666 21.3968 3.38013 21.2298 3.2131C21.0628 3.04608 20.8362 2.95225 20.6 2.95225H18.8188V1.17101C18.8188 0.934806 18.725 0.708274 18.5579 0.541251C18.3909 0.374228 18.1644 0.280396 17.9282 0.280396C17.692 0.280396 17.4654 0.374228 17.2984 0.541251C17.1314 0.708274 17.0376 0.934806 17.0376 1.17101V2.95225H15.2563C15.0201 2.95225 14.7936 3.04608 14.6266 3.2131C14.4595 3.38013 14.3657 3.60666 14.3657 3.84286C14.3657 4.07907 14.4595 4.3056 14.6266 4.47262C14.7936 4.63965 15.0201 4.73348 15.2563 4.73348ZM25.0531 8.29595H24.1625V7.40533C24.1625 7.16913 24.0687 6.94259 23.9016 6.77557C23.7346 6.60855 23.5081 6.51472 23.2719 6.51472C23.0357 6.51472 22.8091 6.60855 22.6421 6.77557C22.4751 6.94259 22.3813 7.16913 22.3813 7.40533V8.29595H21.4907C21.2544 8.29595 21.0279 8.38978 20.8609 8.55681C20.6939 8.72383 20.6 8.95036 20.6 9.18657C20.6 9.42277 20.6939 9.6493 20.8609 9.81633C21.0279 9.98335 21.2544 10.0772 21.4907 10.0772H22.3813V10.9678C22.3813 11.204 22.4751 11.4305 22.6421 11.5976C22.8091 11.7646 23.0357 11.8584 23.2719 11.8584C23.5081 11.8584 23.7346 11.7646 23.9016 11.5976C24.0687 11.4305 24.1625 11.204 24.1625 10.9678V10.0772H25.0531C25.2893 10.0772 25.5159 9.98335 25.6829 9.81633C25.8499 9.6493 25.9437 9.42277 25.9437 9.18657C25.9437 8.95036 25.8499 8.72383 25.6829 8.55681C25.5159 8.38978 25.2893 8.29595 25.0531 8.29595Z"
    fill="currentColor" />
</svg>