<svg viewBox="0 0 72 70" fill="none" xmlns="http://www.w3.org/2000/svg">
  <path
    d="M34.1173 0.0965424C21.6903 0.0965424 11.4816 9.65606 10.3653 21.8639C8.99954 22.1971 7.79227 22.9993 6.95171 24.132C6.11115 25.2647 5.69003 26.6569 5.76098 28.0685C5.83194 29.48 6.39052 30.8225 7.34038 31.8641C8.29023 32.9058 9.57178 33.5814 10.964 33.7743C11.1762 34.6331 11.4338 35.4728 11.7344 36.2932L11.6175 36.274C11.0138 36.1595 10.4036 36.0825 9.79043 36.0437H9.6664C8.09693 36.0917 7.18577 37.3319 6.89478 38.3538C6.5847 39.4429 6.77552 40.6207 7.23825 41.7506L7.42907 42.216L3.79876 43.166L3.78207 43.1707C2.58469 43.4922 0.84825 44.2502 0.585876 46.2245C0.485697 46.9754 0.669359 47.6159 0.769538 47.9253C0.817242 48.0788 0.874488 48.23 0.912651 48.3331L0.922192 48.3595L1.00329 48.5922C1.39924 49.8876 2.23168 51.1758 3.18576 52.3057C5.09816 54.542 7.47149 56.333 10.1411 57.5544L8.87212 58.6819C8.44377 59.0494 8.1058 59.5117 7.88464 60.0324C7.63287 60.6488 7.58766 61.331 7.75584 61.9755C7.88464 62.4841 8.12078 62.8871 8.26389 63.1198C8.37123 63.2925 8.50957 63.4964 8.61452 63.6499L8.70039 63.7747C9.59484 65.1037 11.1715 66.3679 13.0105 67.3346C14.8972 68.3302 17.2562 69.1146 19.8799 69.3281C24.9223 69.7407 30.7183 68.0207 35.7726 62.1698C40.8293 68.0231 46.6253 69.7407 51.6653 69.3281C54.0641 69.1308 56.3995 68.4539 58.5347 67.337C60.3737 66.3679 61.9504 65.1037 62.8448 63.7747L62.9307 63.6499C63.0356 63.4964 63.1764 63.2901 63.2813 63.1198C63.5079 62.7668 63.6793 62.3809 63.7894 61.9755C63.9576 61.331 63.9123 60.6488 63.6606 60.0324C63.4398 59.5128 63.1027 59.0514 62.6755 58.6843L61.5353 57.6695C64.3122 56.4488 66.7806 54.6156 68.7578 52.3057C69.7119 51.1758 70.5443 49.8876 70.9403 48.5922L71.0214 48.3595L71.0309 48.3331C71.0691 48.23 71.1239 48.0788 71.174 47.9253C71.2718 47.6135 71.4579 46.9754 71.3577 46.2245C71.0953 44.2502 69.3589 43.4922 68.1615 43.1707L68.1448 43.166L64.5121 42.216L64.7029 41.7506C65.1656 40.6231 65.3588 39.4429 65.0488 38.3538C64.7578 37.3319 63.8442 36.0917 62.2748 36.0437H62.1555C61.5632 36.0804 60.9737 36.1541 60.3904 36.2644C60.7077 35.3912 60.9772 34.494 61.1966 33.5776C62.3917 33.2178 63.4466 32.4946 64.2165 31.5074C64.9864 30.5202 65.4334 29.3174 65.4961 28.0644C65.5589 26.8113 65.2343 25.5695 64.5669 24.5095C63.8995 23.4495 62.9222 22.6234 61.7691 22.1446C61.2843 16.1378 58.5692 10.5345 54.1638 6.44926C49.7584 2.364 43.9855 0.0960737 37.9932 0.0965424H34.1173ZM56.9867 22.219C55.9752 22.6763 55.1084 23.405 54.4815 24.3251C53.8545 25.2452 53.4915 26.3211 53.4324 27.4349C53.3733 28.5488 53.6202 29.6575 54.1462 30.6395C54.6722 31.6215 55.4569 32.4388 56.4143 33.0019C55.317 37.0706 52.9186 40.663 49.5893 43.2244C46.26 45.7859 42.185 47.174 37.9932 47.1745H34.1173C29.8372 47.1741 25.6815 45.7272 22.3174 43.066C18.9533 40.4049 16.5761 36.6838 15.5674 32.5005C16.3142 31.901 16.9087 31.1315 17.3017 30.2556C17.6948 29.3796 17.8752 28.4223 17.8282 27.4624C17.7811 26.5025 17.5079 25.5677 17.0311 24.7349C16.5542 23.902 15.8874 23.1951 15.0856 22.6724C15.4403 17.84 17.5995 13.3215 21.1296 10.0239C24.6597 6.72638 29.2994 4.89386 34.1173 4.89429H37.9932C42.7331 4.89374 47.3036 6.66742 50.8146 9.86993C54.3256 13.0724 56.5258 17.4745 56.9867 22.219ZM55.0953 44.706L66.2032 47.6159C65.9981 48.0309 65.6498 48.5754 65.1203 49.1991C64.4048 50.0483 63.465 50.9263 62.4012 51.694C60.6194 52.9797 58.7923 53.757 57.2777 53.8937C55.1341 51.9896 52.9826 50.0945 50.8233 48.2084C52.3765 47.21 53.8099 46.0348 55.0953 44.706ZM46.4274 50.4297C46.5705 50.756 46.7875 51.0558 47.0785 51.3005C48.3904 52.4064 54.7923 58.0822 58.5896 61.455C58.1603 61.9108 57.4113 62.5105 56.3236 63.0862C54.755 63.9048 53.0402 64.4014 51.2789 64.5471C47.5437 64.8518 42.8686 63.5924 38.5657 58.0318L38.5514 58.015C38.4011 57.8231 38.0696 57.3913 37.6164 57.065C37.0819 56.6759 36.4317 56.4813 35.7726 56.5133C35.1135 56.4813 34.4633 56.6759 33.9288 57.065C33.4756 57.3913 33.1417 57.8231 32.9938 58.015L32.9819 58.0318C28.6766 63.5924 24.0016 64.8518 20.2687 64.5471C18.5065 64.4009 16.7908 63.9035 15.2216 63.0838C14.1339 62.5129 13.385 61.9084 12.9556 61.455L16.1041 58.6603C16.2091 58.6483 16.3164 58.6363 16.4213 58.6195L16.3903 58.4036C19.0667 56.0187 21.7589 53.6517 24.4667 51.3029C24.8018 51.0218 25.0535 50.6533 25.1942 50.2378C28.03 51.3874 31.0597 51.9763 34.1173 51.9722H37.9932C40.8743 51.9758 43.732 51.4531 46.4274 50.4297ZM20.9628 47.9973C19.7201 49.0696 17.0129 51.4589 14.3128 53.8505C12.8697 53.637 11.1834 52.8838 9.5376 51.6916C8.53595 50.9733 7.62311 50.1374 6.81845 49.2015C6.39709 48.7179 6.03438 48.1856 5.73795 47.6159L16.9795 44.6676C18.1792 45.9151 19.515 47.0329 20.9628 47.9949V47.9973ZM12.2854 60.5386L12.2901 60.5506C12.2884 60.5466 12.2868 60.5426 12.2854 60.5386ZM59.2551 60.5386L59.2503 60.5506C59.252 60.5467 59.2536 60.5427 59.2551 60.5386Z"
    fill="currentColor" />
</svg>