<svg width="854" height="781" viewBox="0 0 854 781" fill="none" xmlns="http://www.w3.org/2000/svg">
<g filter="url(#filter0_d_2142_2565)">
<g clip-path="url(#clip0_2142_2565)">
<rect x="115.5" y="87" width="623" height="550" rx="30" fill="url(#paint0_linear_2142_2565)"/>
<path d="M367.94 168V145.28H358.98V140H383.38V145.28H374.42V168H367.94ZM394.919 168.32C392.466 168.32 390.306 167.84 388.439 166.88C386.599 165.92 385.173 164.613 384.159 162.96C383.146 161.28 382.639 159.373 382.639 157.24C382.639 155.08 383.133 153.173 384.119 151.52C385.133 149.84 386.506 148.533 388.239 147.6C389.973 146.64 391.933 146.16 394.119 146.16C396.226 146.16 398.119 146.613 399.799 147.52C401.506 148.4 402.853 149.68 403.839 151.36C404.826 153.013 405.319 155 405.319 157.32C405.319 157.56 405.306 157.84 405.279 158.16C405.253 158.453 405.226 158.733 405.199 159H387.719V155.36H401.919L399.519 156.44C399.519 155.32 399.293 154.347 398.839 153.52C398.386 152.693 397.759 152.053 396.959 151.6C396.159 151.12 395.226 150.88 394.159 150.88C393.093 150.88 392.146 151.12 391.319 151.6C390.519 152.053 389.893 152.707 389.439 153.56C388.986 154.387 388.759 155.373 388.759 156.52V157.48C388.759 158.653 389.013 159.693 389.519 160.6C390.053 161.48 390.786 162.16 391.719 162.64C392.679 163.093 393.799 163.32 395.079 163.32C396.226 163.32 397.226 163.147 398.079 162.8C398.959 162.453 399.759 161.933 400.479 161.24L403.799 164.84C402.813 165.96 401.573 166.827 400.079 167.44C398.586 168.027 396.866 168.32 394.919 168.32ZM390.359 143.72L395.759 137.96H402.479L395.239 143.72H390.359ZM437.034 146.16C438.74 146.16 440.247 146.507 441.554 147.2C442.887 147.867 443.927 148.907 444.674 150.32C445.447 151.707 445.834 153.493 445.834 155.68V168H439.594V156.64C439.594 154.907 439.234 153.627 438.514 152.8C437.794 151.973 436.78 151.56 435.474 151.56C434.567 151.56 433.754 151.773 433.034 152.2C432.314 152.6 431.754 153.213 431.354 154.04C430.954 154.867 430.754 155.92 430.754 157.2V168H424.514V156.64C424.514 154.907 424.154 153.627 423.434 152.8C422.74 151.973 421.74 151.56 420.434 151.56C419.527 151.56 418.714 151.773 417.994 152.2C417.274 152.6 416.714 153.213 416.314 154.04C415.914 154.867 415.714 155.92 415.714 157.2V168H409.474V146.48H415.434V152.36L414.314 150.64C415.06 149.173 416.114 148.067 417.474 147.32C418.86 146.547 420.434 146.16 422.194 146.16C424.167 146.16 425.887 146.667 427.354 147.68C428.847 148.667 429.834 150.187 430.314 152.24L428.114 151.64C428.834 149.96 429.98 148.627 431.554 147.64C433.154 146.653 434.98 146.16 437.034 146.16ZM464.627 168V163.8L464.227 162.88V155.36C464.227 154.027 463.814 152.987 462.987 152.24C462.187 151.493 460.947 151.12 459.267 151.12C458.12 151.12 456.987 151.307 455.867 151.68C454.774 152.027 453.84 152.507 453.067 153.12L450.827 148.76C452 147.933 453.414 147.293 455.067 146.84C456.72 146.387 458.4 146.16 460.107 146.16C463.387 146.16 465.934 146.933 467.747 148.48C469.56 150.027 470.467 152.44 470.467 155.72V168H464.627ZM458.067 168.32C456.387 168.32 454.947 168.04 453.747 167.48C452.547 166.893 451.627 166.107 450.987 165.12C450.347 164.133 450.027 163.027 450.027 161.8C450.027 160.52 450.334 159.4 450.947 158.44C451.587 157.48 452.587 156.733 453.947 156.2C455.307 155.64 457.08 155.36 459.267 155.36H464.987V159H459.947C458.48 159 457.467 159.24 456.907 159.72C456.374 160.2 456.107 160.8 456.107 161.52C456.107 162.32 456.414 162.96 457.027 163.44C457.667 163.893 458.534 164.12 459.627 164.12C460.667 164.12 461.6 163.88 462.427 163.4C463.254 162.893 463.854 162.16 464.227 161.2L465.187 164.08C464.734 165.467 463.907 166.52 462.707 167.24C461.507 167.96 459.96 168.32 458.067 168.32ZM482.634 163.24V144.76H487.794V163.24H482.634ZM475.714 156.44V151.56H494.754V156.44H475.714Z" fill="black"/>
<path d="M152.533 222L143.233 201H145.633L154.333 220.77H153.013L161.773 201H164.023L154.723 222H152.533ZM175.289 222V218.52L175.199 217.95V212.13C175.199 210.79 174.819 209.76 174.059 209.04C173.319 208.32 172.209 207.96 170.729 207.96C169.709 207.96 168.739 208.13 167.819 208.47C166.899 208.81 166.119 209.26 165.479 209.82L164.519 208.23C165.319 207.55 166.279 207.03 167.399 206.67C168.519 206.29 169.699 206.1 170.939 206.1C172.979 206.1 174.549 206.61 175.649 207.63C176.769 208.63 177.329 210.16 177.329 212.22V222H175.289ZM169.859 222.15C168.679 222.15 167.649 221.96 166.769 221.58C165.909 221.18 165.249 220.64 164.789 219.96C164.329 219.26 164.099 218.46 164.099 217.56C164.099 216.74 164.289 216 164.669 215.34C165.069 214.66 165.709 214.12 166.589 213.72C167.489 213.3 168.689 213.09 170.189 213.09H175.619V214.68H170.249C168.729 214.68 167.669 214.95 167.069 215.49C166.489 216.03 166.199 216.7 166.199 217.5C166.199 218.4 166.549 219.12 167.249 219.66C167.949 220.2 168.929 220.47 170.189 220.47C171.389 220.47 172.419 220.2 173.279 219.66C174.159 219.1 174.799 218.3 175.199 217.26L175.679 218.73C175.279 219.77 174.579 220.6 173.579 221.22C172.599 221.84 171.359 222.15 169.859 222.15ZM169.049 203.79L173.159 200.07H176.009L171.149 203.79H169.049ZM183.115 222V199.74H185.245V222H183.115ZM201.041 222V218.52L200.951 217.95V212.13C200.951 210.79 200.571 209.76 199.811 209.04C199.071 208.32 197.961 207.96 196.481 207.96C195.461 207.96 194.491 208.13 193.571 208.47C192.651 208.81 191.871 209.26 191.231 209.82L190.271 208.23C191.071 207.55 192.031 207.03 193.151 206.67C194.271 206.29 195.451 206.1 196.691 206.1C198.731 206.1 200.301 206.61 201.401 207.63C202.521 208.63 203.081 210.16 203.081 212.22V222H201.041ZM195.611 222.15C194.431 222.15 193.401 221.96 192.521 221.58C191.661 221.18 191.001 220.64 190.541 219.96C190.081 219.26 189.851 218.46 189.851 217.56C189.851 216.74 190.041 216 190.421 215.34C190.821 214.66 191.461 214.12 192.341 213.72C193.241 213.3 194.441 213.09 195.941 213.09H201.371V214.68H196.001C194.481 214.68 193.421 214.95 192.821 215.49C192.241 216.03 191.951 216.7 191.951 217.5C191.951 218.4 192.301 219.12 193.001 219.66C193.701 220.2 194.681 220.47 195.941 220.47C197.141 220.47 198.171 220.2 199.031 219.66C199.911 219.1 200.551 218.3 200.951 217.26L201.431 218.73C201.031 219.77 200.331 220.6 199.331 221.22C198.351 221.84 197.111 222.15 195.611 222.15ZM213.096 222.15C211.796 222.15 210.566 221.97 209.406 221.61C208.246 221.23 207.336 220.76 206.676 220.2L207.636 218.52C208.276 219 209.096 219.42 210.096 219.78C211.096 220.12 212.146 220.29 213.246 220.29C214.746 220.29 215.826 220.06 216.486 219.6C217.146 219.12 217.476 218.49 217.476 217.71C217.476 217.13 217.286 216.68 216.906 216.36C216.546 216.02 216.066 215.77 215.466 215.61C214.866 215.43 214.196 215.28 213.456 215.16C212.716 215.04 211.976 214.9 211.236 214.74C210.516 214.58 209.856 214.35 209.256 214.05C208.656 213.73 208.166 213.3 207.786 212.76C207.426 212.22 207.246 211.5 207.246 210.6C207.246 209.74 207.486 208.97 207.966 208.29C208.446 207.61 209.146 207.08 210.066 206.7C211.006 206.3 212.146 206.1 213.486 206.1C214.506 206.1 215.526 206.24 216.546 206.52C217.566 206.78 218.406 207.13 219.066 207.57L218.136 209.28C217.436 208.8 216.686 208.46 215.886 208.26C215.086 208.04 214.286 207.93 213.486 207.93C212.066 207.93 211.016 208.18 210.336 208.68C209.676 209.16 209.346 209.78 209.346 210.54C209.346 211.14 209.526 211.61 209.886 211.95C210.266 212.29 210.756 212.56 211.356 212.76C211.976 212.94 212.646 213.09 213.366 213.21C214.106 213.33 214.836 213.48 215.556 213.66C216.296 213.82 216.966 214.05 217.566 214.35C218.186 214.63 218.676 215.04 219.036 215.58C219.416 216.1 219.606 216.79 219.606 217.65C219.606 218.57 219.346 219.37 218.826 220.05C218.326 220.71 217.586 221.23 216.606 221.61C215.646 221.97 214.476 222.15 213.096 222.15ZM227.745 222.15C226.445 222.15 225.215 221.97 224.055 221.61C222.895 221.23 221.985 220.76 221.325 220.2L222.285 218.52C222.925 219 223.745 219.42 224.745 219.78C225.745 220.12 226.795 220.29 227.895 220.29C229.395 220.29 230.475 220.06 231.135 219.6C231.795 219.12 232.125 218.49 232.125 217.71C232.125 217.13 231.935 216.68 231.555 216.36C231.195 216.02 230.715 215.77 230.115 215.61C229.515 215.43 228.845 215.28 228.105 215.16C227.365 215.04 226.625 214.9 225.885 214.74C225.165 214.58 224.505 214.35 223.905 214.05C223.305 213.73 222.815 213.3 222.435 212.76C222.075 212.22 221.895 211.5 221.895 210.6C221.895 209.74 222.135 208.97 222.615 208.29C223.095 207.61 223.795 207.08 224.715 206.7C225.655 206.3 226.795 206.1 228.135 206.1C229.155 206.1 230.175 206.24 231.195 206.52C232.215 206.78 233.055 207.13 233.715 207.57L232.785 209.28C232.085 208.8 231.335 208.46 230.535 208.26C229.735 208.04 228.935 207.93 228.135 207.93C226.715 207.93 225.665 208.18 224.985 208.68C224.325 209.16 223.995 209.78 223.995 210.54C223.995 211.14 224.175 211.61 224.535 211.95C224.915 212.29 225.405 212.56 226.005 212.76C226.625 212.94 227.295 213.09 228.015 213.21C228.755 213.33 229.485 213.48 230.205 213.66C230.945 213.82 231.615 214.05 232.215 214.35C232.835 214.63 233.325 215.04 233.685 215.58C234.065 216.1 234.255 216.79 234.255 217.65C234.255 218.57 233.995 219.37 233.475 220.05C232.975 220.71 232.235 221.23 231.255 221.61C230.295 221.97 229.125 222.15 227.745 222.15ZM236.453 222V220.59L246.953 207.3L247.403 208.02H236.633V206.25H249.083V207.63L238.613 220.95L238.073 220.23H249.293V222H236.453ZM265.567 222.15C264.267 222.15 263.037 221.97 261.877 221.61C260.717 221.23 259.807 220.76 259.147 220.2L260.107 218.52C260.747 219 261.567 219.42 262.567 219.78C263.567 220.12 264.617 220.29 265.717 220.29C267.217 220.29 268.297 220.06 268.957 219.6C269.617 219.12 269.947 218.49 269.947 217.71C269.947 217.13 269.757 216.68 269.377 216.36C269.017 216.02 268.537 215.77 267.937 215.61C267.337 215.43 266.667 215.28 265.927 215.16C265.187 215.04 264.447 214.9 263.707 214.74C262.987 214.58 262.327 214.35 261.727 214.05C261.127 213.73 260.637 213.3 260.257 212.76C259.897 212.22 259.717 211.5 259.717 210.6C259.717 209.74 259.957 208.97 260.437 208.29C260.917 207.61 261.617 207.08 262.537 206.7C263.477 206.3 264.617 206.1 265.957 206.1C266.977 206.1 267.997 206.24 269.017 206.52C270.037 206.78 270.877 207.13 271.537 207.57L270.607 209.28C269.907 208.8 269.157 208.46 268.357 208.26C267.557 208.04 266.757 207.93 265.957 207.93C264.537 207.93 263.487 208.18 262.807 208.68C262.147 209.16 261.817 209.78 261.817 210.54C261.817 211.14 261.997 211.61 262.357 211.95C262.737 212.29 263.227 212.56 263.827 212.76C264.447 212.94 265.117 213.09 265.837 213.21C266.577 213.33 267.307 213.48 268.027 213.66C268.767 213.82 269.437 214.05 270.037 214.35C270.657 214.63 271.147 215.04 271.507 215.58C271.887 216.1 272.077 216.79 272.077 217.65C272.077 218.57 271.817 219.37 271.297 220.05C270.797 220.71 270.057 221.23 269.077 221.61C268.117 221.97 266.947 222.15 265.567 222.15ZM285.856 222V218.52L285.766 217.95V212.13C285.766 210.79 285.386 209.76 284.626 209.04C283.886 208.32 282.776 207.96 281.296 207.96C280.276 207.96 279.306 208.13 278.386 208.47C277.466 208.81 276.686 209.26 276.046 209.82L275.086 208.23C275.886 207.55 276.846 207.03 277.966 206.67C279.086 206.29 280.266 206.1 281.506 206.1C283.546 206.1 285.116 206.61 286.216 207.63C287.336 208.63 287.896 210.16 287.896 212.22V222H285.856ZM280.426 222.15C279.246 222.15 278.216 221.96 277.336 221.58C276.476 221.18 275.816 220.64 275.356 219.96C274.896 219.26 274.666 218.46 274.666 217.56C274.666 216.74 274.856 216 275.236 215.34C275.636 214.66 276.276 214.12 277.156 213.72C278.056 213.3 279.256 213.09 280.756 213.09H286.186V214.68H280.816C279.296 214.68 278.236 214.95 277.636 215.49C277.056 216.03 276.766 216.7 276.766 217.5C276.766 218.4 277.116 219.12 277.816 219.66C278.516 220.2 279.496 220.47 280.756 220.47C281.956 220.47 282.986 220.2 283.846 219.66C284.726 219.1 285.366 218.3 285.766 217.26L286.246 218.73C285.846 219.77 285.146 220.6 284.146 221.22C283.166 221.84 281.926 222.15 280.426 222.15ZM291.341 227.97C290.701 227.97 290.091 227.88 289.511 227.7C288.911 227.54 288.411 227.29 288.011 226.95L288.761 225.33C289.401 225.87 290.221 226.14 291.221 226.14C292.061 226.14 292.701 225.89 293.141 225.39C293.601 224.89 293.831 224.15 293.831 223.17V206.25H295.961V223.17C295.961 224.63 295.561 225.79 294.761 226.65C293.981 227.53 292.841 227.97 291.341 227.97ZM294.911 202.77C294.471 202.77 294.101 202.62 293.801 202.32C293.501 202.02 293.351 201.66 293.351 201.24C293.351 200.82 293.501 200.47 293.801 200.19C294.101 199.89 294.471 199.74 294.911 199.74C295.351 199.74 295.721 199.88 296.021 200.16C296.321 200.44 296.471 200.79 296.471 201.21C296.471 201.65 296.321 202.02 296.021 202.32C295.741 202.62 295.371 202.77 294.911 202.77ZM311.783 222V218.52L311.693 217.95V212.13C311.693 210.79 311.313 209.76 310.553 209.04C309.813 208.32 308.703 207.96 307.223 207.96C306.203 207.96 305.233 208.13 304.313 208.47C303.393 208.81 302.613 209.26 301.973 209.82L301.013 208.23C301.813 207.55 302.773 207.03 303.893 206.67C305.013 206.29 306.193 206.1 307.433 206.1C309.473 206.1 311.043 206.61 312.143 207.63C313.263 208.63 313.823 210.16 313.823 212.22V222H311.783ZM306.353 222.15C305.173 222.15 304.143 221.96 303.263 221.58C302.403 221.18 301.743 220.64 301.283 219.96C300.823 219.26 300.593 218.46 300.593 217.56C300.593 216.74 300.783 216 301.163 215.34C301.563 214.66 302.203 214.12 303.083 213.72C303.983 213.3 305.183 213.09 306.683 213.09H312.113V214.68H306.743C305.223 214.68 304.163 214.95 303.563 215.49C302.983 216.03 302.693 216.7 302.693 217.5C302.693 218.4 303.043 219.12 303.743 219.66C304.443 220.2 305.423 220.47 306.683 220.47C307.883 220.47 308.913 220.2 309.773 219.66C310.653 219.1 311.293 218.3 311.693 217.26L312.173 218.73C311.773 219.77 311.073 220.6 310.073 221.22C309.093 221.84 307.853 222.15 306.353 222.15ZM305.543 203.79L309.653 200.07H312.503L307.643 203.79H305.543ZM324.589 222.15C323.109 222.15 321.969 221.75 321.169 220.95C320.369 220.15 319.969 219.02 319.969 217.56V202.77H322.099V217.44C322.099 218.36 322.329 219.07 322.789 219.57C323.269 220.07 323.949 220.32 324.829 220.32C325.769 220.32 326.549 220.05 327.169 219.51L327.919 221.04C327.499 221.42 326.989 221.7 326.389 221.88C325.809 222.06 325.209 222.15 324.589 222.15ZM317.149 208.02V206.25H326.899V208.02H317.149ZM347.688 206.1C348.968 206.1 350.088 206.35 351.048 206.85C352.028 207.33 352.788 208.07 353.328 209.07C353.888 210.07 354.168 211.33 354.168 212.85V222H352.038V213.06C352.038 211.4 351.618 210.15 350.778 209.31C349.958 208.45 348.798 208.02 347.298 208.02C346.178 208.02 345.198 208.25 344.358 208.71C343.538 209.15 342.898 209.8 342.438 210.66C341.998 211.5 341.778 212.52 341.778 213.72V222H339.648V199.74H341.778V210.57L341.358 209.76C341.858 208.62 342.658 207.73 343.758 207.09C344.858 206.43 346.168 206.1 347.688 206.1ZM369.791 222V218.52L369.701 217.95V212.13C369.701 210.79 369.321 209.76 368.561 209.04C367.821 208.32 366.711 207.96 365.231 207.96C364.211 207.96 363.241 208.13 362.321 208.47C361.401 208.81 360.621 209.26 359.981 209.82L359.021 208.23C359.821 207.55 360.781 207.03 361.901 206.67C363.021 206.29 364.201 206.1 365.441 206.1C367.481 206.1 369.051 206.61 370.151 207.63C371.271 208.63 371.831 210.16 371.831 212.22V222H369.791ZM364.361 222.15C363.181 222.15 362.151 221.96 361.271 221.58C360.411 221.18 359.751 220.64 359.291 219.96C358.831 219.26 358.601 218.46 358.601 217.56C358.601 216.74 358.791 216 359.171 215.34C359.571 214.66 360.211 214.12 361.091 213.72C361.991 213.3 363.191 213.09 364.691 213.09H370.121V214.68H364.751C363.231 214.68 362.171 214.95 361.571 215.49C360.991 216.03 360.701 216.7 360.701 217.5C360.701 218.4 361.051 219.12 361.751 219.66C362.451 220.2 363.431 220.47 364.691 220.47C365.891 220.47 366.921 220.2 367.781 219.66C368.661 219.1 369.301 218.3 369.701 217.26L370.181 218.73C369.781 219.77 369.081 220.6 368.081 221.22C367.101 221.84 365.861 222.15 364.361 222.15ZM363.551 203.79L367.661 200.07H370.511L365.651 203.79H363.551ZM382.596 222.15C381.116 222.15 379.976 221.75 379.176 220.95C378.376 220.15 377.976 219.02 377.976 217.56V202.77H380.106V217.44C380.106 218.36 380.336 219.07 380.796 219.57C381.276 220.07 381.956 220.32 382.836 220.32C383.776 220.32 384.556 220.05 385.176 219.51L385.926 221.04C385.506 221.42 384.996 221.7 384.396 221.88C383.816 222.06 383.216 222.15 382.596 222.15ZM375.156 208.02V206.25H384.906V208.02H375.156ZM394.374 222.15C392.894 222.15 391.754 221.75 390.954 220.95C390.154 220.15 389.754 219.02 389.754 217.56V202.77H391.884V217.44C391.884 218.36 392.114 219.07 392.574 219.57C393.054 220.07 393.734 220.32 394.614 220.32C395.554 220.32 396.334 220.05 396.954 219.51L397.704 221.04C397.284 221.42 396.774 221.7 396.174 221.88C395.594 222.06 394.994 222.15 394.374 222.15ZM386.934 208.02V206.25H396.684V208.02H386.934ZM407.715 222.15C406.075 222.15 404.635 221.81 403.395 221.13C402.155 220.43 401.185 219.48 400.485 218.28C399.785 217.06 399.435 215.67 399.435 214.11C399.435 212.55 399.765 211.17 400.425 209.97C401.105 208.77 402.025 207.83 403.185 207.15C404.365 206.45 405.685 206.1 407.145 206.1C408.625 206.1 409.935 206.44 411.075 207.12C412.235 207.78 413.145 208.72 413.805 209.94C414.465 211.14 414.795 212.53 414.795 214.11C414.795 214.21 414.785 214.32 414.765 214.44C414.765 214.54 414.765 214.65 414.765 214.77H401.055V213.18H413.625L412.785 213.81C412.785 212.67 412.535 211.66 412.035 210.78C411.555 209.88 410.895 209.18 410.055 208.68C409.215 208.18 408.245 207.93 407.145 207.93C406.065 207.93 405.095 208.18 404.235 208.68C403.375 209.18 402.705 209.88 402.225 210.78C401.745 211.68 401.505 212.71 401.505 213.87V214.2C401.505 215.4 401.765 216.46 402.285 217.38C402.825 218.28 403.565 218.99 404.505 219.51C405.465 220.01 406.555 220.26 407.775 220.26C408.735 220.26 409.625 220.09 410.445 219.75C411.285 219.41 412.005 218.89 412.605 218.19L413.805 219.57C413.105 220.41 412.225 221.05 411.165 221.49C410.125 221.93 408.975 222.15 407.715 222.15ZM405.165 203.79L409.275 200.07H412.125L407.265 203.79H405.165ZM419.13 222V206.25H421.17V210.54L420.96 209.79C421.4 208.59 422.14 207.68 423.18 207.06C424.22 206.42 425.51 206.1 427.05 206.1V208.17C426.97 208.17 426.89 208.17 426.81 208.17C426.73 208.15 426.65 208.14 426.57 208.14C424.91 208.14 423.61 208.65 422.67 209.67C421.73 210.67 421.26 212.1 421.26 213.96V222H419.13ZM435.343 222.15C434.043 222.15 432.813 221.97 431.653 221.61C430.493 221.23 429.583 220.76 428.923 220.2L429.883 218.52C430.523 219 431.343 219.42 432.343 219.78C433.343 220.12 434.393 220.29 435.493 220.29C436.993 220.29 438.073 220.06 438.733 219.6C439.393 219.12 439.723 218.49 439.723 217.71C439.723 217.13 439.533 216.68 439.153 216.36C438.793 216.02 438.313 215.77 437.713 215.61C437.113 215.43 436.443 215.28 435.703 215.16C434.963 215.04 434.223 214.9 433.483 214.74C432.763 214.58 432.103 214.35 431.503 214.05C430.903 213.73 430.413 213.3 430.033 212.76C429.673 212.22 429.493 211.5 429.493 210.6C429.493 209.74 429.733 208.97 430.213 208.29C430.693 207.61 431.393 207.08 432.313 206.7C433.253 206.3 434.393 206.1 435.733 206.1C436.753 206.1 437.773 206.24 438.793 206.52C439.813 206.78 440.653 207.13 441.313 207.57L440.383 209.28C439.683 208.8 438.933 208.46 438.133 208.26C437.333 208.04 436.533 207.93 435.733 207.93C434.313 207.93 433.263 208.18 432.583 208.68C431.923 209.16 431.593 209.78 431.593 210.54C431.593 211.14 431.773 211.61 432.133 211.95C432.513 212.29 433.003 212.56 433.603 212.76C434.223 212.94 434.893 213.09 435.613 213.21C436.353 213.33 437.083 213.48 437.803 213.66C438.543 213.82 439.213 214.05 439.813 214.35C440.433 214.63 440.923 215.04 441.283 215.58C441.663 216.1 441.853 216.79 441.853 217.65C441.853 218.57 441.593 219.37 441.073 220.05C440.573 220.71 439.833 221.23 438.853 221.61C437.893 221.97 436.723 222.15 435.343 222.15ZM444.051 222V220.59L454.551 207.3L455.001 208.02H444.231V206.25H456.681V207.63L446.211 220.95L445.671 220.23H456.891V222H444.051ZM461.083 222V206.25H463.213V222H461.083ZM460.213 203.79L464.323 200.07H467.173L462.313 203.79H460.213ZM477.18 206.1C478.46 206.1 479.58 206.35 480.54 206.85C481.52 207.33 482.28 208.07 482.82 209.07C483.38 210.07 483.66 211.33 483.66 212.85V222H481.53V213.06C481.53 211.4 481.11 210.15 480.27 209.31C479.45 208.45 478.29 208.02 476.79 208.02C475.67 208.02 474.69 208.25 473.85 208.71C473.03 209.15 472.39 209.8 471.93 210.66C471.49 211.5 471.27 212.52 471.27 213.72V222H469.14V206.25H471.18V210.57L470.85 209.76C471.35 208.62 472.15 207.73 473.25 207.09C474.35 206.43 475.66 206.1 477.18 206.1ZM494.393 222.15C492.913 222.15 491.773 221.75 490.973 220.95C490.173 220.15 489.773 219.02 489.773 217.56V202.77H491.903V217.44C491.903 218.36 492.133 219.07 492.593 219.57C493.073 220.07 493.753 220.32 494.633 220.32C495.573 220.32 496.353 220.05 496.973 219.51L497.723 221.04C497.303 221.42 496.793 221.7 496.193 221.88C495.613 222.06 495.013 222.15 494.393 222.15ZM486.953 208.02V206.25H496.703V208.02H486.953ZM516.142 222.15C514.502 222.15 513.062 221.81 511.822 221.13C510.582 220.43 509.612 219.48 508.912 218.28C508.212 217.06 507.862 215.67 507.862 214.11C507.862 212.55 508.192 211.17 508.852 209.97C509.532 208.77 510.452 207.83 511.612 207.15C512.792 206.45 514.112 206.1 515.572 206.1C517.052 206.1 518.362 206.44 519.502 207.12C520.662 207.78 521.572 208.72 522.232 209.94C522.892 211.14 523.222 212.53 523.222 214.11C523.222 214.21 523.212 214.32 523.192 214.44C523.192 214.54 523.192 214.65 523.192 214.77H509.482V213.18H522.052L521.212 213.81C521.212 212.67 520.962 211.66 520.462 210.78C519.982 209.88 519.322 209.18 518.482 208.68C517.642 208.18 516.672 207.93 515.572 207.93C514.492 207.93 513.522 208.18 512.662 208.68C511.802 209.18 511.132 209.88 510.652 210.78C510.172 211.68 509.932 212.71 509.932 213.87V214.2C509.932 215.4 510.192 216.46 510.712 217.38C511.252 218.28 511.992 218.99 512.932 219.51C513.892 220.01 514.982 220.26 516.202 220.26C517.162 220.26 518.052 220.09 518.872 219.75C519.712 219.41 520.432 218.89 521.032 218.19L522.232 219.57C521.532 220.41 520.652 221.05 519.592 221.49C518.552 221.93 517.402 222.15 516.142 222.15ZM513.592 203.79L517.702 200.07H520.552L515.692 203.79H513.592ZM531.788 222.15C530.488 222.15 529.258 221.97 528.098 221.61C526.938 221.23 526.028 220.76 525.368 220.2L526.328 218.52C526.968 219 527.788 219.42 528.788 219.78C529.788 220.12 530.838 220.29 531.938 220.29C533.438 220.29 534.518 220.06 535.178 219.6C535.838 219.12 536.168 218.49 536.168 217.71C536.168 217.13 535.978 216.68 535.598 216.36C535.238 216.02 534.758 215.77 534.158 215.61C533.558 215.43 532.888 215.28 532.148 215.16C531.408 215.04 530.668 214.9 529.928 214.74C529.208 214.58 528.548 214.35 527.948 214.05C527.348 213.73 526.858 213.3 526.478 212.76C526.118 212.22 525.938 211.5 525.938 210.6C525.938 209.74 526.178 208.97 526.658 208.29C527.138 207.61 527.838 207.08 528.758 206.7C529.698 206.3 530.838 206.1 532.178 206.1C533.198 206.1 534.218 206.24 535.238 206.52C536.258 206.78 537.098 207.13 537.758 207.57L536.828 209.28C536.128 208.8 535.378 208.46 534.578 208.26C533.778 208.04 532.978 207.93 532.178 207.93C530.758 207.93 529.708 208.18 529.028 208.68C528.368 209.16 528.038 209.78 528.038 210.54C528.038 211.14 528.218 211.61 528.578 211.95C528.958 212.29 529.448 212.56 530.048 212.76C530.668 212.94 531.338 213.09 532.058 213.21C532.798 213.33 533.528 213.48 534.248 213.66C534.988 213.82 535.658 214.05 536.258 214.35C536.878 214.63 537.368 215.04 537.728 215.58C538.108 216.1 538.298 216.79 538.298 217.65C538.298 218.57 538.038 219.37 537.518 220.05C537.018 220.71 536.278 221.23 535.298 221.61C534.338 221.97 533.168 222.15 531.788 222.15ZM551.738 217.92L551.798 215.19L561.608 206.25H564.218L557.288 212.88L556.088 213.9L551.738 217.92ZM550.058 222V199.74H552.188V222H550.058ZM562.268 222L555.698 213.81L557.078 212.16L564.878 222H562.268ZM577.653 222V218.52L577.563 217.95V212.13C577.563 210.79 577.183 209.76 576.423 209.04C575.683 208.32 574.573 207.96 573.093 207.96C572.073 207.96 571.103 208.13 570.183 208.47C569.263 208.81 568.483 209.26 567.843 209.82L566.883 208.23C567.683 207.55 568.643 207.03 569.763 206.67C570.883 206.29 572.063 206.1 573.303 206.1C575.343 206.1 576.913 206.61 578.013 207.63C579.133 208.63 579.693 210.16 579.693 212.22V222H577.653ZM572.223 222.15C571.043 222.15 570.013 221.96 569.133 221.58C568.273 221.18 567.613 220.64 567.153 219.96C566.693 219.26 566.463 218.46 566.463 217.56C566.463 216.74 566.653 216 567.033 215.34C567.433 214.66 568.073 214.12 568.953 213.72C569.853 213.3 571.053 213.09 572.553 213.09H577.983V214.68H572.613C571.093 214.68 570.033 214.95 569.433 215.49C568.853 216.03 568.562 216.7 568.562 217.5C568.562 218.4 568.913 219.12 569.613 219.66C570.313 220.2 571.293 220.47 572.553 220.47C573.753 220.47 574.783 220.2 575.643 219.66C576.523 219.1 577.163 218.3 577.563 217.26L578.043 218.73C577.643 219.77 576.943 220.6 575.943 221.22C574.963 221.84 573.723 222.15 572.223 222.15ZM571.413 203.79L575.523 200.07H578.373L573.513 203.79H571.413ZM585.478 222V206.25H587.518V210.54L587.308 209.79C587.748 208.59 588.488 207.68 589.528 207.06C590.568 206.42 591.858 206.1 593.398 206.1V208.17C593.318 208.17 593.238 208.17 593.158 208.17C593.078 208.15 592.998 208.14 592.918 208.14C591.258 208.14 589.958 208.65 589.018 209.67C588.078 210.67 587.608 212.1 587.608 213.96V222H585.478ZM602.938 222.15C601.458 222.15 600.318 221.75 599.518 220.95C598.718 220.15 598.318 219.02 598.318 217.56V202.77H600.448V217.44C600.448 218.36 600.678 219.07 601.138 219.57C601.618 220.07 602.298 220.32 603.178 220.32C604.118 220.32 604.898 220.05 605.518 219.51L606.268 221.04C605.848 221.42 605.338 221.7 604.738 221.88C604.158 222.06 603.558 222.15 602.938 222.15ZM595.498 208.02V206.25H605.248V208.02H595.498ZM609.973 227.97C609.233 227.97 608.523 227.85 607.843 227.61C607.183 227.37 606.613 227.01 606.133 226.53L607.123 224.94C607.523 225.32 607.953 225.61 608.413 225.81C608.893 226.03 609.423 226.14 610.003 226.14C610.703 226.14 611.303 225.94 611.803 225.54C612.323 225.16 612.813 224.48 613.273 223.5L614.293 221.19L614.533 220.86L621.013 206.25H623.113L615.223 223.89C614.783 224.91 614.293 225.72 613.753 226.32C613.233 226.92 612.663 227.34 612.043 227.58C611.423 227.84 610.733 227.97 609.973 227.97ZM614.173 222.45L606.913 206.25H609.133L615.553 220.71L614.173 222.45ZM635.514 222V218.52L635.424 217.95V212.13C635.424 210.79 635.044 209.76 634.284 209.04C633.544 208.32 632.434 207.96 630.954 207.96C629.934 207.96 628.964 208.13 628.044 208.47C627.124 208.81 626.344 209.26 625.704 209.82L624.744 208.23C625.544 207.55 626.504 207.03 627.624 206.67C628.744 206.29 629.924 206.1 631.164 206.1C633.204 206.1 634.774 206.61 635.874 207.63C636.994 208.63 637.554 210.16 637.554 212.22V222H635.514ZM630.084 222.15C628.904 222.15 627.874 221.96 626.994 221.58C626.134 221.18 625.474 220.64 625.014 219.96C624.554 219.26 624.324 218.46 624.324 217.56C624.324 216.74 624.514 216 624.894 215.34C625.294 214.66 625.934 214.12 626.814 213.72C627.714 213.3 628.914 213.09 630.414 213.09H635.844V214.68H630.474C628.954 214.68 627.894 214.95 627.294 215.49C626.714 216.03 626.424 216.7 626.424 217.5C626.424 218.4 626.774 219.12 627.474 219.66C628.174 220.2 629.154 220.47 630.414 220.47C631.614 220.47 632.644 220.2 633.504 219.66C634.384 219.1 635.024 218.3 635.424 217.26L635.904 218.73C635.504 219.77 634.804 220.6 633.804 221.22C632.824 221.84 631.584 222.15 630.084 222.15ZM647.569 222.15C646.269 222.15 645.039 221.97 643.879 221.61C642.719 221.23 641.809 220.76 641.149 220.2L642.109 218.52C642.749 219 643.569 219.42 644.569 219.78C645.569 220.12 646.619 220.29 647.719 220.29C649.219 220.29 650.299 220.06 650.959 219.6C651.619 219.12 651.949 218.49 651.949 217.71C651.949 217.13 651.759 216.68 651.379 216.36C651.019 216.02 650.539 215.77 649.939 215.61C649.339 215.43 648.669 215.28 647.929 215.16C647.189 215.04 646.449 214.9 645.709 214.74C644.989 214.58 644.329 214.35 643.729 214.05C643.129 213.73 642.639 213.3 642.259 212.76C641.899 212.22 641.719 211.5 641.719 210.6C641.719 209.74 641.959 208.97 642.439 208.29C642.919 207.61 643.619 207.08 644.539 206.7C645.479 206.3 646.619 206.1 647.959 206.1C648.979 206.1 649.999 206.24 651.019 206.52C652.039 206.78 652.879 207.13 653.539 207.57L652.609 209.28C651.909 208.8 651.159 208.46 650.359 208.26C649.559 208.04 648.759 207.93 647.959 207.93C646.539 207.93 645.489 208.18 644.809 208.68C644.149 209.16 643.819 209.78 643.819 210.54C643.819 211.14 643.999 211.61 644.359 211.95C644.739 212.29 645.229 212.56 645.829 212.76C646.449 212.94 647.119 213.09 647.839 213.21C648.579 213.33 649.309 213.48 650.029 213.66C650.769 213.82 651.439 214.05 652.039 214.35C652.659 214.63 653.149 215.04 653.509 215.58C653.889 216.1 654.079 216.79 654.079 217.65C654.079 218.57 653.819 219.37 653.299 220.05C652.799 220.71 652.059 221.23 651.079 221.61C650.119 221.97 648.949 222.15 647.569 222.15ZM656.278 222V220.59L666.778 207.3L667.228 208.02H656.458V206.25H668.908V207.63L658.438 220.95L657.898 220.23H669.118V222H656.278ZM673.31 222V206.25H675.44V222H673.31ZM672.44 203.79L676.55 200.07H679.4L674.54 203.79H672.44ZM689.406 206.1C690.686 206.1 691.806 206.35 692.766 206.85C693.746 207.33 694.506 208.07 695.046 209.07C695.606 210.07 695.886 211.33 695.886 212.85V222H693.756V213.06C693.756 211.4 693.336 210.15 692.496 209.31C691.676 208.45 690.516 208.02 689.016 208.02C687.896 208.02 686.916 208.25 686.076 208.71C685.256 209.15 684.616 209.8 684.156 210.66C683.716 211.5 683.496 212.52 683.496 213.72V222H681.366V206.25H683.406V210.57L683.076 209.76C683.576 208.62 684.376 207.73 685.476 207.09C686.576 206.43 687.886 206.1 689.406 206.1ZM706.62 222.15C705.14 222.15 704 221.75 703.2 220.95C702.4 220.15 702 219.02 702 217.56V202.77H704.13V217.44C704.13 218.36 704.36 219.07 704.82 219.57C705.3 220.07 705.98 220.32 706.86 220.32C707.8 220.32 708.58 220.05 709.2 219.51L709.95 221.04C709.53 221.42 709.02 221.7 708.42 221.88C707.84 222.06 707.24 222.15 706.62 222.15ZM699.18 208.02V206.25H708.93V208.02H699.18ZM243.232 259V243.25H245.362V259H243.232ZM244.312 239.77C243.872 239.77 243.502 239.62 243.202 239.32C242.902 239.02 242.752 238.66 242.752 238.24C242.752 237.82 242.902 237.47 243.202 237.19C243.502 236.89 243.872 236.74 244.312 236.74C244.752 236.74 245.122 236.88 245.422 237.16C245.722 237.44 245.872 237.79 245.872 238.21C245.872 238.65 245.722 239.02 245.422 239.32C245.142 239.62 244.772 239.77 244.312 239.77ZM255.518 259.15C254.218 259.15 252.988 258.97 251.828 258.61C250.668 258.23 249.758 257.76 249.098 257.2L250.058 255.52C250.698 256 251.518 256.42 252.518 256.78C253.518 257.12 254.568 257.29 255.668 257.29C257.168 257.29 258.248 257.06 258.908 256.6C259.568 256.12 259.898 255.49 259.898 254.71C259.898 254.13 259.708 253.68 259.328 253.36C258.968 253.02 258.488 252.77 257.888 252.61C257.288 252.43 256.618 252.28 255.878 252.16C255.138 252.04 254.398 251.9 253.658 251.74C252.938 251.58 252.278 251.35 251.678 251.05C251.078 250.73 250.588 250.3 250.208 249.76C249.848 249.22 249.668 248.5 249.668 247.6C249.668 246.74 249.908 245.97 250.388 245.29C250.868 244.61 251.568 244.08 252.488 243.7C253.428 243.3 254.568 243.1 255.908 243.1C256.928 243.1 257.948 243.24 258.968 243.52C259.988 243.78 260.828 244.13 261.488 244.57L260.558 246.28C259.858 245.8 259.108 245.46 258.308 245.26C257.508 245.04 256.708 244.93 255.908 244.93C254.488 244.93 253.438 245.18 252.758 245.68C252.098 246.16 251.768 246.78 251.768 247.54C251.768 248.14 251.948 248.61 252.308 248.95C252.688 249.29 253.178 249.56 253.778 249.76C254.398 249.94 255.068 250.09 255.788 250.21C256.528 250.33 257.258 250.48 257.978 250.66C258.718 250.82 259.388 251.05 259.988 251.35C260.608 251.63 261.098 252.04 261.458 252.58C261.838 253.1 262.028 253.79 262.028 254.65C262.028 255.57 261.768 256.37 261.248 257.05C260.748 257.71 260.008 258.23 259.028 258.61C258.068 258.97 256.898 259.15 255.518 259.15ZM264.647 263.38L265.967 257.83L266.207 259.12C265.747 259.12 265.357 258.97 265.037 258.67C264.737 258.37 264.587 257.98 264.587 257.5C264.587 257.02 264.737 256.63 265.037 256.33C265.357 256.03 265.737 255.88 266.177 255.88C266.637 255.88 267.007 256.04 267.287 256.36C267.587 256.68 267.737 257.06 267.737 257.5C267.737 257.66 267.727 257.82 267.707 257.98C267.687 258.14 267.647 258.32 267.587 258.52C267.527 258.72 267.447 258.96 267.347 259.24L266.087 263.38H264.647ZM290.016 259V255.52L289.926 254.95V249.13C289.926 247.79 289.546 246.76 288.786 246.04C288.046 245.32 286.936 244.96 285.456 244.96C284.436 244.96 283.466 245.13 282.546 245.47C281.626 245.81 280.846 246.26 280.206 246.82L279.246 245.23C280.046 244.55 281.006 244.03 282.126 243.67C283.246 243.29 284.426 243.1 285.666 243.1C287.706 243.1 289.276 243.61 290.376 244.63C291.496 245.63 292.056 247.16 292.056 249.22V259H290.016ZM284.586 259.15C283.406 259.15 282.376 258.96 281.496 258.58C280.636 258.18 279.976 257.64 279.516 256.96C279.056 256.26 278.826 255.46 278.826 254.56C278.826 253.74 279.016 253 279.396 252.34C279.796 251.66 280.436 251.12 281.316 250.72C282.216 250.3 283.416 250.09 284.916 250.09H290.346V251.68H284.976C283.456 251.68 282.396 251.95 281.796 252.49C281.216 253.03 280.926 253.7 280.926 254.5C280.926 255.4 281.276 256.12 281.976 256.66C282.676 257.2 283.656 257.47 284.916 257.47C286.116 257.47 287.146 257.2 288.006 256.66C288.886 256.1 289.526 255.3 289.926 254.26L290.406 255.73C290.006 256.77 289.306 257.6 288.306 258.22C287.326 258.84 286.086 259.15 284.586 259.15ZM299.521 254.92L299.581 252.19L309.391 243.25H312.001L305.071 249.88L303.871 250.9L299.521 254.92ZM297.841 259V236.74H299.971V259H297.841ZM310.051 259L303.481 250.81L304.861 249.16L312.661 259H310.051ZM325.436 259V255.52L325.346 254.95V249.13C325.346 247.79 324.966 246.76 324.206 246.04C323.466 245.32 322.356 244.96 320.876 244.96C319.856 244.96 318.886 245.13 317.966 245.47C317.046 245.81 316.266 246.26 315.626 246.82L314.666 245.23C315.466 244.55 316.426 244.03 317.546 243.67C318.666 243.29 319.846 243.1 321.086 243.1C323.126 243.1 324.696 243.61 325.796 244.63C326.916 245.63 327.476 247.16 327.476 249.22V259H325.436ZM320.006 259.15C318.826 259.15 317.796 258.96 316.916 258.58C316.056 258.18 315.396 257.64 314.936 256.96C314.476 256.26 314.246 255.46 314.246 254.56C314.246 253.74 314.436 253 314.816 252.34C315.216 251.66 315.856 251.12 316.736 250.72C317.636 250.3 318.836 250.09 320.336 250.09H325.766V251.68H320.396C318.876 251.68 317.816 251.95 317.216 252.49C316.636 253.03 316.346 253.7 316.346 254.5C316.346 255.4 316.696 256.12 317.396 256.66C318.096 257.2 319.076 257.47 320.336 257.47C321.536 257.47 322.566 257.2 323.426 256.66C324.306 256.1 324.946 255.3 325.346 254.26L325.826 255.73C325.426 256.77 324.726 257.6 323.726 258.22C322.746 258.84 321.506 259.15 320.006 259.15ZM319.196 240.79L323.306 237.07H326.156L321.296 240.79H319.196ZM333.261 259V243.25H335.301V247.54L335.091 246.79C335.531 245.59 336.271 244.68 337.311 244.06C338.351 243.42 339.641 243.1 341.181 243.1V245.17C341.101 245.17 341.021 245.17 340.941 245.17C340.861 245.15 340.781 245.14 340.701 245.14C339.041 245.14 337.741 245.65 336.801 246.67C335.861 247.67 335.391 249.1 335.391 250.96V259H333.261ZM357.384 259.15C356.084 259.15 354.854 258.97 353.694 258.61C352.534 258.23 351.624 257.76 350.964 257.2L351.924 255.52C352.564 256 353.384 256.42 354.384 256.78C355.384 257.12 356.434 257.29 357.534 257.29C359.034 257.29 360.114 257.06 360.774 256.6C361.434 256.12 361.764 255.49 361.764 254.71C361.764 254.13 361.574 253.68 361.194 253.36C360.834 253.02 360.354 252.77 359.754 252.61C359.154 252.43 358.484 252.28 357.744 252.16C357.004 252.04 356.264 251.9 355.524 251.74C354.804 251.58 354.144 251.35 353.544 251.05C352.944 250.73 352.454 250.3 352.074 249.76C351.714 249.22 351.534 248.5 351.534 247.6C351.534 246.74 351.774 245.97 352.254 245.29C352.734 244.61 353.434 244.08 354.354 243.7C355.294 243.3 356.434 243.1 357.774 243.1C358.794 243.1 359.814 243.24 360.834 243.52C361.854 243.78 362.694 244.13 363.354 244.57L362.424 246.28C361.724 245.8 360.974 245.46 360.174 245.26C359.374 245.04 358.574 244.93 357.774 244.93C356.354 244.93 355.304 245.18 354.624 245.68C353.964 246.16 353.634 246.78 353.634 247.54C353.634 248.14 353.814 248.61 354.174 248.95C354.554 249.29 355.044 249.56 355.644 249.76C356.264 249.94 356.934 250.09 357.654 250.21C358.394 250.33 359.124 250.48 359.844 250.66C360.584 250.82 361.254 251.05 361.854 251.35C362.474 251.63 362.964 252.04 363.324 252.58C363.704 253.1 363.894 253.79 363.894 254.65C363.894 255.57 363.634 256.37 363.114 257.05C362.614 257.71 361.874 258.23 360.894 258.61C359.934 258.97 358.764 259.15 357.384 259.15ZM377.672 259V255.52L377.582 254.95V249.13C377.582 247.79 377.202 246.76 376.442 246.04C375.702 245.32 374.592 244.96 373.112 244.96C372.092 244.96 371.122 245.13 370.202 245.47C369.282 245.81 368.502 246.26 367.862 246.82L366.902 245.23C367.702 244.55 368.662 244.03 369.782 243.67C370.902 243.29 372.082 243.1 373.322 243.1C375.362 243.1 376.932 243.61 378.032 244.63C379.152 245.63 379.712 247.16 379.712 249.22V259H377.672ZM372.242 259.15C371.062 259.15 370.032 258.96 369.152 258.58C368.292 258.18 367.632 257.64 367.172 256.96C366.712 256.26 366.482 255.46 366.482 254.56C366.482 253.74 366.672 253 367.052 252.34C367.452 251.66 368.092 251.12 368.972 250.72C369.872 250.3 371.072 250.09 372.572 250.09H378.002V251.68H372.632C371.112 251.68 370.052 251.95 369.452 252.49C368.872 253.03 368.582 253.7 368.582 254.5C368.582 255.4 368.932 256.12 369.632 256.66C370.332 257.2 371.312 257.47 372.572 257.47C373.772 257.47 374.802 257.2 375.662 256.66C376.542 256.1 377.182 255.3 377.582 254.26L378.062 255.73C377.662 256.77 376.962 257.6 375.962 258.22C374.982 258.84 373.742 259.15 372.242 259.15ZM383.157 264.97C382.517 264.97 381.907 264.88 381.327 264.7C380.727 264.54 380.227 264.29 379.827 263.95L380.577 262.33C381.217 262.87 382.037 263.14 383.037 263.14C383.877 263.14 384.517 262.89 384.957 262.39C385.417 261.89 385.647 261.15 385.647 260.17V243.25H387.777V260.17C387.777 261.63 387.377 262.79 386.577 263.65C385.797 264.53 384.657 264.97 383.157 264.97ZM386.727 239.77C386.287 239.77 385.917 239.62 385.617 239.32C385.317 239.02 385.167 238.66 385.167 238.24C385.167 237.82 385.317 237.47 385.617 237.19C385.917 236.89 386.287 236.74 386.727 236.74C387.167 236.74 387.537 236.88 387.837 237.16C388.137 237.44 388.287 237.79 388.287 238.21C388.287 238.65 388.137 239.02 387.837 239.32C387.557 239.62 387.187 239.77 386.727 239.77ZM403.6 259V255.52L403.51 254.95V249.13C403.51 247.79 403.13 246.76 402.37 246.04C401.63 245.32 400.52 244.96 399.04 244.96C398.02 244.96 397.05 245.13 396.13 245.47C395.21 245.81 394.43 246.26 393.79 246.82L392.83 245.23C393.63 244.55 394.59 244.03 395.71 243.67C396.83 243.29 398.01 243.1 399.25 243.1C401.29 243.1 402.86 243.61 403.96 244.63C405.08 245.63 405.64 247.16 405.64 249.22V259H403.6ZM398.17 259.15C396.99 259.15 395.96 258.96 395.08 258.58C394.22 258.18 393.56 257.64 393.1 256.96C392.64 256.26 392.41 255.46 392.41 254.56C392.41 253.74 392.6 253 392.98 252.34C393.38 251.66 394.02 251.12 394.9 250.72C395.8 250.3 397 250.09 398.5 250.09H403.93V251.68H398.56C397.04 251.68 395.98 251.95 395.38 252.49C394.8 253.03 394.51 253.7 394.51 254.5C394.51 255.4 394.86 256.12 395.56 256.66C396.26 257.2 397.24 257.47 398.5 257.47C399.7 257.47 400.73 257.2 401.59 256.66C402.47 256.1 403.11 255.3 403.51 254.26L403.99 255.73C403.59 256.77 402.89 257.6 401.89 258.22C400.91 258.84 399.67 259.15 398.17 259.15ZM397.36 240.79L401.47 237.07H404.32L399.46 240.79H397.36ZM416.405 259.15C414.925 259.15 413.785 258.75 412.985 257.95C412.185 257.15 411.785 256.02 411.785 254.56V239.77H413.915V254.44C413.915 255.36 414.145 256.07 414.605 256.57C415.085 257.07 415.765 257.32 416.645 257.32C417.585 257.32 418.365 257.05 418.985 256.51L419.735 258.04C419.315 258.42 418.805 258.7 418.205 258.88C417.625 259.06 417.025 259.15 416.405 259.15ZM408.965 245.02V243.25H418.715V245.02H408.965ZM447.274 238H449.464V259H447.274V238ZM434.134 259H431.914V238H434.134V259ZM447.484 249.31H433.894V247.36H447.484V249.31ZM458.298 247.39H469.398V249.28H458.298V247.39ZM458.538 257.08H471.168V259H456.318V238H470.718V239.92H458.538V257.08ZM473.213 259L481.823 247.36V249.07L473.723 238H476.273L483.083 247.24L482.093 247.27L488.903 238H491.303L483.293 248.92V247.36L491.873 259H489.293L482.033 249.13H482.963L475.763 259H473.213ZM493.693 251.8V249.94H501.553V251.8H493.693ZM507.998 254.92L508.058 252.19L517.868 243.25H520.478L513.548 249.88L512.348 250.9L507.998 254.92ZM506.318 259V236.74H508.448V259H506.318ZM518.528 259L511.958 250.81L513.338 249.16L521.138 259H518.528ZM530.111 259.15C528.591 259.15 527.221 258.81 526.001 258.13C524.801 257.43 523.851 256.48 523.151 255.28C522.451 254.06 522.101 252.67 522.101 251.11C522.101 249.53 522.451 248.14 523.151 246.94C523.851 245.74 524.801 244.8 526.001 244.12C527.201 243.44 528.571 243.1 530.111 243.1C531.671 243.1 533.051 243.44 534.251 244.12C535.471 244.8 536.421 245.74 537.101 246.94C537.801 248.14 538.151 249.53 538.151 251.11C538.151 252.67 537.801 254.06 537.101 255.28C536.421 256.48 535.471 257.43 534.251 258.13C533.031 258.81 531.651 259.15 530.111 259.15ZM530.111 257.26C531.251 257.26 532.261 257.01 533.141 256.51C534.021 255.99 534.711 255.27 535.211 254.35C535.731 253.41 535.991 252.33 535.991 251.11C535.991 249.87 535.731 248.79 535.211 247.87C534.711 246.95 534.021 246.24 533.141 245.74C532.261 245.22 531.261 244.96 530.141 244.96C529.021 244.96 528.021 245.22 527.141 245.74C526.261 246.24 525.561 246.95 525.041 247.87C524.521 248.79 524.261 249.87 524.261 251.11C524.261 252.33 524.521 253.41 525.041 254.35C525.561 255.27 526.261 255.99 527.141 256.51C528.021 257.01 529.011 257.26 530.111 257.26ZM528.161 240.79L532.271 237.07H535.121L530.261 240.79H528.161ZM548.769 259.15C547.269 259.15 545.919 258.81 544.719 258.13C543.539 257.45 542.609 256.51 541.929 255.31C541.249 254.09 540.909 252.69 540.909 251.11C540.909 249.51 541.249 248.11 541.929 246.91C542.609 245.71 543.539 244.78 544.719 244.12C545.919 243.44 547.269 243.1 548.769 243.1C550.149 243.1 551.379 243.41 552.459 244.03C553.559 244.65 554.429 245.56 555.069 246.76C555.729 247.94 556.059 249.39 556.059 251.11C556.059 252.81 555.739 254.26 555.099 255.46C554.459 256.66 553.589 257.58 552.489 258.22C551.409 258.84 550.169 259.15 548.769 259.15ZM548.919 257.26C550.039 257.26 551.039 257.01 551.919 256.51C552.819 255.99 553.519 255.27 554.019 254.35C554.539 253.41 554.799 252.33 554.799 251.11C554.799 249.87 554.539 248.79 554.019 247.87C553.519 246.95 552.819 246.24 551.919 245.74C551.039 245.22 550.039 244.96 548.919 244.96C547.819 244.96 546.829 245.22 545.949 245.74C545.069 246.24 544.369 246.95 543.849 247.87C543.329 248.79 543.069 249.87 543.069 251.11C543.069 252.33 543.329 253.41 543.849 254.35C544.369 255.27 545.069 255.99 545.949 256.51C546.829 257.01 547.819 257.26 548.919 257.26ZM554.859 259V254.26L555.069 251.08L554.769 247.9V236.74H556.899V259H554.859ZM569.101 259.15C567.601 259.15 566.251 258.81 565.051 258.13C563.871 257.45 562.941 256.51 562.261 255.31C561.581 254.09 561.241 252.69 561.241 251.11C561.241 249.51 561.581 248.11 562.261 246.91C562.941 245.71 563.871 244.78 565.051 244.12C566.251 243.44 567.601 243.1 569.101 243.1C570.481 243.1 571.711 243.41 572.791 244.03C573.891 244.65 574.761 245.56 575.401 246.76C576.061 247.94 576.391 249.39 576.391 251.11C576.391 252.81 576.071 254.26 575.431 255.46C574.791 256.66 573.921 257.58 572.821 258.22C571.741 258.84 570.501 259.15 569.101 259.15ZM569.251 257.26C570.371 257.26 571.371 257.01 572.251 256.51C573.151 255.99 573.851 255.27 574.351 254.35C574.871 253.41 575.131 252.33 575.131 251.11C575.131 249.87 574.871 248.79 574.351 247.87C573.851 246.95 573.151 246.24 572.251 245.74C571.371 245.22 570.371 244.96 569.251 244.96C568.151 244.96 567.161 245.22 566.281 245.74C565.401 246.24 564.701 246.95 564.181 247.87C563.661 248.79 563.401 249.87 563.401 251.11C563.401 252.33 563.661 253.41 564.181 254.35C564.701 255.27 565.401 255.99 566.281 256.51C567.161 257.01 568.151 257.26 569.251 257.26ZM575.191 259V254.26L575.401 251.08L575.101 247.9V236.74H577.231V259H575.191ZM593.033 259V255.52L592.943 254.95V249.13C592.943 247.79 592.563 246.76 591.803 246.04C591.063 245.32 589.953 244.96 588.473 244.96C587.453 244.96 586.483 245.13 585.563 245.47C584.643 245.81 583.863 246.26 583.223 246.82L582.263 245.23C583.063 244.55 584.023 244.03 585.143 243.67C586.263 243.29 587.443 243.1 588.683 243.1C590.723 243.1 592.293 243.61 593.393 244.63C594.513 245.63 595.073 247.16 595.073 249.22V259H593.033ZM587.603 259.15C586.423 259.15 585.393 258.96 584.513 258.58C583.653 258.18 582.993 257.64 582.533 256.96C582.073 256.26 581.843 255.46 581.843 254.56C581.843 253.74 582.033 253 582.413 252.34C582.813 251.66 583.453 251.12 584.333 250.72C585.233 250.3 586.433 250.09 587.933 250.09H593.363V251.68H587.993C586.473 251.68 585.413 251.95 584.813 252.49C584.233 253.03 583.943 253.7 583.943 254.5C583.943 255.4 584.293 256.12 584.993 256.66C585.693 257.2 586.673 257.47 587.933 257.47C589.133 257.47 590.163 257.2 591.023 256.66C591.903 256.1 592.543 255.3 592.943 254.26L593.423 255.73C593.023 256.77 592.323 257.6 591.323 258.22C590.343 258.84 589.103 259.15 587.603 259.15ZM600.859 259V236.74H602.989V259H600.859ZM609.005 252.7L608.585 238H611.105L610.655 252.7H609.005ZM609.845 259.15C609.405 259.15 609.025 259 608.705 258.7C608.405 258.38 608.255 258.01 608.255 257.59C608.255 257.15 608.405 256.79 608.705 256.51C609.025 256.21 609.405 256.06 609.845 256.06C610.305 256.06 610.675 256.21 610.955 256.51C611.255 256.79 611.405 257.15 611.405 257.59C611.405 258.01 611.255 258.38 610.955 258.7C610.675 259 610.305 259.15 609.845 259.15Z" fill="black"/>
<g filter="url(#filter1_d_2142_2565)">
<rect x="132.491" y="332.676" width="357.862" height="794.575" rx="25.7782" fill="#EBD5C0"/>
<rect x="153.72" y="408.494" width="313.887" height="109.178" rx="15.1636" fill="#BBF4CB"/>
<rect x="153.72" y="561.647" width="313.887" height="68.2364" rx="15.1636" fill="#BBF4CB"/>
<rect x="153.72" y="526.77" width="71.2691" height="25.7782" rx="12.8891" fill="#EF7D12" fill-opacity="0.5"/>
<circle cx="190.113" cy="595.007" r="18.1964" fill="#EF7D12"/>
<circle cx="449.411" cy="372.101" r="18.1964" fill="#EF7D12"/>
<path d="M159.167 379.221C158.11 379.221 157.096 379.082 156.127 378.805C155.158 378.516 154.378 378.144 153.786 377.691L154.825 375.388C155.391 375.791 156.058 376.124 156.826 376.389C157.606 376.64 158.393 376.766 159.186 376.766C159.79 376.766 160.274 376.71 160.639 376.596C161.017 376.471 161.294 376.301 161.47 376.087C161.646 375.873 161.734 375.627 161.734 375.35C161.734 374.998 161.596 374.721 161.319 374.52C161.042 374.306 160.677 374.136 160.224 374.01C159.771 373.872 159.267 373.746 158.714 373.632C158.172 373.507 157.625 373.356 157.071 373.179C156.53 373.003 156.033 372.777 155.58 372.5C155.127 372.223 154.755 371.858 154.466 371.405C154.189 370.952 154.051 370.373 154.051 369.668C154.051 368.913 154.252 368.227 154.655 367.61C155.07 366.981 155.687 366.484 156.505 366.119C157.336 365.741 158.374 365.552 159.62 365.552C160.451 365.552 161.269 365.653 162.074 365.854C162.88 366.043 163.591 366.333 164.207 366.723L163.263 369.045C162.647 368.692 162.03 368.434 161.413 368.271C160.797 368.095 160.192 368.007 159.601 368.007C159.009 368.007 158.525 368.076 158.147 368.214C157.77 368.353 157.499 368.535 157.336 368.762C157.172 368.976 157.09 369.227 157.09 369.517C157.09 369.857 157.229 370.134 157.505 370.348C157.782 370.549 158.147 370.713 158.6 370.838C159.053 370.964 159.551 371.09 160.092 371.216C160.646 371.342 161.193 371.487 161.734 371.65C162.288 371.814 162.791 372.034 163.245 372.311C163.698 372.588 164.063 372.953 164.34 373.406C164.629 373.859 164.774 374.432 164.774 375.124C164.774 375.866 164.566 376.546 164.151 377.163C163.735 377.779 163.112 378.277 162.282 378.654C161.464 379.032 160.425 379.221 159.167 379.221ZM165.957 378.994V377.219L171.961 370.121L172.471 371.103H166.09V368.837H174.849V370.612L168.846 377.71L168.317 376.729H175.019V378.994H165.957ZM181.818 379.145C180.66 379.145 179.641 378.919 178.76 378.465C177.891 378.012 177.218 377.396 176.74 376.615C176.261 375.822 176.022 374.922 176.022 373.916C176.022 372.896 176.255 371.996 176.721 371.216C177.199 370.423 177.847 369.806 178.665 369.366C179.483 368.913 180.408 368.686 181.44 368.686C182.435 368.686 183.328 368.9 184.121 369.328C184.927 369.743 185.562 370.348 186.028 371.14C186.494 371.921 186.727 372.858 186.727 373.953C186.727 374.067 186.72 374.199 186.708 374.35C186.695 374.488 186.682 374.62 186.67 374.746H178.42V373.028H185.122L183.989 373.538C183.989 373.009 183.882 372.55 183.668 372.16C183.454 371.77 183.158 371.468 182.781 371.254C182.403 371.027 181.963 370.914 181.459 370.914C180.956 370.914 180.509 371.027 180.119 371.254C179.741 371.468 179.446 371.776 179.232 372.179C179.018 372.569 178.911 373.035 178.911 373.576V374.029C178.911 374.583 179.03 375.074 179.269 375.501C179.521 375.917 179.867 376.238 180.308 376.464C180.761 376.678 181.289 376.785 181.894 376.785C182.435 376.785 182.907 376.703 183.309 376.54C183.725 376.376 184.102 376.131 184.442 375.804L186.009 377.503C185.543 378.031 184.958 378.44 184.253 378.73C183.549 379.007 182.737 379.145 181.818 379.145ZM179.666 367.535L182.215 364.816H185.386L181.969 367.535H179.666ZM194.691 379.145C193.835 379.145 193.086 378.956 192.444 378.579C191.802 378.201 191.299 377.628 190.934 376.861C190.581 376.08 190.405 375.099 190.405 373.916C190.405 372.72 190.575 371.738 190.915 370.971C191.255 370.203 191.746 369.63 192.388 369.253C193.029 368.875 193.797 368.686 194.691 368.686C195.647 368.686 196.503 368.906 197.258 369.347C198.026 369.775 198.63 370.379 199.071 371.159C199.524 371.94 199.75 372.858 199.75 373.916C199.75 374.985 199.524 375.91 199.071 376.691C198.63 377.471 198.026 378.075 197.258 378.503C196.503 378.931 195.647 379.145 194.691 379.145ZM188.687 382.657V368.837H191.5V370.914L191.444 373.935L191.632 376.936V382.657H188.687ZM194.181 376.729C194.672 376.729 195.106 376.615 195.484 376.389C195.874 376.162 196.182 375.841 196.409 375.426C196.648 374.998 196.767 374.495 196.767 373.916C196.767 373.324 196.648 372.821 196.409 372.405C196.182 371.99 195.874 371.669 195.484 371.443C195.106 371.216 194.672 371.103 194.181 371.103C193.69 371.103 193.25 371.216 192.859 371.443C192.469 371.669 192.161 371.99 191.934 372.405C191.708 372.821 191.595 373.324 191.595 373.916C191.595 374.495 191.708 374.998 191.934 375.426C192.161 375.841 192.469 376.162 192.859 376.389C193.25 376.615 193.69 376.729 194.181 376.729ZM213.242 368.686C214.047 368.686 214.765 368.85 215.394 369.177C216.036 369.492 216.539 369.983 216.904 370.65C217.269 371.304 217.452 372.147 217.452 373.179V378.994H214.507V373.632C214.507 372.814 214.324 372.21 213.959 371.82C213.607 371.43 213.103 371.235 212.449 371.235C211.983 371.235 211.561 371.336 211.184 371.537C210.819 371.726 210.529 372.021 210.315 372.424C210.114 372.827 210.013 373.343 210.013 373.972V378.994H207.068V368.837H209.881V371.65L209.353 370.801C209.718 370.121 210.24 369.599 210.92 369.234C211.599 368.869 212.373 368.686 213.242 368.686ZM226.351 378.994V377.012L226.162 376.578V373.028C226.162 372.399 225.967 371.908 225.577 371.556C225.2 371.203 224.614 371.027 223.821 371.027C223.28 371.027 222.745 371.115 222.217 371.291C221.701 371.455 221.26 371.682 220.895 371.971L219.838 369.913C220.392 369.523 221.059 369.221 221.839 369.007C222.619 368.793 223.412 368.686 224.218 368.686C225.766 368.686 226.968 369.051 227.824 369.781C228.68 370.511 229.108 371.65 229.108 373.198V378.994H226.351ZM223.255 379.145C222.462 379.145 221.783 379.013 221.216 378.749C220.65 378.472 220.216 378.1 219.914 377.635C219.611 377.169 219.46 376.647 219.46 376.068C219.46 375.464 219.605 374.935 219.895 374.482C220.197 374.029 220.669 373.676 221.311 373.425C221.952 373.16 222.789 373.028 223.821 373.028H226.521V374.746H224.142C223.45 374.746 222.972 374.86 222.708 375.086C222.456 375.313 222.33 375.596 222.33 375.936C222.33 376.313 222.475 376.615 222.764 376.842C223.066 377.056 223.475 377.163 223.991 377.163C224.482 377.163 224.923 377.05 225.313 376.823C225.703 376.584 225.986 376.238 226.162 375.785L226.616 377.144C226.402 377.798 226.011 378.296 225.445 378.635C224.879 378.975 224.149 379.145 223.255 379.145ZM237.776 379.145C236.921 379.145 236.172 378.956 235.53 378.579C234.888 378.201 234.385 377.628 234.02 376.861C233.667 376.08 233.491 375.099 233.491 373.916C233.491 372.72 233.661 371.738 234.001 370.971C234.34 370.203 234.831 369.63 235.473 369.253C236.115 368.875 236.883 368.686 237.776 368.686C238.733 368.686 239.589 368.906 240.344 369.347C241.112 369.775 241.716 370.379 242.156 371.159C242.609 371.94 242.836 372.858 242.836 373.916C242.836 374.985 242.609 375.91 242.156 376.691C241.716 377.471 241.112 378.075 240.344 378.503C239.589 378.931 238.733 379.145 237.776 379.145ZM231.773 382.657V368.837H234.586V370.914L234.529 373.935L234.718 376.936V382.657H231.773ZM237.267 376.729C237.758 376.729 238.192 376.615 238.569 376.389C238.959 376.162 239.268 375.841 239.494 375.426C239.734 374.998 239.853 374.495 239.853 373.916C239.853 373.324 239.734 372.821 239.494 372.405C239.268 371.99 238.959 371.669 238.569 371.443C238.192 371.216 237.758 371.103 237.267 371.103C236.776 371.103 236.335 371.216 235.945 371.443C235.555 371.669 235.247 371.99 235.02 372.405C234.794 372.821 234.68 373.324 234.68 373.916C234.68 374.495 234.794 374.998 235.02 375.426C235.247 375.841 235.555 376.162 235.945 376.389C236.335 376.615 236.776 376.729 237.267 376.729ZM249.64 379.145C248.558 379.145 247.595 378.919 246.752 378.465C245.921 378.012 245.261 377.396 244.77 376.615C244.291 375.822 244.052 374.922 244.052 373.916C244.052 372.896 244.291 371.996 244.77 371.216C245.261 370.423 245.921 369.806 246.752 369.366C247.595 368.913 248.558 368.686 249.64 368.686C250.71 368.686 251.667 368.913 252.51 369.366C253.353 369.806 254.014 370.417 254.492 371.197C254.971 371.977 255.21 372.884 255.21 373.916C255.21 374.922 254.971 375.822 254.492 376.615C254.014 377.396 253.353 378.012 252.51 378.465C251.667 378.919 250.71 379.145 249.64 379.145ZM249.64 376.729C250.131 376.729 250.572 376.615 250.962 376.389C251.352 376.162 251.66 375.841 251.887 375.426C252.114 374.998 252.227 374.495 252.227 373.916C252.227 373.324 252.114 372.821 251.887 372.405C251.66 371.99 251.352 371.669 250.962 371.443C250.572 371.216 250.131 371.103 249.64 371.103C249.15 371.103 248.709 371.216 248.319 371.443C247.929 371.669 247.614 371.99 247.375 372.405C247.148 372.821 247.035 373.324 247.035 373.916C247.035 374.495 247.148 374.998 247.375 375.426C247.614 375.841 247.929 376.162 248.319 376.389C248.709 376.615 249.15 376.729 249.64 376.729ZM261.332 379.145C260.136 379.145 259.205 378.843 258.537 378.239C257.87 377.622 257.537 376.71 257.537 375.501V366.591H260.482V375.464C260.482 375.892 260.595 376.225 260.822 376.464C261.048 376.691 261.357 376.804 261.747 376.804C262.213 376.804 262.609 376.678 262.936 376.427L263.729 378.503C263.427 378.717 263.062 378.881 262.634 378.994C262.219 379.095 261.785 379.145 261.332 379.145ZM255.97 371.329V369.064H263.012V371.329H255.97ZM265.057 381.901L266.303 377.37L266.718 379.07C266.177 379.07 265.73 378.912 265.378 378.598C265.038 378.283 264.868 377.849 264.868 377.295C264.868 376.741 265.044 376.301 265.397 375.973C265.749 375.646 266.183 375.483 266.699 375.483C267.228 375.483 267.662 375.652 268.002 375.992C268.342 376.32 268.512 376.754 268.512 377.295C268.512 377.459 268.499 377.622 268.474 377.786C268.449 377.937 268.399 378.126 268.323 378.352C268.26 378.566 268.153 378.843 268.002 379.183L266.926 381.901H265.057ZM276.062 378.994V365.779H282.518C284.18 365.779 285.426 366.094 286.256 366.723C287.1 367.352 287.521 368.183 287.521 369.215C287.521 369.907 287.351 370.511 287.012 371.027C286.672 371.531 286.206 371.921 285.615 372.198C285.023 372.475 284.343 372.613 283.576 372.613L283.934 371.839C284.765 371.839 285.501 371.977 286.143 372.254C286.785 372.519 287.282 372.915 287.635 373.444C288 373.972 288.182 374.62 288.182 375.388C288.182 376.521 287.735 377.408 286.842 378.05C285.948 378.679 284.633 378.994 282.896 378.994H276.062ZM279.101 376.691H282.669C283.462 376.691 284.06 376.565 284.463 376.313C284.878 376.049 285.086 375.634 285.086 375.067C285.086 374.513 284.878 374.104 284.463 373.84C284.06 373.563 283.462 373.425 282.669 373.425H278.875V371.197H282.141C282.883 371.197 283.45 371.071 283.84 370.82C284.243 370.555 284.444 370.159 284.444 369.63C284.444 369.114 284.243 368.73 283.84 368.479C283.45 368.214 282.883 368.082 282.141 368.082H279.101V376.691ZM295.33 379.145C294.173 379.145 293.153 378.919 292.272 378.465C291.404 378.012 290.73 377.396 290.252 376.615C289.774 375.822 289.535 374.922 289.535 373.916C289.535 372.896 289.768 371.996 290.233 371.216C290.711 370.423 291.36 369.806 292.178 369.366C292.996 368.913 293.921 368.686 294.953 368.686C295.947 368.686 296.841 368.9 297.634 369.328C298.439 369.743 299.075 370.348 299.54 371.14C300.006 371.921 300.239 372.858 300.239 373.953C300.239 374.067 300.233 374.199 300.22 374.35C300.207 374.488 300.195 374.62 300.182 374.746H291.932V373.028H298.634L297.502 373.538C297.502 373.009 297.395 372.55 297.181 372.16C296.967 371.77 296.671 371.468 296.293 371.254C295.916 371.027 295.475 370.914 294.972 370.914C294.468 370.914 294.022 371.027 293.631 371.254C293.254 371.468 292.958 371.776 292.744 372.179C292.53 372.569 292.423 373.035 292.423 373.576V374.029C292.423 374.583 292.543 375.074 292.782 375.501C293.034 375.917 293.38 376.238 293.82 376.464C294.273 376.678 294.802 376.785 295.406 376.785C295.947 376.785 296.419 376.703 296.822 376.54C297.237 376.376 297.615 376.131 297.955 375.804L299.522 377.503C299.056 378.031 298.471 378.44 297.766 378.73C297.061 379.007 296.249 379.145 295.33 379.145ZM293.178 367.535L295.727 364.816H298.899L295.481 367.535H293.178ZM302.2 378.994V364.986H305.145V378.994H302.2ZM314.108 378.994V377.012L313.919 376.578V373.028C313.919 372.399 313.724 371.908 313.334 371.556C312.956 371.203 312.371 371.027 311.578 371.027C311.037 371.027 310.502 371.115 309.974 371.291C309.458 371.455 309.017 371.682 308.652 371.971L307.595 369.913C308.149 369.523 308.816 369.221 309.596 369.007C310.376 368.793 311.169 368.686 311.975 368.686C313.523 368.686 314.725 369.051 315.581 369.781C316.436 370.511 316.864 371.65 316.864 373.198V378.994H314.108ZM311.012 379.145C310.219 379.145 309.539 379.013 308.973 378.749C308.407 378.472 307.972 378.1 307.67 377.635C307.368 377.169 307.217 376.647 307.217 376.068C307.217 375.464 307.362 374.935 307.652 374.482C307.954 374.029 308.426 373.676 309.067 373.425C309.709 373.16 310.546 373.028 311.578 373.028H314.278V374.746H311.899C311.207 374.746 310.729 374.86 310.464 375.086C310.213 375.313 310.087 375.596 310.087 375.936C310.087 376.313 310.232 376.615 310.521 376.842C310.823 377.056 311.232 377.163 311.748 377.163C312.239 377.163 312.68 377.05 313.07 376.823C313.46 376.584 313.743 376.238 313.919 375.785L314.372 377.144C314.158 377.798 313.768 378.296 313.202 378.635C312.636 378.975 311.906 379.145 311.012 379.145ZM319.737 374.406L319.152 365.779H322.664L322.078 374.406H319.737ZM320.908 379.145C320.379 379.145 319.945 378.975 319.605 378.635C319.266 378.296 319.096 377.893 319.096 377.427C319.096 376.949 319.266 376.552 319.605 376.238C319.945 375.91 320.379 375.747 320.908 375.747C321.449 375.747 321.883 375.91 322.211 376.238C322.55 376.552 322.72 376.949 322.72 377.427C322.72 377.893 322.55 378.296 322.211 378.635C321.883 378.975 321.449 379.145 320.908 379.145Z" fill="#6E3B0B"/>
</g>
<g clip-path="url(#clip1_2142_2565)">
<path d="M491.188 358.351C491.188 344.171 479.693 332.676 465.513 332.676H313.727V1101.8C313.727 1115.98 325.223 1127.47 339.403 1127.47H491.188V358.351Z" fill="#392614"/>
<rect x="153.72" y="408.494" width="313.887" height="109.178" rx="15.1636" fill="#09441A"/>
<rect x="153.72" y="561.647" width="313.887" height="68.2364" rx="15.1636" fill="#09441A"/>
<circle cx="449.411" cy="372.101" r="18.1964" fill="#EF7D12"/>
<path d="M159.167 379.221C158.11 379.221 157.096 379.082 156.127 378.805C155.158 378.516 154.378 378.144 153.786 377.691L154.825 375.388C155.391 375.791 156.058 376.124 156.826 376.389C157.606 376.64 158.393 376.766 159.186 376.766C159.79 376.766 160.274 376.71 160.639 376.596C161.017 376.471 161.294 376.301 161.47 376.087C161.646 375.873 161.734 375.627 161.734 375.35C161.734 374.998 161.596 374.721 161.319 374.52C161.042 374.306 160.677 374.136 160.224 374.01C159.771 373.872 159.267 373.746 158.714 373.632C158.172 373.507 157.625 373.356 157.071 373.179C156.53 373.003 156.033 372.777 155.58 372.5C155.127 372.223 154.755 371.858 154.466 371.405C154.189 370.952 154.051 370.373 154.051 369.668C154.051 368.913 154.252 368.227 154.655 367.61C155.07 366.981 155.687 366.484 156.505 366.119C157.336 365.741 158.374 365.552 159.62 365.552C160.451 365.552 161.269 365.653 162.074 365.854C162.88 366.043 163.591 366.333 164.207 366.723L163.263 369.045C162.647 368.692 162.03 368.434 161.413 368.271C160.797 368.095 160.192 368.007 159.601 368.007C159.009 368.007 158.525 368.076 158.147 368.214C157.77 368.353 157.499 368.535 157.336 368.762C157.172 368.976 157.09 369.227 157.09 369.517C157.09 369.857 157.229 370.134 157.505 370.348C157.782 370.549 158.147 370.713 158.6 370.838C159.053 370.964 159.551 371.09 160.092 371.216C160.646 371.342 161.193 371.487 161.734 371.65C162.288 371.814 162.791 372.034 163.245 372.311C163.698 372.588 164.063 372.953 164.34 373.406C164.629 373.859 164.774 374.432 164.774 375.124C164.774 375.866 164.566 376.546 164.151 377.163C163.735 377.779 163.112 378.277 162.282 378.654C161.464 379.032 160.425 379.221 159.167 379.221ZM165.957 378.994V377.219L171.961 370.121L172.471 371.103H166.09V368.837H174.849V370.612L168.846 377.71L168.317 376.729H175.019V378.994H165.957ZM181.818 379.145C180.66 379.145 179.641 378.919 178.76 378.465C177.891 378.012 177.218 377.396 176.74 376.615C176.261 375.822 176.022 374.922 176.022 373.916C176.022 372.896 176.255 371.996 176.721 371.216C177.199 370.423 177.847 369.806 178.665 369.366C179.483 368.913 180.408 368.686 181.44 368.686C182.435 368.686 183.328 368.9 184.121 369.328C184.927 369.743 185.562 370.348 186.028 371.14C186.494 371.921 186.727 372.858 186.727 373.953C186.727 374.067 186.72 374.199 186.708 374.35C186.695 374.488 186.682 374.62 186.67 374.746H178.42V373.028H185.122L183.989 373.538C183.989 373.009 183.882 372.55 183.668 372.16C183.454 371.77 183.158 371.468 182.781 371.254C182.403 371.027 181.963 370.914 181.459 370.914C180.956 370.914 180.509 371.027 180.119 371.254C179.741 371.468 179.446 371.776 179.232 372.179C179.018 372.569 178.911 373.035 178.911 373.576V374.029C178.911 374.583 179.03 375.074 179.269 375.501C179.521 375.917 179.867 376.238 180.308 376.464C180.761 376.678 181.289 376.785 181.894 376.785C182.435 376.785 182.907 376.703 183.309 376.54C183.725 376.376 184.102 376.131 184.442 375.804L186.009 377.503C185.543 378.031 184.958 378.44 184.253 378.73C183.549 379.007 182.737 379.145 181.818 379.145ZM179.666 367.535L182.215 364.816H185.386L181.969 367.535H179.666ZM194.691 379.145C193.835 379.145 193.086 378.956 192.444 378.579C191.802 378.201 191.299 377.628 190.934 376.861C190.581 376.08 190.405 375.099 190.405 373.916C190.405 372.72 190.575 371.738 190.915 370.971C191.255 370.203 191.746 369.63 192.388 369.253C193.029 368.875 193.797 368.686 194.691 368.686C195.647 368.686 196.503 368.906 197.258 369.347C198.026 369.775 198.63 370.379 199.071 371.159C199.524 371.94 199.75 372.858 199.75 373.916C199.75 374.985 199.524 375.91 199.071 376.691C198.63 377.471 198.026 378.075 197.258 378.503C196.503 378.931 195.647 379.145 194.691 379.145ZM188.687 382.657V368.837H191.5V370.914L191.444 373.935L191.632 376.936V382.657H188.687ZM194.181 376.729C194.672 376.729 195.106 376.615 195.484 376.389C195.874 376.162 196.182 375.841 196.409 375.426C196.648 374.998 196.767 374.495 196.767 373.916C196.767 373.324 196.648 372.821 196.409 372.405C196.182 371.99 195.874 371.669 195.484 371.443C195.106 371.216 194.672 371.103 194.181 371.103C193.69 371.103 193.25 371.216 192.859 371.443C192.469 371.669 192.161 371.99 191.934 372.405C191.708 372.821 191.595 373.324 191.595 373.916C191.595 374.495 191.708 374.998 191.934 375.426C192.161 375.841 192.469 376.162 192.859 376.389C193.25 376.615 193.69 376.729 194.181 376.729ZM213.242 368.686C214.047 368.686 214.765 368.85 215.394 369.177C216.036 369.492 216.539 369.983 216.904 370.65C217.269 371.304 217.452 372.147 217.452 373.179V378.994H214.507V373.632C214.507 372.814 214.324 372.21 213.959 371.82C213.607 371.43 213.103 371.235 212.449 371.235C211.983 371.235 211.561 371.336 211.184 371.537C210.819 371.726 210.529 372.021 210.315 372.424C210.114 372.827 210.013 373.343 210.013 373.972V378.994H207.068V368.837H209.881V371.65L209.353 370.801C209.718 370.121 210.24 369.599 210.92 369.234C211.599 368.869 212.373 368.686 213.242 368.686ZM226.351 378.994V377.012L226.162 376.578V373.028C226.162 372.399 225.967 371.908 225.577 371.556C225.2 371.203 224.614 371.027 223.821 371.027C223.28 371.027 222.745 371.115 222.217 371.291C221.701 371.455 221.26 371.682 220.895 371.971L219.838 369.913C220.392 369.523 221.059 369.221 221.839 369.007C222.619 368.793 223.412 368.686 224.218 368.686C225.766 368.686 226.968 369.051 227.824 369.781C228.68 370.511 229.108 371.65 229.108 373.198V378.994H226.351ZM223.255 379.145C222.462 379.145 221.783 379.013 221.216 378.749C220.65 378.472 220.216 378.1 219.914 377.635C219.611 377.169 219.46 376.647 219.46 376.068C219.46 375.464 219.605 374.935 219.895 374.482C220.197 374.029 220.669 373.676 221.311 373.425C221.952 373.16 222.789 373.028 223.821 373.028H226.521V374.746H224.142C223.45 374.746 222.972 374.86 222.708 375.086C222.456 375.313 222.33 375.596 222.33 375.936C222.33 376.313 222.475 376.615 222.764 376.842C223.066 377.056 223.475 377.163 223.991 377.163C224.482 377.163 224.923 377.05 225.313 376.823C225.703 376.584 225.986 376.238 226.162 375.785L226.616 377.144C226.402 377.798 226.011 378.296 225.445 378.635C224.879 378.975 224.149 379.145 223.255 379.145ZM237.776 379.145C236.921 379.145 236.172 378.956 235.53 378.579C234.888 378.201 234.385 377.628 234.02 376.861C233.667 376.08 233.491 375.099 233.491 373.916C233.491 372.72 233.661 371.738 234.001 370.971C234.34 370.203 234.831 369.63 235.473 369.253C236.115 368.875 236.883 368.686 237.776 368.686C238.733 368.686 239.589 368.906 240.344 369.347C241.112 369.775 241.716 370.379 242.156 371.159C242.609 371.94 242.836 372.858 242.836 373.916C242.836 374.985 242.609 375.91 242.156 376.691C241.716 377.471 241.112 378.075 240.344 378.503C239.589 378.931 238.733 379.145 237.776 379.145ZM231.773 382.657V368.837H234.586V370.914L234.529 373.935L234.718 376.936V382.657H231.773ZM237.267 376.729C237.758 376.729 238.192 376.615 238.569 376.389C238.959 376.162 239.268 375.841 239.494 375.426C239.734 374.998 239.853 374.495 239.853 373.916C239.853 373.324 239.734 372.821 239.494 372.405C239.268 371.99 238.959 371.669 238.569 371.443C238.192 371.216 237.758 371.103 237.267 371.103C236.776 371.103 236.335 371.216 235.945 371.443C235.555 371.669 235.247 371.99 235.02 372.405C234.794 372.821 234.68 373.324 234.68 373.916C234.68 374.495 234.794 374.998 235.02 375.426C235.247 375.841 235.555 376.162 235.945 376.389C236.335 376.615 236.776 376.729 237.267 376.729ZM249.64 379.145C248.558 379.145 247.595 378.919 246.752 378.465C245.921 378.012 245.261 377.396 244.77 376.615C244.291 375.822 244.052 374.922 244.052 373.916C244.052 372.896 244.291 371.996 244.77 371.216C245.261 370.423 245.921 369.806 246.752 369.366C247.595 368.913 248.558 368.686 249.64 368.686C250.71 368.686 251.667 368.913 252.51 369.366C253.353 369.806 254.014 370.417 254.492 371.197C254.971 371.977 255.21 372.884 255.21 373.916C255.21 374.922 254.971 375.822 254.492 376.615C254.014 377.396 253.353 378.012 252.51 378.465C251.667 378.919 250.71 379.145 249.64 379.145ZM249.64 376.729C250.131 376.729 250.572 376.615 250.962 376.389C251.352 376.162 251.66 375.841 251.887 375.426C252.114 374.998 252.227 374.495 252.227 373.916C252.227 373.324 252.114 372.821 251.887 372.405C251.66 371.99 251.352 371.669 250.962 371.443C250.572 371.216 250.131 371.103 249.64 371.103C249.15 371.103 248.709 371.216 248.319 371.443C247.929 371.669 247.614 371.99 247.375 372.405C247.148 372.821 247.035 373.324 247.035 373.916C247.035 374.495 247.148 374.998 247.375 375.426C247.614 375.841 247.929 376.162 248.319 376.389C248.709 376.615 249.15 376.729 249.64 376.729ZM261.332 379.145C260.136 379.145 259.205 378.843 258.537 378.239C257.87 377.622 257.537 376.71 257.537 375.501V366.591H260.482V375.464C260.482 375.892 260.595 376.225 260.822 376.464C261.048 376.691 261.357 376.804 261.747 376.804C262.213 376.804 262.609 376.678 262.936 376.427L263.729 378.503C263.427 378.717 263.062 378.881 262.634 378.994C262.219 379.095 261.785 379.145 261.332 379.145ZM255.97 371.329V369.064H263.012V371.329H255.97ZM265.057 381.901L266.303 377.37L266.718 379.07C266.177 379.07 265.73 378.912 265.378 378.598C265.038 378.283 264.868 377.849 264.868 377.295C264.868 376.741 265.044 376.301 265.397 375.973C265.749 375.646 266.183 375.483 266.699 375.483C267.228 375.483 267.662 375.652 268.002 375.992C268.342 376.32 268.512 376.754 268.512 377.295C268.512 377.459 268.499 377.622 268.474 377.786C268.449 377.937 268.399 378.126 268.323 378.352C268.26 378.566 268.153 378.843 268.002 379.183L266.926 381.901H265.057ZM276.062 378.994V365.779H282.518C284.18 365.779 285.426 366.094 286.256 366.723C287.1 367.352 287.521 368.183 287.521 369.215C287.521 369.907 287.351 370.511 287.012 371.027C286.672 371.531 286.206 371.921 285.615 372.198C285.023 372.475 284.343 372.613 283.576 372.613L283.934 371.839C284.765 371.839 285.501 371.977 286.143 372.254C286.785 372.519 287.282 372.915 287.635 373.444C288 373.972 288.182 374.62 288.182 375.388C288.182 376.521 287.735 377.408 286.842 378.05C285.948 378.679 284.633 378.994 282.896 378.994H276.062ZM279.101 376.691H282.669C283.462 376.691 284.06 376.565 284.463 376.313C284.878 376.049 285.086 375.634 285.086 375.067C285.086 374.513 284.878 374.104 284.463 373.84C284.06 373.563 283.462 373.425 282.669 373.425H278.875V371.197H282.141C282.883 371.197 283.45 371.071 283.84 370.82C284.243 370.555 284.444 370.159 284.444 369.63C284.444 369.114 284.243 368.73 283.84 368.479C283.45 368.214 282.883 368.082 282.141 368.082H279.101V376.691ZM295.33 379.145C294.173 379.145 293.153 378.919 292.272 378.465C291.404 378.012 290.73 377.396 290.252 376.615C289.774 375.822 289.535 374.922 289.535 373.916C289.535 372.896 289.768 371.996 290.233 371.216C290.711 370.423 291.36 369.806 292.178 369.366C292.996 368.913 293.921 368.686 294.953 368.686C295.947 368.686 296.841 368.9 297.634 369.328C298.439 369.743 299.075 370.348 299.54 371.14C300.006 371.921 300.239 372.858 300.239 373.953C300.239 374.067 300.233 374.199 300.22 374.35C300.207 374.488 300.195 374.62 300.182 374.746H291.932V373.028H298.634L297.502 373.538C297.502 373.009 297.395 372.55 297.181 372.16C296.967 371.77 296.671 371.468 296.293 371.254C295.916 371.027 295.475 370.914 294.972 370.914C294.468 370.914 294.022 371.027 293.631 371.254C293.254 371.468 292.958 371.776 292.744 372.179C292.53 372.569 292.423 373.035 292.423 373.576V374.029C292.423 374.583 292.543 375.074 292.782 375.501C293.034 375.917 293.38 376.238 293.82 376.464C294.273 376.678 294.802 376.785 295.406 376.785C295.947 376.785 296.419 376.703 296.822 376.54C297.237 376.376 297.615 376.131 297.955 375.804L299.522 377.503C299.056 378.031 298.471 378.44 297.766 378.73C297.061 379.007 296.249 379.145 295.33 379.145ZM293.178 367.535L295.727 364.816H298.899L295.481 367.535H293.178ZM302.2 378.994V364.986H305.145V378.994H302.2ZM314.108 378.994V377.012L313.919 376.578V373.028C313.919 372.399 313.724 371.908 313.334 371.556C312.956 371.203 312.371 371.027 311.578 371.027C311.037 371.027 310.502 371.115 309.974 371.291C309.458 371.455 309.017 371.682 308.652 371.971L307.595 369.913C308.149 369.523 308.816 369.221 309.596 369.007C310.376 368.793 311.169 368.686 311.975 368.686C313.523 368.686 314.725 369.051 315.581 369.781C316.436 370.511 316.864 371.65 316.864 373.198V378.994H314.108ZM311.012 379.145C310.219 379.145 309.539 379.013 308.973 378.749C308.407 378.472 307.972 378.1 307.67 377.635C307.368 377.169 307.217 376.647 307.217 376.068C307.217 375.464 307.362 374.935 307.652 374.482C307.954 374.029 308.426 373.676 309.067 373.425C309.709 373.16 310.546 373.028 311.578 373.028H314.278V374.746H311.899C311.207 374.746 310.729 374.86 310.464 375.086C310.213 375.313 310.087 375.596 310.087 375.936C310.087 376.313 310.232 376.615 310.521 376.842C310.823 377.056 311.232 377.163 311.748 377.163C312.239 377.163 312.68 377.05 313.07 376.823C313.46 376.584 313.743 376.238 313.919 375.785L314.372 377.144C314.158 377.798 313.768 378.296 313.202 378.635C312.636 378.975 311.906 379.145 311.012 379.145ZM319.737 374.406L319.152 365.779H322.664L322.078 374.406H319.737ZM320.908 379.145C320.379 379.145 319.945 378.975 319.605 378.635C319.266 378.296 319.096 377.893 319.096 377.427C319.096 376.949 319.266 376.552 319.605 376.238C319.945 375.91 320.379 375.747 320.908 375.747C321.449 375.747 321.883 375.91 322.211 376.238C322.55 376.552 322.72 376.949 322.72 377.427C322.72 377.893 322.55 378.296 322.211 378.635C321.883 378.975 321.449 379.145 320.908 379.145Z" fill="#FCF2E8"/>
</g>
<g filter="url(#filter2_d_2142_2565)">
<rect x="476.282" y="355.265" width="179.016" height="49.0794" rx="24.5397" fill="#D9BB9F" shape-rendering="crispEdges"/>
<circle cx="501.623" cy="379.805" r="14.7143" fill="#C08349" stroke="black" stroke-width="1.63493"/>
<path d="M551.927 370.205H554.075V390.805H551.927V370.205ZM539.037 390.805H536.859V370.205H539.037V390.805ZM552.133 381.299H538.801V379.386H552.133V381.299ZM570.039 390.805V387.391L569.951 386.832V381.123C569.951 379.808 569.578 378.798 568.833 378.091C568.107 377.385 567.018 377.032 565.566 377.032C564.565 377.032 563.614 377.199 562.711 377.532C561.809 377.866 561.044 378.307 560.416 378.857L559.474 377.297C560.259 376.63 561.201 376.12 562.299 375.767C563.398 375.394 564.556 375.207 565.772 375.207C567.773 375.207 569.313 375.708 570.392 376.708C571.491 377.689 572.04 379.19 572.04 381.211V390.805H570.039ZM564.713 390.952C563.555 390.952 562.545 390.765 561.681 390.393C560.838 390 560.19 389.471 559.739 388.804C559.288 388.117 559.062 387.332 559.062 386.449C559.062 385.645 559.249 384.919 559.621 384.272C560.014 383.604 560.642 383.075 561.505 382.682C562.388 382.27 563.565 382.064 565.036 382.064H570.363V383.624H565.095C563.604 383.624 562.564 383.889 561.976 384.419C561.407 384.948 561.122 385.606 561.122 386.39C561.122 387.273 561.466 387.98 562.152 388.509C562.839 389.039 563.8 389.304 565.036 389.304C566.213 389.304 567.224 389.039 568.067 388.509C568.931 387.96 569.559 387.175 569.951 386.155L570.422 387.597C570.029 388.617 569.343 389.431 568.362 390.04C567.4 390.648 566.184 390.952 564.713 390.952ZM563.918 372.941L567.95 369.292H570.745L565.978 372.941H563.918ZM582.601 390.952C581.149 390.952 580.031 390.559 579.246 389.775C578.461 388.99 578.069 387.881 578.069 386.449V371.941H580.158V386.332C580.158 387.234 580.384 387.93 580.835 388.421C581.306 388.911 581.973 389.157 582.836 389.157C583.758 389.157 584.523 388.892 585.132 388.362L585.867 389.863C585.455 390.236 584.955 390.51 584.366 390.687C583.797 390.864 583.209 390.952 582.601 390.952ZM575.302 377.091V375.355H584.867V377.091H575.302ZM594.154 390.952C592.702 390.952 591.584 390.559 590.799 389.775C590.014 388.99 589.622 387.881 589.622 386.449V371.941H591.711V386.332C591.711 387.234 591.937 387.93 592.388 388.421C592.859 388.911 593.526 389.157 594.389 389.157C595.311 389.157 596.076 388.892 596.685 388.362L597.42 389.863C597.008 390.236 596.508 390.51 595.919 390.687C595.35 390.864 594.762 390.952 594.154 390.952ZM586.855 377.091V375.355H596.42V377.091H586.855ZM607.241 390.952C605.632 390.952 604.219 390.618 603.003 389.951C601.786 389.265 600.835 388.333 600.148 387.156C599.462 385.959 599.118 384.595 599.118 383.065C599.118 381.535 599.442 380.181 600.089 379.004C600.756 377.827 601.659 376.905 602.797 376.237C603.954 375.551 605.249 375.207 606.681 375.207C608.133 375.207 609.418 375.541 610.537 376.208C611.674 376.855 612.567 377.778 613.215 378.974C613.862 380.151 614.186 381.515 614.186 383.065C614.186 383.163 614.176 383.271 614.156 383.389C614.156 383.487 614.156 383.595 614.156 383.712H600.707V382.153H613.038L612.214 382.771C612.214 381.652 611.969 380.662 611.478 379.798C611.007 378.915 610.36 378.229 609.536 377.738C608.712 377.248 607.76 377.003 606.681 377.003C605.622 377.003 604.67 377.248 603.827 377.738C602.983 378.229 602.326 378.915 601.855 379.798C601.384 380.681 601.149 381.692 601.149 382.83V383.153C601.149 384.33 601.404 385.37 601.914 386.273C602.444 387.156 603.17 387.852 604.092 388.362C605.033 388.853 606.103 389.098 607.299 389.098C608.241 389.098 609.114 388.931 609.919 388.598C610.743 388.264 611.449 387.754 612.037 387.067L613.215 388.421C612.528 389.245 611.665 389.873 610.625 390.304C609.605 390.736 608.477 390.952 607.241 390.952ZM604.739 372.941L608.771 369.292H611.567L606.799 372.941H604.739ZM618.439 390.805V375.355H620.44V379.563L620.234 378.827C620.665 377.65 621.391 376.757 622.411 376.149C623.432 375.521 624.697 375.207 626.208 375.207V377.238C626.129 377.238 626.051 377.238 625.972 377.238C625.894 377.218 625.815 377.209 625.737 377.209C624.109 377.209 622.833 377.709 621.911 378.709C620.989 379.69 620.528 381.093 620.528 382.918V390.805H618.439Z" fill="black"/>
</g>
<g filter="url(#filter3_d_2142_2565)">
<rect x="401.047" y="425.117" width="169.016" height="49.0794" rx="24.5397" fill="#88F0A6" shape-rendering="crispEdges"/>
<circle cx="426.388" cy="449.656" r="14.7143" fill="#27E55C" stroke="black" stroke-width="1.63493"/>
<path d="M461.624 460.656V440.056H469.335C471.081 440.056 472.582 440.341 473.837 440.91C475.093 441.459 476.054 442.263 476.721 443.323C477.408 444.363 477.751 445.628 477.751 447.119C477.751 448.571 477.408 449.826 476.721 450.886C476.054 451.926 475.093 452.73 473.837 453.299C472.582 453.868 471.081 454.153 469.335 454.153H462.831L463.802 453.123V460.656H461.624ZM463.802 453.299L462.831 452.24H469.276C471.336 452.24 472.896 451.798 473.955 450.915C475.034 450.013 475.574 448.747 475.574 447.119C475.574 445.471 475.034 444.196 473.955 443.293C472.896 442.391 471.336 441.94 469.276 441.94H462.831L463.802 440.91V453.299ZM491.557 460.656V457.243L491.469 456.683V450.974C491.469 449.66 491.096 448.649 490.35 447.943C489.625 447.237 488.536 446.884 487.084 446.884C486.083 446.884 485.132 447.05 484.229 447.384C483.327 447.717 482.562 448.159 481.934 448.708L480.992 447.148C481.777 446.481 482.719 445.971 483.817 445.618C484.916 445.245 486.074 445.059 487.29 445.059C489.291 445.059 490.831 445.559 491.91 446.56C493.009 447.541 493.558 449.042 493.558 451.062V460.656H491.557ZM486.23 460.803C485.073 460.803 484.063 460.617 483.199 460.244C482.356 459.852 481.708 459.322 481.257 458.655C480.806 457.968 480.58 457.184 480.58 456.301C480.58 455.496 480.767 454.771 481.139 454.123C481.532 453.456 482.16 452.926 483.023 452.534C483.906 452.122 485.083 451.916 486.554 451.916H491.881V453.476H486.613C485.122 453.476 484.082 453.741 483.494 454.27C482.925 454.8 482.64 455.457 482.64 456.242C482.64 457.125 482.984 457.831 483.67 458.361C484.357 458.891 485.318 459.155 486.554 459.155C487.731 459.155 488.742 458.891 489.585 458.361C490.449 457.811 491.076 457.027 491.469 456.007L491.94 457.449C491.547 458.469 490.861 459.283 489.88 459.891C488.918 460.499 487.702 460.803 486.23 460.803ZM507.12 445.059C508.376 445.059 509.475 445.304 510.416 445.795C511.378 446.266 512.123 446.992 512.653 447.972C513.202 448.953 513.477 450.189 513.477 451.68V460.656H511.387V451.886C511.387 450.258 510.975 449.032 510.151 448.208C509.347 447.364 508.209 446.942 506.738 446.942C505.639 446.942 504.678 447.168 503.854 447.619C503.049 448.051 502.421 448.689 501.97 449.532C501.539 450.356 501.323 451.357 501.323 452.534V460.656H499.233V445.206H501.235V449.444L500.911 448.649C501.401 447.531 502.186 446.658 503.265 446.03C504.344 445.383 505.629 445.059 507.12 445.059ZM525.683 460.803C524.075 460.803 522.662 460.47 521.446 459.803C520.229 459.116 519.278 458.184 518.591 457.007C517.904 455.81 517.561 454.447 517.561 452.917C517.561 451.386 517.885 450.032 518.532 448.855C519.199 447.678 520.102 446.756 521.24 446.089C522.397 445.402 523.692 445.059 525.124 445.059C526.576 445.059 527.861 445.393 528.979 446.06C530.117 446.707 531.01 447.629 531.657 448.826C532.305 450.003 532.628 451.367 532.628 452.917C532.628 453.015 532.619 453.123 532.599 453.24C532.599 453.338 532.599 453.446 532.599 453.564H519.15V452.004H531.481L530.657 452.622C530.657 451.504 530.412 450.513 529.921 449.65C529.45 448.767 528.803 448.08 527.979 447.59C527.155 447.099 526.203 446.854 525.124 446.854C524.065 446.854 523.113 447.099 522.27 447.59C521.426 448.08 520.769 448.767 520.298 449.65C519.827 450.533 519.592 451.543 519.592 452.681V453.005C519.592 454.182 519.847 455.222 520.357 456.124C520.886 457.007 521.612 457.704 522.534 458.214C523.476 458.704 524.545 458.949 525.742 458.949C526.684 458.949 527.557 458.783 528.361 458.449C529.185 458.116 529.892 457.605 530.48 456.919L531.657 458.273C530.971 459.097 530.107 459.724 529.068 460.156C528.047 460.588 526.919 460.803 525.683 460.803ZM536.881 460.656V438.82H538.971V460.656H536.881Z" fill="black"/>
</g>
<g filter="url(#filter4_d_2142_2565)">
<rect x="477.973" y="593.203" width="319.052" height="41.5333" rx="15.103" fill="url(#paint1_linear_2142_2565)"/>
</g>
<rect x="477.973" y="538.454" width="319.052" height="41.5333" rx="15.103" fill="url(#paint2_linear_2142_2565)"/>
<g filter="url(#filter5_d_2142_2565)">
<rect x="593.335" y="449.659" width="162.016" height="49.0794" rx="24.5397" fill="#FADEC4" shape-rendering="crispEdges"/>
<circle cx="618.676" cy="474.199" r="14.7143" fill="#EF7D12" stroke="black" stroke-width="1.63493"/>
<path d="M655.855 473.81H666.743V475.664H655.855V473.81ZM656.09 483.315H668.479V485.199H653.912V464.599H668.038V466.482H656.09V483.315ZM673.157 485.199V463.363H675.246V485.199H673.157ZM687.623 485.346C686.014 485.346 684.601 485.012 683.385 484.345C682.169 483.659 681.217 482.727 680.531 481.55C679.844 480.353 679.5 478.989 679.5 477.459C679.5 475.929 679.824 474.575 680.472 473.398C681.139 472.221 682.041 471.299 683.179 470.632C684.337 469.945 685.631 469.602 687.064 469.602C688.515 469.602 689.801 469.935 690.919 470.602C692.057 471.25 692.949 472.172 693.597 473.368C694.244 474.546 694.568 475.909 694.568 477.459C694.568 477.557 694.558 477.665 694.539 477.783C694.539 477.881 694.539 477.989 694.539 478.106H681.09V476.547H693.42L692.596 477.165C692.596 476.046 692.351 475.056 691.861 474.192C691.39 473.31 690.742 472.623 689.918 472.132C689.094 471.642 688.143 471.397 687.064 471.397C686.004 471.397 685.053 471.642 684.209 472.132C683.365 472.623 682.708 473.31 682.237 474.192C681.767 475.075 681.531 476.086 681.531 477.224V477.547C681.531 478.724 681.786 479.764 682.296 480.667C682.826 481.55 683.552 482.246 684.474 482.756C685.416 483.247 686.485 483.492 687.682 483.492C688.623 483.492 689.496 483.325 690.301 482.992C691.125 482.658 691.831 482.148 692.42 481.461L693.597 482.815C692.91 483.639 692.047 484.267 691.007 484.698C689.987 485.13 688.859 485.346 687.623 485.346ZM718.126 469.602C719.382 469.602 720.471 469.847 721.393 470.337C722.334 470.808 723.06 471.534 723.57 472.515C724.1 473.496 724.365 474.732 724.365 476.223V485.199H722.276V476.429C722.276 474.801 721.883 473.574 721.098 472.75C720.333 471.907 719.244 471.485 717.832 471.485C716.772 471.485 715.85 471.711 715.066 472.162C714.3 472.593 713.702 473.231 713.27 474.075C712.858 474.899 712.652 475.899 712.652 477.076V485.199H710.563V476.429C710.563 474.801 710.171 473.574 709.386 472.75C708.601 471.907 707.502 471.485 706.09 471.485C705.05 471.485 704.138 471.711 703.353 472.162C702.568 472.593 701.96 473.231 701.528 474.075C701.116 474.899 700.91 475.899 700.91 477.076V485.199H698.821V469.749H700.822V473.928L700.498 473.192C700.969 472.074 701.725 471.2 702.764 470.573C703.824 469.925 705.07 469.602 706.502 469.602C708.012 469.602 709.298 469.984 710.357 470.749C711.416 471.495 712.103 472.623 712.417 474.134L711.593 473.81C712.044 472.554 712.839 471.544 713.977 470.779C715.134 469.994 716.517 469.602 718.126 469.602Z" fill="black"/>
</g>
<rect x="496.852" y="536.567" width="18.8788" height="47.197" rx="9.43939" fill="#FF8008" stroke="black" stroke-width="3.77576"/>
</g>
</g>
<defs>
<filter id="filter0_d_2142_2565" x="0.339394" y="0.157576" width="853.321" height="780.321" filterUnits="userSpaceOnUse" color-interpolation-filters="sRGB">
<feFlood flood-opacity="0" result="BackgroundImageFix"/>
<feColorMatrix in="SourceAlpha" type="matrix" values="0 0 0 0 0 0 0 0 0 0 0 0 0 0 0 0 0 0 127 0" result="hardAlpha"/>
<feOffset dy="28.3182"/>
<feGaussianBlur stdDeviation="57.5803"/>
<feComposite in2="hardAlpha" operator="out"/>
<feColorMatrix type="matrix" values="0 0 0 0 0.546962 0 0 0 0 0.744705 0 0 0 0 0.710315 0 0 0 0.25 0"/>
<feBlend mode="normal" in2="BackgroundImageFix" result="effect1_dropShadow_2142_2565"/>
<feBlend mode="normal" in="SourceGraphic" in2="effect1_dropShadow_2142_2565" result="shape"/>
</filter>
<filter id="filter1_d_2142_2565" x="70.191" y="270.376" width="482.462" height="919.175" filterUnits="userSpaceOnUse" color-interpolation-filters="sRGB">
<feFlood flood-opacity="0" result="BackgroundImageFix"/>
<feColorMatrix in="SourceAlpha" type="matrix" values="0 0 0 0 0 0 0 0 0 0 0 0 0 0 0 0 0 0 127 0" result="hardAlpha"/>
<feOffset/>
<feGaussianBlur stdDeviation="31.15"/>
<feComposite in2="hardAlpha" operator="out"/>
<feColorMatrix type="matrix" values="0 0 0 0 0 0 0 0 0 0 0 0 0 0 0 0 0 0 0.2 0"/>
<feBlend mode="normal" in2="BackgroundImageFix" result="effect1_dropShadow_2142_2565"/>
<feBlend mode="normal" in="SourceGraphic" in2="effect1_dropShadow_2142_2565" result="shape"/>
</filter>
<filter id="filter2_d_2142_2565" x="447.964" y="336.386" width="235.653" height="105.716" filterUnits="userSpaceOnUse" color-interpolation-filters="sRGB">
<feFlood flood-opacity="0" result="BackgroundImageFix"/>
<feColorMatrix in="SourceAlpha" type="matrix" values="0 0 0 0 0 0 0 0 0 0 0 0 0 0 0 0 0 0 127 0" result="hardAlpha"/>
<feOffset dy="9.43939"/>
<feGaussianBlur stdDeviation="14.1591"/>
<feComposite in2="hardAlpha" operator="out"/>
<feColorMatrix type="matrix" values="0 0 0 0 0 0 0 0 0 0 0 0 0 0 0 0 0 0 0.1 0"/>
<feBlend mode="normal" in2="BackgroundImageFix" result="effect1_dropShadow_2142_2565"/>
<feBlend mode="normal" in="SourceGraphic" in2="effect1_dropShadow_2142_2565" result="shape"/>
</filter>
<filter id="filter3_d_2142_2565" x="372.729" y="406.238" width="225.653" height="105.716" filterUnits="userSpaceOnUse" color-interpolation-filters="sRGB">
<feFlood flood-opacity="0" result="BackgroundImageFix"/>
<feColorMatrix in="SourceAlpha" type="matrix" values="0 0 0 0 0 0 0 0 0 0 0 0 0 0 0 0 0 0 127 0" result="hardAlpha"/>
<feOffset dy="9.43939"/>
<feGaussianBlur stdDeviation="14.1591"/>
<feComposite in2="hardAlpha" operator="out"/>
<feColorMatrix type="matrix" values="0 0 0 0 0 0 0 0 0 0 0 0 0 0 0 0 0 0 0.1 0"/>
<feBlend mode="normal" in2="BackgroundImageFix" result="effect1_dropShadow_2142_2565"/>
<feBlend mode="normal" in="SourceGraphic" in2="effect1_dropShadow_2142_2565" result="shape"/>
</filter>
<filter id="filter4_d_2142_2565" x="457.206" y="578.1" width="360.585" height="83.0667" filterUnits="userSpaceOnUse" color-interpolation-filters="sRGB">
<feFlood flood-opacity="0" result="BackgroundImageFix"/>
<feColorMatrix in="SourceAlpha" type="matrix" values="0 0 0 0 0 0 0 0 0 0 0 0 0 0 0 0 0 0 127 0" result="hardAlpha"/>
<feOffset dy="5.66364"/>
<feGaussianBlur stdDeviation="10.3833"/>
<feComposite in2="hardAlpha" operator="out"/>
<feColorMatrix type="matrix" values="0 0 0 0 0 0 0 0 0 0 0 0 0 0 0 0 0 0 0.15 0"/>
<feBlend mode="normal" in2="BackgroundImageFix" result="effect1_dropShadow_2142_2565"/>
<feBlend mode="normal" in="SourceGraphic" in2="effect1_dropShadow_2142_2565" result="shape"/>
</filter>
<filter id="filter5_d_2142_2565" x="565.017" y="430.78" width="218.653" height="105.716" filterUnits="userSpaceOnUse" color-interpolation-filters="sRGB">
<feFlood flood-opacity="0" result="BackgroundImageFix"/>
<feColorMatrix in="SourceAlpha" type="matrix" values="0 0 0 0 0 0 0 0 0 0 0 0 0 0 0 0 0 0 127 0" result="hardAlpha"/>
<feOffset dy="9.43939"/>
<feGaussianBlur stdDeviation="14.1591"/>
<feComposite in2="hardAlpha" operator="out"/>
<feColorMatrix type="matrix" values="0 0 0 0 0 0 0 0 0 0 0 0 0 0 0 0 0 0 0.1 0"/>
<feBlend mode="normal" in2="BackgroundImageFix" result="effect1_dropShadow_2142_2565"/>
<feBlend mode="normal" in="SourceGraphic" in2="effect1_dropShadow_2142_2565" result="shape"/>
</filter>
<linearGradient id="paint0_linear_2142_2565" x1="427" y1="87" x2="427" y2="637" gradientUnits="userSpaceOnUse">
<stop stop-color="#F5F1E9"/>
<stop offset="1" stop-color="#C7EDD0"/>
</linearGradient>
<linearGradient id="paint1_linear_2142_2565" x1="477.973" y1="614.8" x2="797.024" y2="614.8" gradientUnits="userSpaceOnUse">
<stop stop-color="#808080"/>
<stop offset="1" stop-color="#FF8008"/>
</linearGradient>
<linearGradient id="paint2_linear_2142_2565" x1="477.973" y1="560.052" x2="797.024" y2="560.052" gradientUnits="userSpaceOnUse">
<stop stop-color="#FF0000"/>
<stop offset="0.123904" stop-color="#FFD600"/>
<stop offset="0.25353" stop-color="#8FFF00"/>
<stop offset="0.37708" stop-color="#00FF5A"/>
<stop offset="0.49658" stop-color="#00E0FF"/>
<stop offset="0.628231" stop-color="#000EFF"/>
<stop offset="0.757858" stop-color="#CC00FF"/>
<stop offset="0.869255" stop-color="#FF009A"/>
<stop offset="1" stop-color="#FF0000"/>
</linearGradient>
<clipPath id="clip0_2142_2565">
<rect x="115.5" y="87" width="623" height="550" rx="30" fill="white"/>
</clipPath>
<clipPath id="clip1_2142_2565">
<path d="M491.188 358.351C491.188 344.171 479.693 332.676 465.513 332.676H313.727V1101.8C313.727 1115.98 325.223 1127.47 339.403 1127.47H491.188V358.351Z" fill="white"/>
</clipPath>
</defs>
</svg>
