<svg width="854" height="660" viewBox="0 0 854 660" fill="none" xmlns="http://www.w3.org/2000/svg">
<g filter="url(#filter0_d_2142_2624)">
<g clip-path="url(#clip0_2142_2624)">
<rect x="115.5" y="87" width="623" height="429" rx="30" fill="url(#paint0_linear_2142_2624)"/>
<path d="M167.293 168V140H179.413C181.919 140 184.079 140.413 185.893 141.24C187.706 142.04 189.106 143.2 190.093 144.72C191.079 146.24 191.573 148.053 191.573 150.16C191.573 152.24 191.079 154.04 190.093 155.56C189.106 157.053 187.706 158.2 185.893 159C184.079 159.8 181.919 160.2 179.413 160.2H170.893L173.773 157.36V168H167.293ZM185.093 168L178.093 157.84H185.013L192.093 168H185.093ZM173.773 158.08L170.893 155.04H179.053C181.053 155.04 182.546 154.613 183.533 153.76C184.519 152.88 185.013 151.68 185.013 150.16C185.013 148.613 184.519 147.413 183.533 146.56C182.546 145.707 181.053 145.28 179.053 145.28H170.893L173.773 142.2V158.08ZM206.947 168.32C204.493 168.32 202.333 167.84 200.467 166.88C198.627 165.92 197.2 164.613 196.187 162.96C195.173 161.28 194.667 159.373 194.667 157.24C194.667 155.08 195.16 153.173 196.147 151.52C197.16 149.84 198.533 148.533 200.267 147.6C202 146.64 203.96 146.16 206.147 146.16C208.253 146.16 210.147 146.613 211.827 147.52C213.533 148.4 214.88 149.68 215.867 151.36C216.853 153.013 217.347 155 217.347 157.32C217.347 157.56 217.333 157.84 217.307 158.16C217.28 158.453 217.253 158.733 217.227 159H199.747V155.36H213.947L211.547 156.44C211.547 155.32 211.32 154.347 210.867 153.52C210.413 152.693 209.787 152.053 208.987 151.6C208.187 151.12 207.253 150.88 206.187 150.88C205.12 150.88 204.173 151.12 203.347 151.6C202.547 152.053 201.92 152.707 201.467 153.56C201.013 154.387 200.787 155.373 200.787 156.52V157.48C200.787 158.653 201.04 159.693 201.547 160.6C202.08 161.48 202.813 162.16 203.747 162.64C204.707 163.093 205.827 163.32 207.107 163.32C208.253 163.32 209.253 163.147 210.107 162.8C210.987 162.453 211.787 161.933 212.507 161.24L215.827 164.84C214.84 165.96 213.6 166.827 212.107 167.44C210.613 168.027 208.893 168.32 206.947 168.32ZM202.387 143.72L207.787 137.96H214.507L207.267 143.72H202.387ZM228.741 168.32C226.901 168.32 225.128 168.107 223.421 167.68C221.741 167.227 220.408 166.667 219.421 166L221.501 161.52C222.488 162.133 223.648 162.64 224.981 163.04C226.341 163.413 227.674 163.6 228.981 163.6C230.421 163.6 231.434 163.427 232.021 163.08C232.634 162.733 232.941 162.253 232.941 161.64C232.941 161.133 232.701 160.76 232.221 160.52C231.768 160.253 231.154 160.053 230.381 159.92C229.608 159.787 228.754 159.653 227.821 159.52C226.914 159.387 225.994 159.213 225.061 159C224.128 158.76 223.274 158.413 222.501 157.96C221.728 157.507 221.101 156.893 220.621 156.12C220.168 155.347 219.941 154.347 219.941 153.12C219.941 151.76 220.328 150.56 221.101 149.52C221.901 148.48 223.048 147.667 224.541 147.08C226.034 146.467 227.821 146.16 229.901 146.16C231.368 146.16 232.861 146.32 234.381 146.64C235.901 146.96 237.168 147.427 238.181 148.04L236.101 152.48C235.061 151.867 234.008 151.453 232.941 151.24C231.901 151 230.888 150.88 229.901 150.88C228.514 150.88 227.501 151.067 226.861 151.44C226.221 151.813 225.901 152.293 225.901 152.88C225.901 153.413 226.128 153.813 226.581 154.08C227.061 154.347 227.688 154.56 228.461 154.72C229.234 154.88 230.074 155.027 230.981 155.16C231.914 155.267 232.848 155.44 233.781 155.68C234.714 155.92 235.554 156.267 236.301 156.72C237.074 157.147 237.701 157.747 238.181 158.52C238.661 159.267 238.901 160.253 238.901 161.48C238.901 162.813 238.501 164 237.701 165.04C236.901 166.053 235.741 166.853 234.221 167.44C232.728 168.027 230.901 168.32 228.741 168.32ZM241.271 168V164.24L253.991 149.2L255.071 151.28H241.551V146.48H260.111V150.24L247.391 165.28L246.271 163.2H260.471V168H241.271ZM264.47 168V138.32H270.71V168H264.47ZM287.181 168.32C284.728 168.32 282.568 167.84 280.701 166.88C278.861 165.92 277.434 164.613 276.421 162.96C275.408 161.28 274.901 159.373 274.901 157.24C274.901 155.08 275.394 153.173 276.381 151.52C277.394 149.84 278.768 148.533 280.501 147.6C282.234 146.64 284.194 146.16 286.381 146.16C288.488 146.16 290.381 146.613 292.061 147.52C293.768 148.4 295.114 149.68 296.101 151.36C297.088 153.013 297.581 155 297.581 157.32C297.581 157.56 297.568 157.84 297.541 158.16C297.514 158.453 297.488 158.733 297.461 159H279.981V155.36H294.181L291.781 156.44C291.781 155.32 291.554 154.347 291.101 153.52C290.648 152.693 290.021 152.053 289.221 151.6C288.421 151.12 287.488 150.88 286.421 150.88C285.354 150.88 284.408 151.12 283.581 151.6C282.781 152.053 282.154 152.707 281.701 153.56C281.248 154.387 281.021 155.373 281.021 156.52V157.48C281.021 158.653 281.274 159.693 281.781 160.6C282.314 161.48 283.048 162.16 283.981 162.64C284.941 163.093 286.061 163.32 287.341 163.32C288.488 163.32 289.488 163.147 290.341 162.8C291.221 162.453 292.021 161.933 292.741 161.24L296.061 164.84C295.074 165.96 293.834 166.827 292.341 167.44C290.848 168.027 289.128 168.32 287.181 168.32ZM310.535 168.32C308.002 168.32 306.029 167.68 304.615 166.4C303.202 165.093 302.495 163.16 302.495 160.6V141.72H308.735V160.52C308.735 161.427 308.975 162.133 309.455 162.64C309.935 163.12 310.589 163.36 311.415 163.36C312.402 163.36 313.242 163.093 313.935 162.56L315.615 166.96C314.975 167.413 314.202 167.76 313.295 168C312.415 168.213 311.495 168.32 310.535 168.32ZM299.175 151.76V146.96H314.095V151.76H299.175ZM329.134 168.32C326.681 168.32 324.521 167.84 322.654 166.88C320.814 165.92 319.388 164.613 318.374 162.96C317.361 161.28 316.854 159.373 316.854 157.24C316.854 155.08 317.348 153.173 318.334 151.52C319.348 149.84 320.721 148.533 322.454 147.6C324.188 146.64 326.148 146.16 328.334 146.16C330.441 146.16 332.334 146.613 334.014 147.52C335.721 148.4 337.068 149.68 338.054 151.36C339.041 153.013 339.534 155 339.534 157.32C339.534 157.56 339.521 157.84 339.494 158.16C339.468 158.453 339.441 158.733 339.414 159H321.934V155.36H336.134L333.734 156.44C333.734 155.32 333.508 154.347 333.054 153.52C332.601 152.693 331.974 152.053 331.174 151.6C330.374 151.12 329.441 150.88 328.374 150.88C327.308 150.88 326.361 151.12 325.534 151.6C324.734 152.053 324.108 152.707 323.654 153.56C323.201 154.387 322.974 155.373 322.974 156.52V157.48C322.974 158.653 323.228 159.693 323.734 160.6C324.268 161.48 325.001 162.16 325.934 162.64C326.894 163.093 328.014 163.32 329.294 163.32C330.441 163.32 331.441 163.147 332.294 162.8C333.174 162.453 333.974 161.933 334.694 161.24L338.014 164.84C337.028 165.96 335.788 166.827 334.294 167.44C332.801 168.027 331.081 168.32 329.134 168.32ZM350.929 168.32C349.089 168.32 347.315 168.107 345.609 167.68C343.929 167.227 342.595 166.667 341.609 166L343.689 161.52C344.675 162.133 345.835 162.64 347.169 163.04C348.529 163.413 349.862 163.6 351.169 163.6C352.609 163.6 353.622 163.427 354.209 163.08C354.822 162.733 355.129 162.253 355.129 161.64C355.129 161.133 354.889 160.76 354.409 160.52C353.955 160.253 353.342 160.053 352.569 159.92C351.795 159.787 350.942 159.653 350.009 159.52C349.102 159.387 348.182 159.213 347.249 159C346.315 158.76 345.462 158.413 344.689 157.96C343.915 157.507 343.289 156.893 342.809 156.12C342.355 155.347 342.129 154.347 342.129 153.12C342.129 151.76 342.515 150.56 343.289 149.52C344.089 148.48 345.235 147.667 346.729 147.08C348.222 146.467 350.009 146.16 352.089 146.16C353.555 146.16 355.049 146.32 356.569 146.64C358.089 146.96 359.355 147.427 360.369 148.04L358.289 152.48C357.249 151.867 356.195 151.453 355.129 151.24C354.089 151 353.075 150.88 352.089 150.88C350.702 150.88 349.689 151.067 349.049 151.44C348.409 151.813 348.089 152.293 348.089 152.88C348.089 153.413 348.315 153.813 348.769 154.08C349.249 154.347 349.875 154.56 350.649 154.72C351.422 154.88 352.262 155.027 353.169 155.16C354.102 155.267 355.035 155.44 355.969 155.68C356.902 155.92 357.742 156.267 358.489 156.72C359.262 157.147 359.889 157.747 360.369 158.52C360.849 159.267 361.089 160.253 361.089 161.48C361.089 162.813 360.689 164 359.889 165.04C359.089 166.053 357.929 166.853 356.409 167.44C354.915 168.027 353.089 168.32 350.929 168.32ZM374.667 176.08C373.707 176.08 372.787 175.973 371.907 175.76C371.027 175.573 370.28 175.28 369.667 174.88L371.347 170.36C372.067 170.867 372.947 171.12 373.987 171.12C374.76 171.12 375.373 170.853 375.827 170.32C376.307 169.813 376.547 169.04 376.547 168V146.48H382.787V167.96C382.787 170.44 382.08 172.413 380.667 173.88C379.253 175.347 377.253 176.08 374.667 176.08ZM379.667 143.48C378.52 143.48 377.587 143.147 376.867 142.48C376.147 141.813 375.787 140.987 375.787 140C375.787 139.013 376.147 138.187 376.867 137.52C377.587 136.853 378.52 136.52 379.667 136.52C380.813 136.52 381.747 136.84 382.467 137.48C383.187 138.093 383.547 138.893 383.547 139.88C383.547 140.92 383.187 141.787 382.467 142.48C381.773 143.147 380.84 143.48 379.667 143.48ZM399.212 168.32C396.759 168.32 394.599 167.84 392.732 166.88C390.892 165.92 389.466 164.613 388.452 162.96C387.439 161.28 386.932 159.373 386.932 157.24C386.932 155.08 387.426 153.173 388.412 151.52C389.426 149.84 390.799 148.533 392.532 147.6C394.266 146.64 396.226 146.16 398.412 146.16C400.519 146.16 402.412 146.613 404.092 147.52C405.799 148.4 407.146 149.68 408.132 151.36C409.119 153.013 409.612 155 409.612 157.32C409.612 157.56 409.599 157.84 409.572 158.16C409.546 158.453 409.519 158.733 409.492 159H392.012V155.36H406.212L403.812 156.44C403.812 155.32 403.586 154.347 403.132 153.52C402.679 152.693 402.052 152.053 401.252 151.6C400.452 151.12 399.519 150.88 398.452 150.88C397.386 150.88 396.439 151.12 395.612 151.6C394.812 152.053 394.186 152.707 393.732 153.56C393.279 154.387 393.052 155.373 393.052 156.52V157.48C393.052 158.653 393.306 159.693 393.812 160.6C394.346 161.48 395.079 162.16 396.012 162.64C396.972 163.093 398.092 163.32 399.372 163.32C400.519 163.32 401.519 163.147 402.372 162.8C403.252 162.453 404.052 161.933 404.772 161.24L408.092 164.84C407.106 165.96 405.866 166.827 404.372 167.44C402.879 168.027 401.159 168.32 399.212 168.32ZM423.887 176.08C421.86 176.08 419.9 175.827 418.007 175.32C416.14 174.84 414.58 174.107 413.327 173.12L415.807 168.64C416.713 169.387 417.86 169.973 419.247 170.4C420.66 170.853 422.047 171.08 423.407 171.08C425.62 171.08 427.22 170.587 428.207 169.6C429.22 168.613 429.727 167.147 429.727 165.2V161.96L430.127 156.56L430.047 151.12V146.48H435.967V164.4C435.967 168.4 434.927 171.347 432.847 173.24C430.767 175.133 427.78 176.08 423.887 176.08ZM422.927 166.96C420.927 166.96 419.113 166.533 417.487 165.68C415.887 164.8 414.593 163.587 413.607 162.04C412.647 160.467 412.167 158.64 412.167 156.56C412.167 154.453 412.647 152.627 413.607 151.08C414.593 149.507 415.887 148.293 417.487 147.44C419.113 146.587 420.927 146.16 422.927 146.16C424.74 146.16 426.34 146.533 427.727 147.28C429.113 148 430.193 149.133 430.967 150.68C431.74 152.2 432.127 154.16 432.127 156.56C432.127 158.933 431.74 160.893 430.967 162.44C430.193 163.96 429.113 165.093 427.727 165.84C426.34 166.587 424.74 166.96 422.927 166.96ZM424.167 161.84C425.26 161.84 426.233 161.627 427.087 161.2C427.94 160.747 428.607 160.12 429.087 159.32C429.567 158.52 429.807 157.6 429.807 156.56C429.807 155.493 429.567 154.573 429.087 153.8C428.607 153 427.94 152.387 427.087 151.96C426.233 151.507 425.26 151.28 424.167 151.28C423.073 151.28 422.1 151.507 421.247 151.96C420.393 152.387 419.713 153 419.207 153.8C418.727 154.573 418.487 155.493 418.487 156.56C418.487 157.6 418.727 158.52 419.207 159.32C419.713 160.12 420.393 160.747 421.247 161.2C422.1 161.627 423.073 161.84 424.167 161.84ZM444.495 176.08C443.375 176.08 442.268 175.907 441.175 175.56C440.081 175.213 439.188 174.733 438.495 174.12L440.775 169.68C441.255 170.107 441.801 170.44 442.415 170.68C443.055 170.92 443.681 171.04 444.295 171.04C445.175 171.04 445.868 170.827 446.375 170.4C446.908 170 447.388 169.32 447.815 168.36L448.935 165.72L449.415 165.04L457.135 146.48H463.135L453.415 169.32C452.721 171.053 451.921 172.413 451.015 173.4C450.135 174.387 449.148 175.08 448.055 175.48C446.988 175.88 445.801 176.08 444.495 176.08ZM448.175 168.84L438.575 146.48H445.015L452.455 164.48L448.175 168.84ZM484.249 168.32C482.409 168.32 480.636 168.107 478.929 167.68C477.249 167.227 475.916 166.667 474.929 166L477.009 161.52C477.996 162.133 479.156 162.64 480.489 163.04C481.849 163.413 483.182 163.6 484.489 163.6C485.929 163.6 486.942 163.427 487.529 163.08C488.142 162.733 488.449 162.253 488.449 161.64C488.449 161.133 488.209 160.76 487.729 160.52C487.276 160.253 486.662 160.053 485.889 159.92C485.116 159.787 484.262 159.653 483.329 159.52C482.422 159.387 481.502 159.213 480.569 159C479.636 158.76 478.782 158.413 478.009 157.96C477.236 157.507 476.609 156.893 476.129 156.12C475.676 155.347 475.449 154.347 475.449 153.12C475.449 151.76 475.836 150.56 476.609 149.52C477.409 148.48 478.556 147.667 480.049 147.08C481.542 146.467 483.329 146.16 485.409 146.16C486.876 146.16 488.369 146.32 489.889 146.64C491.409 146.96 492.676 147.427 493.689 148.04L491.609 152.48C490.569 151.867 489.516 151.453 488.449 151.24C487.409 151 486.396 150.88 485.409 150.88C484.022 150.88 483.009 151.067 482.369 151.44C481.729 151.813 481.409 152.293 481.409 152.88C481.409 153.413 481.636 153.813 482.089 154.08C482.569 154.347 483.196 154.56 483.969 154.72C484.742 154.88 485.582 155.027 486.489 155.16C487.422 155.267 488.356 155.44 489.289 155.68C490.222 155.92 491.062 156.267 491.809 156.72C492.582 157.147 493.209 157.747 493.689 158.52C494.169 159.267 494.409 160.253 494.409 161.48C494.409 162.813 494.009 164 493.209 165.04C492.409 166.053 491.249 166.853 489.729 167.44C488.236 168.027 486.409 168.32 484.249 168.32ZM507.059 168.32C504.526 168.32 502.552 167.68 501.139 166.4C499.726 165.093 499.019 163.16 499.019 160.6V141.72H505.259V160.52C505.259 161.427 505.499 162.133 505.979 162.64C506.459 163.12 507.112 163.36 507.939 163.36C508.926 163.36 509.766 163.093 510.459 162.56L512.139 166.96C511.499 167.413 510.726 167.76 509.819 168C508.939 168.213 508.019 168.32 507.059 168.32ZM495.699 151.76V146.96H510.619V151.76H495.699ZM528.842 168V163.8L528.442 162.88V155.36C528.442 154.027 528.028 152.987 527.202 152.24C526.402 151.493 525.162 151.12 523.482 151.12C522.335 151.12 521.202 151.307 520.082 151.68C518.988 152.027 518.055 152.507 517.282 153.12L515.042 148.76C516.215 147.933 517.628 147.293 519.282 146.84C520.935 146.387 522.615 146.16 524.322 146.16C527.602 146.16 530.148 146.933 531.962 148.48C533.775 150.027 534.682 152.44 534.682 155.72V168H528.842ZM522.282 168.32C520.602 168.32 519.162 168.04 517.962 167.48C516.762 166.893 515.842 166.107 515.202 165.12C514.562 164.133 514.242 163.027 514.242 161.8C514.242 160.52 514.548 159.4 515.162 158.44C515.802 157.48 516.802 156.733 518.162 156.2C519.522 155.64 521.295 155.36 523.482 155.36H529.202V159H524.162C522.695 159 521.682 159.24 521.122 159.72C520.588 160.2 520.322 160.8 520.322 161.52C520.322 162.32 520.628 162.96 521.242 163.44C521.882 163.893 522.748 164.12 523.842 164.12C524.882 164.12 525.815 163.88 526.642 163.4C527.468 162.893 528.068 162.16 528.442 161.2L529.402 164.08C528.948 165.467 528.122 166.52 526.922 167.24C525.722 167.96 524.175 168.32 522.282 168.32ZM549.129 168.32C546.596 168.32 544.623 167.68 543.209 166.4C541.796 165.093 541.089 163.16 541.089 160.6V141.72H547.329V160.52C547.329 161.427 547.569 162.133 548.049 162.64C548.529 163.12 549.183 163.36 550.009 163.36C550.996 163.36 551.836 163.093 552.529 162.56L554.209 166.96C553.569 167.413 552.796 167.76 551.889 168C551.009 168.213 550.089 168.32 549.129 168.32ZM537.769 151.76V146.96H552.689V151.76H537.769ZM557.712 168V146.48H563.952V168H557.712ZM560.832 143.48C559.685 143.48 558.752 143.147 558.032 142.48C557.312 141.813 556.952 140.987 556.952 140C556.952 139.013 557.312 138.187 558.032 137.52C558.752 136.853 559.685 136.52 560.832 136.52C561.979 136.52 562.912 136.84 563.632 137.48C564.352 138.093 564.712 138.893 564.712 139.88C564.712 140.92 564.352 141.787 563.632 142.48C562.939 143.147 562.005 143.48 560.832 143.48ZM576.983 168.32C575.143 168.32 573.37 168.107 571.663 167.68C569.983 167.227 568.65 166.667 567.663 166L569.743 161.52C570.73 162.133 571.89 162.64 573.223 163.04C574.583 163.413 575.917 163.6 577.223 163.6C578.663 163.6 579.677 163.427 580.263 163.08C580.877 162.733 581.183 162.253 581.183 161.64C581.183 161.133 580.943 160.76 580.463 160.52C580.01 160.253 579.397 160.053 578.623 159.92C577.85 159.787 576.997 159.653 576.063 159.52C575.157 159.387 574.237 159.213 573.303 159C572.37 158.76 571.517 158.413 570.743 157.96C569.97 157.507 569.343 156.893 568.863 156.12C568.41 155.347 568.183 154.347 568.183 153.12C568.183 151.76 568.57 150.56 569.343 149.52C570.143 148.48 571.29 147.667 572.783 147.08C574.277 146.467 576.063 146.16 578.143 146.16C579.61 146.16 581.103 146.32 582.623 146.64C584.143 146.96 585.41 147.427 586.423 148.04L584.343 152.48C583.303 151.867 582.25 151.453 581.183 151.24C580.143 151 579.13 150.88 578.143 150.88C576.757 150.88 575.743 151.067 575.103 151.44C574.463 151.813 574.143 152.293 574.143 152.88C574.143 153.413 574.37 153.813 574.823 154.08C575.303 154.347 575.93 154.56 576.703 154.72C577.477 154.88 578.317 155.027 579.223 155.16C580.157 155.267 581.09 155.44 582.023 155.68C582.957 155.92 583.797 156.267 584.543 156.72C585.317 157.147 585.943 157.747 586.423 158.52C586.903 159.267 587.143 160.253 587.143 161.48C587.143 162.813 586.743 164 585.943 165.04C585.143 166.053 583.983 166.853 582.463 167.44C580.97 168.027 579.143 168.32 576.983 168.32ZM589.513 168V164.24L602.233 149.2L603.313 151.28H589.793V146.48H608.353V150.24L595.633 165.28L594.513 163.2H608.713V168H589.513ZM621.59 168.32C619.057 168.32 617.083 167.68 615.67 166.4C614.257 165.093 613.55 163.16 613.55 160.6V141.72H619.79V160.52C619.79 161.427 620.03 162.133 620.51 162.64C620.99 163.12 621.643 163.36 622.47 163.36C623.457 163.36 624.297 163.093 624.99 162.56L626.67 166.96C626.03 167.413 625.257 167.76 624.35 168C623.47 168.213 622.55 168.32 621.59 168.32ZM610.23 151.76V146.96H625.15V151.76H610.23ZM630.173 168V146.48H636.413V168H630.173ZM633.293 143.48C632.146 143.48 631.213 143.147 630.493 142.48C629.773 141.813 629.413 140.987 629.413 140C629.413 139.013 629.773 138.187 630.493 137.52C631.213 136.853 632.146 136.52 633.293 136.52C634.44 136.52 635.373 136.84 636.093 137.48C636.813 138.093 637.173 138.893 637.173 139.88C637.173 140.92 636.813 141.787 636.093 142.48C635.4 143.147 634.466 143.48 633.293 143.48ZM647.364 163.6L647.524 156L657.564 146.48H665.004L655.364 156.28L652.124 158.92L647.364 163.6ZM642.204 168V138.32H648.444V168H642.204ZM658.244 168L650.964 158.96L654.884 154.12L665.804 168H658.244ZM681.42 168V163.8L681.02 162.88V155.36C681.02 154.027 680.607 152.987 679.78 152.24C678.98 151.493 677.74 151.12 676.06 151.12C674.913 151.12 673.78 151.307 672.66 151.68C671.567 152.027 670.633 152.507 669.86 153.12L667.62 148.76C668.793 147.933 670.207 147.293 671.86 146.84C673.513 146.387 675.193 146.16 676.9 146.16C680.18 146.16 682.727 146.933 684.54 148.48C686.353 150.027 687.26 152.44 687.26 155.72V168H681.42ZM674.86 168.32C673.18 168.32 671.74 168.04 670.54 167.48C669.34 166.893 668.42 166.107 667.78 165.12C667.14 164.133 666.82 163.027 666.82 161.8C666.82 160.52 667.127 159.4 667.74 158.44C668.38 157.48 669.38 156.733 670.74 156.2C672.1 155.64 673.873 155.36 676.06 155.36H681.78V159H676.74C675.273 159 674.26 159.24 673.7 159.72C673.167 160.2 672.9 160.8 672.9 161.52C672.9 162.32 673.207 162.96 673.82 163.44C674.46 163.893 675.327 164.12 676.42 164.12C677.46 164.12 678.393 163.88 679.22 163.4C680.047 162.893 680.647 162.16 681.02 161.2L681.98 164.08C681.527 165.467 680.7 166.52 679.5 167.24C678.3 167.96 676.753 168.32 674.86 168.32Z" fill="black"/>
<path d="M206.014 222L196.714 201H199.114L207.814 220.77H206.494L215.254 201H217.504L208.204 222H206.014ZM228.771 222V218.52L228.681 217.95V212.13C228.681 210.79 228.301 209.76 227.541 209.04C226.801 208.32 225.691 207.96 224.211 207.96C223.191 207.96 222.221 208.13 221.301 208.47C220.381 208.81 219.601 209.26 218.961 209.82L218.001 208.23C218.801 207.55 219.761 207.03 220.881 206.67C222.001 206.29 223.181 206.1 224.421 206.1C226.461 206.1 228.031 206.61 229.131 207.63C230.251 208.63 230.811 210.16 230.811 212.22V222H228.771ZM223.341 222.15C222.161 222.15 221.131 221.96 220.251 221.58C219.391 221.18 218.731 220.64 218.271 219.96C217.811 219.26 217.581 218.46 217.581 217.56C217.581 216.74 217.771 216 218.151 215.34C218.551 214.66 219.191 214.12 220.071 213.72C220.971 213.3 222.171 213.09 223.671 213.09H229.101V214.68H223.731C222.211 214.68 221.151 214.95 220.551 215.49C219.971 216.03 219.681 216.7 219.681 217.5C219.681 218.4 220.031 219.12 220.731 219.66C221.431 220.2 222.411 220.47 223.671 220.47C224.871 220.47 225.901 220.2 226.761 219.66C227.641 219.1 228.281 218.3 228.681 217.26L229.161 218.73C228.761 219.77 228.061 220.6 227.061 221.22C226.081 221.84 224.841 222.15 223.341 222.15ZM222.531 203.79L226.641 200.07H229.491L224.631 203.79H222.531ZM236.596 222V199.74H238.726V222H236.596ZM254.523 222V218.52L254.433 217.95V212.13C254.433 210.79 254.053 209.76 253.293 209.04C252.553 208.32 251.443 207.96 249.963 207.96C248.943 207.96 247.973 208.13 247.053 208.47C246.133 208.81 245.353 209.26 244.713 209.82L243.753 208.23C244.553 207.55 245.513 207.03 246.633 206.67C247.753 206.29 248.933 206.1 250.173 206.1C252.213 206.1 253.783 206.61 254.883 207.63C256.003 208.63 256.563 210.16 256.563 212.22V222H254.523ZM249.093 222.15C247.913 222.15 246.883 221.96 246.003 221.58C245.143 221.18 244.483 220.64 244.023 219.96C243.563 219.26 243.333 218.46 243.333 217.56C243.333 216.74 243.523 216 243.903 215.34C244.303 214.66 244.943 214.12 245.823 213.72C246.723 213.3 247.923 213.09 249.423 213.09H254.853V214.68H249.483C247.963 214.68 246.903 214.95 246.303 215.49C245.723 216.03 245.433 216.7 245.433 217.5C245.433 218.4 245.783 219.12 246.483 219.66C247.183 220.2 248.163 220.47 249.423 220.47C250.623 220.47 251.653 220.2 252.513 219.66C253.393 219.1 254.033 218.3 254.433 217.26L254.913 218.73C254.513 219.77 253.813 220.6 252.813 221.22C251.833 221.84 250.593 222.15 249.093 222.15ZM266.578 222.15C265.278 222.15 264.048 221.97 262.888 221.61C261.728 221.23 260.818 220.76 260.158 220.2L261.118 218.52C261.758 219 262.578 219.42 263.578 219.78C264.578 220.12 265.628 220.29 266.728 220.29C268.228 220.29 269.308 220.06 269.968 219.6C270.628 219.12 270.958 218.49 270.958 217.71C270.958 217.13 270.768 216.68 270.388 216.36C270.028 216.02 269.548 215.77 268.948 215.61C268.348 215.43 267.678 215.28 266.938 215.16C266.198 215.04 265.458 214.9 264.718 214.74C263.998 214.58 263.338 214.35 262.738 214.05C262.138 213.73 261.648 213.3 261.268 212.76C260.908 212.22 260.728 211.5 260.728 210.6C260.728 209.74 260.968 208.97 261.448 208.29C261.928 207.61 262.628 207.08 263.548 206.7C264.488 206.3 265.628 206.1 266.968 206.1C267.988 206.1 269.008 206.24 270.028 206.52C271.048 206.78 271.888 207.13 272.548 207.57L271.618 209.28C270.918 208.8 270.168 208.46 269.368 208.26C268.568 208.04 267.768 207.93 266.968 207.93C265.548 207.93 264.498 208.18 263.818 208.68C263.158 209.16 262.828 209.78 262.828 210.54C262.828 211.14 263.008 211.61 263.368 211.95C263.748 212.29 264.238 212.56 264.838 212.76C265.458 212.94 266.128 213.09 266.848 213.21C267.588 213.33 268.318 213.48 269.038 213.66C269.778 213.82 270.448 214.05 271.048 214.35C271.668 214.63 272.158 215.04 272.518 215.58C272.898 216.1 273.088 216.79 273.088 217.65C273.088 218.57 272.828 219.37 272.308 220.05C271.808 220.71 271.068 221.23 270.088 221.61C269.128 221.97 267.958 222.15 266.578 222.15ZM281.226 222.15C279.926 222.15 278.696 221.97 277.536 221.61C276.376 221.23 275.466 220.76 274.806 220.2L275.766 218.52C276.406 219 277.226 219.42 278.226 219.78C279.226 220.12 280.276 220.29 281.376 220.29C282.876 220.29 283.956 220.06 284.616 219.6C285.276 219.12 285.606 218.49 285.606 217.71C285.606 217.13 285.416 216.68 285.036 216.36C284.676 216.02 284.196 215.77 283.596 215.61C282.996 215.43 282.326 215.28 281.586 215.16C280.846 215.04 280.106 214.9 279.366 214.74C278.646 214.58 277.986 214.35 277.386 214.05C276.786 213.73 276.296 213.3 275.916 212.76C275.556 212.22 275.376 211.5 275.376 210.6C275.376 209.74 275.616 208.97 276.096 208.29C276.576 207.61 277.276 207.08 278.196 206.7C279.136 206.3 280.276 206.1 281.616 206.1C282.636 206.1 283.656 206.24 284.676 206.52C285.696 206.78 286.536 207.13 287.196 207.57L286.266 209.28C285.566 208.8 284.816 208.46 284.016 208.26C283.216 208.04 282.416 207.93 281.616 207.93C280.196 207.93 279.146 208.18 278.466 208.68C277.806 209.16 277.476 209.78 277.476 210.54C277.476 211.14 277.656 211.61 278.016 211.95C278.396 212.29 278.886 212.56 279.486 212.76C280.106 212.94 280.776 213.09 281.496 213.21C282.236 213.33 282.966 213.48 283.686 213.66C284.426 213.82 285.096 214.05 285.696 214.35C286.316 214.63 286.806 215.04 287.166 215.58C287.546 216.1 287.736 216.79 287.736 217.65C287.736 218.57 287.476 219.37 286.956 220.05C286.456 220.71 285.716 221.23 284.736 221.61C283.776 221.97 282.606 222.15 281.226 222.15ZM289.935 222V220.59L300.435 207.3L300.885 208.02H290.115V206.25H302.565V207.63L292.095 220.95L291.555 220.23H302.775V222H289.935ZM322.859 206.1C324.139 206.1 325.259 206.35 326.219 206.85C327.199 207.33 327.959 208.07 328.499 209.07C329.059 210.07 329.339 211.33 329.339 212.85V222H327.209V213.06C327.209 211.4 326.789 210.15 325.949 209.31C325.129 208.45 323.969 208.02 322.469 208.02C321.349 208.02 320.369 208.25 319.529 208.71C318.709 209.15 318.069 209.8 317.609 210.66C317.169 211.5 316.949 212.52 316.949 213.72V222H314.819V199.74H316.949V210.57L316.529 209.76C317.029 208.62 317.829 207.73 318.929 207.09C320.029 206.43 321.339 206.1 322.859 206.1ZM341.782 222.15C340.142 222.15 338.702 221.81 337.462 221.13C336.222 220.43 335.252 219.48 334.552 218.28C333.852 217.06 333.502 215.67 333.502 214.11C333.502 212.55 333.832 211.17 334.492 209.97C335.172 208.77 336.092 207.83 337.252 207.15C338.432 206.45 339.752 206.1 341.212 206.1C342.692 206.1 344.002 206.44 345.142 207.12C346.302 207.78 347.212 208.72 347.872 209.94C348.532 211.14 348.862 212.53 348.862 214.11C348.862 214.21 348.852 214.32 348.832 214.44C348.832 214.54 348.832 214.65 348.832 214.77H335.122V213.18H347.692L346.852 213.81C346.852 212.67 346.602 211.66 346.102 210.78C345.622 209.88 344.962 209.18 344.122 208.68C343.282 208.18 342.312 207.93 341.212 207.93C340.132 207.93 339.162 208.18 338.302 208.68C337.442 209.18 336.772 209.88 336.292 210.78C335.812 211.68 335.572 212.71 335.572 213.87V214.2C335.572 215.4 335.832 216.46 336.352 217.38C336.892 218.28 337.632 218.99 338.572 219.51C339.532 220.01 340.622 220.26 341.842 220.26C342.802 220.26 343.692 220.09 344.512 219.75C345.352 219.41 346.072 218.89 346.672 218.19L347.872 219.57C347.172 220.41 346.292 221.05 345.232 221.49C344.192 221.93 343.042 222.15 341.782 222.15ZM358.178 222.15C356.698 222.15 355.558 221.75 354.758 220.95C353.958 220.15 353.558 219.02 353.558 217.56V202.77H355.688V217.44C355.688 218.36 355.918 219.07 356.378 219.57C356.858 220.07 357.538 220.32 358.418 220.32C359.358 220.32 360.138 220.05 360.758 219.51L361.508 221.04C361.088 221.42 360.578 221.7 359.978 221.88C359.398 222.06 358.798 222.15 358.178 222.15ZM350.738 208.02V206.25H360.488V208.02H350.738ZM365.385 222V206.25H367.515V222H365.385ZM366.465 202.77C366.025 202.77 365.655 202.62 365.355 202.32C365.055 202.02 364.905 201.66 364.905 201.24C364.905 200.82 365.055 200.47 365.355 200.19C365.655 199.89 366.025 199.74 366.465 199.74C366.905 199.74 367.275 199.88 367.575 200.16C367.875 200.44 368.025 200.79 368.025 201.21C368.025 201.65 367.875 202.02 367.575 202.32C367.295 202.62 366.925 202.77 366.465 202.77ZM372.152 226.38L373.472 220.83L373.712 222.12C373.252 222.12 372.862 221.97 372.542 221.67C372.242 221.37 372.092 220.98 372.092 220.5C372.092 220.02 372.242 219.63 372.542 219.33C372.862 219.03 373.242 218.88 373.682 218.88C374.142 218.88 374.512 219.04 374.792 219.36C375.092 219.68 375.242 220.06 375.242 220.5C375.242 220.66 375.232 220.82 375.212 220.98C375.192 221.14 375.152 221.32 375.092 221.52C375.032 221.72 374.952 221.96 374.852 222.24L373.592 226.38H372.152ZM395.691 206.1C396.971 206.1 398.091 206.35 399.051 206.85C400.031 207.33 400.791 208.07 401.331 209.07C401.891 210.07 402.171 211.33 402.171 212.85V222H400.041V213.06C400.041 211.4 399.621 210.15 398.781 209.31C397.961 208.45 396.801 208.02 395.301 208.02C394.181 208.02 393.201 208.25 392.361 208.71C391.541 209.15 390.901 209.8 390.441 210.66C390.001 211.5 389.781 212.52 389.781 213.72V222H387.651V199.74H389.781V210.57L389.361 209.76C389.861 208.62 390.661 207.73 391.761 207.09C392.861 206.43 394.171 206.1 395.691 206.1ZM417.794 222V218.52L417.704 217.95V212.13C417.704 210.79 417.324 209.76 416.564 209.04C415.824 208.32 414.714 207.96 413.234 207.96C412.214 207.96 411.244 208.13 410.324 208.47C409.404 208.81 408.624 209.26 407.984 209.82L407.024 208.23C407.824 207.55 408.784 207.03 409.904 206.67C411.024 206.29 412.204 206.1 413.444 206.1C415.484 206.1 417.054 206.61 418.154 207.63C419.274 208.63 419.834 210.16 419.834 212.22V222H417.794ZM412.364 222.15C411.184 222.15 410.154 221.96 409.274 221.58C408.414 221.18 407.754 220.64 407.294 219.96C406.834 219.26 406.604 218.46 406.604 217.56C406.604 216.74 406.794 216 407.174 215.34C407.574 214.66 408.214 214.12 409.094 213.72C409.994 213.3 411.194 213.09 412.694 213.09H418.124V214.68H412.754C411.234 214.68 410.174 214.95 409.574 215.49C408.994 216.03 408.704 216.7 408.704 217.5C408.704 218.4 409.054 219.12 409.754 219.66C410.454 220.2 411.434 220.47 412.694 220.47C413.894 220.47 414.924 220.2 415.784 219.66C416.664 219.1 417.304 218.3 417.704 217.26L418.184 218.73C417.784 219.77 417.084 220.6 416.084 221.22C415.104 221.84 413.864 222.15 412.364 222.15ZM429.376 222L422.386 206.25H424.606L431.026 220.86H429.976L436.486 206.25H438.586L431.566 222H429.376ZM441.586 222V206.25H443.716V222H441.586ZM442.666 202.77C442.226 202.77 441.856 202.62 441.556 202.32C441.256 202.02 441.106 201.66 441.106 201.24C441.106 200.82 441.256 200.47 441.556 200.19C441.856 199.89 442.226 199.74 442.666 199.74C443.106 199.74 443.476 199.88 443.776 200.16C444.076 200.44 444.226 200.79 444.226 201.21C444.226 201.65 444.076 202.02 443.776 202.32C443.496 202.62 443.126 202.77 442.666 202.77ZM464.184 222.15C462.544 222.15 461.104 221.81 459.864 221.13C458.624 220.43 457.654 219.48 456.954 218.28C456.254 217.06 455.904 215.67 455.904 214.11C455.904 212.55 456.234 211.17 456.894 209.97C457.574 208.77 458.494 207.83 459.654 207.15C460.834 206.45 462.154 206.1 463.614 206.1C465.094 206.1 466.404 206.44 467.544 207.12C468.704 207.78 469.614 208.72 470.274 209.94C470.934 211.14 471.264 212.53 471.264 214.11C471.264 214.21 471.254 214.32 471.234 214.44C471.234 214.54 471.234 214.65 471.234 214.77H457.524V213.18H470.094L469.254 213.81C469.254 212.67 469.004 211.66 468.504 210.78C468.024 209.88 467.364 209.18 466.524 208.68C465.684 208.18 464.714 207.93 463.614 207.93C462.534 207.93 461.564 208.18 460.704 208.68C459.844 209.18 459.174 209.88 458.694 210.78C458.214 211.68 457.974 212.71 457.974 213.87V214.2C457.974 215.4 458.234 216.46 458.754 217.38C459.294 218.28 460.034 218.99 460.974 219.51C461.934 220.01 463.024 220.26 464.244 220.26C465.204 220.26 466.094 220.09 466.914 219.75C467.754 219.41 468.474 218.89 469.074 218.19L470.274 219.57C469.574 220.41 468.694 221.05 467.634 221.49C466.594 221.93 465.444 222.15 464.184 222.15ZM461.634 203.79L465.744 200.07H468.594L463.734 203.79H461.634ZM479.83 222.15C478.53 222.15 477.3 221.97 476.14 221.61C474.98 221.23 474.07 220.76 473.41 220.2L474.37 218.52C475.01 219 475.83 219.42 476.83 219.78C477.83 220.12 478.88 220.29 479.98 220.29C481.48 220.29 482.56 220.06 483.22 219.6C483.88 219.12 484.21 218.49 484.21 217.71C484.21 217.13 484.02 216.68 483.64 216.36C483.28 216.02 482.8 215.77 482.2 215.61C481.6 215.43 480.93 215.28 480.19 215.16C479.45 215.04 478.71 214.9 477.97 214.74C477.25 214.58 476.59 214.35 475.99 214.05C475.39 213.73 474.9 213.3 474.52 212.76C474.16 212.22 473.98 211.5 473.98 210.6C473.98 209.74 474.22 208.97 474.7 208.29C475.18 207.61 475.88 207.08 476.8 206.7C477.74 206.3 478.88 206.1 480.22 206.1C481.24 206.1 482.26 206.24 483.28 206.52C484.3 206.78 485.14 207.13 485.8 207.57L484.87 209.28C484.17 208.8 483.42 208.46 482.62 208.26C481.82 208.04 481.02 207.93 480.22 207.93C478.8 207.93 477.75 208.18 477.07 208.68C476.41 209.16 476.08 209.78 476.08 210.54C476.08 211.14 476.26 211.61 476.62 211.95C477 212.29 477.49 212.56 478.09 212.76C478.71 212.94 479.38 213.09 480.1 213.21C480.84 213.33 481.57 213.48 482.29 213.66C483.03 213.82 483.7 214.05 484.3 214.35C484.92 214.63 485.41 215.04 485.77 215.58C486.15 216.1 486.34 216.79 486.34 217.65C486.34 218.57 486.08 219.37 485.56 220.05C485.06 220.71 484.32 221.23 483.34 221.61C482.38 221.97 481.21 222.15 479.83 222.15ZM506.14 206.1C507.42 206.1 508.54 206.35 509.5 206.85C510.48 207.33 511.24 208.07 511.78 209.07C512.34 210.07 512.62 211.33 512.62 212.85V222H510.49V213.06C510.49 211.4 510.07 210.15 509.23 209.31C508.41 208.45 507.25 208.02 505.75 208.02C504.63 208.02 503.65 208.25 502.81 208.71C501.99 209.15 501.35 209.8 500.89 210.66C500.45 211.5 500.23 212.52 500.23 213.72V222H498.1V199.74H500.23V210.57L499.81 209.76C500.31 208.62 501.11 207.73 502.21 207.09C503.31 206.43 504.62 206.1 506.14 206.1ZM528.243 222V218.52L528.153 217.95V212.13C528.153 210.79 527.773 209.76 527.013 209.04C526.273 208.32 525.163 207.96 523.683 207.96C522.663 207.96 521.693 208.13 520.773 208.47C519.853 208.81 519.073 209.26 518.433 209.82L517.473 208.23C518.273 207.55 519.233 207.03 520.353 206.67C521.473 206.29 522.653 206.1 523.893 206.1C525.933 206.1 527.503 206.61 528.603 207.63C529.723 208.63 530.283 210.16 530.283 212.22V222H528.243ZM522.813 222.15C521.633 222.15 520.603 221.96 519.723 221.58C518.863 221.18 518.203 220.64 517.743 219.96C517.283 219.26 517.053 218.46 517.053 217.56C517.053 216.74 517.243 216 517.623 215.34C518.023 214.66 518.663 214.12 519.543 213.72C520.443 213.3 521.643 213.09 523.143 213.09H528.573V214.68H523.203C521.683 214.68 520.623 214.95 520.023 215.49C519.443 216.03 519.153 216.7 519.153 217.5C519.153 218.4 519.503 219.12 520.203 219.66C520.903 220.2 521.883 220.47 523.143 220.47C524.343 220.47 525.373 220.2 526.233 219.66C527.113 219.1 527.753 218.3 528.153 217.26L528.633 218.73C528.233 219.77 527.533 220.6 526.533 221.22C525.553 221.84 524.313 222.15 522.813 222.15ZM522.003 203.79L526.113 200.07H528.963L524.103 203.79H522.003ZM536.069 222V206.25H538.109V210.54L537.899 209.79C538.339 208.59 539.079 207.68 540.119 207.06C541.159 206.42 542.449 206.1 543.989 206.1V208.17C543.909 208.17 543.829 208.17 543.749 208.17C543.669 208.15 543.589 208.14 543.509 208.14C541.849 208.14 540.549 208.65 539.609 209.67C538.669 210.67 538.199 212.1 538.199 213.96V222H536.069ZM554.149 222.15C552.629 222.15 551.259 221.81 550.039 221.13C548.839 220.43 547.889 219.48 547.189 218.28C546.489 217.06 546.139 215.67 546.139 214.11C546.139 212.53 546.489 211.14 547.189 209.94C547.889 208.74 548.839 207.8 550.039 207.12C551.239 206.44 552.609 206.1 554.149 206.1C555.709 206.1 557.089 206.44 558.289 207.12C559.509 207.8 560.459 208.74 561.139 209.94C561.839 211.14 562.189 212.53 562.189 214.11C562.189 215.67 561.839 217.06 561.139 218.28C560.459 219.48 559.509 220.43 558.289 221.13C557.069 221.81 555.689 222.15 554.149 222.15ZM554.149 220.26C555.289 220.26 556.299 220.01 557.179 219.51C558.059 218.99 558.749 218.27 559.249 217.35C559.769 216.41 560.029 215.33 560.029 214.11C560.029 212.87 559.769 211.79 559.249 210.87C558.749 209.95 558.059 209.24 557.179 208.74C556.299 208.22 555.299 207.96 554.179 207.96C553.059 207.96 552.059 208.22 551.179 208.74C550.299 209.24 549.599 209.95 549.079 210.87C548.559 211.79 548.299 212.87 548.299 214.11C548.299 215.33 548.559 216.41 549.079 217.35C549.599 218.27 550.299 218.99 551.179 219.51C552.059 220.01 553.049 220.26 554.149 220.26ZM586.217 206.1C587.497 206.1 588.607 206.35 589.547 206.85C590.507 207.33 591.247 208.07 591.767 209.07C592.307 210.07 592.577 211.33 592.577 212.85V222H590.447V213.06C590.447 211.4 590.047 210.15 589.247 209.31C588.467 208.45 587.357 208.02 585.917 208.02C584.837 208.02 583.897 208.25 583.097 208.71C582.317 209.15 581.707 209.8 581.267 210.66C580.847 211.5 580.637 212.52 580.637 213.72V222H578.507V213.06C578.507 211.4 578.107 210.15 577.307 209.31C576.507 208.45 575.387 208.02 573.947 208.02C572.887 208.02 571.957 208.25 571.157 208.71C570.357 209.15 569.737 209.8 569.297 210.66C568.877 211.5 568.667 212.52 568.667 213.72V222H566.537V206.25H568.577V210.51L568.247 209.76C568.727 208.62 569.497 207.73 570.557 207.09C571.637 206.43 572.907 206.1 574.367 206.1C575.907 206.1 577.217 206.49 578.297 207.27C579.377 208.03 580.077 209.18 580.397 210.72L579.557 210.39C580.017 209.11 580.827 208.08 581.987 207.3C583.167 206.5 584.577 206.1 586.217 206.1ZM606.394 206.1C607.674 206.1 608.794 206.35 609.754 206.85C610.734 207.33 611.494 208.07 612.034 209.07C612.594 210.07 612.874 211.33 612.874 212.85V222H610.744V213.06C610.744 211.4 610.324 210.15 609.484 209.31C608.664 208.45 607.504 208.02 606.004 208.02C604.884 208.02 603.904 208.25 603.064 208.71C602.244 209.15 601.604 209.8 601.144 210.66C600.704 211.5 600.484 212.52 600.484 213.72V222H598.354V199.74H600.484V210.57L600.064 209.76C600.564 208.62 601.364 207.73 602.464 207.09C603.564 206.43 604.874 206.1 606.394 206.1ZM628.497 222V218.52L628.407 217.95V212.13C628.407 210.79 628.027 209.76 627.267 209.04C626.527 208.32 625.417 207.96 623.937 207.96C622.917 207.96 621.947 208.13 621.027 208.47C620.107 208.81 619.327 209.26 618.687 209.82L617.727 208.23C618.527 207.55 619.487 207.03 620.607 206.67C621.727 206.29 622.907 206.1 624.147 206.1C626.187 206.1 627.757 206.61 628.857 207.63C629.977 208.63 630.537 210.16 630.537 212.22V222H628.497ZM623.067 222.15C621.887 222.15 620.857 221.96 619.977 221.58C619.117 221.18 618.457 220.64 617.997 219.96C617.537 219.26 617.307 218.46 617.307 217.56C617.307 216.74 617.497 216 617.877 215.34C618.277 214.66 618.917 214.12 619.797 213.72C620.697 213.3 621.897 213.09 623.397 213.09H628.827V214.68H623.457C621.937 214.68 620.877 214.95 620.277 215.49C619.697 216.03 619.407 216.7 619.407 217.5C619.407 218.4 619.757 219.12 620.457 219.66C621.157 220.2 622.137 220.47 623.397 220.47C624.597 220.47 625.627 220.2 626.487 219.66C627.367 219.1 628.007 218.3 628.407 217.26L628.887 218.73C628.487 219.77 627.787 220.6 626.787 221.22C625.807 221.84 624.567 222.15 623.067 222.15ZM640.08 222L633.09 206.25H635.31L641.73 220.86H640.68L647.19 206.25H649.29L642.27 222H640.08ZM652.289 222V206.25H654.419V222H652.289ZM653.369 202.77C652.929 202.77 652.559 202.62 652.259 202.32C651.959 202.02 651.809 201.66 651.809 201.24C651.809 200.82 651.959 200.47 652.259 200.19C652.559 199.89 652.929 199.74 653.369 199.74C653.809 199.74 654.179 199.88 654.479 200.16C654.779 200.44 654.929 200.79 654.929 201.21C654.929 201.65 654.779 202.02 654.479 202.32C654.199 202.62 653.829 202.77 653.369 202.77ZM174.574 259V243.25H176.704V259H174.574ZM175.654 239.77C175.214 239.77 174.844 239.62 174.544 239.32C174.244 239.02 174.094 238.66 174.094 238.24C174.094 237.82 174.244 237.47 174.544 237.19C174.844 236.89 175.214 236.74 175.654 236.74C176.094 236.74 176.464 236.88 176.764 237.16C177.064 237.44 177.214 237.79 177.214 238.21C177.214 238.65 177.064 239.02 176.764 239.32C176.484 239.62 176.114 239.77 175.654 239.77ZM188.901 259.15C187.401 259.15 186.051 258.81 184.851 258.13C183.671 257.45 182.741 256.51 182.061 255.31C181.381 254.09 181.041 252.69 181.041 251.11C181.041 249.51 181.381 248.11 182.061 246.91C182.741 245.71 183.671 244.78 184.851 244.12C186.051 243.44 187.401 243.1 188.901 243.1C190.281 243.1 191.511 243.41 192.591 244.03C193.691 244.65 194.561 245.56 195.201 246.76C195.861 247.94 196.191 249.39 196.191 251.11C196.191 252.81 195.871 254.26 195.231 255.46C194.591 256.66 193.721 257.58 192.621 258.22C191.541 258.84 190.301 259.15 188.901 259.15ZM189.051 257.26C190.171 257.26 191.171 257.01 192.051 256.51C192.951 255.99 193.651 255.27 194.151 254.35C194.671 253.41 194.931 252.33 194.931 251.11C194.931 249.87 194.671 248.79 194.151 247.87C193.651 246.95 192.951 246.24 192.051 245.74C191.171 245.22 190.171 244.96 189.051 244.96C187.951 244.96 186.961 245.22 186.081 245.74C185.201 246.24 184.501 246.95 183.981 247.87C183.461 248.79 183.201 249.87 183.201 251.11C183.201 252.33 183.461 253.41 183.981 254.35C184.501 255.27 185.201 255.99 186.081 256.51C186.961 257.01 187.951 257.26 189.051 257.26ZM194.991 259V254.26L195.201 251.08L194.901 247.9V236.74H197.031V259H194.991ZM209.383 259.15C207.863 259.15 206.493 258.81 205.273 258.13C204.073 257.43 203.123 256.48 202.423 255.28C201.723 254.06 201.373 252.67 201.373 251.11C201.373 249.53 201.723 248.14 202.423 246.94C203.123 245.74 204.073 244.8 205.273 244.12C206.473 243.44 207.843 243.1 209.383 243.1C210.943 243.1 212.323 243.44 213.523 244.12C214.743 244.8 215.693 245.74 216.373 246.94C217.073 248.14 217.423 249.53 217.423 251.11C217.423 252.67 217.073 254.06 216.373 255.28C215.693 256.48 214.743 257.43 213.523 258.13C212.303 258.81 210.923 259.15 209.383 259.15ZM209.383 257.26C210.523 257.26 211.533 257.01 212.413 256.51C213.293 255.99 213.983 255.27 214.483 254.35C215.003 253.41 215.263 252.33 215.263 251.11C215.263 249.87 215.003 248.79 214.483 247.87C213.983 246.95 213.293 246.24 212.413 245.74C211.533 245.22 210.533 244.96 209.413 244.96C208.293 244.96 207.293 245.22 206.413 245.74C205.533 246.24 204.833 246.95 204.313 247.87C203.793 248.79 203.533 249.87 203.533 251.11C203.533 252.33 203.793 253.41 204.313 254.35C204.833 255.27 205.533 255.99 206.413 256.51C207.293 257.01 208.283 257.26 209.383 257.26ZM210.883 240.79L213.763 237.07H216.133L212.773 240.79H210.883ZM205.993 240.79L208.903 237.07H211.273L207.883 240.79H205.993ZM226.752 259.15C225.272 259.15 224.132 258.75 223.332 257.95C222.532 257.15 222.132 256.02 222.132 254.56V239.77H224.262V254.44C224.262 255.36 224.492 256.07 224.952 256.57C225.432 257.07 226.112 257.32 226.992 257.32C227.932 257.32 228.712 257.05 229.332 256.51L230.082 258.04C229.662 258.42 229.152 258.7 228.552 258.88C227.972 259.06 227.372 259.15 226.752 259.15ZM219.312 245.02V243.25H229.062V245.02H219.312ZM243.829 259V255.52L243.739 254.95V249.13C243.739 247.79 243.359 246.76 242.599 246.04C241.859 245.32 240.749 244.96 239.269 244.96C238.249 244.96 237.279 245.13 236.359 245.47C235.439 245.81 234.659 246.26 234.019 246.82L233.059 245.23C233.859 244.55 234.819 244.03 235.939 243.67C237.059 243.29 238.239 243.1 239.479 243.1C241.519 243.1 243.089 243.61 244.189 244.63C245.309 245.63 245.869 247.16 245.869 249.22V259H243.829ZM238.399 259.15C237.219 259.15 236.189 258.96 235.309 258.58C234.449 258.18 233.789 257.64 233.329 256.96C232.869 256.26 232.639 255.46 232.639 254.56C232.639 253.74 232.829 253 233.209 252.34C233.609 251.66 234.249 251.12 235.129 250.72C236.029 250.3 237.229 250.09 238.729 250.09H244.159V251.68H238.789C237.269 251.68 236.209 251.95 235.609 252.49C235.029 253.03 234.739 253.7 234.739 254.5C234.739 255.4 235.089 256.12 235.789 256.66C236.489 257.2 237.469 257.47 238.729 257.47C239.929 257.47 240.959 257.2 241.819 256.66C242.699 256.1 243.339 255.3 243.739 254.26L244.219 255.73C243.819 256.77 243.119 257.6 242.119 258.22C241.139 258.84 239.899 259.15 238.399 259.15ZM251.655 259V243.25H253.695V247.54L253.485 246.79C253.925 245.59 254.665 244.68 255.705 244.06C256.745 243.42 258.035 243.1 259.575 243.1V245.17C259.495 245.17 259.415 245.17 259.335 245.17C259.255 245.15 259.175 245.14 259.095 245.14C257.435 245.14 256.135 245.65 255.195 246.67C254.255 247.67 253.785 249.1 253.785 250.96V259H251.655ZM269.115 259.15C267.635 259.15 266.495 258.75 265.695 257.95C264.895 257.15 264.495 256.02 264.495 254.56V239.77H266.625V254.44C266.625 255.36 266.855 256.07 267.315 256.57C267.795 257.07 268.475 257.32 269.355 257.32C270.295 257.32 271.075 257.05 271.695 256.51L272.445 258.04C272.025 258.42 271.515 258.7 270.915 258.88C270.335 259.06 269.735 259.15 269.115 259.15ZM261.675 245.02V243.25H271.425V245.02H261.675ZM286.193 259V255.52L286.103 254.95V249.13C286.103 247.79 285.723 246.76 284.963 246.04C284.223 245.32 283.113 244.96 281.633 244.96C280.613 244.96 279.643 245.13 278.723 245.47C277.803 245.81 277.023 246.26 276.383 246.82L275.423 245.23C276.223 244.55 277.183 244.03 278.303 243.67C279.423 243.29 280.603 243.1 281.843 243.1C283.883 243.1 285.453 243.61 286.553 244.63C287.673 245.63 288.233 247.16 288.233 249.22V259H286.193ZM280.763 259.15C279.583 259.15 278.553 258.96 277.673 258.58C276.813 258.18 276.153 257.64 275.693 256.96C275.233 256.26 275.003 255.46 275.003 254.56C275.003 253.74 275.193 253 275.573 252.34C275.973 251.66 276.613 251.12 277.493 250.72C278.393 250.3 279.593 250.09 281.093 250.09H286.523V251.68H281.153C279.633 251.68 278.573 251.95 277.973 252.49C277.393 253.03 277.103 253.7 277.103 254.5C277.103 255.4 277.453 256.12 278.153 256.66C278.853 257.2 279.833 257.47 281.093 257.47C282.293 257.47 283.323 257.2 284.183 256.66C285.063 256.1 285.703 255.3 286.103 254.26L286.583 255.73C286.183 256.77 285.483 257.6 284.483 258.22C283.503 258.84 282.263 259.15 280.763 259.15ZM313.698 243.1C314.978 243.1 316.088 243.35 317.028 243.85C317.988 244.33 318.728 245.07 319.248 246.07C319.788 247.07 320.058 248.33 320.058 249.85V259H317.928V250.06C317.928 248.4 317.528 247.15 316.728 246.31C315.948 245.45 314.838 245.02 313.398 245.02C312.318 245.02 311.378 245.25 310.578 245.71C309.798 246.15 309.188 246.8 308.748 247.66C308.328 248.5 308.118 249.52 308.118 250.72V259H305.988V250.06C305.988 248.4 305.588 247.15 304.788 246.31C303.988 245.45 302.868 245.02 301.428 245.02C300.368 245.02 299.438 245.25 298.638 245.71C297.838 246.15 297.218 246.8 296.778 247.66C296.358 248.5 296.148 249.52 296.148 250.72V259H294.018V243.25H296.058V247.51L295.728 246.76C296.208 245.62 296.978 244.73 298.038 244.09C299.118 243.43 300.388 243.1 301.848 243.1C303.388 243.1 304.698 243.49 305.778 244.27C306.858 245.03 307.558 246.18 307.878 247.72L307.038 247.39C307.498 246.11 308.308 245.08 309.468 244.3C310.648 243.5 312.058 243.1 313.698 243.1ZM335.366 254.92L335.426 252.19L345.236 243.25H347.846L340.916 249.88L339.716 250.9L335.366 254.92ZM333.686 259V236.74H335.816V259H333.686ZM345.896 259L339.326 250.81L340.706 249.16L348.506 259H345.896ZM357.479 259.15C355.959 259.15 354.589 258.81 353.369 258.13C352.169 257.43 351.219 256.48 350.519 255.28C349.819 254.06 349.469 252.67 349.469 251.11C349.469 249.53 349.819 248.14 350.519 246.94C351.219 245.74 352.169 244.8 353.369 244.12C354.569 243.44 355.939 243.1 357.479 243.1C359.039 243.1 360.419 243.44 361.619 244.12C362.839 244.8 363.789 245.74 364.469 246.94C365.169 248.14 365.519 249.53 365.519 251.11C365.519 252.67 365.169 254.06 364.469 255.28C363.789 256.48 362.839 257.43 361.619 258.13C360.399 258.81 359.019 259.15 357.479 259.15ZM357.479 257.26C358.619 257.26 359.629 257.01 360.509 256.51C361.389 255.99 362.079 255.27 362.579 254.35C363.099 253.41 363.359 252.33 363.359 251.11C363.359 249.87 363.099 248.79 362.579 247.87C362.079 246.95 361.389 246.24 360.509 245.74C359.629 245.22 358.629 244.96 357.509 244.96C356.389 244.96 355.389 245.22 354.509 245.74C353.629 246.24 352.929 246.95 352.409 247.87C351.889 248.79 351.629 249.87 351.629 251.11C351.629 252.33 351.889 253.41 352.409 254.35C352.929 255.27 353.629 255.99 354.509 256.51C355.389 257.01 356.379 257.26 357.479 257.26ZM360.149 240.1C359.809 240.1 359.509 239.98 359.249 239.74C358.989 239.5 358.859 239.19 358.859 238.81C358.859 238.43 358.989 238.12 359.249 237.88C359.509 237.64 359.809 237.52 360.149 237.52C360.509 237.52 360.809 237.64 361.049 237.88C361.309 238.12 361.439 238.43 361.439 238.81C361.439 239.19 361.309 239.5 361.049 239.74C360.809 239.98 360.509 240.1 360.149 240.1ZM354.809 240.1C354.449 240.1 354.139 239.98 353.879 239.74C353.639 239.5 353.519 239.19 353.519 238.81C353.519 238.43 353.639 238.12 353.879 237.88C354.139 237.64 354.449 237.52 354.809 237.52C355.149 237.52 355.449 237.64 355.709 237.88C355.969 238.12 356.099 238.43 356.099 238.81C356.099 239.19 355.969 239.5 355.709 239.74C355.449 239.98 355.149 240.1 354.809 240.1ZM367.894 259V257.59L378.394 244.3L378.844 245.02H368.074V243.25H380.524V244.63L370.054 257.95L369.514 257.23H380.734V259H367.894ZM391.436 259.15C390.096 259.15 388.926 258.9 387.926 258.4C386.926 257.9 386.146 257.15 385.586 256.15C385.046 255.15 384.776 253.9 384.776 252.4V243.25H386.906V252.16C386.906 253.84 387.316 255.11 388.136 255.97C388.976 256.81 390.146 257.23 391.646 257.23C392.746 257.23 393.696 257.01 394.496 256.57C395.316 256.11 395.936 255.45 396.356 254.59C396.796 253.73 397.016 252.7 397.016 251.5V243.25H399.146V259H397.106V254.68L397.436 255.46C396.936 256.62 396.156 257.53 395.096 258.19C394.056 258.83 392.836 259.15 391.436 259.15ZM394.646 240.1C394.306 240.1 394.006 239.98 393.746 239.74C393.486 239.5 393.356 239.19 393.356 238.81C393.356 238.43 393.486 238.12 393.746 237.88C394.006 237.64 394.306 237.52 394.646 237.52C395.006 237.52 395.306 237.64 395.546 237.88C395.806 238.12 395.936 238.43 395.936 238.81C395.936 239.19 395.806 239.5 395.546 239.74C395.306 239.98 395.006 240.1 394.646 240.1ZM389.306 240.1C388.946 240.1 388.636 239.98 388.376 239.74C388.136 239.5 388.016 239.19 388.016 238.81C388.016 238.43 388.136 238.12 388.376 237.88C388.636 237.64 388.946 237.52 389.306 237.52C389.646 237.52 389.946 237.64 390.206 237.88C390.466 238.12 390.596 238.43 390.596 238.81C390.596 239.19 390.466 239.5 390.206 239.74C389.946 239.98 389.646 240.1 389.306 240.1ZM405.082 259V236.74H407.212V259H405.082ZM411.849 263.38L413.169 257.83L413.409 259.12C412.949 259.12 412.559 258.97 412.239 258.67C411.939 258.37 411.789 257.98 411.789 257.5C411.789 257.02 411.939 256.63 412.239 256.33C412.559 256.03 412.939 255.88 413.379 255.88C413.839 255.88 414.209 256.04 414.489 256.36C414.789 256.68 414.939 257.06 414.939 257.5C414.939 257.66 414.929 257.82 414.909 257.98C414.889 258.14 414.849 258.32 414.789 258.52C414.729 258.72 414.649 258.96 414.549 259.24L413.289 263.38H411.849ZM434.038 259.15C432.398 259.15 430.958 258.81 429.718 258.13C428.478 257.43 427.508 256.48 426.808 255.28C426.108 254.06 425.758 252.67 425.758 251.11C425.758 249.55 426.088 248.17 426.748 246.97C427.428 245.77 428.348 244.83 429.508 244.15C430.688 243.45 432.008 243.1 433.468 243.1C434.948 243.1 436.258 243.44 437.398 244.12C438.558 244.78 439.468 245.72 440.128 246.94C440.788 248.14 441.118 249.53 441.118 251.11C441.118 251.21 441.108 251.32 441.088 251.44C441.088 251.54 441.088 251.65 441.088 251.77H427.378V250.18H439.948L439.108 250.81C439.108 249.67 438.858 248.66 438.358 247.78C437.878 246.88 437.218 246.18 436.378 245.68C435.538 245.18 434.568 244.93 433.468 244.93C432.388 244.93 431.418 245.18 430.558 245.68C429.698 246.18 429.028 246.88 428.548 247.78C428.068 248.68 427.828 249.71 427.828 250.87V251.2C427.828 252.4 428.088 253.46 428.608 254.38C429.148 255.28 429.888 255.99 430.828 256.51C431.788 257.01 432.878 257.26 434.098 257.26C435.058 257.26 435.948 257.09 436.768 256.75C437.608 256.41 438.328 255.89 438.928 255.19L440.128 256.57C439.428 257.41 438.548 258.05 437.488 258.49C436.448 258.93 435.298 259.15 434.038 259.15ZM431.488 240.79L435.598 237.07H438.448L433.588 240.79H431.488ZM449.683 259.15C448.383 259.15 447.153 258.97 445.993 258.61C444.833 258.23 443.923 257.76 443.263 257.2L444.223 255.52C444.863 256 445.683 256.42 446.683 256.78C447.683 257.12 448.733 257.29 449.833 257.29C451.333 257.29 452.413 257.06 453.073 256.6C453.733 256.12 454.063 255.49 454.063 254.71C454.063 254.13 453.873 253.68 453.493 253.36C453.133 253.02 452.653 252.77 452.053 252.61C451.453 252.43 450.783 252.28 450.043 252.16C449.303 252.04 448.563 251.9 447.823 251.74C447.103 251.58 446.443 251.35 445.843 251.05C445.243 250.73 444.753 250.3 444.373 249.76C444.013 249.22 443.833 248.5 443.833 247.6C443.833 246.74 444.073 245.97 444.553 245.29C445.033 244.61 445.733 244.08 446.653 243.7C447.593 243.3 448.733 243.1 450.073 243.1C451.093 243.1 452.113 243.24 453.133 243.52C454.153 243.78 454.993 244.13 455.653 244.57L454.723 246.28C454.023 245.8 453.273 245.46 452.473 245.26C451.673 245.04 450.873 244.93 450.073 244.93C448.653 244.93 447.603 245.18 446.923 245.68C446.263 246.16 445.933 246.78 445.933 247.54C445.933 248.14 446.113 248.61 446.473 248.95C446.853 249.29 447.343 249.56 447.943 249.76C448.563 249.94 449.233 250.09 449.953 250.21C450.693 250.33 451.423 250.48 452.143 250.66C452.883 250.82 453.553 251.05 454.153 251.35C454.773 251.63 455.263 252.04 455.623 252.58C456.003 253.1 456.193 253.79 456.193 254.65C456.193 255.57 455.933 256.37 455.413 257.05C454.913 257.71 454.173 258.23 453.193 258.61C452.233 258.97 451.063 259.15 449.683 259.15ZM476.083 259.15C474.723 259.15 473.493 258.84 472.393 258.22C471.293 257.58 470.413 256.67 469.753 255.49C469.113 254.29 468.793 252.83 468.793 251.11C468.793 249.39 469.113 247.94 469.753 246.76C470.393 245.56 471.263 244.65 472.363 244.03C473.463 243.41 474.703 243.1 476.083 243.1C477.583 243.1 478.923 243.44 480.103 244.12C481.303 244.78 482.243 245.72 482.923 246.94C483.603 248.14 483.943 249.53 483.943 251.11C483.943 252.71 483.603 254.11 482.923 255.31C482.243 256.51 481.303 257.45 480.103 258.13C478.923 258.81 477.583 259.15 476.083 259.15ZM467.953 264.82V243.25H469.993V247.99L469.783 251.14L470.083 254.32V264.82H467.953ZM475.933 257.26C477.053 257.26 478.053 257.01 478.933 256.51C479.813 255.99 480.513 255.27 481.033 254.35C481.553 253.41 481.813 252.33 481.813 251.11C481.813 249.89 481.553 248.82 481.033 247.9C480.513 246.98 479.813 246.26 478.933 245.74C478.053 245.22 477.053 244.96 475.933 244.96C474.813 244.96 473.803 245.22 472.903 245.74C472.023 246.26 471.323 246.98 470.803 247.9C470.303 248.82 470.053 249.89 470.053 251.11C470.053 252.33 470.303 253.41 470.803 254.35C471.323 255.27 472.023 255.99 472.903 256.51C473.803 257.01 474.813 257.26 475.933 257.26ZM494.705 259.15C493.185 259.15 491.815 258.81 490.595 258.13C489.395 257.43 488.445 256.48 487.745 255.28C487.045 254.06 486.695 252.67 486.695 251.11C486.695 249.53 487.045 248.14 487.745 246.94C488.445 245.74 489.395 244.8 490.595 244.12C491.795 243.44 493.165 243.1 494.705 243.1C496.265 243.1 497.645 243.44 498.845 244.12C500.065 244.8 501.015 245.74 501.695 246.94C502.395 248.14 502.745 249.53 502.745 251.11C502.745 252.67 502.395 254.06 501.695 255.28C501.015 256.48 500.065 257.43 498.845 258.13C497.625 258.81 496.245 259.15 494.705 259.15ZM494.705 257.26C495.845 257.26 496.855 257.01 497.735 256.51C498.615 255.99 499.305 255.27 499.805 254.35C500.325 253.41 500.585 252.33 500.585 251.11C500.585 249.87 500.325 248.79 499.805 247.87C499.305 246.95 498.615 246.24 497.735 245.74C496.855 245.22 495.855 244.96 494.735 244.96C493.615 244.96 492.615 245.22 491.735 245.74C490.855 246.24 490.155 246.95 489.635 247.87C489.115 248.79 488.855 249.87 488.855 251.11C488.855 252.33 489.115 253.41 489.635 254.35C490.155 255.27 490.855 255.99 491.735 256.51C492.615 257.01 493.605 257.26 494.705 257.26ZM515.134 243.1C516.414 243.1 517.534 243.35 518.494 243.85C519.474 244.33 520.234 245.07 520.774 246.07C521.334 247.07 521.614 248.33 521.614 249.85V259H519.484V250.06C519.484 248.4 519.064 247.15 518.224 246.31C517.404 245.45 516.244 245.02 514.744 245.02C513.624 245.02 512.644 245.25 511.804 245.71C510.984 246.15 510.344 246.8 509.884 247.66C509.444 248.5 509.224 249.52 509.224 250.72V259H507.094V243.25H509.134V247.57L508.804 246.76C509.304 245.62 510.104 244.73 511.204 244.09C512.304 243.43 513.614 243.1 515.134 243.1ZM532.347 259.15C530.867 259.15 529.727 258.75 528.927 257.95C528.127 257.15 527.727 256.02 527.727 254.56V239.77H529.857V254.44C529.857 255.36 530.087 256.07 530.547 256.57C531.027 257.07 531.707 257.32 532.587 257.32C533.527 257.32 534.307 257.05 534.927 256.51L535.677 258.04C535.257 258.42 534.747 258.7 534.147 258.88C533.567 259.06 532.967 259.15 532.347 259.15ZM524.907 245.02V243.25H534.657V245.02H524.907ZM545.418 259.15C543.898 259.15 542.528 258.81 541.308 258.13C540.108 257.43 539.158 256.48 538.458 255.28C537.758 254.06 537.408 252.67 537.408 251.11C537.408 249.53 537.758 248.14 538.458 246.94C539.158 245.74 540.108 244.8 541.308 244.12C542.508 243.44 543.878 243.1 545.418 243.1C546.978 243.1 548.358 243.44 549.558 244.12C550.778 244.8 551.728 245.74 552.408 246.94C553.108 248.14 553.458 249.53 553.458 251.11C553.458 252.67 553.108 254.06 552.408 255.28C551.728 256.48 550.778 257.43 549.558 258.13C548.338 258.81 546.958 259.15 545.418 259.15ZM545.418 257.26C546.558 257.26 547.568 257.01 548.448 256.51C549.328 255.99 550.018 255.27 550.518 254.35C551.038 253.41 551.298 252.33 551.298 251.11C551.298 249.87 551.038 248.79 550.518 247.87C550.018 246.95 549.328 246.24 548.448 245.74C547.568 245.22 546.568 244.96 545.448 244.96C544.328 244.96 543.328 245.22 542.448 245.74C541.568 246.24 540.868 246.95 540.348 247.87C539.828 248.79 539.568 249.87 539.568 251.11C539.568 252.33 539.828 253.41 540.348 254.35C540.868 255.27 541.568 255.99 542.448 256.51C543.328 257.01 544.318 257.26 545.418 257.26ZM562.037 259.15C560.737 259.15 559.507 258.97 558.347 258.61C557.187 258.23 556.277 257.76 555.617 257.2L556.577 255.52C557.217 256 558.037 256.42 559.037 256.78C560.037 257.12 561.087 257.29 562.187 257.29C563.687 257.29 564.767 257.06 565.427 256.6C566.087 256.12 566.417 255.49 566.417 254.71C566.417 254.13 566.227 253.68 565.847 253.36C565.487 253.02 565.007 252.77 564.407 252.61C563.807 252.43 563.137 252.28 562.397 252.16C561.657 252.04 560.917 251.9 560.177 251.74C559.457 251.58 558.797 251.35 558.197 251.05C557.597 250.73 557.107 250.3 556.727 249.76C556.367 249.22 556.187 248.5 556.187 247.6C556.187 246.74 556.427 245.97 556.907 245.29C557.387 244.61 558.087 244.08 559.007 243.7C559.947 243.3 561.087 243.1 562.427 243.1C563.447 243.1 564.467 243.24 565.487 243.52C566.507 243.78 567.347 244.13 568.007 244.57L567.077 246.28C566.377 245.8 565.627 245.46 564.827 245.26C564.027 245.04 563.227 244.93 562.427 244.93C561.007 244.93 559.957 245.18 559.277 245.68C558.617 246.16 558.287 246.78 558.287 247.54C558.287 248.14 558.467 248.61 558.827 248.95C559.207 249.29 559.697 249.56 560.297 249.76C560.917 249.94 561.587 250.09 562.307 250.21C563.047 250.33 563.777 250.48 564.497 250.66C565.237 250.82 565.907 251.05 566.507 251.35C567.127 251.63 567.617 252.04 567.977 252.58C568.357 253.1 568.547 253.79 568.547 254.65C568.547 255.57 568.287 256.37 567.767 257.05C567.267 257.71 566.527 258.23 565.547 258.61C564.587 258.97 563.417 259.15 562.037 259.15ZM582.325 259V255.52L582.235 254.95V249.13C582.235 247.79 581.855 246.76 581.095 246.04C580.355 245.32 579.245 244.96 577.765 244.96C576.745 244.96 575.775 245.13 574.855 245.47C573.935 245.81 573.155 246.26 572.515 246.82L571.555 245.23C572.355 244.55 573.315 244.03 574.435 243.67C575.555 243.29 576.735 243.1 577.975 243.1C580.015 243.1 581.585 243.61 582.685 244.63C583.805 245.63 584.365 247.16 584.365 249.22V259H582.325ZM576.895 259.15C575.715 259.15 574.685 258.96 573.805 258.58C572.945 258.18 572.285 257.64 571.825 256.96C571.365 256.26 571.135 255.46 571.135 254.56C571.135 253.74 571.325 253 571.705 252.34C572.105 251.66 572.745 251.12 573.625 250.72C574.525 250.3 575.725 250.09 577.225 250.09H582.655V251.68H577.285C575.765 251.68 574.705 251.95 574.105 252.49C573.525 253.03 573.235 253.7 573.235 254.5C573.235 255.4 573.585 256.12 574.285 256.66C574.985 257.2 575.965 257.47 577.225 257.47C578.425 257.47 579.455 257.2 580.315 256.66C581.195 256.1 581.835 255.3 582.235 254.26L582.715 255.73C582.315 256.77 581.615 257.6 580.615 258.22C579.635 258.84 578.395 259.15 576.895 259.15ZM598.191 243.1C599.471 243.1 600.591 243.35 601.551 243.85C602.531 244.33 603.291 245.07 603.831 246.07C604.391 247.07 604.671 248.33 604.671 249.85V259H602.541V250.06C602.541 248.4 602.121 247.15 601.281 246.31C600.461 245.45 599.301 245.02 597.801 245.02C596.681 245.02 595.701 245.25 594.861 245.71C594.041 246.15 593.401 246.8 592.941 247.66C592.501 248.5 592.281 249.52 592.281 250.72V259H590.151V243.25H592.191V247.57L591.861 246.76C592.361 245.62 593.161 244.73 594.261 244.09C595.361 243.43 596.671 243.1 598.191 243.1ZM618.276 259V236.74H620.406V259H618.276ZM636.202 259V255.52L636.112 254.95V249.13C636.112 247.79 635.732 246.76 634.972 246.04C634.232 245.32 633.122 244.96 631.642 244.96C630.622 244.96 629.652 245.13 628.732 245.47C627.812 245.81 627.032 246.26 626.392 246.82L625.432 245.23C626.232 244.55 627.192 244.03 628.312 243.67C629.432 243.29 630.612 243.1 631.852 243.1C633.892 243.1 635.462 243.61 636.562 244.63C637.682 245.63 638.242 247.16 638.242 249.22V259H636.202ZM630.772 259.15C629.592 259.15 628.562 258.96 627.682 258.58C626.822 258.18 626.162 257.64 625.702 256.96C625.242 256.26 625.012 255.46 625.012 254.56C625.012 253.74 625.202 253 625.582 252.34C625.982 251.66 626.622 251.12 627.502 250.72C628.402 250.3 629.602 250.09 631.102 250.09H636.532V251.68H631.162C629.642 251.68 628.582 251.95 627.982 252.49C627.402 253.03 627.112 253.7 627.112 254.5C627.112 255.4 627.462 256.12 628.162 256.66C628.862 257.2 629.842 257.47 631.102 257.47C632.302 257.47 633.332 257.2 634.192 256.66C635.072 256.1 635.712 255.3 636.112 254.26L636.592 255.73C636.192 256.77 635.492 257.6 634.492 258.22C633.512 258.84 632.272 259.15 630.772 259.15ZM629.962 240.79L634.072 237.07H636.922L632.062 240.79H629.962ZM648.258 259.15C646.958 259.15 645.728 258.97 644.568 258.61C643.408 258.23 642.498 257.76 641.838 257.2L642.798 255.52C643.438 256 644.258 256.42 645.258 256.78C646.258 257.12 647.308 257.29 648.408 257.29C649.908 257.29 650.988 257.06 651.648 256.6C652.308 256.12 652.638 255.49 652.638 254.71C652.638 254.13 652.448 253.68 652.068 253.36C651.708 253.02 651.228 252.77 650.628 252.61C650.028 252.43 649.358 252.28 648.618 252.16C647.878 252.04 647.138 251.9 646.398 251.74C645.678 251.58 645.018 251.35 644.418 251.05C643.818 250.73 643.328 250.3 642.948 249.76C642.588 249.22 642.408 248.5 642.408 247.6C642.408 246.74 642.648 245.97 643.128 245.29C643.608 244.61 644.308 244.08 645.228 243.7C646.168 243.3 647.308 243.1 648.648 243.1C649.668 243.1 650.688 243.24 651.708 243.52C652.728 243.78 653.568 244.13 654.228 244.57L653.298 246.28C652.598 245.8 651.848 245.46 651.048 245.26C650.248 245.04 649.448 244.93 648.648 244.93C647.228 244.93 646.178 245.18 645.498 245.68C644.838 246.16 644.508 246.78 644.508 247.54C644.508 248.14 644.688 248.61 645.048 248.95C645.428 249.29 645.918 249.56 646.518 249.76C647.138 249.94 647.808 250.09 648.528 250.21C649.268 250.33 649.998 250.48 650.718 250.66C651.458 250.82 652.128 251.05 652.728 251.35C653.348 251.63 653.838 252.04 654.198 252.58C654.578 253.1 654.768 253.79 654.768 254.65C654.768 255.57 654.508 256.37 653.988 257.05C653.488 257.71 652.748 258.23 651.768 258.61C650.808 258.97 649.638 259.15 648.258 259.15ZM664.946 259.15C663.446 259.15 662.096 258.81 660.896 258.13C659.716 257.45 658.786 256.51 658.106 255.31C657.426 254.09 657.086 252.69 657.086 251.11C657.086 249.51 657.426 248.11 658.106 246.91C658.786 245.71 659.716 244.78 660.896 244.12C662.096 243.44 663.446 243.1 664.946 243.1C666.326 243.1 667.556 243.41 668.636 244.03C669.736 244.65 670.606 245.56 671.246 246.76C671.906 247.94 672.236 249.39 672.236 251.11C672.236 252.81 671.916 254.26 671.276 255.46C670.636 256.66 669.766 257.58 668.666 258.22C667.586 258.84 666.346 259.15 664.946 259.15ZM665.096 257.26C666.216 257.26 667.216 257.01 668.096 256.51C668.996 255.99 669.696 255.27 670.196 254.35C670.716 253.41 670.976 252.33 670.976 251.11C670.976 249.87 670.716 248.79 670.196 247.87C669.696 246.95 668.996 246.24 668.096 245.74C667.216 245.22 666.216 244.96 665.096 244.96C663.996 244.96 663.006 245.22 662.126 245.74C661.246 246.24 660.546 246.95 660.026 247.87C659.506 248.79 659.246 249.87 659.246 251.11C659.246 252.33 659.506 253.41 660.026 254.35C660.546 255.27 661.246 255.99 662.126 256.51C663.006 257.01 663.996 257.26 665.096 257.26ZM671.036 259V254.26L671.246 251.08L670.946 247.9V236.74H673.076V259H671.036ZM677.718 263.38L679.038 257.83L679.278 259.12C678.818 259.12 678.428 258.97 678.108 258.67C677.808 258.37 677.658 257.98 677.658 257.5C677.658 257.02 677.808 256.63 678.108 256.33C678.428 256.03 678.808 255.88 679.248 255.88C679.708 255.88 680.078 256.04 680.358 256.36C680.658 256.68 680.808 257.06 680.808 257.5C680.808 257.66 680.798 257.82 680.778 257.98C680.758 258.14 680.718 258.32 680.658 258.52C680.598 258.72 680.518 258.96 680.418 259.24L679.158 263.38H677.718ZM303.927 280.1C305.207 280.1 306.317 280.35 307.257 280.85C308.217 281.33 308.957 282.07 309.477 283.07C310.017 284.07 310.287 285.33 310.287 286.85V296H308.157V287.06C308.157 285.4 307.757 284.15 306.957 283.31C306.177 282.45 305.067 282.02 303.627 282.02C302.547 282.02 301.607 282.25 300.807 282.71C300.027 283.15 299.417 283.8 298.977 284.66C298.557 285.5 298.347 286.52 298.347 287.72V296H296.217V287.06C296.217 285.4 295.817 284.15 295.017 283.31C294.217 282.45 293.097 282.02 291.657 282.02C290.597 282.02 289.667 282.25 288.867 282.71C288.067 283.15 287.447 283.8 287.007 284.66C286.587 285.5 286.377 286.52 286.377 287.72V296H284.247V280.25H286.287V284.51L285.957 283.76C286.437 282.62 287.207 281.73 288.267 281.09C289.347 280.43 290.617 280.1 292.077 280.1C293.617 280.1 294.927 280.49 296.007 281.27C297.087 282.03 297.787 283.18 298.107 284.72L297.267 284.39C297.727 283.11 298.537 282.08 299.697 281.3C300.877 280.5 302.287 280.1 303.927 280.1ZM322.754 296.15C321.114 296.15 319.674 295.81 318.434 295.13C317.194 294.43 316.224 293.48 315.524 292.28C314.824 291.06 314.474 289.67 314.474 288.11C314.474 286.55 314.804 285.17 315.464 283.97C316.144 282.77 317.064 281.83 318.224 281.15C319.404 280.45 320.724 280.1 322.184 280.1C323.664 280.1 324.974 280.44 326.114 281.12C327.274 281.78 328.184 282.72 328.844 283.94C329.504 285.14 329.834 286.53 329.834 288.11C329.834 288.21 329.824 288.32 329.804 288.44C329.804 288.54 329.804 288.65 329.804 288.77H316.094V287.18H328.664L327.824 287.81C327.824 286.67 327.574 285.66 327.074 284.78C326.594 283.88 325.934 283.18 325.094 282.68C324.254 282.18 323.284 281.93 322.184 281.93C321.104 281.93 320.134 282.18 319.274 282.68C318.414 283.18 317.744 283.88 317.264 284.78C316.784 285.68 316.544 286.71 316.544 287.87V288.2C316.544 289.4 316.804 290.46 317.324 291.38C317.864 292.28 318.604 292.99 319.544 293.51C320.504 294.01 321.594 294.26 322.814 294.26C323.774 294.26 324.664 294.09 325.484 293.75C326.324 293.41 327.044 292.89 327.644 292.19L328.844 293.57C328.144 294.41 327.264 295.05 326.204 295.49C325.164 295.93 324.014 296.15 322.754 296.15ZM342.209 280.1C343.489 280.1 344.609 280.35 345.569 280.85C346.549 281.33 347.309 282.07 347.849 283.07C348.409 284.07 348.689 285.33 348.689 286.85V296H346.559V287.06C346.559 285.4 346.139 284.15 345.299 283.31C344.479 282.45 343.319 282.02 341.819 282.02C340.699 282.02 339.719 282.25 338.879 282.71C338.059 283.15 337.419 283.8 336.959 284.66C336.519 285.5 336.299 286.52 336.299 287.72V296H334.169V280.25H336.209V284.57L335.879 283.76C336.379 282.62 337.179 281.73 338.279 281.09C339.379 280.43 340.689 280.1 342.209 280.1ZM362.483 280.1C363.763 280.1 364.883 280.35 365.843 280.85C366.823 281.33 367.583 282.07 368.123 283.07C368.683 284.07 368.963 285.33 368.963 286.85V296H366.833V287.06C366.833 285.4 366.413 284.15 365.573 283.31C364.753 282.45 363.593 282.02 362.093 282.02C360.973 282.02 359.993 282.25 359.153 282.71C358.333 283.15 357.693 283.8 357.233 284.66C356.793 285.5 356.573 286.52 356.573 287.72V296H354.443V280.25H356.483V284.57L356.153 283.76C356.653 282.62 357.453 281.73 358.553 281.09C359.653 280.43 360.963 280.1 362.483 280.1ZM374.543 301.97C373.803 301.97 373.093 301.85 372.413 301.61C371.753 301.37 371.183 301.01 370.703 300.53L371.693 298.94C372.093 299.32 372.523 299.61 372.983 299.81C373.463 300.03 373.993 300.14 374.573 300.14C375.273 300.14 375.873 299.94 376.373 299.54C376.893 299.16 377.383 298.48 377.843 297.5L378.863 295.19L379.103 294.86L385.583 280.25H387.683L379.793 297.89C379.353 298.91 378.863 299.72 378.323 300.32C377.803 300.92 377.233 301.34 376.613 301.58C375.993 301.84 375.303 301.97 374.543 301.97ZM378.743 296.45L371.483 280.25H373.703L380.123 294.71L378.743 296.45ZM390.683 296V280.25H392.813V296H390.683ZM391.763 276.77C391.323 276.77 390.953 276.62 390.653 276.32C390.353 276.02 390.203 275.66 390.203 275.24C390.203 274.82 390.353 274.47 390.653 274.19C390.953 273.89 391.323 273.74 391.763 273.74C392.203 273.74 392.573 273.88 392.873 274.16C393.173 274.44 393.323 274.79 393.323 275.21C393.323 275.65 393.173 276.02 392.873 276.32C392.593 276.62 392.223 276.77 391.763 276.77ZM404.251 301.97C403.611 301.97 403.001 301.88 402.421 301.7C401.821 301.54 401.321 301.29 400.921 300.95L401.671 299.33C402.311 299.87 403.131 300.14 404.131 300.14C404.971 300.14 405.611 299.89 406.051 299.39C406.511 298.89 406.741 298.15 406.741 297.17V280.25H408.871V297.17C408.871 298.63 408.471 299.79 407.671 300.65C406.891 301.53 405.751 301.97 404.251 301.97ZM407.821 276.77C407.381 276.77 407.011 276.62 406.711 276.32C406.411 276.02 406.261 275.66 406.261 275.24C406.261 274.82 406.411 274.47 406.711 274.19C407.011 273.89 407.381 273.74 407.821 273.74C408.261 273.74 408.631 273.88 408.931 274.16C409.231 274.44 409.381 274.79 409.381 275.21C409.381 275.65 409.231 276.02 408.931 276.32C408.651 276.62 408.281 276.77 407.821 276.77ZM421.514 296.15C419.874 296.15 418.434 295.81 417.194 295.13C415.954 294.43 414.984 293.48 414.284 292.28C413.584 291.06 413.234 289.67 413.234 288.11C413.234 286.55 413.564 285.17 414.224 283.97C414.904 282.77 415.824 281.83 416.984 281.15C418.164 280.45 419.484 280.1 420.944 280.1C422.424 280.1 423.734 280.44 424.874 281.12C426.034 281.78 426.944 282.72 427.604 283.94C428.264 285.14 428.594 286.53 428.594 288.11C428.594 288.21 428.584 288.32 428.564 288.44C428.564 288.54 428.564 288.65 428.564 288.77H414.854V287.18H427.424L426.584 287.81C426.584 286.67 426.334 285.66 425.834 284.78C425.354 283.88 424.694 283.18 423.854 282.68C423.014 282.18 422.044 281.93 420.944 281.93C419.864 281.93 418.894 282.18 418.034 282.68C417.174 283.18 416.504 283.88 416.024 284.78C415.544 285.68 415.304 286.71 415.304 287.87V288.2C415.304 289.4 415.564 290.46 416.084 291.38C416.624 292.28 417.364 292.99 418.304 293.51C419.264 294.01 420.354 294.26 421.574 294.26C422.534 294.26 423.424 294.09 424.244 293.75C425.084 293.41 425.804 292.89 426.404 292.19L427.604 293.57C426.904 294.41 426.024 295.05 424.964 295.49C423.924 295.93 422.774 296.15 421.514 296.15ZM439.649 301.97C438.209 301.97 436.829 301.76 435.509 301.34C434.189 300.92 433.119 300.32 432.299 299.54L433.379 297.92C434.119 298.58 435.029 299.1 436.109 299.48C437.209 299.88 438.369 300.08 439.589 300.08C441.589 300.08 443.059 299.61 443.999 298.67C444.939 297.75 445.409 296.31 445.409 294.35V290.42L445.709 287.72L445.499 285.02V280.25H447.539V294.08C447.539 296.8 446.869 298.79 445.529 300.05C444.209 301.33 442.249 301.97 439.649 301.97ZM439.259 295.4C437.759 295.4 436.409 295.08 435.209 294.44C434.009 293.78 433.059 292.87 432.359 291.71C431.679 290.55 431.339 289.22 431.339 287.72C431.339 286.22 431.679 284.9 432.359 283.76C433.059 282.6 434.009 281.7 435.209 281.06C436.409 280.42 437.759 280.1 439.259 280.1C440.659 280.1 441.919 280.39 443.039 280.97C444.159 281.55 445.049 282.41 445.709 283.55C446.369 284.69 446.699 286.08 446.699 287.72C446.699 289.36 446.369 290.75 445.709 291.89C445.049 293.03 444.159 293.9 443.039 294.5C441.919 295.1 440.659 295.4 439.259 295.4ZM439.469 293.51C440.629 293.51 441.659 293.27 442.559 292.79C443.459 292.29 444.169 291.61 444.689 290.75C445.209 289.87 445.469 288.86 445.469 287.72C445.469 286.58 445.209 285.58 444.689 284.72C444.169 283.86 443.459 283.19 442.559 282.71C441.659 282.21 440.629 281.96 439.469 281.96C438.329 281.96 437.299 282.21 436.379 282.71C435.479 283.19 434.769 283.86 434.249 284.72C433.749 285.58 433.499 286.58 433.499 287.72C433.499 288.86 433.749 289.87 434.249 290.75C434.769 291.61 435.479 292.29 436.379 292.79C437.299 293.27 438.329 293.51 439.469 293.51ZM453.586 301.97C452.846 301.97 452.136 301.85 451.456 301.61C450.796 301.37 450.226 301.01 449.746 300.53L450.736 298.94C451.136 299.32 451.566 299.61 452.026 299.81C452.506 300.03 453.036 300.14 453.616 300.14C454.316 300.14 454.916 299.94 455.416 299.54C455.936 299.16 456.426 298.48 456.886 297.5L457.906 295.19L458.146 294.86L464.626 280.25H466.726L458.836 297.89C458.396 298.91 457.906 299.72 457.366 300.32C456.846 300.92 456.276 301.34 455.656 301.58C455.036 301.84 454.346 301.97 453.586 301.97ZM457.786 296.45L450.526 280.25H452.746L459.166 294.71L457.786 296.45ZM475.976 296.15C474.336 296.15 472.896 295.81 471.656 295.13C470.416 294.43 469.446 293.48 468.746 292.28C468.046 291.06 467.696 289.67 467.696 288.11C467.696 286.55 468.026 285.17 468.686 283.97C469.366 282.77 470.286 281.83 471.446 281.15C472.626 280.45 473.946 280.1 475.406 280.1C476.886 280.1 478.196 280.44 479.336 281.12C480.496 281.78 481.406 282.72 482.066 283.94C482.726 285.14 483.056 286.53 483.056 288.11C483.056 288.21 483.046 288.32 483.026 288.44C483.026 288.54 483.026 288.65 483.026 288.77H469.316V287.18H481.886L481.046 287.81C481.046 286.67 480.796 285.66 480.296 284.78C479.816 283.88 479.156 283.18 478.316 282.68C477.476 282.18 476.506 281.93 475.406 281.93C474.326 281.93 473.356 282.18 472.496 282.68C471.636 283.18 470.966 283.88 470.486 284.78C470.006 285.68 469.766 286.71 469.766 287.87V288.2C469.766 289.4 470.026 290.46 470.546 291.38C471.086 292.28 471.826 292.99 472.766 293.51C473.726 294.01 474.816 294.26 476.036 294.26C476.996 294.26 477.886 294.09 478.706 293.75C479.546 293.41 480.266 292.89 480.866 292.19L482.066 293.57C481.366 294.41 480.486 295.05 479.426 295.49C478.386 295.93 477.236 296.15 475.976 296.15ZM493.662 296.15C492.162 296.15 490.812 295.81 489.612 295.13C488.432 294.45 487.502 293.51 486.822 292.31C486.142 291.09 485.802 289.69 485.802 288.11C485.802 286.51 486.142 285.11 486.822 283.91C487.502 282.71 488.432 281.78 489.612 281.12C490.812 280.44 492.162 280.1 493.662 280.1C495.042 280.1 496.272 280.41 497.352 281.03C498.452 281.65 499.322 282.56 499.962 283.76C500.622 284.94 500.952 286.39 500.952 288.11C500.952 289.81 500.632 291.26 499.992 292.46C499.352 293.66 498.482 294.58 497.382 295.22C496.302 295.84 495.062 296.15 493.662 296.15ZM493.812 294.26C494.932 294.26 495.932 294.01 496.812 293.51C497.712 292.99 498.412 292.27 498.912 291.35C499.432 290.41 499.692 289.33 499.692 288.11C499.692 286.87 499.432 285.79 498.912 284.87C498.412 283.95 497.712 283.24 496.812 282.74C495.932 282.22 494.932 281.96 493.812 281.96C492.712 281.96 491.722 282.22 490.842 282.74C489.962 283.24 489.262 283.95 488.742 284.87C488.222 285.79 487.962 286.87 487.962 288.11C487.962 289.33 488.222 290.41 488.742 291.35C489.262 292.27 489.962 292.99 490.842 293.51C491.722 294.01 492.712 294.26 493.812 294.26ZM499.752 296V291.26L499.962 288.08L499.662 284.9V273.74H501.792V296H499.752ZM519.625 296L512.635 280.25H514.855L521.275 294.86H520.225L526.735 280.25H528.835L521.815 296H519.625ZM541.236 296V292.52L541.146 291.95V286.13C541.146 284.79 540.766 283.76 540.006 283.04C539.266 282.32 538.156 281.96 536.676 281.96C535.656 281.96 534.686 282.13 533.766 282.47C532.846 282.81 532.066 283.26 531.426 283.82L530.466 282.23C531.266 281.55 532.226 281.03 533.346 280.67C534.466 280.29 535.646 280.1 536.886 280.1C538.926 280.1 540.496 280.61 541.596 281.63C542.716 282.63 543.276 284.16 543.276 286.22V296H541.236ZM535.806 296.15C534.626 296.15 533.596 295.96 532.716 295.58C531.856 295.18 531.196 294.64 530.736 293.96C530.276 293.26 530.046 292.46 530.046 291.56C530.046 290.74 530.236 290 530.616 289.34C531.016 288.66 531.656 288.12 532.536 287.72C533.436 287.3 534.636 287.09 536.136 287.09H541.566V288.68H536.196C534.676 288.68 533.616 288.95 533.016 289.49C532.436 290.03 532.146 290.7 532.146 291.5C532.146 292.4 532.496 293.12 533.196 293.66C533.896 294.2 534.876 294.47 536.136 294.47C537.336 294.47 538.366 294.2 539.226 293.66C540.106 293.1 540.746 292.3 541.146 291.26L541.626 292.73C541.226 293.77 540.526 294.6 539.526 295.22C538.546 295.84 537.306 296.15 535.806 296.15ZM557.102 280.1C558.382 280.1 559.502 280.35 560.462 280.85C561.442 281.33 562.202 282.07 562.742 283.07C563.302 284.07 563.582 285.33 563.582 286.85V296H561.452V287.06C561.452 285.4 561.032 284.15 560.192 283.31C559.372 282.45 558.212 282.02 556.712 282.02C555.592 282.02 554.612 282.25 553.772 282.71C552.952 283.15 552.312 283.8 551.852 284.66C551.412 285.5 551.192 286.52 551.192 287.72V296H549.062V280.25H551.102V284.57L550.772 283.76C551.272 282.62 552.072 281.73 553.172 281.09C554.272 280.43 555.582 280.1 557.102 280.1ZM569.545 296.15C569.105 296.15 568.725 295.99 568.405 295.67C568.105 295.35 567.955 294.96 567.955 294.5C567.955 294.02 568.105 293.63 568.405 293.33C568.725 293.03 569.105 292.88 569.545 292.88C569.985 292.88 570.355 293.03 570.655 293.33C570.975 293.63 571.135 294.02 571.135 294.5C571.135 294.96 570.975 295.35 570.655 295.67C570.355 295.99 569.985 296.15 569.545 296.15Z" fill="black"/>
<path d="M243.526 395.206L139.208 496.207L106.061 525.47H759.267V331.018H632.525L554.53 435.795H360.518L243.526 395.206Z" fill="url(#paint1_linear_2142_2624)" stroke="#0CD36D" stroke-width="7.55152"/>
<g filter="url(#filter1_d_2142_2624)">
<rect x="504.403" y="404.646" width="211.442" height="69.8515" rx="34.9258" fill="white"/>
</g>
<circle cx="569.535" cy="439.571" r="23.5985" fill="#FF8008" fill-opacity="0.5"/>
<path d="M529.887 450.749V430.208L532.134 432.455H525.394V428.283H535.087V450.749H529.887Z" fill="black"/>
<path d="M567.645 450.749V430.208L569.892 432.455H563.152V428.283H572.844V450.749H567.645Z" fill="#FF8008"/>
<circle cx="679.032" cy="439.571" r="23.5985" fill="#007D49" fill-opacity="0.5"/>
<path d="M616.73 450.749V430.208L618.976 432.455H612.237V428.283H621.929V450.749H616.73ZM635.46 451.134C633.62 451.134 631.972 450.684 630.518 449.786C629.063 448.866 627.918 447.539 627.083 445.806C626.249 444.073 625.832 441.976 625.832 439.516C625.832 437.055 626.249 434.958 627.083 433.225C627.918 431.492 629.063 430.176 630.518 429.278C631.972 428.358 633.62 427.898 635.46 427.898C637.321 427.898 638.969 428.358 640.402 429.278C641.857 430.176 643.002 431.492 643.836 433.225C644.671 434.958 645.088 437.055 645.088 439.516C645.088 441.976 644.671 444.073 643.836 445.806C643.002 447.539 641.857 448.866 640.402 449.786C638.969 450.684 637.321 451.134 635.46 451.134ZM635.46 446.737C636.337 446.737 637.097 446.491 637.739 445.999C638.402 445.507 638.915 444.726 639.279 443.656C639.664 442.586 639.857 441.206 639.857 439.516C639.857 437.825 639.664 436.445 639.279 435.376C638.915 434.306 638.402 433.525 637.739 433.033C637.097 432.541 636.337 432.295 635.46 432.295C634.604 432.295 633.845 432.541 633.181 433.033C632.539 433.525 632.026 434.306 631.641 435.376C631.277 436.445 631.095 437.825 631.095 439.516C631.095 441.206 631.277 442.586 631.641 443.656C632.026 444.726 632.539 445.507 633.181 445.999C633.845 446.491 634.604 446.737 635.46 446.737Z" fill="black"/>
<path d="M677.538 451.134C675.977 451.134 674.425 450.93 672.885 450.524C671.366 450.096 670.061 449.497 668.969 448.727L671.023 444.747C671.879 445.367 672.863 445.86 673.976 446.223C675.11 446.587 676.255 446.769 677.41 446.769C678.715 446.769 679.742 446.512 680.491 445.999C681.24 445.485 681.614 444.768 681.614 443.848C681.614 443.271 681.465 442.757 681.165 442.308C680.866 441.859 680.331 441.516 679.56 441.281C678.812 441.045 677.752 440.928 676.383 440.928H670.638L671.794 428.283H685.498V432.455H673.655L676.351 430.08L675.549 439.098L672.853 436.723H677.603C679.828 436.723 681.614 437.034 682.962 437.654C684.332 438.253 685.327 439.077 685.947 440.125C686.568 441.174 686.878 442.361 686.878 443.688C686.878 445.014 686.546 446.245 685.883 447.379C685.22 448.491 684.193 449.401 682.802 450.107C681.433 450.791 679.678 451.134 677.538 451.134Z" fill="#007D49"/>
</g>
</g>
<defs>
<filter id="filter0_d_2142_2624" x="0.339394" y="0.157576" width="853.321" height="659.321" filterUnits="userSpaceOnUse" color-interpolation-filters="sRGB">
<feFlood flood-opacity="0" result="BackgroundImageFix"/>
<feColorMatrix in="SourceAlpha" type="matrix" values="0 0 0 0 0 0 0 0 0 0 0 0 0 0 0 0 0 0 127 0" result="hardAlpha"/>
<feOffset dy="28.3182"/>
<feGaussianBlur stdDeviation="57.5803"/>
<feComposite in2="hardAlpha" operator="out"/>
<feColorMatrix type="matrix" values="0 0 0 0 0.546962 0 0 0 0 0.744705 0 0 0 0 0.710315 0 0 0 0.25 0"/>
<feBlend mode="normal" in2="BackgroundImageFix" result="effect1_dropShadow_2142_2624"/>
<feBlend mode="normal" in="SourceGraphic" in2="effect1_dropShadow_2142_2624" result="shape"/>
</filter>
<filter id="filter1_d_2142_2624" x="487.412" y="395.206" width="245.424" height="103.833" filterUnits="userSpaceOnUse" color-interpolation-filters="sRGB">
<feFlood flood-opacity="0" result="BackgroundImageFix"/>
<feColorMatrix in="SourceAlpha" type="matrix" values="0 0 0 0 0 0 0 0 0 0 0 0 0 0 0 0 0 0 127 0" result="hardAlpha"/>
<feOffset dy="7.55152"/>
<feGaussianBlur stdDeviation="8.49545"/>
<feComposite in2="hardAlpha" operator="out"/>
<feColorMatrix type="matrix" values="0 0 0 0 0 0 0 0 0 0 0 0 0 0 0 0 0 0 0.1 0"/>
<feBlend mode="normal" in2="BackgroundImageFix" result="effect1_dropShadow_2142_2624"/>
<feBlend mode="normal" in="SourceGraphic" in2="effect1_dropShadow_2142_2624" result="shape"/>
</filter>
<linearGradient id="paint0_linear_2142_2624" x1="603.5" y1="140.5" x2="468.708" y2="592.801" gradientUnits="userSpaceOnUse">
<stop stop-color="#F5F1E9"/>
<stop offset="1" stop-color="#C7EDD0"/>
</linearGradient>
<linearGradient id="paint1_linear_2142_2624" x1="432.664" y1="362.168" x2="432.664" y2="525.47" gradientUnits="userSpaceOnUse">
<stop stop-color="#46F99C"/>
<stop offset="1" stop-color="#FBB903" stop-opacity="0"/>
</linearGradient>
<clipPath id="clip0_2142_2624">
<rect x="115.5" y="87" width="623" height="429" rx="30" fill="white"/>
</clipPath>
</defs>
</svg>
