<svg width="854" height="640" viewBox="0 0 854 640" fill="none" xmlns="http://www.w3.org/2000/svg">
<g filter="url(#filter0_d_2142_2639)">
<g clip-path="url(#clip0_2142_2639)">
<rect x="115.5" y="87" width="623" height="409" rx="30" fill="url(#paint0_linear_2142_2639)"/>
<mask id="mask0_2142_2639" style="mask-type:alpha" maskUnits="userSpaceOnUse" x="115" y="302" width="231" height="194">
<rect x="115.5" y="302.997" width="230.321" height="192.564" fill="#C3D5E2"/>
</mask>
<g mask="url(#mask0_2142_2639)">
<path d="M225.938 427.725L119.208 508.134L85.2939 531.43H753.603V376.624H623.931L497.795 413.702L345.635 460.039L225.938 427.725Z" fill="url(#paint1_linear_2142_2639)"/>
<path d="M225.938 427.725L119.208 508.134L85.2939 531.43H753.603V376.624H623.931L497.532 413.438L345.635 460.039L225.938 427.725Z" stroke="#850AD1" stroke-width="7.55152"/>
</g>
<mask id="mask1_2142_2639" style="mask-type:alpha" maskUnits="userSpaceOnUse" x="345" y="302" width="283" height="194">
<rect x="345.821" y="302.997" width="281.294" height="192.564" fill="#C3D5E2"/>
</mask>
<g mask="url(#mask1_2142_2639)">
<path d="M225.938 427.725L119.208 508.134L85.2939 531.43H753.603V376.624H623.931L497.795 413.702L345.635 460.039L225.938 427.725Z" fill="url(#paint2_linear_2142_2639)" fill-opacity="0.8"/>
<path d="M225.938 427.725L119.208 508.134L85.2939 531.43H753.603V376.624H623.931L496.852 413.438L345.635 460.039L225.938 427.725Z" stroke="#3D6D6B" stroke-width="7.55152" stroke-dasharray="15.1 15.1"/>
</g>
<mask id="mask2_2142_2639" style="mask-type:alpha" maskUnits="userSpaceOnUse" x="627" y="302" width="112" height="194">
<rect x="627.115" y="302.997" width="111.385" height="192.564" fill="#C3D5E2"/>
</mask>
<g mask="url(#mask2_2142_2639)">
<path d="M225.938 427.725L119.208 508.134L85.2939 531.43H753.603V376.624H623.931L544.133 460.039H345.635L225.938 427.725Z" fill="url(#paint3_linear_2142_2639)" fill-opacity="0.8"/>
<path d="M225.938 427.725L119.208 508.134L85.2939 531.43H753.603V376.624H623.931L544.133 460.039H345.635L225.938 427.725Z" stroke="#3D6D6B" stroke-width="7.55152"/>
</g>
<path fill-rule="evenodd" clip-rule="evenodd" d="M626.471 315.549C627.268 314.765 628.348 314.324 629.475 314.324C630.601 314.324 631.682 314.765 632.478 315.549C633.275 316.333 633.723 317.396 633.723 318.505V372.849H625.227V318.505C625.227 317.396 625.675 316.333 626.471 315.549Z" fill="black"/>
<path d="M675.405 337.433L635.846 353.193V319.349L675.405 335.107C675.64 335.201 675.841 335.361 675.983 335.568C676.124 335.775 676.2 336.019 676.2 336.269C676.2 336.519 676.124 336.762 675.983 336.97C675.841 337.177 675.64 337.337 675.405 337.431V337.433Z" fill="#E23333"/>
<path d="M323.7 172.48C321.54 172.48 319.527 172.133 317.66 171.44C315.82 170.72 314.22 169.707 312.86 168.4C311.5 167.093 310.434 165.56 309.66 163.8C308.914 162.04 308.54 160.107 308.54 158C308.54 155.893 308.914 153.96 309.66 152.2C310.434 150.44 311.5 148.907 312.86 147.6C314.247 146.293 315.86 145.293 317.7 144.6C319.54 143.88 321.554 143.52 323.74 143.52C326.167 143.52 328.354 143.947 330.3 144.8C332.274 145.627 333.927 146.853 335.26 148.48L331.1 152.32C330.14 151.227 329.074 150.413 327.9 149.88C326.727 149.32 325.447 149.04 324.06 149.04C322.754 149.04 321.554 149.253 320.46 149.68C319.367 150.107 318.42 150.72 317.62 151.52C316.82 152.32 316.194 153.267 315.74 154.36C315.314 155.453 315.1 156.667 315.1 158C315.1 159.333 315.314 160.547 315.74 161.64C316.194 162.733 316.82 163.68 317.62 164.48C318.42 165.28 319.367 165.893 320.46 166.32C321.554 166.747 322.754 166.96 324.06 166.96C325.447 166.96 326.727 166.693 327.9 166.16C329.074 165.6 330.14 164.76 331.1 163.64L335.26 167.48C333.927 169.107 332.274 170.347 330.3 171.2C328.354 172.053 326.154 172.48 323.7 172.48ZM349.134 172.32C346.681 172.32 344.521 171.84 342.654 170.88C340.814 169.92 339.388 168.613 338.374 166.96C337.361 165.28 336.854 163.373 336.854 161.24C336.854 159.08 337.348 157.173 338.334 155.52C339.348 153.84 340.721 152.533 342.454 151.6C344.188 150.64 346.148 150.16 348.334 150.16C350.441 150.16 352.334 150.613 354.014 151.52C355.721 152.4 357.068 153.68 358.054 155.36C359.041 157.013 359.534 159 359.534 161.32C359.534 161.56 359.521 161.84 359.494 162.16C359.468 162.453 359.441 162.733 359.414 163H341.934V159.36H356.134L353.734 160.44C353.734 159.32 353.508 158.347 353.054 157.52C352.601 156.693 351.974 156.053 351.174 155.6C350.374 155.12 349.441 154.88 348.374 154.88C347.308 154.88 346.361 155.12 345.534 155.6C344.734 156.053 344.108 156.707 343.654 157.56C343.201 158.387 342.974 159.373 342.974 160.52V161.48C342.974 162.653 343.228 163.693 343.734 164.6C344.268 165.48 345.001 166.16 345.934 166.64C346.894 167.093 348.014 167.32 349.294 167.32C350.441 167.32 351.441 167.147 352.294 166.8C353.174 166.453 353.974 165.933 354.694 165.24L358.014 168.84C357.028 169.96 355.788 170.827 354.294 171.44C352.801 172.027 351.081 172.32 349.134 172.32ZM344.574 147.72L349.974 141.96H356.694L349.454 147.72H344.574ZM363.689 172V142.32H369.929V172H363.689ZM392.208 167.6L392.368 160L402.408 150.48H409.848L400.208 160.28L396.968 162.92L392.208 167.6ZM387.048 172V142.32H393.288V172H387.048ZM403.088 172L395.808 162.96L399.728 158.12L410.648 172H403.088ZM422.757 172.32C420.463 172.32 418.423 171.84 416.637 170.88C414.877 169.92 413.477 168.613 412.437 166.96C411.423 165.28 410.917 163.373 410.917 161.24C410.917 159.08 411.423 157.173 412.437 155.52C413.477 153.84 414.877 152.533 416.637 151.6C418.423 150.64 420.463 150.16 422.757 150.16C425.023 150.16 427.05 150.64 428.837 151.6C430.623 152.533 432.023 153.827 433.037 155.48C434.05 157.133 434.557 159.053 434.557 161.24C434.557 163.373 434.05 165.28 433.037 166.96C432.023 168.613 430.623 169.92 428.837 170.88C427.05 171.84 425.023 172.32 422.757 172.32ZM422.757 167.2C423.797 167.2 424.73 166.96 425.557 166.48C426.383 166 427.037 165.32 427.517 164.44C427.997 163.533 428.237 162.467 428.237 161.24C428.237 159.987 427.997 158.92 427.517 158.04C427.037 157.16 426.383 156.48 425.557 156C424.73 155.52 423.797 155.28 422.757 155.28C421.717 155.28 420.783 155.52 419.957 156C419.13 156.48 418.463 157.16 417.957 158.04C417.477 158.92 417.237 159.987 417.237 161.24C417.237 162.467 417.477 163.533 417.957 164.44C418.463 165.32 419.13 166 419.957 166.48C420.783 166.96 421.717 167.2 422.757 167.2ZM426.717 147.52C425.943 147.52 425.29 147.267 424.757 146.76C424.223 146.253 423.957 145.587 423.957 144.76C423.957 143.933 424.223 143.267 424.757 142.76C425.29 142.253 425.943 142 426.717 142C427.49 142 428.143 142.253 428.677 142.76C429.237 143.267 429.517 143.933 429.517 144.76C429.517 145.587 429.237 146.253 428.677 146.76C428.143 147.267 427.49 147.52 426.717 147.52ZM418.637 147.52C417.863 147.52 417.197 147.267 416.637 146.76C416.103 146.253 415.837 145.587 415.837 144.76C415.837 143.933 416.103 143.267 416.637 142.76C417.197 142.253 417.863 142 418.637 142C419.41 142 420.063 142.253 420.597 142.76C421.13 143.267 421.397 143.933 421.397 144.76C421.397 145.587 421.13 146.253 420.597 146.76C420.063 147.267 419.41 147.52 418.637 147.52ZM443.982 172L434.942 150.48H441.382L448.902 169H445.702L453.502 150.48H459.502L450.422 172H443.982ZM472.142 172.32C469.689 172.32 467.529 171.84 465.662 170.88C463.822 169.92 462.395 168.613 461.382 166.96C460.369 165.28 459.862 163.373 459.862 161.24C459.862 159.08 460.355 157.173 461.342 155.52C462.355 153.84 463.729 152.533 465.462 151.6C467.195 150.64 469.155 150.16 471.342 150.16C473.449 150.16 475.342 150.613 477.022 151.52C478.729 152.4 480.075 153.68 481.062 155.36C482.049 157.013 482.542 159 482.542 161.32C482.542 161.56 482.529 161.84 482.502 162.16C482.475 162.453 482.449 162.733 482.422 163H464.942V159.36H479.142L476.742 160.44C476.742 159.32 476.515 158.347 476.062 157.52C475.609 156.693 474.982 156.053 474.182 155.6C473.382 155.12 472.449 154.88 471.382 154.88C470.315 154.88 469.369 155.12 468.542 155.6C467.742 156.053 467.115 156.707 466.662 157.56C466.209 158.387 465.982 159.373 465.982 160.52V161.48C465.982 162.653 466.235 163.693 466.742 164.6C467.275 165.48 468.009 166.16 468.942 166.64C469.902 167.093 471.022 167.32 472.302 167.32C473.449 167.32 474.449 167.147 475.302 166.8C476.182 166.453 476.982 165.933 477.702 165.24L481.022 168.84C480.035 169.96 478.795 170.827 477.302 171.44C475.809 172.027 474.089 172.32 472.142 172.32ZM495.496 172.32C492.963 172.32 490.99 171.68 489.576 170.4C488.163 169.093 487.456 167.16 487.456 164.6V145.72H493.696V164.52C493.696 165.427 493.936 166.133 494.416 166.64C494.896 167.12 495.55 167.36 496.376 167.36C497.363 167.36 498.203 167.093 498.896 166.56L500.576 170.96C499.936 171.413 499.163 171.76 498.256 172C497.376 172.213 496.456 172.32 495.496 172.32ZM484.136 155.76V150.96H499.056V155.76H484.136ZM514.095 172.32C511.642 172.32 509.482 171.84 507.615 170.88C505.775 169.92 504.348 168.613 503.335 166.96C502.322 165.28 501.815 163.373 501.815 161.24C501.815 159.08 502.308 157.173 503.295 155.52C504.308 153.84 505.682 152.533 507.415 151.6C509.148 150.64 511.108 150.16 513.295 150.16C515.402 150.16 517.295 150.613 518.975 151.52C520.682 152.4 522.028 153.68 523.015 155.36C524.002 157.013 524.495 159 524.495 161.32C524.495 161.56 524.482 161.84 524.455 162.16C524.428 162.453 524.402 162.733 524.375 163H506.895V159.36H521.095L518.695 160.44C518.695 159.32 518.468 158.347 518.015 157.52C517.562 156.693 516.935 156.053 516.135 155.6C515.335 155.12 514.402 154.88 513.335 154.88C512.268 154.88 511.322 155.12 510.495 155.6C509.695 156.053 509.068 156.707 508.615 157.56C508.162 158.387 507.935 159.373 507.935 160.52V161.48C507.935 162.653 508.188 163.693 508.695 164.6C509.228 165.48 509.962 166.16 510.895 166.64C511.855 167.093 512.975 167.32 514.255 167.32C515.402 167.32 516.402 167.147 517.255 166.8C518.135 166.453 518.935 165.933 519.655 165.24L522.975 168.84C521.988 169.96 520.748 170.827 519.255 171.44C517.762 172.027 516.042 172.32 514.095 172.32ZM509.535 147.72L514.935 141.96H521.655L514.415 147.72H509.535ZM535.89 172.32C534.05 172.32 532.276 172.107 530.57 171.68C528.89 171.227 527.556 170.667 526.57 170L528.65 165.52C529.636 166.133 530.796 166.64 532.13 167.04C533.49 167.413 534.823 167.6 536.13 167.6C537.57 167.6 538.583 167.427 539.17 167.08C539.783 166.733 540.09 166.253 540.09 165.64C540.09 165.133 539.85 164.76 539.37 164.52C538.916 164.253 538.303 164.053 537.53 163.92C536.756 163.787 535.903 163.653 534.97 163.52C534.063 163.387 533.143 163.213 532.21 163C531.276 162.76 530.423 162.413 529.65 161.96C528.876 161.507 528.25 160.893 527.77 160.12C527.316 159.347 527.09 158.347 527.09 157.12C527.09 155.76 527.476 154.56 528.25 153.52C529.05 152.48 530.196 151.667 531.69 151.08C533.183 150.467 534.97 150.16 537.05 150.16C538.516 150.16 540.01 150.32 541.53 150.64C543.05 150.96 544.316 151.427 545.33 152.04L543.25 156.48C542.21 155.867 541.156 155.453 540.09 155.24C539.05 155 538.036 154.88 537.05 154.88C535.663 154.88 534.65 155.067 534.01 155.44C533.37 155.813 533.05 156.293 533.05 156.88C533.05 157.413 533.276 157.813 533.73 158.08C534.21 158.347 534.836 158.56 535.61 158.72C536.383 158.88 537.223 159.027 538.13 159.16C539.063 159.267 539.996 159.44 540.93 159.68C541.863 159.92 542.703 160.267 543.45 160.72C544.223 161.147 544.85 161.747 545.33 162.52C545.81 163.267 546.05 164.253 546.05 165.48C546.05 166.813 545.65 168 544.85 169.04C544.05 170.053 542.89 170.853 541.37 171.44C539.876 172.027 538.05 172.32 535.89 172.32Z" fill="black"/>
<path d="M181.874 226L191.474 205H193.664L203.264 226H200.924L192.104 206.29H193.004L184.184 226H181.874ZM185.654 220.39L186.314 218.59H198.524L199.184 220.39H185.654ZM212.412 226.15C210.912 226.15 209.562 225.81 208.362 225.13C207.182 224.45 206.252 223.51 205.572 222.31C204.892 221.09 204.552 219.69 204.552 218.11C204.552 216.51 204.892 215.11 205.572 213.91C206.252 212.71 207.182 211.78 208.362 211.12C209.562 210.44 210.912 210.1 212.412 210.1C213.792 210.1 215.022 210.41 216.102 211.03C217.202 211.65 218.072 212.56 218.712 213.76C219.372 214.94 219.702 216.39 219.702 218.11C219.702 219.81 219.382 221.26 218.742 222.46C218.102 223.66 217.232 224.58 216.132 225.22C215.052 225.84 213.812 226.15 212.412 226.15ZM212.562 224.26C213.682 224.26 214.682 224.01 215.562 223.51C216.462 222.99 217.162 222.27 217.662 221.35C218.182 220.41 218.442 219.33 218.442 218.11C218.442 216.87 218.182 215.79 217.662 214.87C217.162 213.95 216.462 213.24 215.562 212.74C214.682 212.22 213.682 211.96 212.562 211.96C211.462 211.96 210.472 212.22 209.592 212.74C208.712 213.24 208.012 213.95 207.492 214.87C206.972 215.79 206.712 216.87 206.712 218.11C206.712 219.33 206.972 220.41 207.492 221.35C208.012 222.27 208.712 222.99 209.592 223.51C210.472 224.01 211.462 224.26 212.562 224.26ZM218.502 226V221.26L218.712 218.08L218.412 214.9V203.74H220.542V226H218.502ZM232.744 226.15C231.244 226.15 229.894 225.81 228.694 225.13C227.514 224.45 226.584 223.51 225.904 222.31C225.224 221.09 224.884 219.69 224.884 218.11C224.884 216.51 225.224 215.11 225.904 213.91C226.584 212.71 227.514 211.78 228.694 211.12C229.894 210.44 231.244 210.1 232.744 210.1C234.124 210.1 235.354 210.41 236.434 211.03C237.534 211.65 238.404 212.56 239.044 213.76C239.704 214.94 240.034 216.39 240.034 218.11C240.034 219.81 239.714 221.26 239.074 222.46C238.434 223.66 237.564 224.58 236.464 225.22C235.384 225.84 234.144 226.15 232.744 226.15ZM232.894 224.26C234.014 224.26 235.014 224.01 235.894 223.51C236.794 222.99 237.494 222.27 237.994 221.35C238.514 220.41 238.774 219.33 238.774 218.11C238.774 216.87 238.514 215.79 237.994 214.87C237.494 213.95 236.794 213.24 235.894 212.74C235.014 212.22 234.014 211.96 232.894 211.96C231.794 211.96 230.804 212.22 229.924 212.74C229.044 213.24 228.344 213.95 227.824 214.87C227.304 215.79 227.044 216.87 227.044 218.11C227.044 219.33 227.304 220.41 227.824 221.35C228.344 222.27 229.044 222.99 229.924 223.51C230.804 224.01 231.794 224.26 232.894 224.26ZM238.834 226V221.26L239.044 218.08L238.744 214.9V203.74H240.874V226H238.834ZM274.338 210.1C275.618 210.1 276.728 210.35 277.668 210.85C278.628 211.33 279.368 212.07 279.888 213.07C280.428 214.07 280.698 215.33 280.698 216.85V226H278.568V217.06C278.568 215.4 278.168 214.15 277.368 213.31C276.588 212.45 275.478 212.02 274.038 212.02C272.958 212.02 272.018 212.25 271.218 212.71C270.438 213.15 269.828 213.8 269.388 214.66C268.968 215.5 268.758 216.52 268.758 217.72V226H266.628V217.06C266.628 215.4 266.228 214.15 265.428 213.31C264.628 212.45 263.508 212.02 262.068 212.02C261.008 212.02 260.078 212.25 259.278 212.71C258.478 213.15 257.858 213.8 257.418 214.66C256.998 215.5 256.788 216.52 256.788 217.72V226H254.658V210.25H256.698V214.51L256.368 213.76C256.848 212.62 257.618 211.73 258.678 211.09C259.758 210.43 261.028 210.1 262.488 210.1C264.028 210.1 265.338 210.49 266.418 211.27C267.498 212.03 268.198 213.18 268.518 214.72L267.678 214.39C268.138 213.11 268.948 212.08 270.108 211.3C271.288 210.5 272.698 210.1 274.338 210.1ZM293.164 226.15C291.524 226.15 290.084 225.81 288.844 225.13C287.604 224.43 286.634 223.48 285.934 222.28C285.234 221.06 284.884 219.67 284.884 218.11C284.884 216.55 285.214 215.17 285.874 213.97C286.554 212.77 287.474 211.83 288.634 211.15C289.814 210.45 291.134 210.1 292.594 210.1C294.074 210.1 295.384 210.44 296.524 211.12C297.684 211.78 298.594 212.72 299.254 213.94C299.914 215.14 300.244 216.53 300.244 218.11C300.244 218.21 300.234 218.32 300.214 218.44C300.214 218.54 300.214 218.65 300.214 218.77H286.504V217.18H299.074L298.234 217.81C298.234 216.67 297.984 215.66 297.484 214.78C297.004 213.88 296.344 213.18 295.504 212.68C294.664 212.18 293.694 211.93 292.594 211.93C291.514 211.93 290.544 212.18 289.684 212.68C288.824 213.18 288.154 213.88 287.674 214.78C287.194 215.68 286.954 216.71 286.954 217.87V218.2C286.954 219.4 287.214 220.46 287.734 221.38C288.274 222.28 289.014 222.99 289.954 223.51C290.914 224.01 292.004 224.26 293.224 224.26C294.184 224.26 295.074 224.09 295.894 223.75C296.734 223.41 297.454 222.89 298.054 222.19L299.254 223.57C298.554 224.41 297.674 225.05 296.614 225.49C295.574 225.93 294.424 226.15 293.164 226.15ZM311.299 231.97C309.859 231.97 308.479 231.76 307.159 231.34C305.839 230.92 304.769 230.32 303.949 229.54L305.029 227.92C305.769 228.58 306.679 229.1 307.759 229.48C308.859 229.88 310.019 230.08 311.239 230.08C313.239 230.08 314.709 229.61 315.649 228.67C316.589 227.75 317.059 226.31 317.059 224.35V220.42L317.359 217.72L317.149 215.02V210.25H319.189V224.08C319.189 226.8 318.519 228.79 317.179 230.05C315.859 231.33 313.899 231.97 311.299 231.97ZM310.909 225.4C309.409 225.4 308.059 225.08 306.859 224.44C305.659 223.78 304.709 222.87 304.009 221.71C303.329 220.55 302.989 219.22 302.989 217.72C302.989 216.22 303.329 214.9 304.009 213.76C304.709 212.6 305.659 211.7 306.859 211.06C308.059 210.42 309.409 210.1 310.909 210.1C312.309 210.1 313.569 210.39 314.689 210.97C315.809 211.55 316.699 212.41 317.359 213.55C318.019 214.69 318.349 216.08 318.349 217.72C318.349 219.36 318.019 220.75 317.359 221.89C316.699 223.03 315.809 223.9 314.689 224.5C313.569 225.1 312.309 225.4 310.909 225.4ZM311.119 223.51C312.279 223.51 313.309 223.27 314.209 222.79C315.109 222.29 315.819 221.61 316.339 220.75C316.859 219.87 317.119 218.86 317.119 217.72C317.119 216.58 316.859 215.58 316.339 214.72C315.819 213.86 315.109 213.19 314.209 212.71C313.309 212.21 312.279 211.96 311.119 211.96C309.979 211.96 308.949 212.21 308.029 212.71C307.129 213.19 306.419 213.86 305.899 214.72C305.399 215.58 305.149 216.58 305.149 217.72C305.149 218.86 305.399 219.87 305.899 220.75C306.419 221.61 307.129 222.29 308.029 222.79C308.949 223.27 309.979 223.51 311.119 223.51ZM323.826 230.38L325.146 224.83L325.386 226.12C324.926 226.12 324.536 225.97 324.216 225.67C323.916 225.37 323.766 224.98 323.766 224.5C323.766 224.02 323.916 223.63 324.216 223.33C324.536 223.03 324.916 222.88 325.356 222.88C325.816 222.88 326.186 223.04 326.466 223.36C326.766 223.68 326.916 224.06 326.916 224.5C326.916 224.66 326.906 224.82 326.886 224.98C326.866 225.14 326.826 225.32 326.766 225.52C326.706 225.72 326.626 225.96 326.526 226.24L325.266 230.38H323.826ZM359.005 210.1C360.285 210.1 361.395 210.35 362.335 210.85C363.295 211.33 364.035 212.07 364.555 213.07C365.095 214.07 365.365 215.33 365.365 216.85V226H363.235V217.06C363.235 215.4 362.835 214.15 362.035 213.31C361.255 212.45 360.145 212.02 358.705 212.02C357.625 212.02 356.685 212.25 355.885 212.71C355.105 213.15 354.495 213.8 354.055 214.66C353.635 215.5 353.425 216.52 353.425 217.72V226H351.295V217.06C351.295 215.4 350.895 214.15 350.095 213.31C349.295 212.45 348.175 212.02 346.735 212.02C345.675 212.02 344.745 212.25 343.945 212.71C343.145 213.15 342.525 213.8 342.085 214.66C341.665 215.5 341.455 216.52 341.455 217.72V226H339.325V210.25H341.365V214.51L341.035 213.76C341.515 212.62 342.285 211.73 343.345 211.09C344.425 210.43 345.695 210.1 347.155 210.1C348.695 210.1 350.005 210.49 351.085 211.27C352.165 212.03 352.865 213.18 353.185 214.72L352.345 214.39C352.805 213.11 353.615 212.08 354.775 211.3C355.955 210.5 357.365 210.1 359.005 210.1ZM371.142 226V210.25H373.272V226H371.142ZM372.222 206.77C371.782 206.77 371.412 206.62 371.112 206.32C370.812 206.02 370.662 205.66 370.662 205.24C370.662 204.82 370.812 204.47 371.112 204.19C371.412 203.89 371.782 203.74 372.222 203.74C372.662 203.74 373.032 203.88 373.332 204.16C373.632 204.44 373.782 204.79 373.782 205.21C373.782 205.65 373.632 206.02 373.332 206.32C373.052 206.62 372.682 206.77 372.222 206.77ZM396.92 226V222.52L396.83 221.95V216.13C396.83 214.79 396.45 213.76 395.69 213.04C394.95 212.32 393.84 211.96 392.36 211.96C391.34 211.96 390.37 212.13 389.45 212.47C388.53 212.81 387.75 213.26 387.11 213.82L386.15 212.23C386.95 211.55 387.91 211.03 389.03 210.67C390.15 210.29 391.33 210.1 392.57 210.1C394.61 210.1 396.18 210.61 397.28 211.63C398.4 212.63 398.96 214.16 398.96 216.22V226H396.92ZM391.49 226.15C390.31 226.15 389.28 225.96 388.4 225.58C387.54 225.18 386.88 224.64 386.42 223.96C385.96 223.26 385.73 222.46 385.73 221.56C385.73 220.74 385.92 220 386.3 219.34C386.7 218.66 387.34 218.12 388.22 217.72C389.12 217.3 390.32 217.09 391.82 217.09H397.25V218.68H391.88C390.36 218.68 389.3 218.95 388.7 219.49C388.12 220.03 387.83 220.7 387.83 221.5C387.83 222.4 388.18 223.12 388.88 223.66C389.58 224.2 390.56 224.47 391.82 224.47C393.02 224.47 394.05 224.2 394.91 223.66C395.79 223.1 396.43 222.3 396.83 221.26L397.31 222.73C396.91 223.77 396.21 224.6 395.21 225.22C394.23 225.84 392.99 226.15 391.49 226.15ZM419.137 226.15C417.577 226.15 416.177 225.81 414.937 225.13C413.717 224.43 412.757 223.48 412.057 222.28C411.357 221.06 411.007 219.67 411.007 218.11C411.007 216.53 411.357 215.14 412.057 213.94C412.757 212.74 413.717 211.8 414.937 211.12C416.177 210.44 417.577 210.1 419.137 210.1C420.477 210.1 421.687 210.36 422.767 210.88C423.847 211.4 424.697 212.18 425.317 213.22L423.727 214.3C423.187 213.5 422.517 212.91 421.717 212.53C420.917 212.15 420.047 211.96 419.107 211.96C417.987 211.96 416.977 212.22 416.077 212.74C415.177 213.24 414.467 213.95 413.947 214.87C413.427 215.79 413.167 216.87 413.167 218.11C413.167 219.35 413.427 220.43 413.947 221.35C414.467 222.27 415.177 222.99 416.077 223.51C416.977 224.01 417.987 224.26 419.107 224.26C420.047 224.26 420.917 224.07 421.717 223.69C422.517 223.31 423.187 222.73 423.727 221.95L425.317 223.03C424.697 224.05 423.847 224.83 422.767 225.37C421.687 225.89 420.477 226.15 419.137 226.15ZM435.928 226.15C434.288 226.15 432.848 225.81 431.608 225.13C430.368 224.43 429.398 223.48 428.698 222.28C427.998 221.06 427.648 219.67 427.648 218.11C427.648 216.55 427.978 215.17 428.638 213.97C429.318 212.77 430.238 211.83 431.398 211.15C432.578 210.45 433.898 210.1 435.358 210.1C436.838 210.1 438.148 210.44 439.288 211.12C440.448 211.78 441.358 212.72 442.018 213.94C442.678 215.14 443.008 216.53 443.008 218.11C443.008 218.21 442.998 218.32 442.978 218.44C442.978 218.54 442.978 218.65 442.978 218.77H429.268V217.18H441.838L440.998 217.81C440.998 216.67 440.748 215.66 440.248 214.78C439.768 213.88 439.108 213.18 438.268 212.68C437.428 212.18 436.458 211.93 435.358 211.93C434.278 211.93 433.308 212.18 432.448 212.68C431.588 213.18 430.918 213.88 430.438 214.78C429.958 215.68 429.718 216.71 429.718 217.87V218.2C429.718 219.4 429.978 220.46 430.498 221.38C431.038 222.28 431.778 222.99 432.718 223.51C433.678 224.01 434.768 224.26 435.988 224.26C436.948 224.26 437.838 224.09 438.658 223.75C439.498 223.41 440.218 222.89 440.818 222.19L442.018 223.57C441.318 224.41 440.438 225.05 439.378 225.49C438.338 225.93 437.188 226.15 435.928 226.15ZM433.378 207.79L437.488 204.07H440.338L435.478 207.79H433.378ZM447.343 226V203.74H449.473V226H447.343ZM461.82 226.15C460.3 226.15 458.93 225.81 457.71 225.13C456.51 224.43 455.56 223.48 454.86 222.28C454.16 221.06 453.81 219.67 453.81 218.11C453.81 216.53 454.16 215.14 454.86 213.94C455.56 212.74 456.51 211.8 457.71 211.12C458.91 210.44 460.28 210.1 461.82 210.1C463.38 210.1 464.76 210.44 465.96 211.12C467.18 211.8 468.13 212.74 468.81 213.94C469.51 215.14 469.86 216.53 469.86 218.11C469.86 219.67 469.51 221.06 468.81 222.28C468.13 223.48 467.18 224.43 465.96 225.13C464.74 225.81 463.36 226.15 461.82 226.15ZM461.82 224.26C462.96 224.26 463.97 224.01 464.85 223.51C465.73 222.99 466.42 222.27 466.92 221.35C467.44 220.41 467.7 219.33 467.7 218.11C467.7 216.87 467.44 215.79 466.92 214.87C466.42 213.95 465.73 213.24 464.85 212.74C463.97 212.22 462.97 211.96 461.85 211.96C460.73 211.96 459.73 212.22 458.85 212.74C457.97 213.24 457.27 213.95 456.75 214.87C456.23 215.79 455.97 216.87 455.97 218.11C455.97 219.33 456.23 220.41 456.75 221.35C457.27 222.27 457.97 222.99 458.85 223.51C459.73 224.01 460.72 224.26 461.82 224.26ZM480.478 226.15C478.978 226.15 477.628 225.81 476.428 225.13C475.248 224.45 474.318 223.51 473.638 222.31C472.958 221.09 472.618 219.69 472.618 218.11C472.618 216.51 472.958 215.11 473.638 213.91C474.318 212.71 475.248 211.78 476.428 211.12C477.628 210.44 478.978 210.1 480.478 210.1C481.858 210.1 483.088 210.41 484.168 211.03C485.268 211.65 486.138 212.56 486.778 213.76C487.438 214.94 487.768 216.39 487.768 218.11C487.768 219.81 487.448 221.26 486.808 222.46C486.168 223.66 485.298 224.58 484.198 225.22C483.118 225.84 481.878 226.15 480.478 226.15ZM480.628 224.26C481.748 224.26 482.748 224.01 483.628 223.51C484.528 222.99 485.228 222.27 485.728 221.35C486.248 220.41 486.508 219.33 486.508 218.11C486.508 216.87 486.248 215.79 485.728 214.87C485.228 213.95 484.528 213.24 483.628 212.74C482.748 212.22 481.748 211.96 480.628 211.96C479.528 211.96 478.538 212.22 477.658 212.74C476.778 213.24 476.078 213.95 475.558 214.87C475.038 215.79 474.778 216.87 474.778 218.11C474.778 219.33 475.038 220.41 475.558 221.35C476.078 222.27 476.778 222.99 477.658 223.51C478.538 224.01 479.528 224.26 480.628 224.26ZM486.568 226V221.26L486.778 218.08L486.478 214.9V203.74H488.608V226H486.568ZM493.25 230.38L494.57 224.83L494.81 226.12C494.35 226.12 493.96 225.97 493.64 225.67C493.34 225.37 493.19 224.98 493.19 224.5C493.19 224.02 493.34 223.63 493.64 223.33C493.96 223.03 494.34 222.88 494.78 222.88C495.24 222.88 495.61 223.04 495.89 223.36C496.19 223.68 496.34 224.06 496.34 224.5C496.34 224.66 496.33 224.82 496.31 224.98C496.29 225.14 496.25 225.32 496.19 225.52C496.13 225.72 496.05 225.96 495.95 226.24L494.69 230.38H493.25ZM515.439 226.15C513.799 226.15 512.359 225.81 511.119 225.13C509.879 224.43 508.909 223.48 508.209 222.28C507.509 221.06 507.159 219.67 507.159 218.11C507.159 216.55 507.489 215.17 508.149 213.97C508.829 212.77 509.749 211.83 510.909 211.15C512.089 210.45 513.409 210.1 514.869 210.1C516.349 210.1 517.659 210.44 518.799 211.12C519.959 211.78 520.869 212.72 521.529 213.94C522.189 215.14 522.519 216.53 522.519 218.11C522.519 218.21 522.509 218.32 522.489 218.44C522.489 218.54 522.489 218.65 522.489 218.77H508.779V217.18H521.349L520.509 217.81C520.509 216.67 520.259 215.66 519.759 214.78C519.279 213.88 518.619 213.18 517.779 212.68C516.939 212.18 515.969 211.93 514.869 211.93C513.789 211.93 512.819 212.18 511.959 212.68C511.099 213.18 510.429 213.88 509.949 214.78C509.469 215.68 509.229 216.71 509.229 217.87V218.2C509.229 219.4 509.489 220.46 510.009 221.38C510.549 222.28 511.289 222.99 512.229 223.51C513.189 224.01 514.279 224.26 515.499 224.26C516.459 224.26 517.349 224.09 518.169 223.75C519.009 223.41 519.729 222.89 520.329 222.19L521.529 223.57C520.829 224.41 519.949 225.05 518.889 225.49C517.849 225.93 516.699 226.15 515.439 226.15ZM512.889 207.79L516.999 204.07H519.849L514.989 207.79H512.889ZM531.085 226.15C529.785 226.15 528.555 225.97 527.395 225.61C526.235 225.23 525.325 224.76 524.665 224.2L525.625 222.52C526.265 223 527.085 223.42 528.085 223.78C529.085 224.12 530.135 224.29 531.235 224.29C532.735 224.29 533.815 224.06 534.475 223.6C535.135 223.12 535.465 222.49 535.465 221.71C535.465 221.13 535.275 220.68 534.895 220.36C534.535 220.02 534.055 219.77 533.455 219.61C532.855 219.43 532.185 219.28 531.445 219.16C530.705 219.04 529.965 218.9 529.225 218.74C528.505 218.58 527.845 218.35 527.245 218.05C526.645 217.73 526.155 217.3 525.775 216.76C525.415 216.22 525.235 215.5 525.235 214.6C525.235 213.74 525.475 212.97 525.955 212.29C526.435 211.61 527.135 211.08 528.055 210.7C528.995 210.3 530.135 210.1 531.475 210.1C532.495 210.1 533.515 210.24 534.535 210.52C535.555 210.78 536.395 211.13 537.055 211.57L536.125 213.28C535.425 212.8 534.675 212.46 533.875 212.26C533.075 212.04 532.275 211.93 531.475 211.93C530.055 211.93 529.005 212.18 528.325 212.68C527.665 213.16 527.335 213.78 527.335 214.54C527.335 215.14 527.515 215.61 527.875 215.95C528.255 216.29 528.745 216.56 529.345 216.76C529.965 216.94 530.635 217.09 531.355 217.21C532.095 217.33 532.825 217.48 533.545 217.66C534.285 217.82 534.955 218.05 535.555 218.35C536.175 218.63 536.665 219.04 537.025 219.58C537.405 220.1 537.595 220.79 537.595 221.65C537.595 222.57 537.335 223.37 536.815 224.05C536.315 224.71 535.575 225.23 534.595 225.61C533.635 225.97 532.465 226.15 531.085 226.15ZM569.035 210.1C570.315 210.1 571.425 210.35 572.365 210.85C573.325 211.33 574.065 212.07 574.585 213.07C575.125 214.07 575.395 215.33 575.395 216.85V226H573.265V217.06C573.265 215.4 572.865 214.15 572.065 213.31C571.285 212.45 570.175 212.02 568.735 212.02C567.655 212.02 566.715 212.25 565.915 212.71C565.135 213.15 564.525 213.8 564.085 214.66C563.665 215.5 563.455 216.52 563.455 217.72V226H561.325V217.06C561.325 215.4 560.925 214.15 560.125 213.31C559.325 212.45 558.205 212.02 556.765 212.02C555.705 212.02 554.775 212.25 553.975 212.71C553.175 213.15 552.555 213.8 552.115 214.66C551.695 215.5 551.485 216.52 551.485 217.72V226H549.355V210.25H551.395V214.51L551.065 213.76C551.545 212.62 552.315 211.73 553.375 211.09C554.455 210.43 555.725 210.1 557.185 210.1C558.725 210.1 560.035 210.49 561.115 211.27C562.195 212.03 562.895 213.18 563.215 214.72L562.375 214.39C562.835 213.11 563.645 212.08 564.805 211.3C565.985 210.5 567.395 210.1 569.035 210.1ZM581.171 226V210.25H583.301V226H581.171ZM582.251 206.77C581.811 206.77 581.441 206.62 581.141 206.32C580.841 206.02 580.691 205.66 580.691 205.24C580.691 204.82 580.841 204.47 581.141 204.19C581.441 203.89 581.811 203.74 582.251 203.74C582.691 203.74 583.061 203.88 583.361 204.16C583.661 204.44 583.811 204.79 583.811 205.21C583.811 205.65 583.661 206.02 583.361 206.32C583.081 206.62 582.711 206.77 582.251 206.77ZM616.759 210.1C618.039 210.1 619.149 210.35 620.089 210.85C621.049 211.33 621.789 212.07 622.309 213.07C622.849 214.07 623.119 215.33 623.119 216.85V226H620.989V217.06C620.989 215.4 620.589 214.15 619.789 213.31C619.009 212.45 617.899 212.02 616.459 212.02C615.379 212.02 614.439 212.25 613.639 212.71C612.859 213.15 612.249 213.8 611.809 214.66C611.389 215.5 611.179 216.52 611.179 217.72V226H609.049V217.06C609.049 215.4 608.649 214.15 607.849 213.31C607.049 212.45 605.929 212.02 604.489 212.02C603.429 212.02 602.499 212.25 601.699 212.71C600.899 213.15 600.279 213.8 599.839 214.66C599.419 215.5 599.209 216.52 599.209 217.72V226H597.079V210.25H599.119V214.51L598.789 213.76C599.269 212.62 600.039 211.73 601.099 211.09C602.179 210.43 603.449 210.1 604.909 210.1C606.449 210.1 607.759 210.49 608.839 211.27C609.919 212.03 610.619 213.18 610.939 214.72L610.099 214.39C610.559 213.11 611.369 212.08 612.529 211.3C613.709 210.5 615.119 210.1 616.759 210.1ZM638.766 226V222.52L638.676 221.95V216.13C638.676 214.79 638.296 213.76 637.536 213.04C636.796 212.32 635.686 211.96 634.206 211.96C633.186 211.96 632.216 212.13 631.296 212.47C630.376 212.81 629.596 213.26 628.956 213.82L627.996 212.23C628.796 211.55 629.756 211.03 630.876 210.67C631.996 210.29 633.176 210.1 634.416 210.1C636.456 210.1 638.026 210.61 639.126 211.63C640.246 212.63 640.806 214.16 640.806 216.22V226H638.766ZM633.336 226.15C632.156 226.15 631.126 225.96 630.246 225.58C629.386 225.18 628.726 224.64 628.266 223.96C627.806 223.26 627.576 222.46 627.576 221.56C627.576 220.74 627.766 220 628.146 219.34C628.546 218.66 629.186 218.12 630.066 217.72C630.966 217.3 632.166 217.09 633.666 217.09H639.096V218.68H633.726C632.206 218.68 631.146 218.95 630.546 219.49C629.966 220.03 629.676 220.7 629.676 221.5C629.676 222.4 630.026 223.12 630.726 223.66C631.426 224.2 632.406 224.47 633.666 224.47C634.866 224.47 635.896 224.2 636.756 223.66C637.636 223.1 638.276 222.3 638.676 221.26L639.156 222.73C638.756 223.77 638.056 224.6 637.056 225.22C636.076 225.84 634.836 226.15 633.336 226.15ZM644.251 231.97C643.611 231.97 643.001 231.88 642.421 231.7C641.821 231.54 641.321 231.29 640.921 230.95L641.671 229.33C642.311 229.87 643.131 230.14 644.131 230.14C644.971 230.14 645.611 229.89 646.051 229.39C646.511 228.89 646.741 228.15 646.741 227.17V210.25H648.871V227.17C648.871 228.63 648.471 229.79 647.671 230.65C646.891 231.53 645.751 231.97 644.251 231.97ZM647.821 206.77C647.381 206.77 647.011 206.62 646.711 206.32C646.411 206.02 646.261 205.66 646.261 205.24C646.261 204.82 646.411 204.47 646.711 204.19C647.011 203.89 647.381 203.74 647.821 203.74C648.261 203.74 648.631 203.88 648.931 204.16C649.231 204.44 649.381 204.79 649.381 205.21C649.381 205.65 649.231 206.02 648.931 206.32C648.651 206.62 648.281 206.77 647.821 206.77ZM661.094 226.15C659.594 226.15 658.244 225.81 657.044 225.13C655.864 224.45 654.934 223.51 654.254 222.31C653.574 221.09 653.234 219.69 653.234 218.11C653.234 216.51 653.574 215.11 654.254 213.91C654.934 212.71 655.864 211.78 657.044 211.12C658.244 210.44 659.594 210.1 661.094 210.1C662.474 210.1 663.704 210.41 664.784 211.03C665.884 211.65 666.754 212.56 667.394 213.76C668.054 214.94 668.384 216.39 668.384 218.11C668.384 219.81 668.064 221.26 667.424 222.46C666.784 223.66 665.914 224.58 664.814 225.22C663.734 225.84 662.494 226.15 661.094 226.15ZM661.244 224.26C662.364 224.26 663.364 224.01 664.244 223.51C665.144 222.99 665.844 222.27 666.344 221.35C666.864 220.41 667.124 219.33 667.124 218.11C667.124 216.87 666.864 215.79 666.344 214.87C665.844 213.95 665.144 213.24 664.244 212.74C663.364 212.22 662.364 211.96 661.244 211.96C660.144 211.96 659.154 212.22 658.274 212.74C657.394 213.24 656.694 213.95 656.174 214.87C655.654 215.79 655.394 216.87 655.394 218.11C655.394 219.33 655.654 220.41 656.174 221.35C656.694 222.27 657.394 222.99 658.274 223.51C659.154 224.01 660.144 224.26 661.244 224.26ZM667.184 226V221.26L667.394 218.08L667.094 214.9V203.74H669.224V226H667.184ZM177.778 258.92L177.838 256.19L187.648 247.25H190.258L183.328 253.88L182.128 254.9L177.778 258.92ZM176.098 263V240.74H178.228V263H176.098ZM188.308 263L181.738 254.81L183.118 253.16L190.918 263H188.308ZM194.116 263V247.25H196.246V263H194.116ZM195.196 243.77C194.756 243.77 194.386 243.62 194.086 243.32C193.786 243.02 193.636 242.66 193.636 242.24C193.636 241.82 193.786 241.47 194.086 241.19C194.386 240.89 194.756 240.74 195.196 240.74C195.636 240.74 196.006 240.88 196.306 241.16C196.606 241.44 196.756 241.79 196.756 242.21C196.756 242.65 196.606 243.02 196.306 243.32C196.026 243.62 195.656 243.77 195.196 243.77ZM206.402 263.15C205.102 263.15 203.872 262.97 202.712 262.61C201.552 262.23 200.642 261.76 199.982 261.2L200.942 259.52C201.582 260 202.402 260.42 203.402 260.78C204.402 261.12 205.452 261.29 206.552 261.29C208.052 261.29 209.132 261.06 209.792 260.6C210.452 260.12 210.782 259.49 210.782 258.71C210.782 258.13 210.592 257.68 210.212 257.36C209.852 257.02 209.372 256.77 208.772 256.61C208.172 256.43 207.502 256.28 206.762 256.16C206.022 256.04 205.282 255.9 204.542 255.74C203.822 255.58 203.162 255.35 202.562 255.05C201.962 254.73 201.472 254.3 201.092 253.76C200.732 253.22 200.552 252.5 200.552 251.6C200.552 250.74 200.792 249.97 201.272 249.29C201.752 248.61 202.452 248.08 203.372 247.7C204.312 247.3 205.452 247.1 206.792 247.1C207.812 247.1 208.832 247.24 209.852 247.52C210.872 247.78 211.712 248.13 212.372 248.57L211.442 250.28C210.742 249.8 209.992 249.46 209.192 249.26C208.392 249.04 207.592 248.93 206.792 248.93C205.372 248.93 204.322 249.18 203.642 249.68C202.982 250.16 202.652 250.78 202.652 251.54C202.652 252.14 202.832 252.61 203.192 252.95C203.572 253.29 204.062 253.56 204.662 253.76C205.282 253.94 205.952 254.09 206.672 254.21C207.412 254.33 208.142 254.48 208.862 254.66C209.602 254.82 210.272 255.05 210.872 255.35C211.492 255.63 211.982 256.04 212.342 256.58C212.722 257.1 212.912 257.79 212.912 258.65C212.912 259.57 212.652 260.37 212.132 261.05C211.632 261.71 210.892 262.23 209.912 262.61C208.952 262.97 207.782 263.15 206.402 263.15ZM215.111 263V261.59L225.611 248.3L226.061 249.02H215.291V247.25H227.741V248.63L217.271 261.95L216.731 261.23H227.951V263H215.111ZM242.013 263V259.52L241.923 258.95V253.13C241.923 251.79 241.543 250.76 240.783 250.04C240.043 249.32 238.933 248.96 237.453 248.96C236.433 248.96 235.463 249.13 234.543 249.47C233.623 249.81 232.843 250.26 232.203 250.82L231.243 249.23C232.043 248.55 233.003 248.03 234.123 247.67C235.243 247.29 236.423 247.1 237.663 247.1C239.703 247.1 241.273 247.61 242.373 248.63C243.493 249.63 244.053 251.16 244.053 253.22V263H242.013ZM236.583 263.15C235.403 263.15 234.373 262.96 233.493 262.58C232.633 262.18 231.973 261.64 231.513 260.96C231.053 260.26 230.823 259.46 230.823 258.56C230.823 257.74 231.013 257 231.393 256.34C231.793 255.66 232.433 255.12 233.313 254.72C234.213 254.3 235.413 254.09 236.913 254.09H242.343V255.68H236.973C235.453 255.68 234.393 255.95 233.793 256.49C233.213 257.03 232.923 257.7 232.923 258.5C232.923 259.4 233.273 260.12 233.973 260.66C234.673 261.2 235.653 261.47 236.913 261.47C238.113 261.47 239.143 261.2 240.003 260.66C240.883 260.1 241.523 259.3 241.923 258.26L242.403 259.73C242.003 260.77 241.303 261.6 240.303 262.22C239.323 262.84 238.083 263.15 236.583 263.15ZM235.773 244.79L239.883 241.07H242.733L237.873 244.79H235.773ZM269.518 247.1C270.798 247.1 271.908 247.35 272.848 247.85C273.808 248.33 274.548 249.07 275.068 250.07C275.608 251.07 275.878 252.33 275.878 253.85V263H273.748V254.06C273.748 252.4 273.348 251.15 272.548 250.31C271.768 249.45 270.658 249.02 269.218 249.02C268.138 249.02 267.198 249.25 266.398 249.71C265.618 250.15 265.008 250.8 264.568 251.66C264.148 252.5 263.938 253.52 263.938 254.72V263H261.808V254.06C261.808 252.4 261.408 251.15 260.608 250.31C259.808 249.45 258.688 249.02 257.248 249.02C256.188 249.02 255.258 249.25 254.458 249.71C253.658 250.15 253.038 250.8 252.598 251.66C252.178 252.5 251.968 253.52 251.968 254.72V263H249.838V247.25H251.878V251.51L251.548 250.76C252.028 249.62 252.798 248.73 253.858 248.09C254.938 247.43 256.208 247.1 257.668 247.1C259.208 247.1 260.518 247.49 261.598 248.27C262.678 249.03 263.378 250.18 263.698 251.72L262.858 251.39C263.318 250.11 264.128 249.08 265.288 248.3C266.468 247.5 267.878 247.1 269.518 247.1ZM288.075 263.15C286.555 263.15 285.185 262.81 283.965 262.13C282.765 261.43 281.815 260.48 281.115 259.28C280.415 258.06 280.065 256.67 280.065 255.11C280.065 253.53 280.415 252.14 281.115 250.94C281.815 249.74 282.765 248.8 283.965 248.12C285.165 247.44 286.535 247.1 288.075 247.1C289.635 247.1 291.015 247.44 292.215 248.12C293.435 248.8 294.385 249.74 295.065 250.94C295.765 252.14 296.115 253.53 296.115 255.11C296.115 256.67 295.765 258.06 295.065 259.28C294.385 260.48 293.435 261.43 292.215 262.13C290.995 262.81 289.615 263.15 288.075 263.15ZM288.075 261.26C289.215 261.26 290.225 261.01 291.105 260.51C291.985 259.99 292.675 259.27 293.175 258.35C293.695 257.41 293.955 256.33 293.955 255.11C293.955 253.87 293.695 252.79 293.175 251.87C292.675 250.95 291.985 250.24 291.105 249.74C290.225 249.22 289.225 248.96 288.105 248.96C286.985 248.96 285.985 249.22 285.105 249.74C284.225 250.24 283.525 250.95 283.005 251.87C282.485 252.79 282.225 253.87 282.225 255.11C282.225 256.33 282.485 257.41 283.005 258.35C283.525 259.27 284.225 259.99 285.105 260.51C285.985 261.01 286.975 261.26 288.075 261.26ZM300.463 263V240.74H302.593V263H300.463ZM306.18 268.97C305.54 268.97 304.93 268.88 304.35 268.7C303.75 268.54 303.25 268.29 302.85 267.95L303.6 266.33C304.24 266.87 305.06 267.14 306.06 267.14C306.9 267.14 307.54 266.89 307.98 266.39C308.44 265.89 308.67 265.15 308.67 264.17V247.25H310.8V264.17C310.8 265.63 310.4 266.79 309.6 267.65C308.82 268.53 307.68 268.97 306.18 268.97ZM309.75 243.77C309.31 243.77 308.94 243.62 308.64 243.32C308.34 243.02 308.19 242.66 308.19 242.24C308.19 241.82 308.34 241.47 308.64 241.19C308.94 240.89 309.31 240.74 309.75 240.74C310.19 240.74 310.56 240.88 310.86 241.16C311.16 241.44 311.31 241.79 311.31 242.21C311.31 242.65 311.16 243.02 310.86 243.32C310.58 243.62 310.21 243.77 309.75 243.77ZM323.262 263.15C321.922 263.15 320.752 262.9 319.752 262.4C318.752 261.9 317.972 261.15 317.412 260.15C316.872 259.15 316.602 257.9 316.602 256.4V247.25H318.732V256.16C318.732 257.84 319.142 259.11 319.962 259.97C320.802 260.81 321.972 261.23 323.472 261.23C324.572 261.23 325.522 261.01 326.322 260.57C327.142 260.11 327.762 259.45 328.182 258.59C328.622 257.73 328.842 256.7 328.842 255.5V247.25H330.972V263H328.932V258.68L329.262 259.46C328.762 260.62 327.982 261.53 326.922 262.19C325.882 262.83 324.662 263.15 323.262 263.15ZM338.588 258.92L338.648 256.19L348.458 247.25H351.068L344.138 253.88L342.938 254.9L338.588 258.92ZM336.908 263V240.74H339.038V263H336.908ZM349.118 263L342.548 254.81L343.928 253.16L351.728 263H349.118ZM353.929 267.38L355.249 261.83L355.489 263.12C355.029 263.12 354.639 262.97 354.319 262.67C354.019 262.37 353.869 261.98 353.869 261.5C353.869 261.02 354.019 260.63 354.319 260.33C354.639 260.03 355.019 259.88 355.459 259.88C355.919 259.88 356.289 260.04 356.569 260.36C356.869 260.68 357.019 261.06 357.019 261.5C357.019 261.66 357.009 261.82 356.989 261.98C356.969 262.14 356.929 262.32 356.869 262.52C356.809 262.72 356.729 262.96 356.629 263.24L355.369 267.38H353.929ZM377.468 247.1C378.748 247.1 379.868 247.35 380.828 247.85C381.808 248.33 382.568 249.07 383.108 250.07C383.668 251.07 383.948 252.33 383.948 253.85V263H381.818V254.06C381.818 252.4 381.398 251.15 380.558 250.31C379.738 249.45 378.578 249.02 377.078 249.02C375.958 249.02 374.978 249.25 374.138 249.71C373.318 250.15 372.678 250.8 372.218 251.66C371.778 252.5 371.558 253.52 371.558 254.72V263H369.428V240.74H371.558V251.57L371.138 250.76C371.638 249.62 372.438 248.73 373.538 248.09C374.638 247.43 375.948 247.1 377.468 247.1ZM396.121 263.15C394.601 263.15 393.231 262.81 392.011 262.13C390.811 261.43 389.861 260.48 389.161 259.28C388.461 258.06 388.111 256.67 388.111 255.11C388.111 253.53 388.461 252.14 389.161 250.94C389.861 249.74 390.811 248.8 392.011 248.12C393.211 247.44 394.581 247.1 396.121 247.1C397.681 247.1 399.061 247.44 400.261 248.12C401.481 248.8 402.431 249.74 403.111 250.94C403.811 252.14 404.161 253.53 404.161 255.11C404.161 256.67 403.811 258.06 403.111 259.28C402.431 260.48 401.481 261.43 400.261 262.13C399.041 262.81 397.661 263.15 396.121 263.15ZM396.121 261.26C397.261 261.26 398.271 261.01 399.151 260.51C400.031 259.99 400.721 259.27 401.221 258.35C401.741 257.41 402.001 256.33 402.001 255.11C402.001 253.87 401.741 252.79 401.221 251.87C400.721 250.95 400.031 250.24 399.151 249.74C398.271 249.22 397.271 248.96 396.151 248.96C395.031 248.96 394.031 249.22 393.151 249.74C392.271 250.24 391.571 250.95 391.051 251.87C390.531 252.79 390.271 253.87 390.271 255.11C390.271 256.33 390.531 257.41 391.051 258.35C391.571 259.27 392.271 259.99 393.151 260.51C394.031 261.01 395.021 261.26 396.121 261.26ZM415.23 268.97C413.79 268.97 412.41 268.76 411.09 268.34C409.77 267.92 408.7 267.32 407.88 266.54L408.96 264.92C409.7 265.58 410.61 266.1 411.69 266.48C412.79 266.88 413.95 267.08 415.17 267.08C417.17 267.08 418.64 266.61 419.58 265.67C420.52 264.75 420.99 263.31 420.99 261.35V257.42L421.29 254.72L421.08 252.02V247.25H423.12V261.08C423.12 263.8 422.45 265.79 421.11 267.05C419.79 268.33 417.83 268.97 415.23 268.97ZM414.84 262.4C413.34 262.4 411.99 262.08 410.79 261.44C409.59 260.78 408.64 259.87 407.94 258.71C407.26 257.55 406.92 256.22 406.92 254.72C406.92 253.22 407.26 251.9 407.94 250.76C408.64 249.6 409.59 248.7 410.79 248.06C411.99 247.42 413.34 247.1 414.84 247.1C416.24 247.1 417.5 247.39 418.62 247.97C419.74 248.55 420.63 249.41 421.29 250.55C421.95 251.69 422.28 253.08 422.28 254.72C422.28 256.36 421.95 257.75 421.29 258.89C420.63 260.03 419.74 260.9 418.62 261.5C417.5 262.1 416.24 262.4 414.84 262.4ZM415.05 260.51C416.21 260.51 417.24 260.27 418.14 259.79C419.04 259.29 419.75 258.61 420.27 257.75C420.79 256.87 421.05 255.86 421.05 254.72C421.05 253.58 420.79 252.58 420.27 251.72C419.75 250.86 419.04 250.19 418.14 249.71C417.24 249.21 416.21 248.96 415.05 248.96C413.91 248.96 412.88 249.21 411.96 249.71C411.06 250.19 410.35 250.86 409.83 251.72C409.33 252.58 409.08 253.58 409.08 254.72C409.08 255.86 409.33 256.87 409.83 257.75C410.35 258.61 411.06 259.29 411.96 259.79C412.88 260.27 413.91 260.51 415.05 260.51ZM429.167 268.97C428.427 268.97 427.717 268.85 427.037 268.61C426.377 268.37 425.807 268.01 425.327 267.53L426.317 265.94C426.717 266.32 427.147 266.61 427.607 266.81C428.087 267.03 428.617 267.14 429.197 267.14C429.897 267.14 430.497 266.94 430.997 266.54C431.517 266.16 432.007 265.48 432.467 264.5L433.487 262.19L433.727 261.86L440.207 247.25H442.307L434.417 264.89C433.977 265.91 433.487 266.72 432.947 267.32C432.427 267.92 431.857 268.34 431.237 268.58C430.617 268.84 429.927 268.97 429.167 268.97ZM433.367 263.45L426.107 247.25H428.327L434.747 261.71L433.367 263.45ZM454.708 263V259.52L454.618 258.95V253.13C454.618 251.79 454.238 250.76 453.478 250.04C452.738 249.32 451.628 248.96 450.148 248.96C449.128 248.96 448.158 249.13 447.238 249.47C446.318 249.81 445.538 250.26 444.898 250.82L443.938 249.23C444.738 248.55 445.698 248.03 446.818 247.67C447.938 247.29 449.118 247.1 450.358 247.1C452.398 247.1 453.968 247.61 455.068 248.63C456.188 249.63 456.748 251.16 456.748 253.22V263H454.708ZM449.278 263.15C448.098 263.15 447.068 262.96 446.188 262.58C445.328 262.18 444.668 261.64 444.208 260.96C443.748 260.26 443.518 259.46 443.518 258.56C443.518 257.74 443.708 257 444.088 256.34C444.488 255.66 445.128 255.12 446.008 254.72C446.908 254.3 448.108 254.09 449.608 254.09H455.038V255.68H449.668C448.148 255.68 447.088 255.95 446.488 256.49C445.908 257.03 445.618 257.7 445.618 258.5C445.618 259.4 445.968 260.12 446.668 260.66C447.368 261.2 448.348 261.47 449.608 261.47C450.808 261.47 451.838 261.2 452.698 260.66C453.578 260.1 454.218 259.3 454.618 258.26L455.098 259.73C454.698 260.77 453.998 261.6 452.998 262.22C452.018 262.84 450.778 263.15 449.278 263.15ZM470.573 247.1C471.853 247.1 472.973 247.35 473.933 247.85C474.913 248.33 475.673 249.07 476.213 250.07C476.773 251.07 477.053 252.33 477.053 253.85V263H474.923V254.06C474.923 252.4 474.503 251.15 473.663 250.31C472.843 249.45 471.683 249.02 470.183 249.02C469.063 249.02 468.083 249.25 467.243 249.71C466.423 250.15 465.783 250.8 465.323 251.66C464.883 252.5 464.663 253.52 464.663 254.72V263H462.533V247.25H464.573V251.57L464.243 250.76C464.743 249.62 465.543 248.73 466.643 248.09C467.743 247.43 469.053 247.1 470.573 247.1ZM488.318 268.97C487.678 268.97 487.068 268.88 486.488 268.7C485.888 268.54 485.388 268.29 484.988 267.95L485.738 266.33C486.378 266.87 487.198 267.14 488.198 267.14C489.038 267.14 489.678 266.89 490.118 266.39C490.578 265.89 490.808 265.15 490.808 264.17V247.25H492.938V264.17C492.938 265.63 492.538 266.79 491.738 267.65C490.958 268.53 489.818 268.97 488.318 268.97ZM491.888 243.77C491.448 243.77 491.078 243.62 490.778 243.32C490.478 243.02 490.328 242.66 490.328 242.24C490.328 241.82 490.478 241.47 490.778 241.19C491.078 240.89 491.448 240.74 491.888 240.74C492.328 240.74 492.698 240.88 492.998 241.16C493.298 241.44 493.448 241.79 493.448 242.21C493.448 242.65 493.298 243.02 492.998 243.32C492.718 243.62 492.348 243.77 491.888 243.77ZM505.401 263.15C504.061 263.15 502.891 262.9 501.891 262.4C500.891 261.9 500.111 261.15 499.551 260.15C499.011 259.15 498.741 257.9 498.741 256.4V247.25H500.871V256.16C500.871 257.84 501.281 259.11 502.101 259.97C502.941 260.81 504.111 261.23 505.611 261.23C506.711 261.23 507.661 261.01 508.461 260.57C509.281 260.11 509.901 259.45 510.321 258.59C510.761 257.73 510.981 256.7 510.981 255.5V247.25H513.111V263H511.071V258.68L511.401 259.46C510.901 260.62 510.121 261.53 509.061 262.19C508.021 262.83 506.801 263.15 505.401 263.15ZM524.027 263.15C522.547 263.15 521.407 262.75 520.607 261.95C519.807 261.15 519.407 260.02 519.407 258.56V243.77H521.537V258.44C521.537 259.36 521.767 260.07 522.227 260.57C522.707 261.07 523.387 261.32 524.267 261.32C525.207 261.32 525.987 261.05 526.607 260.51L527.357 262.04C526.937 262.42 526.427 262.7 525.827 262.88C525.247 263.06 524.647 263.15 524.027 263.15ZM516.587 249.02V247.25H526.337V249.02H516.587ZM539.275 247.1C540.555 247.1 541.675 247.35 542.635 247.85C543.615 248.33 544.375 249.07 544.915 250.07C545.475 251.07 545.755 252.33 545.755 253.85V263H543.625V254.06C543.625 252.4 543.205 251.15 542.365 250.31C541.545 249.45 540.385 249.02 538.885 249.02C537.765 249.02 536.785 249.25 535.945 249.71C535.125 250.15 534.485 250.8 534.025 251.66C533.585 252.5 533.365 253.52 533.365 254.72V263H531.235V240.74H533.365V251.57L532.945 250.76C533.445 249.62 534.245 248.73 535.345 248.09C536.445 247.43 537.755 247.1 539.275 247.1ZM561.378 263V259.52L561.288 258.95V253.13C561.288 251.79 560.908 250.76 560.148 250.04C559.408 249.32 558.298 248.96 556.818 248.96C555.798 248.96 554.828 249.13 553.908 249.47C552.988 249.81 552.208 250.26 551.568 250.82L550.608 249.23C551.408 248.55 552.368 248.03 553.488 247.67C554.608 247.29 555.788 247.1 557.028 247.1C559.068 247.1 560.638 247.61 561.738 248.63C562.858 249.63 563.418 251.16 563.418 253.22V263H561.378ZM555.948 263.15C554.768 263.15 553.738 262.96 552.858 262.58C551.998 262.18 551.338 261.64 550.878 260.96C550.418 260.26 550.188 259.46 550.188 258.56C550.188 257.74 550.378 257 550.758 256.34C551.158 255.66 551.798 255.12 552.678 254.72C553.578 254.3 554.778 254.09 556.278 254.09H561.708V255.68H556.338C554.818 255.68 553.758 255.95 553.158 256.49C552.578 257.03 552.288 257.7 552.288 258.5C552.288 259.4 552.638 260.12 553.338 260.66C554.038 261.2 555.018 261.47 556.278 261.47C557.478 261.47 558.508 261.2 559.368 260.66C560.248 260.1 560.888 259.3 561.288 258.26L561.768 259.73C561.368 260.77 560.668 261.6 559.668 262.22C558.688 262.84 557.448 263.15 555.948 263.15ZM574.183 263.15C572.703 263.15 571.563 262.75 570.763 261.95C569.963 261.15 569.563 260.02 569.563 258.56V243.77H571.693V258.44C571.693 259.36 571.923 260.07 572.383 260.57C572.863 261.07 573.543 261.32 574.423 261.32C575.363 261.32 576.143 261.05 576.763 260.51L577.513 262.04C577.093 262.42 576.583 262.7 575.983 262.88C575.403 263.06 574.803 263.15 574.183 263.15ZM566.743 249.02V247.25H576.493V249.02H566.743ZM585.621 263.15C584.321 263.15 583.091 262.97 581.931 262.61C580.771 262.23 579.861 261.76 579.201 261.2L580.161 259.52C580.801 260 581.621 260.42 582.621 260.78C583.621 261.12 584.671 261.29 585.771 261.29C587.271 261.29 588.351 261.06 589.011 260.6C589.671 260.12 590.001 259.49 590.001 258.71C590.001 258.13 589.811 257.68 589.431 257.36C589.071 257.02 588.591 256.77 587.991 256.61C587.391 256.43 586.721 256.28 585.981 256.16C585.241 256.04 584.501 255.9 583.761 255.74C583.041 255.58 582.381 255.35 581.781 255.05C581.181 254.73 580.691 254.3 580.311 253.76C579.951 253.22 579.771 252.5 579.771 251.6C579.771 250.74 580.011 249.97 580.491 249.29C580.971 248.61 581.671 248.08 582.591 247.7C583.531 247.3 584.671 247.1 586.011 247.1C587.031 247.1 588.051 247.24 589.071 247.52C590.091 247.78 590.931 248.13 591.591 248.57L590.661 250.28C589.961 249.8 589.211 249.46 588.411 249.26C587.611 249.04 586.811 248.93 586.011 248.93C584.591 248.93 583.541 249.18 582.861 249.68C582.201 250.16 581.871 250.78 581.871 251.54C581.871 252.14 582.051 252.61 582.411 252.95C582.791 253.29 583.281 253.56 583.881 253.76C584.501 253.94 585.171 254.09 585.891 254.21C586.631 254.33 587.361 254.48 588.081 254.66C588.821 254.82 589.491 255.05 590.091 255.35C590.711 255.63 591.201 256.04 591.561 256.58C591.941 257.1 592.131 257.79 592.131 258.65C592.131 259.57 591.871 260.37 591.351 261.05C590.851 261.71 590.111 262.23 589.131 262.61C588.171 262.97 587.001 263.15 585.621 263.15ZM594.329 263V261.59L604.829 248.3L605.279 249.02H594.509V247.25H606.959V248.63L596.489 261.95L595.949 261.23H607.169V263H594.329ZM625.633 263.15C624.113 263.15 622.743 262.81 621.523 262.13C620.323 261.43 619.373 260.48 618.673 259.28C617.973 258.06 617.623 256.67 617.623 255.11C617.623 253.53 617.973 252.14 618.673 250.94C619.373 249.74 620.323 248.8 621.523 248.12C622.723 247.44 624.093 247.1 625.633 247.1C627.193 247.1 628.573 247.44 629.773 248.12C630.993 248.8 631.943 249.74 632.623 250.94C633.323 252.14 633.673 253.53 633.673 255.11C633.673 256.67 633.323 258.06 632.623 259.28C631.943 260.48 630.993 261.43 629.773 262.13C628.553 262.81 627.173 263.15 625.633 263.15ZM625.633 261.26C626.773 261.26 627.783 261.01 628.663 260.51C629.543 259.99 630.233 259.27 630.733 258.35C631.253 257.41 631.513 256.33 631.513 255.11C631.513 253.87 631.253 252.79 630.733 251.87C630.233 250.95 629.543 250.24 628.663 249.74C627.783 249.22 626.783 248.96 625.663 248.96C624.543 248.96 623.543 249.22 622.663 249.74C621.783 250.24 621.083 250.95 620.563 251.87C620.043 252.79 619.783 253.87 619.783 255.11C619.783 256.33 620.043 257.41 620.563 258.35C621.083 259.27 621.783 259.99 622.663 260.51C623.543 261.01 624.533 261.26 625.633 261.26ZM644.292 263.15C642.792 263.15 641.442 262.81 640.242 262.13C639.062 261.45 638.132 260.51 637.452 259.31C636.772 258.09 636.432 256.69 636.432 255.11C636.432 253.51 636.772 252.11 637.452 250.91C638.132 249.71 639.062 248.78 640.242 248.12C641.442 247.44 642.792 247.1 644.292 247.1C645.672 247.1 646.902 247.41 647.982 248.03C649.082 248.65 649.952 249.56 650.592 250.76C651.252 251.94 651.582 253.39 651.582 255.11C651.582 256.81 651.262 258.26 650.622 259.46C649.982 260.66 649.112 261.58 648.012 262.22C646.932 262.84 645.692 263.15 644.292 263.15ZM644.442 261.26C645.562 261.26 646.562 261.01 647.442 260.51C648.342 259.99 649.042 259.27 649.542 258.35C650.062 257.41 650.322 256.33 650.322 255.11C650.322 253.87 650.062 252.79 649.542 251.87C649.042 250.95 648.342 250.24 647.442 249.74C646.562 249.22 645.562 248.96 644.442 248.96C643.342 248.96 642.352 249.22 641.472 249.74C640.592 250.24 639.892 250.95 639.372 251.87C638.852 252.79 638.592 253.87 638.592 255.11C638.592 256.33 638.852 257.41 639.372 258.35C639.892 259.27 640.592 259.99 641.472 260.51C642.352 261.01 643.342 261.26 644.442 261.26ZM650.382 263V258.26L650.592 255.08L650.292 251.9V240.74H652.422V263H650.382ZM668.224 263V259.52L668.134 258.95V253.13C668.134 251.79 667.754 250.76 666.994 250.04C666.254 249.32 665.144 248.96 663.664 248.96C662.644 248.96 661.674 249.13 660.754 249.47C659.834 249.81 659.054 250.26 658.414 250.82L657.454 249.23C658.254 248.55 659.214 248.03 660.334 247.67C661.454 247.29 662.634 247.1 663.874 247.1C665.914 247.1 667.484 247.61 668.584 248.63C669.704 249.63 670.264 251.16 670.264 253.22V263H668.224ZM662.794 263.15C661.614 263.15 660.584 262.96 659.704 262.58C658.844 262.18 658.184 261.64 657.724 260.96C657.264 260.26 657.034 259.46 657.034 258.56C657.034 257.74 657.224 257 657.604 256.34C658.004 255.66 658.644 255.12 659.524 254.72C660.424 254.3 661.624 254.09 663.124 254.09H668.554V255.68H663.184C661.664 255.68 660.604 255.95 660.004 256.49C659.424 257.03 659.134 257.7 659.134 258.5C659.134 259.4 659.484 260.12 660.184 260.66C660.884 261.2 661.864 261.47 663.124 261.47C664.324 261.47 665.354 261.2 666.214 260.66C667.094 260.1 667.734 259.3 668.134 258.26L668.614 259.73C668.214 260.77 667.514 261.6 666.514 262.22C665.534 262.84 664.294 263.15 662.794 263.15ZM676.139 256.7L675.719 242H678.239L677.789 256.7H676.139ZM676.979 263.15C676.539 263.15 676.159 263 675.839 262.7C675.539 262.38 675.389 262.01 675.389 261.59C675.389 261.15 675.539 260.79 675.839 260.51C676.159 260.21 676.539 260.06 676.979 260.06C677.439 260.06 677.809 260.21 678.089 260.51C678.389 260.79 678.539 261.15 678.539 261.59C678.539 262.01 678.389 262.38 678.089 262.7C677.809 263 677.439 263.15 676.979 263.15Z" fill="black"/>
</g>
</g>
<defs>
<filter id="filter0_d_2142_2639" x="0.339394" y="0.157576" width="853.321" height="639.321" filterUnits="userSpaceOnUse" color-interpolation-filters="sRGB">
<feFlood flood-opacity="0" result="BackgroundImageFix"/>
<feColorMatrix in="SourceAlpha" type="matrix" values="0 0 0 0 0 0 0 0 0 0 0 0 0 0 0 0 0 0 127 0" result="hardAlpha"/>
<feOffset dy="28.3182"/>
<feGaussianBlur stdDeviation="57.5803"/>
<feComposite in2="hardAlpha" operator="out"/>
<feColorMatrix type="matrix" values="0 0 0 0 0.546962 0 0 0 0 0.744705 0 0 0 0 0.710315 0 0 0 0.25 0"/>
<feBlend mode="normal" in2="BackgroundImageFix" result="effect1_dropShadow_2142_2639"/>
<feBlend mode="normal" in="SourceGraphic" in2="effect1_dropShadow_2142_2639" result="shape"/>
</filter>
<linearGradient id="paint0_linear_2142_2639" x1="738.5" y1="140" x2="115.5" y2="291.5" gradientUnits="userSpaceOnUse">
<stop stop-color="#E2D5F4"/>
<stop offset="1" stop-color="#D0F0F7"/>
</linearGradient>
<linearGradient id="paint1_linear_2142_2639" x1="419.449" y1="401.423" x2="419.449" y2="594.555" gradientUnits="userSpaceOnUse">
<stop offset="0.1125" stop-color="#A122F1"/>
<stop offset="0.669792" stop-color="#34F6E5" stop-opacity="0"/>
</linearGradient>
<linearGradient id="paint2_linear_2142_2639" x1="419.449" y1="401.423" x2="419.449" y2="594.555" gradientUnits="userSpaceOnUse">
<stop stop-color="#7FD2C8"/>
<stop offset="1" stop-color="#C6E1DE" stop-opacity="0"/>
</linearGradient>
<linearGradient id="paint3_linear_2142_2639" x1="419.449" y1="401.423" x2="419.449" y2="594.555" gradientUnits="userSpaceOnUse">
<stop stop-color="#7FD2C8"/>
<stop offset="1" stop-color="#C6E1DE" stop-opacity="0"/>
</linearGradient>
<clipPath id="clip0_2142_2639">
<rect x="115.5" y="87" width="623" height="409" rx="30" fill="white"/>
</clipPath>
</defs>
</svg>
