<svg width="854" height="659" viewBox="0 0 854 659" fill="none" xmlns="http://www.w3.org/2000/svg">
<g filter="url(#filter0_d_2142_2670)">
<g clip-path="url(#clip0_2142_2670)">
<rect x="115.5" y="87" width="623" height="428" rx="30" fill="url(#paint0_linear_2142_2670)"/>
<rect x="223.109" y="350.655" width="130.264" height="24.5424" rx="12.2712" fill="#4B0477"/>
<rect x="192.903" y="350.655" width="24.5424" height="24.5424" rx="7.55152" fill="#4B0477"/>
<rect x="143.818" y="354.43" width="30.2061" height="39.6455" rx="7.55152" fill="#CD6AEC"/>
<rect x="143.818" y="416.73" width="30.2061" height="39.6455" rx="7.55152" fill="#CD6AEC"/>
<rect x="143.818" y="480.918" width="30.2061" height="39.6455" rx="7.55152" fill="#CD6AEC"/>
<rect x="192.903" y="380.861" width="77.403" height="16.9909" rx="8.49545" fill="#84EEE5"/>
<rect x="223.109" y="412.955" width="130.264" height="24.5424" rx="12.2712" fill="#4B0477"/>
<rect x="192.903" y="412.955" width="24.5424" height="24.5424" rx="7.55152" fill="#4B0477"/>
<rect x="192.903" y="443.161" width="77.403" height="16.9909" rx="8.49545" fill="#84EEE5"/>
<rect x="581.806" y="350.655" width="130.264" height="24.5424" rx="12.2712" fill="#4B0477"/>
<rect x="551.6" y="350.655" width="24.5424" height="24.5424" rx="7.55152" fill="#4B0477"/>
<rect x="551.6" y="380.861" width="77.403" height="16.9909" rx="8.49545" fill="#84EEE5"/>
<rect x="581.806" y="412.955" width="130.264" height="24.5424" rx="12.2712" fill="#4B0477"/>
<rect x="551.6" y="412.955" width="24.5424" height="24.5424" rx="7.55152" fill="#4B0477"/>
<rect x="551.6" y="443.161" width="77.403" height="16.9909" rx="8.49545" fill="#84EEE5"/>
<rect x="730.948" y="350.655" width="24.5424" height="24.5424" rx="7.55152" fill="#4B0477"/>
<rect x="730.948" y="380.861" width="77.403" height="16.9909" rx="8.49545" fill="#84EEE5"/>
<rect x="730.948" y="412.955" width="24.5424" height="24.5424" rx="7.55152" fill="#4B0477"/>
<rect x="730.948" y="443.161" width="77.403" height="16.9909" rx="8.49545" fill="#84EEE5"/>
<rect x="730.948" y="475.255" width="24.5424" height="24.5424" rx="7.55152" fill="#4B0477"/>
<rect x="730.948" y="505.461" width="77.403" height="16.9909" rx="8.49545" fill="#84EEE5"/>
<rect x="223.109" y="475.255" width="130.264" height="24.5424" rx="12.2712" fill="#4B0477"/>
<rect x="192.903" y="475.255" width="24.5424" height="24.5424" rx="7.55152" fill="#4B0477"/>
<rect x="192.903" y="505.461" width="77.403" height="16.9909" rx="8.49545" fill="#84EEE5"/>
<rect x="402.458" y="350.655" width="130.264" height="24.5424" rx="12.2712" fill="#4B0477"/>
<rect x="372.251" y="412.955" width="130.264" height="24.5424" rx="12.2712" fill="#B191C5"/>
<rect x="372.251" y="350.655" width="24.5424" height="24.5424" rx="7.55152" fill="#4B0477"/>
<rect x="372.251" y="380.861" width="77.403" height="16.9909" rx="8.49545" fill="#84EEE5"/>
<rect x="402.458" y="475.255" width="130.264" height="24.5424" rx="12.2712" fill="#4B0477"/>
<rect x="372.251" y="475.255" width="24.5424" height="24.5424" rx="7.55152" fill="#4B0477"/>
<rect x="372.251" y="505.461" width="77.403" height="16.9909" rx="8.49545" fill="#84EEE5"/>
<path d="M254.168 138H260.648V166H254.168V138ZM241.448 166H234.968V138H241.448V166ZM254.648 154.52H240.968V149.04H254.648V154.52ZM277.513 166.32C275.06 166.32 272.9 165.84 271.033 164.88C269.193 163.92 267.766 162.613 266.753 160.96C265.74 159.28 265.233 157.373 265.233 155.24C265.233 153.08 265.726 151.173 266.713 149.52C267.726 147.84 269.1 146.533 270.833 145.6C272.566 144.64 274.526 144.16 276.713 144.16C278.82 144.16 280.713 144.613 282.393 145.52C284.1 146.4 285.446 147.68 286.433 149.36C287.42 151.013 287.913 153 287.913 155.32C287.913 155.56 287.9 155.84 287.873 156.16C287.846 156.453 287.82 156.733 287.793 157H270.313V153.36H284.513L282.113 154.44C282.113 153.32 281.886 152.347 281.433 151.52C280.98 150.693 280.353 150.053 279.553 149.6C278.753 149.12 277.82 148.88 276.753 148.88C275.686 148.88 274.74 149.12 273.913 149.6C273.113 150.053 272.486 150.707 272.033 151.56C271.58 152.387 271.353 153.373 271.353 154.52V155.48C271.353 156.653 271.606 157.693 272.113 158.6C272.646 159.48 273.38 160.16 274.313 160.64C275.273 161.093 276.393 161.32 277.673 161.32C278.82 161.32 279.82 161.147 280.673 160.8C281.553 160.453 282.353 159.933 283.073 159.24L286.393 162.84C285.406 163.96 284.166 164.827 282.673 165.44C281.18 166.027 279.46 166.32 277.513 166.32ZM300.868 166.32C298.334 166.32 296.361 165.68 294.948 164.4C293.534 163.093 292.828 161.16 292.828 158.6V139.72H299.068V158.52C299.068 159.427 299.308 160.133 299.788 160.64C300.268 161.12 300.921 161.36 301.748 161.36C302.734 161.36 303.574 161.093 304.268 160.56L305.948 164.96C305.308 165.413 304.534 165.76 303.628 166C302.748 166.213 301.828 166.32 300.868 166.32ZM289.508 149.76V144.96H304.428V149.76H289.508ZM309.45 166V144.48H315.69V166H309.45ZM312.57 141.48C311.424 141.48 310.49 141.147 309.77 140.48C309.05 139.813 308.69 138.987 308.69 138C308.69 137.013 309.05 136.187 309.77 135.52C310.49 134.853 311.424 134.52 312.57 134.52C313.717 134.52 314.65 134.84 315.37 135.48C316.09 136.093 316.45 136.893 316.45 137.88C316.45 138.92 316.09 139.787 315.37 140.48C314.677 141.147 313.744 141.48 312.57 141.48ZM343.05 166.32C340.756 166.32 338.716 165.84 336.93 164.88C335.17 163.92 333.77 162.613 332.73 160.96C331.716 159.28 331.21 157.373 331.21 155.24C331.21 153.08 331.716 151.173 332.73 149.52C333.77 147.84 335.17 146.533 336.93 145.6C338.716 144.64 340.756 144.16 343.05 144.16C345.316 144.16 347.343 144.64 349.13 145.6C350.916 146.533 352.316 147.827 353.33 149.48C354.343 151.133 354.85 153.053 354.85 155.24C354.85 157.373 354.343 159.28 353.33 160.96C352.316 162.613 350.916 163.92 349.13 164.88C347.343 165.84 345.316 166.32 343.05 166.32ZM343.05 161.2C344.09 161.2 345.023 160.96 345.85 160.48C346.676 160 347.33 159.32 347.81 158.44C348.29 157.533 348.53 156.467 348.53 155.24C348.53 153.987 348.29 152.92 347.81 152.04C347.33 151.16 346.676 150.48 345.85 150C345.023 149.52 344.09 149.28 343.05 149.28C342.01 149.28 341.076 149.52 340.25 150C339.423 150.48 338.756 151.16 338.25 152.04C337.77 152.92 337.53 153.987 337.53 155.24C337.53 156.467 337.77 157.533 338.25 158.44C338.756 159.32 339.423 160 340.25 160.48C341.076 160.96 342.01 161.2 343.05 161.2ZM339.33 141.72L344.73 135.96H351.45L344.21 141.72H339.33ZM359.021 166V144.48H364.981V150.56L364.141 148.8C364.781 147.28 365.807 146.133 367.221 145.36C368.634 144.56 370.354 144.16 372.381 144.16V149.92C372.114 149.893 371.874 149.88 371.661 149.88C371.447 149.853 371.221 149.84 370.981 149.84C369.274 149.84 367.887 150.333 366.821 151.32C365.781 152.28 365.261 153.787 365.261 155.84V166H359.021ZM387.885 166V161.8L387.485 160.88V153.36C387.485 152.027 387.071 150.987 386.245 150.24C385.445 149.493 384.205 149.12 382.525 149.12C381.378 149.12 380.245 149.307 379.125 149.68C378.031 150.027 377.098 150.507 376.325 151.12L374.085 146.76C375.258 145.933 376.671 145.293 378.325 144.84C379.978 144.387 381.658 144.16 383.365 144.16C386.645 144.16 389.191 144.933 391.005 146.48C392.818 148.027 393.725 150.44 393.725 153.72V166H387.885ZM381.325 166.32C379.645 166.32 378.205 166.04 377.005 165.48C375.805 164.893 374.885 164.107 374.245 163.12C373.605 162.133 373.285 161.027 373.285 159.8C373.285 158.52 373.591 157.4 374.205 156.44C374.845 155.48 375.845 154.733 377.205 154.2C378.565 153.64 380.338 153.36 382.525 153.36H388.245V157H383.205C381.738 157 380.725 157.24 380.165 157.72C379.631 158.2 379.365 158.8 379.365 159.52C379.365 160.32 379.671 160.96 380.285 161.44C380.925 161.893 381.791 162.12 382.885 162.12C383.925 162.12 384.858 161.88 385.685 161.4C386.511 160.893 387.111 160.16 387.485 159.2L388.445 162.08C387.991 163.467 387.165 164.52 385.965 165.24C384.765 165.96 383.218 166.32 381.325 166.32ZM399.372 166V144.48H405.332V150.56L404.492 148.8C405.132 147.28 406.159 146.133 407.572 145.36C408.986 144.56 410.706 144.16 412.732 144.16V149.92C412.466 149.893 412.226 149.88 412.012 149.88C411.799 149.853 411.572 149.84 411.332 149.84C409.626 149.84 408.239 150.333 407.172 151.32C406.132 152.28 405.612 153.787 405.612 155.84V166H399.372ZM426.927 166.32C424.474 166.32 422.314 165.84 420.447 164.88C418.607 163.92 417.181 162.613 416.167 160.96C415.154 159.28 414.647 157.373 414.647 155.24C414.647 153.08 415.141 151.173 416.127 149.52C417.141 147.84 418.514 146.533 420.247 145.6C421.981 144.64 423.941 144.16 426.127 144.16C428.234 144.16 430.127 144.613 431.807 145.52C433.514 146.4 434.861 147.68 435.847 149.36C436.834 151.013 437.327 153 437.327 155.32C437.327 155.56 437.314 155.84 437.287 156.16C437.261 156.453 437.234 156.733 437.207 157H419.727V153.36H433.927L431.527 154.44C431.527 153.32 431.301 152.347 430.847 151.52C430.394 150.693 429.767 150.053 428.967 149.6C428.167 149.12 427.234 148.88 426.167 148.88C425.101 148.88 424.154 149.12 423.327 149.6C422.527 150.053 421.901 150.707 421.447 151.56C420.994 152.387 420.767 153.373 420.767 154.52V155.48C420.767 156.653 421.021 157.693 421.527 158.6C422.061 159.48 422.794 160.16 423.727 160.64C424.687 161.093 425.807 161.32 427.087 161.32C428.234 161.32 429.234 161.147 430.087 160.8C430.967 160.453 431.767 159.933 432.487 159.24L435.807 162.84C434.821 163.96 433.581 164.827 432.087 165.44C430.594 166.027 428.874 166.32 426.927 166.32ZM454.562 144.16C456.268 144.16 457.788 144.507 459.122 145.2C460.482 145.867 461.548 146.907 462.322 148.32C463.095 149.707 463.482 151.493 463.482 153.68V166H457.242V154.64C457.242 152.907 456.855 151.627 456.082 150.8C455.335 149.973 454.268 149.56 452.882 149.56C451.895 149.56 451.002 149.773 450.202 150.2C449.428 150.6 448.815 151.227 448.362 152.08C447.935 152.933 447.722 154.027 447.722 155.36V166H441.482V144.48H447.442V150.44L446.322 148.64C447.095 147.2 448.202 146.093 449.642 145.32C451.082 144.547 452.722 144.16 454.562 144.16ZM478.534 166.32C476.507 166.32 474.681 165.867 473.054 164.96C471.427 164.027 470.134 162.733 469.174 161.08C468.241 159.427 467.774 157.48 467.774 155.24C467.774 152.973 468.241 151.013 469.174 149.36C470.134 147.707 471.427 146.427 473.054 145.52C474.681 144.613 476.507 144.16 478.534 144.16C480.347 144.16 481.934 144.56 483.294 145.36C484.654 146.16 485.707 147.373 486.454 149C487.201 150.627 487.574 152.707 487.574 155.24C487.574 157.747 487.214 159.827 486.494 161.48C485.774 163.107 484.734 164.32 483.374 165.12C482.041 165.92 480.427 166.32 478.534 166.32ZM479.614 161.2C480.627 161.2 481.547 160.96 482.374 160.48C483.201 160 483.854 159.32 484.334 158.44C484.841 157.533 485.094 156.467 485.094 155.24C485.094 153.987 484.841 152.92 484.334 152.04C483.854 151.16 483.201 150.48 482.374 150C481.547 149.52 480.627 149.28 479.614 149.28C478.574 149.28 477.641 149.52 476.814 150C475.987 150.48 475.321 151.16 474.814 152.04C474.334 152.92 474.094 153.987 474.094 155.24C474.094 156.467 474.334 157.533 474.814 158.44C475.321 159.32 475.987 160 476.814 160.48C477.641 160.96 478.574 161.2 479.614 161.2ZM485.254 166V161.6L485.374 155.2L484.974 148.84V136.32H491.214V166H485.254ZM521.398 144.16C523.104 144.16 524.624 144.507 525.958 145.2C527.318 145.867 528.384 146.907 529.158 148.32C529.931 149.707 530.318 151.493 530.318 153.68V166H524.078V154.64C524.078 152.907 523.691 151.627 522.918 150.8C522.171 149.973 521.104 149.56 519.718 149.56C518.731 149.56 517.838 149.773 517.038 150.2C516.264 150.6 515.651 151.227 515.198 152.08C514.771 152.933 514.558 154.027 514.558 155.36V166H508.318V144.48H514.278V150.44L513.158 148.64C513.931 147.2 515.038 146.093 516.478 145.32C517.918 144.547 519.558 144.16 521.398 144.16ZM546.81 166.32C544.357 166.32 542.197 165.84 540.33 164.88C538.49 163.92 537.063 162.613 536.05 160.96C535.037 159.28 534.53 157.373 534.53 155.24C534.53 153.08 535.023 151.173 536.01 149.52C537.023 147.84 538.397 146.533 540.13 145.6C541.863 144.64 543.823 144.16 546.01 144.16C548.117 144.16 550.01 144.613 551.69 145.52C553.397 146.4 554.743 147.68 555.73 149.36C556.717 151.013 557.21 153 557.21 155.32C557.21 155.56 557.197 155.84 557.17 156.16C557.143 156.453 557.117 156.733 557.09 157H539.61V153.36H553.81L551.41 154.44C551.41 153.32 551.183 152.347 550.73 151.52C550.277 150.693 549.65 150.053 548.85 149.6C548.05 149.12 547.117 148.88 546.05 148.88C544.983 148.88 544.037 149.12 543.21 149.6C542.41 150.053 541.783 150.707 541.33 151.56C540.877 152.387 540.65 153.373 540.65 154.52V155.48C540.65 156.653 540.903 157.693 541.41 158.6C541.943 159.48 542.677 160.16 543.61 160.64C544.57 161.093 545.69 161.32 546.97 161.32C548.117 161.32 549.117 161.147 549.97 160.8C550.85 160.453 551.65 159.933 552.37 159.24L555.69 162.84C554.703 163.96 553.463 164.827 551.97 165.44C550.477 166.027 548.757 166.32 546.81 166.32ZM542.25 141.72L547.65 135.96H554.37L547.13 141.72H542.25ZM559.689 166V162.24L572.409 147.2L573.489 149.28H559.969V144.48H578.529V148.24L565.809 163.28L564.689 161.2H578.889V166H559.689ZM593.294 166.32C590.841 166.32 588.681 165.84 586.814 164.88C584.974 163.92 583.548 162.613 582.534 160.96C581.521 159.28 581.014 157.373 581.014 155.24C581.014 153.08 581.508 151.173 582.494 149.52C583.508 147.84 584.881 146.533 586.614 145.6C588.348 144.64 590.308 144.16 592.494 144.16C594.601 144.16 596.494 144.613 598.174 145.52C599.881 146.4 601.228 147.68 602.214 149.36C603.201 151.013 603.694 153 603.694 155.32C603.694 155.56 603.681 155.84 603.654 156.16C603.628 156.453 603.601 156.733 603.574 157H586.094V153.36H600.294L597.894 154.44C597.894 153.32 597.668 152.347 597.214 151.52C596.761 150.693 596.134 150.053 595.334 149.6C594.534 149.12 593.601 148.88 592.534 148.88C591.468 148.88 590.521 149.12 589.694 149.6C588.894 150.053 588.268 150.707 587.814 151.56C587.361 152.387 587.134 153.373 587.134 154.52V155.48C587.134 156.653 587.388 157.693 587.894 158.6C588.428 159.48 589.161 160.16 590.094 160.64C591.054 161.093 592.174 161.32 593.454 161.32C594.601 161.32 595.601 161.147 596.454 160.8C597.334 160.453 598.134 159.933 598.854 159.24L602.174 162.84C601.188 163.96 599.948 164.827 598.454 165.44C596.961 166.027 595.241 166.32 593.294 166.32ZM616.649 166.32C614.115 166.32 612.142 165.68 610.729 164.4C609.315 163.093 608.609 161.16 608.609 158.6V139.72H614.849V158.52C614.849 159.427 615.089 160.133 615.569 160.64C616.049 161.12 616.702 161.36 617.529 161.36C618.515 161.36 619.355 161.093 620.049 160.56L621.729 164.96C621.089 165.413 620.315 165.76 619.409 166C618.529 166.213 617.609 166.32 616.649 166.32ZM605.289 149.76V144.96H620.209V149.76H605.289Z" fill="black"/>
<path d="M150.022 208.39H161.122V210.28H150.022V208.39ZM150.262 218.08H162.892V220H148.042V199H162.442V200.92H150.262V218.08ZM174.146 225.97C172.706 225.97 171.326 225.76 170.006 225.34C168.686 224.92 167.616 224.32 166.796 223.54L167.876 221.92C168.616 222.58 169.526 223.1 170.606 223.48C171.706 223.88 172.866 224.08 174.086 224.08C176.086 224.08 177.556 223.61 178.496 222.67C179.436 221.75 179.906 220.31 179.906 218.35V214.42L180.206 211.72L179.996 209.02V204.25H182.036V218.08C182.036 220.8 181.366 222.79 180.026 224.05C178.706 225.33 176.746 225.97 174.146 225.97ZM173.756 219.4C172.256 219.4 170.906 219.08 169.706 218.44C168.506 217.78 167.556 216.87 166.856 215.71C166.176 214.55 165.836 213.22 165.836 211.72C165.836 210.22 166.176 208.9 166.856 207.76C167.556 206.6 168.506 205.7 169.706 205.06C170.906 204.42 172.256 204.1 173.756 204.1C175.156 204.1 176.416 204.39 177.536 204.97C178.656 205.55 179.546 206.41 180.206 207.55C180.866 208.69 181.196 210.08 181.196 211.72C181.196 213.36 180.866 214.75 180.206 215.89C179.546 217.03 178.656 217.9 177.536 218.5C176.416 219.1 175.156 219.4 173.756 219.4ZM173.966 217.51C175.126 217.51 176.156 217.27 177.056 216.79C177.956 216.29 178.666 215.61 179.186 214.75C179.706 213.87 179.966 212.86 179.966 211.72C179.966 210.58 179.706 209.58 179.186 208.72C178.666 207.86 177.956 207.19 177.056 206.71C176.156 206.21 175.126 205.96 173.966 205.96C172.826 205.96 171.796 206.21 170.876 206.71C169.976 207.19 169.266 207.86 168.746 208.72C168.246 209.58 167.996 210.58 167.996 211.72C167.996 212.86 168.246 213.87 168.746 214.75C169.266 215.61 169.976 216.29 170.876 216.79C171.796 217.27 172.826 217.51 173.966 217.51ZM188.083 225.97C187.343 225.97 186.633 225.85 185.953 225.61C185.293 225.37 184.723 225.01 184.243 224.53L185.233 222.94C185.633 223.32 186.063 223.61 186.523 223.81C187.003 224.03 187.533 224.14 188.113 224.14C188.813 224.14 189.413 223.94 189.913 223.54C190.433 223.16 190.923 222.48 191.383 221.5L192.403 219.19L192.643 218.86L199.123 204.25H201.223L193.333 221.89C192.893 222.91 192.403 223.72 191.863 224.32C191.343 224.92 190.773 225.34 190.153 225.58C189.533 225.84 188.843 225.97 188.083 225.97ZM192.283 220.45L185.023 204.25H187.243L193.663 218.71L192.283 220.45ZM218.494 220.15C216.974 220.15 215.604 219.81 214.384 219.13C213.184 218.43 212.234 217.48 211.534 216.28C210.834 215.06 210.484 213.67 210.484 212.11C210.484 210.53 210.834 209.14 211.534 207.94C212.234 206.74 213.184 205.8 214.384 205.12C215.584 204.44 216.954 204.1 218.494 204.1C220.054 204.1 221.434 204.44 222.634 205.12C223.854 205.8 224.804 206.74 225.484 207.94C226.184 209.14 226.534 210.53 226.534 212.11C226.534 213.67 226.184 215.06 225.484 216.28C224.804 217.48 223.854 218.43 222.634 219.13C221.414 219.81 220.034 220.15 218.494 220.15ZM218.494 218.26C219.634 218.26 220.644 218.01 221.524 217.51C222.404 216.99 223.094 216.27 223.594 215.35C224.114 214.41 224.374 213.33 224.374 212.11C224.374 210.87 224.114 209.79 223.594 208.87C223.094 207.95 222.404 207.24 221.524 206.74C220.644 206.22 219.644 205.96 218.524 205.96C217.404 205.96 216.404 206.22 215.524 206.74C214.644 207.24 213.944 207.95 213.424 208.87C212.904 209.79 212.644 210.87 212.644 212.11C212.644 213.33 212.904 214.41 213.424 215.35C213.944 216.27 214.644 216.99 215.524 217.51C216.404 218.01 217.394 218.26 218.494 218.26ZM216.544 201.79L220.654 198.07H223.504L218.644 201.79H216.544ZM230.883 220V204.25H232.923V208.54L232.713 207.79C233.153 206.59 233.893 205.68 234.933 205.06C235.973 204.42 237.263 204.1 238.803 204.1V206.17C238.723 206.17 238.643 206.17 238.563 206.17C238.483 206.15 238.403 206.14 238.323 206.14C236.663 206.14 235.363 206.65 234.423 207.67C233.483 208.67 233.013 210.1 233.013 211.96V220H230.883ZM251.388 220V216.52L251.298 215.95V210.13C251.298 208.79 250.918 207.76 250.158 207.04C249.418 206.32 248.308 205.96 246.828 205.96C245.808 205.96 244.838 206.13 243.918 206.47C242.998 206.81 242.218 207.26 241.578 207.82L240.618 206.23C241.418 205.55 242.378 205.03 243.498 204.67C244.618 204.29 245.798 204.1 247.038 204.1C249.078 204.1 250.648 204.61 251.748 205.63C252.868 206.63 253.428 208.16 253.428 210.22V220H251.388ZM245.958 220.15C244.778 220.15 243.748 219.96 242.868 219.58C242.008 219.18 241.348 218.64 240.888 217.96C240.428 217.26 240.198 216.46 240.198 215.56C240.198 214.74 240.388 214 240.768 213.34C241.168 212.66 241.808 212.12 242.688 211.72C243.588 211.3 244.788 211.09 246.288 211.09H251.718V212.68H246.348C244.828 212.68 243.768 212.95 243.168 213.49C242.588 214.03 242.298 214.7 242.298 215.5C242.298 216.4 242.648 217.12 243.348 217.66C244.048 218.2 245.028 218.47 246.288 218.47C247.488 218.47 248.518 218.2 249.378 217.66C250.258 217.1 250.898 216.3 251.298 215.26L251.778 216.73C251.378 217.77 250.678 218.6 249.678 219.22C248.698 219.84 247.458 220.15 245.958 220.15ZM259.213 220V204.25H261.253V208.54L261.043 207.79C261.483 206.59 262.223 205.68 263.263 205.06C264.303 204.42 265.593 204.1 267.133 204.1V206.17C267.053 206.17 266.973 206.17 266.893 206.17C266.813 206.15 266.733 206.14 266.653 206.14C264.993 206.14 263.693 206.65 262.753 207.67C261.813 208.67 261.343 210.1 261.343 211.96V220H259.213ZM277.563 220.15C275.923 220.15 274.483 219.81 273.243 219.13C272.003 218.43 271.033 217.48 270.333 216.28C269.633 215.06 269.283 213.67 269.283 212.11C269.283 210.55 269.613 209.17 270.273 207.97C270.953 206.77 271.873 205.83 273.033 205.15C274.213 204.45 275.533 204.1 276.993 204.1C278.473 204.1 279.783 204.44 280.923 205.12C282.083 205.78 282.993 206.72 283.653 207.94C284.313 209.14 284.643 210.53 284.643 212.11C284.643 212.21 284.633 212.32 284.613 212.44C284.613 212.54 284.613 212.65 284.613 212.77H270.903V211.18H283.473L282.633 211.81C282.633 210.67 282.383 209.66 281.883 208.78C281.403 207.88 280.743 207.18 279.903 206.68C279.063 206.18 278.093 205.93 276.993 205.93C275.913 205.93 274.943 206.18 274.083 206.68C273.223 207.18 272.553 207.88 272.073 208.78C271.593 209.68 271.353 210.71 271.353 211.87V212.2C271.353 213.4 271.613 214.46 272.133 215.38C272.673 216.28 273.413 216.99 274.353 217.51C275.313 218.01 276.403 218.26 277.623 218.26C278.583 218.26 279.473 218.09 280.293 217.75C281.133 217.41 281.853 216.89 282.453 216.19L283.653 217.57C282.953 218.41 282.073 219.05 281.013 219.49C279.973 219.93 278.823 220.15 277.563 220.15ZM297.019 204.1C298.299 204.1 299.419 204.35 300.379 204.85C301.359 205.33 302.119 206.07 302.659 207.07C303.219 208.07 303.499 209.33 303.499 210.85V220H301.369V211.06C301.369 209.4 300.949 208.15 300.109 207.31C299.289 206.45 298.129 206.02 296.629 206.02C295.509 206.02 294.529 206.25 293.689 206.71C292.869 207.15 292.229 207.8 291.769 208.66C291.329 209.5 291.109 210.52 291.109 211.72V220H288.979V204.25H291.019V208.57L290.689 207.76C291.189 206.62 291.989 205.73 293.089 205.09C294.189 204.43 295.499 204.1 297.019 204.1ZM315.522 220.15C314.022 220.15 312.672 219.81 311.472 219.13C310.292 218.45 309.362 217.51 308.682 216.31C308.002 215.09 307.662 213.69 307.662 212.11C307.662 210.51 308.002 209.11 308.682 207.91C309.362 206.71 310.292 205.78 311.472 205.12C312.672 204.44 314.022 204.1 315.522 204.1C316.902 204.1 318.132 204.41 319.212 205.03C320.312 205.65 321.182 206.56 321.822 207.76C322.482 208.94 322.812 210.39 322.812 212.11C322.812 213.81 322.492 215.26 321.852 216.46C321.212 217.66 320.342 218.58 319.242 219.22C318.162 219.84 316.922 220.15 315.522 220.15ZM315.672 218.26C316.792 218.26 317.792 218.01 318.672 217.51C319.572 216.99 320.272 216.27 320.772 215.35C321.292 214.41 321.552 213.33 321.552 212.11C321.552 210.87 321.292 209.79 320.772 208.87C320.272 207.95 319.572 207.24 318.672 206.74C317.792 206.22 316.792 205.96 315.672 205.96C314.572 205.96 313.582 206.22 312.702 206.74C311.822 207.24 311.122 207.95 310.602 208.87C310.082 209.79 309.822 210.87 309.822 212.11C309.822 213.33 310.082 214.41 310.602 215.35C311.122 216.27 311.822 216.99 312.702 217.51C313.582 218.01 314.572 218.26 315.672 218.26ZM321.612 220V215.26L321.822 212.08L321.522 208.9V197.74H323.652V220H321.612ZM328.294 224.38L329.614 218.83L329.854 220.12C329.394 220.12 329.004 219.97 328.684 219.67C328.384 219.37 328.234 218.98 328.234 218.5C328.234 218.02 328.384 217.63 328.684 217.33C329.004 217.03 329.384 216.88 329.824 216.88C330.284 216.88 330.654 217.04 330.934 217.36C331.234 217.68 331.384 218.06 331.384 218.5C331.384 218.66 331.374 218.82 331.354 218.98C331.334 219.14 331.294 219.32 331.234 219.52C331.174 219.72 331.094 219.96 330.994 220.24L329.734 224.38H328.294ZM353.663 220V216.52L353.573 215.95V210.13C353.573 208.79 353.193 207.76 352.433 207.04C351.693 206.32 350.583 205.96 349.103 205.96C348.083 205.96 347.113 206.13 346.193 206.47C345.273 206.81 344.493 207.26 343.853 207.82L342.893 206.23C343.693 205.55 344.653 205.03 345.773 204.67C346.893 204.29 348.073 204.1 349.313 204.1C351.353 204.1 352.923 204.61 354.023 205.63C355.143 206.63 355.703 208.16 355.703 210.22V220H353.663ZM348.233 220.15C347.053 220.15 346.023 219.96 345.143 219.58C344.283 219.18 343.623 218.64 343.163 217.96C342.703 217.26 342.473 216.46 342.473 215.56C342.473 214.74 342.663 214 343.043 213.34C343.443 212.66 344.083 212.12 344.963 211.72C345.863 211.3 347.063 211.09 348.563 211.09H353.993V212.68H348.623C347.103 212.68 346.043 212.95 345.443 213.49C344.863 214.03 344.573 214.7 344.573 215.5C344.573 216.4 344.923 217.12 345.623 217.66C346.323 218.2 347.303 218.47 348.563 218.47C349.763 218.47 350.793 218.2 351.653 217.66C352.533 217.1 353.173 216.3 353.573 215.26L354.053 216.73C353.653 217.77 352.953 218.6 351.953 219.22C350.973 219.84 349.733 220.15 348.233 220.15ZM381.169 204.1C382.449 204.1 383.559 204.35 384.499 204.85C385.459 205.33 386.199 206.07 386.719 207.07C387.259 208.07 387.529 209.33 387.529 210.85V220H385.399V211.06C385.399 209.4 384.999 208.15 384.199 207.31C383.419 206.45 382.309 206.02 380.869 206.02C379.789 206.02 378.849 206.25 378.049 206.71C377.269 207.15 376.659 207.8 376.219 208.66C375.799 209.5 375.589 210.52 375.589 211.72V220H373.459V211.06C373.459 209.4 373.059 208.15 372.259 207.31C371.459 206.45 370.339 206.02 368.899 206.02C367.839 206.02 366.909 206.25 366.109 206.71C365.309 207.15 364.689 207.8 364.249 208.66C363.829 209.5 363.619 210.52 363.619 211.72V220H361.489V204.25H363.529V208.51L363.199 207.76C363.679 206.62 364.449 205.73 365.509 205.09C366.589 204.43 367.859 204.1 369.319 204.1C370.859 204.1 372.169 204.49 373.249 205.27C374.329 206.03 375.029 207.18 375.349 208.72L374.509 208.39C374.969 207.11 375.779 206.08 376.939 205.3C378.119 204.5 379.529 204.1 381.169 204.1ZM393.305 220V204.25H395.435V220H393.305ZM394.385 200.77C393.945 200.77 393.575 200.62 393.275 200.32C392.975 200.02 392.825 199.66 392.825 199.24C392.825 198.82 392.975 198.47 393.275 198.19C393.575 197.89 393.945 197.74 394.385 197.74C394.825 197.74 395.195 197.88 395.495 198.16C395.795 198.44 395.945 198.79 395.945 199.21C395.945 199.65 395.795 200.02 395.495 200.32C395.215 200.62 394.845 200.77 394.385 200.77ZM419.083 220V216.52L418.993 215.95V210.13C418.993 208.79 418.613 207.76 417.853 207.04C417.113 206.32 416.003 205.96 414.523 205.96C413.503 205.96 412.533 206.13 411.613 206.47C410.693 206.81 409.913 207.26 409.273 207.82L408.313 206.23C409.113 205.55 410.073 205.03 411.193 204.67C412.313 204.29 413.493 204.1 414.733 204.1C416.773 204.1 418.343 204.61 419.443 205.63C420.563 206.63 421.123 208.16 421.123 210.22V220H419.083ZM413.653 220.15C412.473 220.15 411.443 219.96 410.563 219.58C409.703 219.18 409.043 218.64 408.583 217.96C408.123 217.26 407.893 216.46 407.893 215.56C407.893 214.74 408.083 214 408.463 213.34C408.863 212.66 409.503 212.12 410.383 211.72C411.283 211.3 412.483 211.09 413.983 211.09H419.413V212.68H414.043C412.523 212.68 411.463 212.95 410.863 213.49C410.283 214.03 409.993 214.7 409.993 215.5C409.993 216.4 410.343 217.12 411.043 217.66C411.743 218.2 412.723 218.47 413.983 218.47C415.183 218.47 416.213 218.2 417.073 217.66C417.953 217.1 418.593 216.3 418.993 215.26L419.473 216.73C419.073 217.77 418.373 218.6 417.373 219.22C416.393 219.84 415.153 220.15 413.653 220.15ZM439.74 220.15C438.26 220.15 437.12 219.75 436.32 218.95C435.52 218.15 435.12 217.02 435.12 215.56V200.77H437.25V215.44C437.25 216.36 437.48 217.07 437.94 217.57C438.42 218.07 439.1 218.32 439.98 218.32C440.92 218.32 441.7 218.05 442.32 217.51L443.07 219.04C442.65 219.42 442.14 219.7 441.54 219.88C440.96 220.06 440.36 220.15 439.74 220.15ZM432.3 206.02V204.25H442.05V206.02H432.3ZM453.081 220.15C451.441 220.15 450.001 219.81 448.761 219.13C447.521 218.43 446.551 217.48 445.851 216.28C445.151 215.06 444.801 213.67 444.801 212.11C444.801 210.55 445.131 209.17 445.791 207.97C446.471 206.77 447.391 205.83 448.551 205.15C449.731 204.45 451.051 204.1 452.511 204.1C453.991 204.1 455.301 204.44 456.441 205.12C457.601 205.78 458.511 206.72 459.171 207.94C459.831 209.14 460.161 210.53 460.161 212.11C460.161 212.21 460.151 212.32 460.131 212.44C460.131 212.54 460.131 212.65 460.131 212.77H446.421V211.18H458.991L458.151 211.81C458.151 210.67 457.901 209.66 457.401 208.78C456.921 207.88 456.261 207.18 455.421 206.68C454.581 206.18 453.611 205.93 452.511 205.93C451.431 205.93 450.461 206.18 449.601 206.68C448.741 207.18 448.071 207.88 447.591 208.78C447.111 209.68 446.871 210.71 446.871 211.87V212.2C446.871 213.4 447.131 214.46 447.651 215.38C448.191 216.28 448.931 216.99 449.871 217.51C450.831 218.01 451.921 218.26 453.141 218.26C454.101 218.26 454.991 218.09 455.811 217.75C456.651 217.41 457.371 216.89 457.971 216.19L459.171 217.57C458.471 218.41 457.591 219.05 456.531 219.49C455.491 219.93 454.341 220.15 453.081 220.15ZM464.496 220V197.74H466.626V220H464.496ZM470.213 225.97C469.573 225.97 468.963 225.88 468.383 225.7C467.783 225.54 467.283 225.29 466.883 224.95L467.633 223.33C468.273 223.87 469.093 224.14 470.093 224.14C470.933 224.14 471.573 223.89 472.013 223.39C472.473 222.89 472.703 222.15 472.703 221.17V204.25H474.833V221.17C474.833 222.63 474.433 223.79 473.633 224.65C472.853 225.53 471.713 225.97 470.213 225.97ZM473.783 200.77C473.343 200.77 472.973 200.62 472.673 200.32C472.373 200.02 472.223 199.66 472.223 199.24C472.223 198.82 472.373 198.47 472.673 198.19C472.973 197.89 473.343 197.74 473.783 197.74C474.223 197.74 474.593 197.88 474.893 198.16C475.193 198.44 475.343 198.79 475.343 199.21C475.343 199.65 475.193 200.02 474.893 200.32C474.613 200.62 474.243 200.77 473.783 200.77ZM487.475 220.15C485.835 220.15 484.395 219.81 483.155 219.13C481.915 218.43 480.945 217.48 480.245 216.28C479.545 215.06 479.195 213.67 479.195 212.11C479.195 210.55 479.525 209.17 480.185 207.97C480.865 206.77 481.785 205.83 482.945 205.15C484.125 204.45 485.445 204.1 486.905 204.1C488.385 204.1 489.695 204.44 490.835 205.12C491.995 205.78 492.905 206.72 493.565 207.94C494.225 209.14 494.555 210.53 494.555 212.11C494.555 212.21 494.545 212.32 494.525 212.44C494.525 212.54 494.525 212.65 494.525 212.77H480.815V211.18H493.385L492.545 211.81C492.545 210.67 492.295 209.66 491.795 208.78C491.315 207.88 490.655 207.18 489.815 206.68C488.975 206.18 488.005 205.93 486.905 205.93C485.825 205.93 484.855 206.18 483.995 206.68C483.135 207.18 482.465 207.88 481.985 208.78C481.505 209.68 481.265 210.71 481.265 211.87V212.2C481.265 213.4 481.525 214.46 482.045 215.38C482.585 216.28 483.325 216.99 484.265 217.51C485.225 218.01 486.315 218.26 487.535 218.26C488.495 218.26 489.385 218.09 490.205 217.75C491.045 217.41 491.765 216.89 492.365 216.19L493.565 217.57C492.865 218.41 491.985 219.05 490.925 219.49C489.885 219.93 488.735 220.15 487.475 220.15ZM503.121 220.15C501.821 220.15 500.591 219.97 499.431 219.61C498.271 219.23 497.361 218.76 496.701 218.2L497.661 216.52C498.301 217 499.121 217.42 500.121 217.78C501.121 218.12 502.171 218.29 503.271 218.29C504.771 218.29 505.851 218.06 506.511 217.6C507.171 217.12 507.501 216.49 507.501 215.71C507.501 215.13 507.311 214.68 506.931 214.36C506.571 214.02 506.091 213.77 505.491 213.61C504.891 213.43 504.221 213.28 503.481 213.16C502.741 213.04 502.001 212.9 501.261 212.74C500.541 212.58 499.881 212.35 499.281 212.05C498.681 211.73 498.191 211.3 497.811 210.76C497.451 210.22 497.271 209.5 497.271 208.6C497.271 207.74 497.511 206.97 497.991 206.29C498.471 205.61 499.171 205.08 500.091 204.7C501.031 204.3 502.171 204.1 503.511 204.1C504.531 204.1 505.551 204.24 506.571 204.52C507.591 204.78 508.431 205.13 509.091 205.57L508.161 207.28C507.461 206.8 506.711 206.46 505.911 206.26C505.111 206.04 504.311 205.93 503.511 205.93C502.091 205.93 501.041 206.18 500.361 206.68C499.701 207.16 499.371 207.78 499.371 208.54C499.371 209.14 499.551 209.61 499.911 209.95C500.291 210.29 500.781 210.56 501.381 210.76C502.001 210.94 502.671 211.09 503.391 211.21C504.131 211.33 504.861 211.48 505.581 211.66C506.321 211.82 506.991 212.05 507.591 212.35C508.211 212.63 508.701 213.04 509.061 213.58C509.441 214.1 509.631 214.79 509.631 215.65C509.631 216.57 509.371 217.37 508.851 218.05C508.351 218.71 507.611 219.23 506.631 219.61C505.671 219.97 504.501 220.15 503.121 220.15ZM523.071 215.92L523.131 213.19L532.941 204.25H535.551L528.621 210.88L527.421 211.9L523.071 215.92ZM521.391 220V197.74H523.521V220H521.391ZM533.601 220L527.031 211.81L528.411 210.16L536.211 220H533.601ZM545.454 220.15C543.814 220.15 542.374 219.81 541.134 219.13C539.894 218.43 538.924 217.48 538.224 216.28C537.524 215.06 537.174 213.67 537.174 212.11C537.174 210.55 537.504 209.17 538.164 207.97C538.844 206.77 539.764 205.83 540.924 205.15C542.104 204.45 543.424 204.1 544.884 204.1C546.364 204.1 547.674 204.44 548.814 205.12C549.974 205.78 550.884 206.72 551.544 207.94C552.204 209.14 552.534 210.53 552.534 212.11C552.534 212.21 552.524 212.32 552.504 212.44C552.504 212.54 552.504 212.65 552.504 212.77H538.794V211.18H551.364L550.524 211.81C550.524 210.67 550.274 209.66 549.774 208.78C549.294 207.88 548.634 207.18 547.794 206.68C546.954 206.18 545.984 205.93 544.884 205.93C543.804 205.93 542.834 206.18 541.974 206.68C541.114 207.18 540.444 207.88 539.964 208.78C539.484 209.68 539.244 210.71 539.244 211.87V212.2C539.244 213.4 539.504 214.46 540.024 215.38C540.564 216.28 541.304 216.99 542.244 217.51C543.204 218.01 544.294 218.26 545.514 218.26C546.474 218.26 547.364 218.09 548.184 217.75C549.024 217.41 549.744 216.89 550.344 216.19L551.544 217.57C550.844 218.41 549.964 219.05 548.904 219.49C547.864 219.93 546.714 220.15 545.454 220.15ZM542.904 201.79L547.014 198.07H549.864L545.004 201.79H542.904ZM564.999 220.15C563.639 220.15 562.409 219.84 561.309 219.22C560.209 218.58 559.329 217.67 558.669 216.49C558.029 215.29 557.709 213.83 557.709 212.11C557.709 210.39 558.029 208.94 558.669 207.76C559.309 206.56 560.179 205.65 561.279 205.03C562.379 204.41 563.619 204.1 564.999 204.1C566.499 204.1 567.839 204.44 569.019 205.12C570.219 205.78 571.159 206.72 571.839 207.94C572.519 209.14 572.859 210.53 572.859 212.11C572.859 213.71 572.519 215.11 571.839 216.31C571.159 217.51 570.219 218.45 569.019 219.13C567.839 219.81 566.499 220.15 564.999 220.15ZM556.869 225.82V204.25H558.909V208.99L558.699 212.14L558.999 215.32V225.82H556.869ZM564.849 218.26C565.969 218.26 566.969 218.01 567.849 217.51C568.729 216.99 569.429 216.27 569.949 215.35C570.469 214.41 570.729 213.33 570.729 212.11C570.729 210.89 570.469 209.82 569.949 208.9C569.429 207.98 568.729 207.26 567.849 206.74C566.969 206.22 565.969 205.96 564.849 205.96C563.729 205.96 562.719 206.22 561.819 206.74C560.939 207.26 560.239 207.98 559.719 208.9C559.219 209.82 558.969 210.89 558.969 212.11C558.969 213.33 559.219 214.41 559.719 215.35C560.239 216.27 560.939 216.99 561.819 217.51C562.719 218.01 563.729 218.26 564.849 218.26ZM583.891 220.15C582.251 220.15 580.811 219.81 579.571 219.13C578.331 218.43 577.361 217.48 576.661 216.28C575.961 215.06 575.611 213.67 575.611 212.11C575.611 210.55 575.941 209.17 576.601 207.97C577.281 206.77 578.201 205.83 579.361 205.15C580.541 204.45 581.861 204.1 583.321 204.1C584.801 204.1 586.111 204.44 587.251 205.12C588.411 205.78 589.321 206.72 589.981 207.94C590.641 209.14 590.971 210.53 590.971 212.11C590.971 212.21 590.961 212.32 590.941 212.44C590.941 212.54 590.941 212.65 590.941 212.77H577.231V211.18H589.801L588.961 211.81C588.961 210.67 588.711 209.66 588.211 208.78C587.731 207.88 587.071 207.18 586.231 206.68C585.391 206.18 584.421 205.93 583.321 205.93C582.241 205.93 581.271 206.18 580.411 206.68C579.551 207.18 578.881 207.88 578.401 208.78C577.921 209.68 577.681 210.71 577.681 211.87V212.2C577.681 213.4 577.941 214.46 578.461 215.38C579.001 216.28 579.741 216.99 580.681 217.51C581.641 218.01 582.731 218.26 583.951 218.26C584.911 218.26 585.801 218.09 586.621 217.75C587.461 217.41 588.181 216.89 588.781 216.19L589.981 217.57C589.281 218.41 588.401 219.05 587.341 219.49C586.301 219.93 585.151 220.15 583.891 220.15ZM595.307 220V204.25H597.347V208.54L597.137 207.79C597.577 206.59 598.317 205.68 599.357 205.06C600.397 204.42 601.687 204.1 603.227 204.1V206.17C603.147 206.17 603.067 206.17 602.987 206.17C602.907 206.15 602.827 206.14 602.747 206.14C601.087 206.14 599.787 206.65 598.847 207.67C597.907 208.67 597.437 210.1 597.437 211.96V220H595.307ZM615.154 204.1C616.434 204.1 617.554 204.35 618.514 204.85C619.494 205.33 620.254 206.07 620.794 207.07C621.354 208.07 621.634 209.33 621.634 210.85V220H619.504V211.06C619.504 209.4 619.084 208.15 618.244 207.31C617.424 206.45 616.264 206.02 614.764 206.02C613.644 206.02 612.664 206.25 611.824 206.71C611.004 207.15 610.364 207.8 609.904 208.66C609.464 209.5 609.244 210.52 609.244 211.72V220H607.114V204.25H609.154V208.57L608.824 207.76C609.324 206.62 610.124 205.73 611.224 205.09C612.324 204.43 613.634 204.1 615.154 204.1ZM627.214 225.97C626.474 225.97 625.764 225.85 625.084 225.61C624.424 225.37 623.854 225.01 623.374 224.53L624.364 222.94C624.764 223.32 625.194 223.61 625.654 223.81C626.134 224.03 626.664 224.14 627.244 224.14C627.944 224.14 628.544 223.94 629.044 223.54C629.564 223.16 630.054 222.48 630.514 221.5L631.534 219.19L631.774 218.86L638.254 204.25H640.354L632.464 221.89C632.024 222.91 631.534 223.72 630.994 224.32C630.474 224.92 629.904 225.34 629.284 225.58C628.664 225.84 627.974 225.97 627.214 225.97ZM631.414 220.45L624.154 204.25H626.374L632.794 218.71L631.414 220.45ZM649.334 220.15C647.814 220.15 646.444 219.81 645.224 219.13C644.024 218.43 643.074 217.48 642.374 216.28C641.674 215.06 641.324 213.67 641.324 212.11C641.324 210.53 641.674 209.14 642.374 207.94C643.074 206.74 644.024 205.8 645.224 205.12C646.424 204.44 647.794 204.1 649.334 204.1C650.894 204.1 652.274 204.44 653.474 205.12C654.694 205.8 655.644 206.74 656.324 207.94C657.024 209.14 657.374 210.53 657.374 212.11C657.374 213.67 657.024 215.06 656.324 216.28C655.644 217.48 654.694 218.43 653.474 219.13C652.254 219.81 650.874 220.15 649.334 220.15ZM649.334 218.26C650.474 218.26 651.484 218.01 652.364 217.51C653.244 216.99 653.934 216.27 654.434 215.35C654.954 214.41 655.214 213.33 655.214 212.11C655.214 210.87 654.954 209.79 654.434 208.87C653.934 207.95 653.244 207.24 652.364 206.74C651.484 206.22 650.484 205.96 649.364 205.96C648.244 205.96 647.244 206.22 646.364 206.74C645.484 207.24 644.784 207.95 644.264 208.87C643.744 209.79 643.484 210.87 643.484 212.11C643.484 213.33 643.744 214.41 644.264 215.35C644.784 216.27 645.484 216.99 646.364 217.51C647.244 218.01 648.234 218.26 649.334 218.26ZM650.834 201.79L653.714 198.07H656.084L652.724 201.79H650.834ZM645.944 201.79L648.854 198.07H651.224L647.834 201.79H645.944ZM667.993 220.15C666.493 220.15 665.143 219.81 663.943 219.13C662.763 218.45 661.833 217.51 661.153 216.31C660.473 215.09 660.133 213.69 660.133 212.11C660.133 210.51 660.473 209.11 661.153 207.91C661.833 206.71 662.763 205.78 663.943 205.12C665.143 204.44 666.493 204.1 667.993 204.1C669.373 204.1 670.603 204.41 671.683 205.03C672.783 205.65 673.653 206.56 674.293 207.76C674.953 208.94 675.283 210.39 675.283 212.11C675.283 213.81 674.963 215.26 674.323 216.46C673.683 217.66 672.813 218.58 671.713 219.22C670.633 219.84 669.393 220.15 667.993 220.15ZM668.143 218.26C669.263 218.26 670.263 218.01 671.143 217.51C672.043 216.99 672.743 216.27 673.243 215.35C673.763 214.41 674.023 213.33 674.023 212.11C674.023 210.87 673.763 209.79 673.243 208.87C672.743 207.95 672.043 207.24 671.143 206.74C670.263 206.22 669.263 205.96 668.143 205.96C667.043 205.96 666.053 206.22 665.173 206.74C664.293 207.24 663.593 207.95 663.073 208.87C662.553 209.79 662.293 210.87 662.293 212.11C662.293 213.33 662.553 214.41 663.073 215.35C663.593 216.27 664.293 216.99 665.173 217.51C666.053 218.01 667.043 218.26 668.143 218.26ZM674.083 220V215.26L674.293 212.08L673.993 208.9V197.74H676.123V220H674.083ZM688.745 220.15C687.105 220.15 685.665 219.81 684.425 219.13C683.185 218.43 682.215 217.48 681.515 216.28C680.815 215.06 680.465 213.67 680.465 212.11C680.465 210.55 680.795 209.17 681.455 207.97C682.135 206.77 683.055 205.83 684.215 205.15C685.395 204.45 686.715 204.1 688.175 204.1C689.655 204.1 690.965 204.44 692.105 205.12C693.265 205.78 694.175 206.72 694.835 207.94C695.495 209.14 695.825 210.53 695.825 212.11C695.825 212.21 695.815 212.32 695.795 212.44C695.795 212.54 695.795 212.65 695.795 212.77H682.085V211.18H694.655L693.815 211.81C693.815 210.67 693.565 209.66 693.065 208.78C692.585 207.88 691.925 207.18 691.085 206.68C690.245 206.18 689.275 205.93 688.175 205.93C687.095 205.93 686.125 206.18 685.265 206.68C684.405 207.18 683.735 207.88 683.255 208.78C682.775 209.68 682.535 210.71 682.535 211.87V212.2C682.535 213.4 682.795 214.46 683.315 215.38C683.855 216.28 684.595 216.99 685.535 217.51C686.495 218.01 687.585 218.26 688.805 218.26C689.765 218.26 690.655 218.09 691.475 217.75C692.315 217.41 693.035 216.89 693.635 216.19L694.835 217.57C694.135 218.41 693.255 219.05 692.195 219.49C691.155 219.93 690.005 220.15 688.745 220.15ZM705.14 220.15C703.66 220.15 702.52 219.75 701.72 218.95C700.92 218.15 700.52 217.02 700.52 215.56V200.77H702.65V215.44C702.65 216.36 702.88 217.07 703.34 217.57C703.82 218.07 704.5 218.32 705.38 218.32C706.32 218.32 707.1 218.05 707.72 217.51L708.47 219.04C708.05 219.42 707.54 219.7 706.94 219.88C706.36 220.06 705.76 220.15 705.14 220.15ZM697.7 206.02V204.25H707.45V206.02H697.7ZM148.642 252.92L148.702 250.19L158.512 241.25H161.122L154.192 247.88L152.992 248.9L148.642 252.92ZM146.962 257V234.74H149.092V257H146.962ZM159.172 257L152.602 248.81L153.982 247.16L161.782 257H159.172ZM164.98 257V241.25H167.11V257H164.98ZM166.06 237.77C165.62 237.77 165.25 237.62 164.95 237.32C164.65 237.02 164.5 236.66 164.5 236.24C164.5 235.82 164.65 235.47 164.95 235.19C165.25 234.89 165.62 234.74 166.06 234.74C166.5 234.74 166.87 234.88 167.17 235.16C167.47 235.44 167.62 235.79 167.62 236.21C167.62 236.65 167.47 237.02 167.17 237.32C166.89 237.62 166.52 237.77 166.06 237.77ZM181.076 241.1C182.356 241.1 183.476 241.35 184.436 241.85C185.416 242.33 186.176 243.07 186.716 244.07C187.276 245.07 187.556 246.33 187.556 247.85V257H185.426V248.06C185.426 246.4 185.006 245.15 184.166 244.31C183.346 243.45 182.186 243.02 180.686 243.02C179.566 243.02 178.586 243.25 177.746 243.71C176.926 244.15 176.286 244.8 175.826 245.66C175.386 246.5 175.166 247.52 175.166 248.72V257H173.036V234.74H175.166V245.57L174.746 244.76C175.246 243.62 176.046 242.73 177.146 242.09C178.246 241.43 179.556 241.1 181.076 241.1ZM203.18 257V253.52L203.09 252.95V247.13C203.09 245.79 202.71 244.76 201.95 244.04C201.21 243.32 200.1 242.96 198.62 242.96C197.6 242.96 196.63 243.13 195.71 243.47C194.79 243.81 194.01 244.26 193.37 244.82L192.41 243.23C193.21 242.55 194.17 242.03 195.29 241.67C196.41 241.29 197.59 241.1 198.83 241.1C200.87 241.1 202.44 241.61 203.54 242.63C204.66 243.63 205.22 245.16 205.22 247.22V257H203.18ZM197.75 257.15C196.57 257.15 195.54 256.96 194.66 256.58C193.8 256.18 193.14 255.64 192.68 254.96C192.22 254.26 191.99 253.46 191.99 252.56C191.99 251.74 192.18 251 192.56 250.34C192.96 249.66 193.6 249.12 194.48 248.72C195.38 248.3 196.58 248.09 198.08 248.09H203.51V249.68H198.14C196.62 249.68 195.56 249.95 194.96 250.49C194.38 251.03 194.09 251.7 194.09 252.5C194.09 253.4 194.44 254.12 195.14 254.66C195.84 255.2 196.82 255.47 198.08 255.47C199.28 255.47 200.31 255.2 201.17 254.66C202.05 254.1 202.69 253.3 203.09 252.26L203.57 253.73C203.17 254.77 202.47 255.6 201.47 256.22C200.49 256.84 199.25 257.15 197.75 257.15ZM215.235 257.15C213.935 257.15 212.705 256.97 211.545 256.61C210.385 256.23 209.475 255.76 208.815 255.2L209.775 253.52C210.415 254 211.235 254.42 212.235 254.78C213.235 255.12 214.285 255.29 215.385 255.29C216.885 255.29 217.965 255.06 218.625 254.6C219.285 254.12 219.615 253.49 219.615 252.71C219.615 252.13 219.425 251.68 219.045 251.36C218.685 251.02 218.205 250.77 217.605 250.61C217.005 250.43 216.335 250.28 215.595 250.16C214.855 250.04 214.115 249.9 213.375 249.74C212.655 249.58 211.995 249.35 211.395 249.05C210.795 248.73 210.305 248.3 209.925 247.76C209.565 247.22 209.385 246.5 209.385 245.6C209.385 244.74 209.625 243.97 210.105 243.29C210.585 242.61 211.285 242.08 212.205 241.7C213.145 241.3 214.285 241.1 215.625 241.1C216.645 241.1 217.665 241.24 218.685 241.52C219.705 241.78 220.545 242.13 221.205 242.57L220.275 244.28C219.575 243.8 218.825 243.46 218.025 243.26C217.225 243.04 216.425 242.93 215.625 242.93C214.205 242.93 213.155 243.18 212.475 243.68C211.815 244.16 211.485 244.78 211.485 245.54C211.485 246.14 211.665 246.61 212.025 246.95C212.405 247.29 212.895 247.56 213.495 247.76C214.115 247.94 214.785 248.09 215.505 248.21C216.245 248.33 216.975 248.48 217.695 248.66C218.435 248.82 219.105 249.05 219.705 249.35C220.325 249.63 220.815 250.04 221.175 250.58C221.555 251.1 221.745 251.79 221.745 252.65C221.745 253.57 221.485 254.37 220.965 255.05C220.465 255.71 219.725 256.23 218.745 256.61C217.785 256.97 216.615 257.15 215.235 257.15ZM223.944 257V255.59L234.444 242.3L234.894 243.02H224.124V241.25H236.574V242.63L226.104 255.95L225.564 255.23H236.784V257H223.944ZM249.016 241.1C250.296 241.1 251.416 241.35 252.376 241.85C253.356 242.33 254.116 243.07 254.656 244.07C255.216 245.07 255.496 246.33 255.496 247.85V257H253.366V248.06C253.366 246.4 252.946 245.15 252.106 244.31C251.286 243.45 250.126 243.02 248.626 243.02C247.506 243.02 246.526 243.25 245.686 243.71C244.866 244.15 244.226 244.8 243.766 245.66C243.326 246.5 243.106 247.52 243.106 248.72V257H240.976V241.25H243.016V245.57L242.686 244.76C243.186 243.62 243.986 242.73 245.086 242.09C246.186 241.43 247.496 241.1 249.016 241.1ZM271.119 257V253.52L271.029 252.95V247.13C271.029 245.79 270.649 244.76 269.889 244.04C269.149 243.32 268.039 242.96 266.559 242.96C265.539 242.96 264.569 243.13 263.649 243.47C262.729 243.81 261.949 244.26 261.309 244.82L260.349 243.23C261.149 242.55 262.109 242.03 263.229 241.67C264.349 241.29 265.529 241.1 266.769 241.1C268.809 241.1 270.379 241.61 271.479 242.63C272.599 243.63 273.159 245.16 273.159 247.22V257H271.119ZM265.689 257.15C264.509 257.15 263.479 256.96 262.599 256.58C261.739 256.18 261.079 255.64 260.619 254.96C260.159 254.26 259.929 253.46 259.929 252.56C259.929 251.74 260.119 251 260.499 250.34C260.899 249.66 261.539 249.12 262.419 248.72C263.319 248.3 264.519 248.09 266.019 248.09H271.449V249.68H266.079C264.559 249.68 263.499 249.95 262.899 250.49C262.319 251.03 262.029 251.7 262.029 252.5C262.029 253.4 262.379 254.12 263.079 254.66C263.779 255.2 264.759 255.47 266.019 255.47C267.219 255.47 268.249 255.2 269.109 254.66C269.989 254.1 270.629 253.3 271.029 252.26L271.509 253.73C271.109 254.77 270.409 255.6 269.409 256.22C268.429 256.84 267.189 257.15 265.689 257.15ZM264.879 238.79L268.989 235.07H271.839L266.979 238.79H264.879ZM278.945 257V234.74H281.075V257H278.945ZM284.661 262.97C284.021 262.97 283.411 262.88 282.831 262.7C282.231 262.54 281.731 262.29 281.331 261.95L282.081 260.33C282.721 260.87 283.541 261.14 284.541 261.14C285.381 261.14 286.021 260.89 286.461 260.39C286.921 259.89 287.151 259.15 287.151 258.17V241.25H289.281V258.17C289.281 259.63 288.881 260.79 288.081 261.65C287.301 262.53 286.161 262.97 284.661 262.97ZM288.231 237.77C287.791 237.77 287.421 237.62 287.121 237.32C286.821 237.02 286.671 236.66 286.671 236.24C286.671 235.82 286.821 235.47 287.121 235.19C287.421 234.89 287.791 234.74 288.231 234.74C288.671 234.74 289.041 234.88 289.341 235.16C289.641 235.44 289.791 235.79 289.791 236.21C289.791 236.65 289.641 237.02 289.341 237.32C289.061 237.62 288.691 237.77 288.231 237.77ZM305.104 257V253.52L305.014 252.95V247.13C305.014 245.79 304.634 244.76 303.874 244.04C303.134 243.32 302.024 242.96 300.544 242.96C299.524 242.96 298.554 243.13 297.634 243.47C296.714 243.81 295.934 244.26 295.294 244.82L294.334 243.23C295.134 242.55 296.094 242.03 297.214 241.67C298.334 241.29 299.514 241.1 300.754 241.1C302.794 241.1 304.364 241.61 305.464 242.63C306.584 243.63 307.144 245.16 307.144 247.22V257H305.104ZM299.674 257.15C298.494 257.15 297.464 256.96 296.584 256.58C295.724 256.18 295.064 255.64 294.604 254.96C294.144 254.26 293.914 253.46 293.914 252.56C293.914 251.74 294.104 251 294.484 250.34C294.884 249.66 295.524 249.12 296.404 248.72C297.304 248.3 298.504 248.09 300.004 248.09H305.434V249.68H300.064C298.544 249.68 297.484 249.95 296.884 250.49C296.304 251.03 296.014 251.7 296.014 252.5C296.014 253.4 296.364 254.12 297.064 254.66C297.764 255.2 298.744 255.47 300.004 255.47C301.204 255.47 302.234 255.2 303.094 254.66C303.974 254.1 304.614 253.3 305.014 252.26L305.494 253.73C305.094 254.77 304.394 255.6 303.394 256.22C302.414 256.84 301.174 257.15 299.674 257.15ZM311.639 261.38L312.959 255.83L313.199 257.12C312.739 257.12 312.349 256.97 312.029 256.67C311.729 256.37 311.579 255.98 311.579 255.5C311.579 255.02 311.729 254.63 312.029 254.33C312.349 254.03 312.729 253.88 313.169 253.88C313.629 253.88 313.999 254.04 314.279 254.36C314.579 254.68 314.729 255.06 314.729 255.5C314.729 255.66 314.719 255.82 314.699 255.98C314.679 256.14 314.639 256.32 314.579 256.52C314.519 256.72 314.439 256.96 314.339 257.24L313.079 261.38H311.639ZM333.678 257.15C332.118 257.15 330.718 256.81 329.478 256.13C328.258 255.43 327.298 254.48 326.598 253.28C325.898 252.06 325.548 250.67 325.548 249.11C325.548 247.53 325.898 246.14 326.598 244.94C327.298 243.74 328.258 242.8 329.478 242.12C330.718 241.44 332.118 241.1 333.678 241.1C335.018 241.1 336.228 241.36 337.308 241.88C338.388 242.4 339.238 243.18 339.858 244.22L338.268 245.3C337.728 244.5 337.058 243.91 336.258 243.53C335.458 243.15 334.588 242.96 333.648 242.96C332.528 242.96 331.518 243.22 330.618 243.74C329.718 244.24 329.008 244.95 328.488 245.87C327.968 246.79 327.708 247.87 327.708 249.11C327.708 250.35 327.968 251.43 328.488 252.35C329.008 253.27 329.718 253.99 330.618 254.51C331.518 255.01 332.528 255.26 333.648 255.26C334.588 255.26 335.458 255.07 336.258 254.69C337.058 254.31 337.728 253.73 338.268 252.95L339.858 254.03C339.238 255.05 338.388 255.83 337.308 256.37C336.228 256.89 335.018 257.15 333.678 257.15ZM348.272 257.15C346.972 257.15 345.742 256.97 344.582 256.61C343.422 256.23 342.512 255.76 341.852 255.2L342.812 253.52C343.452 254 344.272 254.42 345.272 254.78C346.272 255.12 347.322 255.29 348.422 255.29C349.922 255.29 351.002 255.06 351.662 254.6C352.322 254.12 352.652 253.49 352.652 252.71C352.652 252.13 352.462 251.68 352.082 251.36C351.722 251.02 351.242 250.77 350.642 250.61C350.042 250.43 349.372 250.28 348.632 250.16C347.892 250.04 347.152 249.9 346.412 249.74C345.692 249.58 345.032 249.35 344.432 249.05C343.832 248.73 343.342 248.3 342.962 247.76C342.602 247.22 342.422 246.5 342.422 245.6C342.422 244.74 342.662 243.97 343.142 243.29C343.622 242.61 344.322 242.08 345.242 241.7C346.182 241.3 347.322 241.1 348.662 241.1C349.682 241.1 350.702 241.24 351.722 241.52C352.742 241.78 353.582 242.13 354.242 242.57L353.312 244.28C352.612 243.8 351.862 243.46 351.062 243.26C350.262 243.04 349.462 242.93 348.662 242.93C347.242 242.93 346.192 243.18 345.512 243.68C344.852 244.16 344.522 244.78 344.522 245.54C344.522 246.14 344.702 246.61 345.062 246.95C345.442 247.29 345.932 247.56 346.532 247.76C347.152 247.94 347.822 248.09 348.542 248.21C349.282 248.33 350.012 248.48 350.732 248.66C351.472 248.82 352.142 249.05 352.742 249.35C353.362 249.63 353.852 250.04 354.212 250.58C354.592 251.1 354.782 251.79 354.782 252.65C354.782 253.57 354.522 254.37 354.002 255.05C353.502 255.71 352.762 256.23 351.782 256.61C350.822 256.97 349.652 257.15 348.272 257.15ZM368.561 257V253.52L368.471 252.95V247.13C368.471 245.79 368.091 244.76 367.331 244.04C366.591 243.32 365.481 242.96 364.001 242.96C362.981 242.96 362.011 243.13 361.091 243.47C360.171 243.81 359.391 244.26 358.751 244.82L357.791 243.23C358.591 242.55 359.551 242.03 360.671 241.67C361.791 241.29 362.971 241.1 364.211 241.1C366.251 241.1 367.821 241.61 368.921 242.63C370.041 243.63 370.601 245.16 370.601 247.22V257H368.561ZM363.131 257.15C361.951 257.15 360.921 256.96 360.041 256.58C359.181 256.18 358.521 255.64 358.061 254.96C357.601 254.26 357.371 253.46 357.371 252.56C357.371 251.74 357.561 251 357.941 250.34C358.341 249.66 358.981 249.12 359.861 248.72C360.761 248.3 361.961 248.09 363.461 248.09H368.891V249.68H363.521C362.001 249.68 360.941 249.95 360.341 250.49C359.761 251.03 359.471 251.7 359.471 252.5C359.471 253.4 359.821 254.12 360.521 254.66C361.221 255.2 362.201 255.47 363.461 255.47C364.661 255.47 365.691 255.2 366.551 254.66C367.431 254.1 368.071 253.3 368.471 252.26L368.951 253.73C368.551 254.77 367.851 255.6 366.851 256.22C365.871 256.84 364.631 257.15 363.131 257.15ZM378.066 252.92L378.126 250.19L387.936 241.25H390.546L383.616 247.88L382.416 248.9L378.066 252.92ZM376.386 257V234.74H378.516V257H376.386ZM388.596 257L382.026 248.81L383.406 247.16L391.206 257H388.596ZM410.295 241.1C411.575 241.1 412.695 241.35 413.655 241.85C414.635 242.33 415.395 243.07 415.935 244.07C416.495 245.07 416.775 246.33 416.775 247.85V257H414.645V248.06C414.645 246.4 414.225 245.15 413.385 244.31C412.565 243.45 411.405 243.02 409.905 243.02C408.785 243.02 407.805 243.25 406.965 243.71C406.145 244.15 405.505 244.8 405.045 245.66C404.605 246.5 404.385 247.52 404.385 248.72V257H402.255V241.25H404.295V245.57L403.965 244.76C404.465 243.62 405.265 242.73 406.365 242.09C407.465 241.43 408.775 241.1 410.295 241.1ZM429.219 257.15C427.579 257.15 426.139 256.81 424.899 256.13C423.659 255.43 422.689 254.48 421.989 253.28C421.289 252.06 420.939 250.67 420.939 249.11C420.939 247.55 421.269 246.17 421.929 244.97C422.609 243.77 423.529 242.83 424.689 242.15C425.869 241.45 427.189 241.1 428.649 241.1C430.129 241.1 431.439 241.44 432.579 242.12C433.739 242.78 434.649 243.72 435.309 244.94C435.969 246.14 436.299 247.53 436.299 249.11C436.299 249.21 436.289 249.32 436.269 249.44C436.269 249.54 436.269 249.65 436.269 249.77H422.559V248.18H435.129L434.289 248.81C434.289 247.67 434.039 246.66 433.539 245.78C433.059 244.88 432.399 244.18 431.559 243.68C430.719 243.18 429.749 242.93 428.649 242.93C427.569 242.93 426.599 243.18 425.739 243.68C424.879 244.18 424.209 244.88 423.729 245.78C423.249 246.68 423.009 247.71 423.009 248.87V249.2C423.009 250.4 423.269 251.46 423.789 252.38C424.329 253.28 425.069 253.99 426.009 254.51C426.969 255.01 428.059 255.26 429.279 255.26C430.239 255.26 431.129 255.09 431.949 254.75C432.789 254.41 433.509 253.89 434.109 253.19L435.309 254.57C434.609 255.41 433.729 256.05 432.669 256.49C431.629 256.93 430.479 257.15 429.219 257.15ZM460.314 241.1C461.594 241.1 462.704 241.35 463.644 241.85C464.604 242.33 465.344 243.07 465.864 244.07C466.404 245.07 466.674 246.33 466.674 247.85V257H464.544V248.06C464.544 246.4 464.144 245.15 463.344 244.31C462.564 243.45 461.454 243.02 460.014 243.02C458.934 243.02 457.994 243.25 457.194 243.71C456.414 244.15 455.804 244.8 455.364 245.66C454.944 246.5 454.734 247.52 454.734 248.72V257H452.604V248.06C452.604 246.4 452.204 245.15 451.404 244.31C450.604 243.45 449.484 243.02 448.044 243.02C446.984 243.02 446.054 243.25 445.254 243.71C444.454 244.15 443.834 244.8 443.394 245.66C442.974 246.5 442.764 247.52 442.764 248.72V257H440.634V241.25H442.674V245.51L442.344 244.76C442.824 243.62 443.594 242.73 444.654 242.09C445.734 241.43 447.004 241.1 448.464 241.1C450.004 241.1 451.314 241.49 452.394 242.27C453.474 243.03 454.174 244.18 454.494 245.72L453.654 245.39C454.114 244.11 454.924 243.08 456.084 242.3C457.264 241.5 458.674 241.1 460.314 241.1ZM486.722 257.15C485.202 257.15 483.832 256.81 482.612 256.13C481.412 255.43 480.462 254.48 479.762 253.28C479.062 252.06 478.712 250.67 478.712 249.11C478.712 247.53 479.062 246.14 479.762 244.94C480.462 243.74 481.412 242.8 482.612 242.12C483.812 241.44 485.182 241.1 486.722 241.1C488.282 241.1 489.662 241.44 490.862 242.12C492.082 242.8 493.032 243.74 493.712 244.94C494.412 246.14 494.762 247.53 494.762 249.11C494.762 250.67 494.412 252.06 493.712 253.28C493.032 254.48 492.082 255.43 490.862 256.13C489.642 256.81 488.262 257.15 486.722 257.15ZM486.722 255.26C487.862 255.26 488.872 255.01 489.752 254.51C490.632 253.99 491.322 253.27 491.822 252.35C492.342 251.41 492.602 250.33 492.602 249.11C492.602 247.87 492.342 246.79 491.822 245.87C491.322 244.95 490.632 244.24 489.752 243.74C488.872 243.22 487.872 242.96 486.752 242.96C485.632 242.96 484.632 243.22 483.752 243.74C482.872 244.24 482.172 244.95 481.652 245.87C481.132 246.79 480.872 247.87 480.872 249.11C480.872 250.33 481.132 251.41 481.652 252.35C482.172 253.27 482.872 253.99 483.752 254.51C484.632 255.01 485.622 255.26 486.722 255.26ZM499.111 257V234.74H501.241V257H499.111ZM507.287 262.97C506.547 262.97 505.837 262.85 505.157 262.61C504.497 262.37 503.927 262.01 503.447 261.53L504.437 259.94C504.837 260.32 505.267 260.61 505.727 260.81C506.207 261.03 506.737 261.14 507.317 261.14C508.017 261.14 508.617 260.94 509.117 260.54C509.637 260.16 510.127 259.48 510.587 258.5L511.607 256.19L511.847 255.86L518.327 241.25H520.427L512.537 258.89C512.097 259.91 511.607 260.72 511.067 261.32C510.547 261.92 509.977 262.34 509.357 262.58C508.737 262.84 508.047 262.97 507.287 262.97ZM511.487 257.45L504.227 241.25H506.447L512.867 255.71L511.487 257.45ZM532.828 257V253.52L532.738 252.95V247.13C532.738 245.79 532.358 244.76 531.598 244.04C530.858 243.32 529.748 242.96 528.268 242.96C527.248 242.96 526.278 243.13 525.358 243.47C524.438 243.81 523.658 244.26 523.018 244.82L522.058 243.23C522.858 242.55 523.818 242.03 524.938 241.67C526.058 241.29 527.238 241.1 528.478 241.1C530.518 241.1 532.088 241.61 533.188 242.63C534.308 243.63 534.868 245.16 534.868 247.22V257H532.828ZM527.398 257.15C526.218 257.15 525.188 256.96 524.308 256.58C523.448 256.18 522.788 255.64 522.328 254.96C521.868 254.26 521.638 253.46 521.638 252.56C521.638 251.74 521.828 251 522.208 250.34C522.608 249.66 523.248 249.12 524.128 248.72C525.028 248.3 526.228 248.09 527.728 248.09H533.158V249.68H527.788C526.268 249.68 525.208 249.95 524.608 250.49C524.028 251.03 523.738 251.7 523.738 252.5C523.738 253.4 524.088 254.12 524.788 254.66C525.488 255.2 526.468 255.47 527.728 255.47C528.928 255.47 529.958 255.2 530.818 254.66C531.698 254.1 532.338 253.3 532.738 252.26L533.218 253.73C532.818 254.77 532.118 255.6 531.118 256.22C530.138 256.84 528.898 257.15 527.398 257.15ZM548.694 241.1C549.974 241.1 551.094 241.35 552.054 241.85C553.034 242.33 553.794 243.07 554.334 244.07C554.894 245.07 555.174 246.33 555.174 247.85V257H553.044V248.06C553.044 246.4 552.624 245.15 551.784 244.31C550.964 243.45 549.804 243.02 548.304 243.02C547.184 243.02 546.204 243.25 545.364 243.71C544.544 244.15 543.904 244.8 543.444 245.66C543.004 246.5 542.784 247.52 542.784 248.72V257H540.654V241.25H542.694V245.57L542.364 244.76C542.864 243.62 543.664 242.73 544.764 242.09C545.864 241.43 547.174 241.1 548.694 241.1ZM568.779 257V241.25H570.909V257H568.779ZM569.859 237.77C569.419 237.77 569.049 237.62 568.749 237.32C568.449 237.02 568.299 236.66 568.299 236.24C568.299 235.82 568.449 235.47 568.749 235.19C569.049 234.89 569.419 234.74 569.859 234.74C570.299 234.74 570.669 234.88 570.969 235.16C571.269 235.44 571.419 235.79 571.419 236.21C571.419 236.65 571.269 237.02 570.969 237.32C570.689 237.62 570.319 237.77 569.859 237.77ZM583.105 257.15C581.605 257.15 580.255 256.81 579.055 256.13C577.875 255.45 576.945 254.51 576.265 253.31C575.585 252.09 575.245 250.69 575.245 249.11C575.245 247.51 575.585 246.11 576.265 244.91C576.945 243.71 577.875 242.78 579.055 242.12C580.255 241.44 581.605 241.1 583.105 241.1C584.485 241.1 585.715 241.41 586.795 242.03C587.895 242.65 588.765 243.56 589.405 244.76C590.065 245.94 590.395 247.39 590.395 249.11C590.395 250.81 590.075 252.26 589.435 253.46C588.795 254.66 587.925 255.58 586.825 256.22C585.745 256.84 584.505 257.15 583.105 257.15ZM583.255 255.26C584.375 255.26 585.375 255.01 586.255 254.51C587.155 253.99 587.855 253.27 588.355 252.35C588.875 251.41 589.135 250.33 589.135 249.11C589.135 247.87 588.875 246.79 588.355 245.87C587.855 244.95 587.155 244.24 586.255 243.74C585.375 243.22 584.375 242.96 583.255 242.96C582.155 242.96 581.165 243.22 580.285 243.74C579.405 244.24 578.705 244.95 578.185 245.87C577.665 246.79 577.405 247.87 577.405 249.11C577.405 250.33 577.665 251.41 578.185 252.35C578.705 253.27 579.405 253.99 580.285 254.51C581.165 255.01 582.155 255.26 583.255 255.26ZM589.195 257V252.26L589.405 249.08L589.105 245.9V234.74H591.235V257H589.195ZM603.857 257.15C602.217 257.15 600.777 256.81 599.537 256.13C598.297 255.43 597.327 254.48 596.627 253.28C595.927 252.06 595.577 250.67 595.577 249.11C595.577 247.55 595.907 246.17 596.567 244.97C597.247 243.77 598.167 242.83 599.327 242.15C600.507 241.45 601.827 241.1 603.287 241.1C604.767 241.1 606.077 241.44 607.217 242.12C608.377 242.78 609.287 243.72 609.947 244.94C610.607 246.14 610.937 247.53 610.937 249.11C610.937 249.21 610.927 249.32 610.907 249.44C610.907 249.54 610.907 249.65 610.907 249.77H597.197V248.18H609.767L608.927 248.81C608.927 247.67 608.677 246.66 608.177 245.78C607.697 244.88 607.037 244.18 606.197 243.68C605.357 243.18 604.387 242.93 603.287 242.93C602.207 242.93 601.237 243.18 600.377 243.68C599.517 244.18 598.847 244.88 598.367 245.78C597.887 246.68 597.647 247.71 597.647 248.87V249.2C597.647 250.4 597.907 251.46 598.427 252.38C598.967 253.28 599.707 253.99 600.647 254.51C601.607 255.01 602.697 255.26 603.917 255.26C604.877 255.26 605.767 255.09 606.587 254.75C607.427 254.41 608.147 253.89 608.747 253.19L609.947 254.57C609.247 255.41 608.367 256.05 607.307 256.49C606.267 256.93 605.117 257.15 603.857 257.15ZM621.993 262.97C620.553 262.97 619.173 262.76 617.853 262.34C616.533 261.92 615.463 261.32 614.643 260.54L615.723 258.92C616.463 259.58 617.373 260.1 618.453 260.48C619.553 260.88 620.713 261.08 621.933 261.08C623.933 261.08 625.403 260.61 626.343 259.67C627.283 258.75 627.753 257.31 627.753 255.35V251.42L628.053 248.72L627.843 246.02V241.25H629.883V255.08C629.883 257.8 629.213 259.79 627.873 261.05C626.553 262.33 624.593 262.97 621.993 262.97ZM621.603 256.4C620.103 256.4 618.753 256.08 617.553 255.44C616.353 254.78 615.403 253.87 614.703 252.71C614.023 251.55 613.683 250.22 613.683 248.72C613.683 247.22 614.023 245.9 614.703 244.76C615.403 243.6 616.353 242.7 617.553 242.06C618.753 241.42 620.103 241.1 621.603 241.1C623.003 241.1 624.263 241.39 625.383 241.97C626.503 242.55 627.393 243.41 628.053 244.55C628.713 245.69 629.043 247.08 629.043 248.72C629.043 250.36 628.713 251.75 628.053 252.89C627.393 254.03 626.503 254.9 625.383 255.5C624.263 256.1 623.003 256.4 621.603 256.4ZM621.813 254.51C622.973 254.51 624.003 254.27 624.903 253.79C625.803 253.29 626.513 252.61 627.033 251.75C627.553 250.87 627.813 249.86 627.813 248.72C627.813 247.58 627.553 246.58 627.033 245.72C626.513 244.86 625.803 244.19 624.903 243.71C624.003 243.21 622.973 242.96 621.813 242.96C620.673 242.96 619.643 243.21 618.723 243.71C617.823 244.19 617.113 244.86 616.593 245.72C616.093 246.58 615.843 247.58 615.843 248.72C615.843 249.86 616.093 250.87 616.593 251.75C617.113 252.61 617.823 253.29 618.723 253.79C619.643 254.27 620.673 254.51 621.813 254.51ZM642.5 257.15C640.86 257.15 639.42 256.81 638.18 256.13C636.94 255.43 635.97 254.48 635.27 253.28C634.57 252.06 634.22 250.67 634.22 249.11C634.22 247.55 634.55 246.17 635.21 244.97C635.89 243.77 636.81 242.83 637.97 242.15C639.15 241.45 640.47 241.1 641.93 241.1C643.41 241.1 644.72 241.44 645.86 242.12C647.02 242.78 647.93 243.72 648.59 244.94C649.25 246.14 649.58 247.53 649.58 249.11C649.58 249.21 649.57 249.32 649.55 249.44C649.55 249.54 649.55 249.65 649.55 249.77H635.84V248.18H648.41L647.57 248.81C647.57 247.67 647.32 246.66 646.82 245.78C646.34 244.88 645.68 244.18 644.84 243.68C644 243.18 643.03 242.93 641.93 242.93C640.85 242.93 639.88 243.18 639.02 243.68C638.16 244.18 637.49 244.88 637.01 245.78C636.53 246.68 636.29 247.71 636.29 248.87V249.2C636.29 250.4 636.55 251.46 637.07 252.38C637.61 253.28 638.35 253.99 639.29 254.51C640.25 255.01 641.34 255.26 642.56 255.26C643.52 255.26 644.41 255.09 645.23 254.75C646.07 254.41 646.79 253.89 647.39 253.19L648.59 254.57C647.89 255.41 647.01 256.05 645.95 256.49C644.91 256.93 643.76 257.15 642.5 257.15ZM658.145 257.15C656.845 257.15 655.615 256.97 654.455 256.61C653.295 256.23 652.385 255.76 651.725 255.2L652.685 253.52C653.325 254 654.145 254.42 655.145 254.78C656.145 255.12 657.195 255.29 658.295 255.29C659.795 255.29 660.875 255.06 661.535 254.6C662.195 254.12 662.525 253.49 662.525 252.71C662.525 252.13 662.335 251.68 661.955 251.36C661.595 251.02 661.115 250.77 660.515 250.61C659.915 250.43 659.245 250.28 658.505 250.16C657.765 250.04 657.025 249.9 656.285 249.74C655.565 249.58 654.905 249.35 654.305 249.05C653.705 248.73 653.215 248.3 652.835 247.76C652.475 247.22 652.295 246.5 652.295 245.6C652.295 244.74 652.535 243.97 653.015 243.29C653.495 242.61 654.195 242.08 655.115 241.7C656.055 241.3 657.195 241.1 658.535 241.1C659.555 241.1 660.575 241.24 661.595 241.52C662.615 241.78 663.455 242.13 664.115 242.57L663.185 244.28C662.485 243.8 661.735 243.46 660.935 243.26C660.135 243.04 659.335 242.93 658.535 242.93C657.115 242.93 656.065 243.18 655.385 243.68C654.725 244.16 654.395 244.78 654.395 245.54C654.395 246.14 654.575 246.61 654.935 246.95C655.315 247.29 655.805 247.56 656.405 247.76C657.025 247.94 657.695 248.09 658.415 248.21C659.155 248.33 659.885 248.48 660.605 248.66C661.345 248.82 662.015 249.05 662.615 249.35C663.235 249.63 663.725 250.04 664.085 250.58C664.465 251.1 664.655 251.79 664.655 252.65C664.655 253.57 664.395 254.37 663.875 255.05C663.375 255.71 662.635 256.23 661.655 256.61C660.695 256.97 659.525 257.15 658.145 257.15ZM668.564 257V241.25H670.694V257H668.564ZM667.694 238.79L671.804 235.07H674.654L669.794 238.79H667.694ZM681.6 257.15C680.12 257.15 678.98 256.75 678.18 255.95C677.38 255.15 676.98 254.02 676.98 252.56V237.77H679.11V252.44C679.11 253.36 679.34 254.07 679.8 254.57C680.28 255.07 680.96 255.32 681.84 255.32C682.78 255.32 683.56 255.05 684.18 254.51L684.93 256.04C684.51 256.42 684 256.7 683.4 256.88C682.82 257.06 682.22 257.15 681.6 257.15ZM674.16 243.02V241.25H683.91V243.02H674.16ZM694.671 257.15C693.151 257.15 691.781 256.81 690.561 256.13C689.361 255.43 688.411 254.48 687.711 253.28C687.011 252.06 686.661 250.67 686.661 249.11C686.661 247.53 687.011 246.14 687.711 244.94C688.411 243.74 689.361 242.8 690.561 242.12C691.761 241.44 693.131 241.1 694.671 241.1C696.231 241.1 697.611 241.44 698.811 242.12C700.031 242.8 700.981 243.74 701.661 244.94C702.361 246.14 702.711 247.53 702.711 249.11C702.711 250.67 702.361 252.06 701.661 253.28C700.981 254.48 700.031 255.43 698.811 256.13C697.591 256.81 696.211 257.15 694.671 257.15ZM694.671 255.26C695.811 255.26 696.821 255.01 697.701 254.51C698.581 253.99 699.271 253.27 699.771 252.35C700.291 251.41 700.551 250.33 700.551 249.11C700.551 247.87 700.291 246.79 699.771 245.87C699.271 244.95 698.581 244.24 697.701 243.74C696.821 243.22 695.821 242.96 694.701 242.96C693.581 242.96 692.581 243.22 691.701 243.74C690.821 244.24 690.121 244.95 689.601 245.87C689.081 246.79 688.821 247.87 688.821 249.11C688.821 250.33 689.081 251.41 689.601 252.35C690.121 253.27 690.821 253.99 691.701 254.51C692.581 255.01 693.571 255.26 694.671 255.26ZM696.171 238.79L699.051 235.07H701.421L698.061 238.79H696.171ZM691.281 238.79L694.191 235.07H696.561L693.171 238.79H691.281ZM705.33 261.38L706.65 255.83L706.89 257.12C706.43 257.12 706.04 256.97 705.72 256.67C705.42 256.37 705.27 255.98 705.27 255.5C705.27 255.02 705.42 254.63 705.72 254.33C706.04 254.03 706.42 253.88 706.86 253.88C707.32 253.88 707.69 254.04 707.97 254.36C708.27 254.68 708.42 255.06 708.42 255.5C708.42 255.66 708.41 255.82 708.39 255.98C708.37 256.14 708.33 256.32 708.27 256.52C708.21 256.72 708.13 256.96 708.03 257.24L706.77 261.38H705.33ZM295.504 278.1C296.784 278.1 297.894 278.35 298.834 278.85C299.794 279.33 300.534 280.07 301.054 281.07C301.594 282.07 301.864 283.33 301.864 284.85V294H299.734V285.06C299.734 283.4 299.334 282.15 298.534 281.31C297.754 280.45 296.644 280.02 295.204 280.02C294.124 280.02 293.184 280.25 292.384 280.71C291.604 281.15 290.994 281.8 290.554 282.66C290.134 283.5 289.924 284.52 289.924 285.72V294H287.794V285.06C287.794 283.4 287.394 282.15 286.594 281.31C285.794 280.45 284.674 280.02 283.234 280.02C282.174 280.02 281.244 280.25 280.444 280.71C279.644 281.15 279.024 281.8 278.584 282.66C278.164 283.5 277.954 284.52 277.954 285.72V294H275.824V278.25H277.864V282.51L277.534 281.76C278.014 280.62 278.784 279.73 279.844 279.09C280.924 278.43 282.194 278.1 283.654 278.1C285.194 278.1 286.504 278.49 287.584 279.27C288.664 280.03 289.364 281.18 289.684 282.72L288.844 282.39C289.304 281.11 290.114 280.08 291.274 279.3C292.454 278.5 293.864 278.1 295.504 278.1ZM307.641 294V278.25H309.771V294H307.641ZM308.721 274.77C308.281 274.77 307.911 274.62 307.611 274.32C307.311 274.02 307.161 273.66 307.161 273.24C307.161 272.82 307.311 272.47 307.611 272.19C307.911 271.89 308.281 271.74 308.721 271.74C309.161 271.74 309.531 271.88 309.831 272.16C310.131 272.44 310.281 272.79 310.281 273.21C310.281 273.65 310.131 274.02 309.831 274.32C309.551 274.62 309.181 274.77 308.721 274.77ZM323.738 278.1C325.018 278.1 326.138 278.35 327.098 278.85C328.078 279.33 328.838 280.07 329.378 281.07C329.938 282.07 330.218 283.33 330.218 284.85V294H328.088V285.06C328.088 283.4 327.668 282.15 326.828 281.31C326.008 280.45 324.848 280.02 323.348 280.02C322.228 280.02 321.248 280.25 320.408 280.71C319.588 281.15 318.948 281.8 318.488 282.66C318.048 283.5 317.828 284.52 317.828 285.72V294H315.698V278.25H317.738V282.57L317.408 281.76C317.908 280.62 318.708 279.73 319.808 279.09C320.908 278.43 322.218 278.1 323.738 278.1ZM340.951 294.15C339.471 294.15 338.331 293.75 337.531 292.95C336.731 292.15 336.331 291.02 336.331 289.56V274.77H338.461V289.44C338.461 290.36 338.691 291.07 339.151 291.57C339.631 292.07 340.311 292.32 341.191 292.32C342.131 292.32 342.911 292.05 343.531 291.51L344.281 293.04C343.861 293.42 343.351 293.7 342.751 293.88C342.171 294.06 341.571 294.15 340.951 294.15ZM333.511 280.02V278.25H343.261V280.02H333.511ZM365.88 294V290.52L365.79 289.95V284.13C365.79 282.79 365.41 281.76 364.65 281.04C363.91 280.32 362.8 279.96 361.32 279.96C360.3 279.96 359.33 280.13 358.41 280.47C357.49 280.81 356.71 281.26 356.07 281.82L355.11 280.23C355.91 279.55 356.87 279.03 357.99 278.67C359.11 278.29 360.29 278.1 361.53 278.1C363.57 278.1 365.14 278.61 366.24 279.63C367.36 280.63 367.92 282.16 367.92 284.22V294H365.88ZM360.45 294.15C359.27 294.15 358.24 293.96 357.36 293.58C356.5 293.18 355.84 292.64 355.38 291.96C354.92 291.26 354.69 290.46 354.69 289.56C354.69 288.74 354.88 288 355.26 287.34C355.66 286.66 356.3 286.12 357.18 285.72C358.08 285.3 359.28 285.09 360.78 285.09H366.21V286.68H360.84C359.32 286.68 358.26 286.95 357.66 287.49C357.08 288.03 356.79 288.7 356.79 289.5C356.79 290.4 357.14 291.12 357.84 291.66C358.54 292.2 359.52 292.47 360.78 292.47C361.98 292.47 363.01 292.2 363.87 291.66C364.75 291.1 365.39 290.3 365.79 289.26L366.27 290.73C365.87 291.77 365.17 292.6 364.17 293.22C363.19 293.84 361.95 294.15 360.45 294.15ZM371.995 294V292.59L382.495 279.3L382.945 280.02H372.175V278.25H384.625V279.63L374.155 292.95L373.615 292.23H384.835V294H371.995ZM403.569 294.15C401.929 294.15 400.489 293.81 399.249 293.13C398.009 292.43 397.039 291.48 396.339 290.28C395.639 289.06 395.289 287.67 395.289 286.11C395.289 284.55 395.619 283.17 396.279 281.97C396.959 280.77 397.879 279.83 399.039 279.15C400.219 278.45 401.539 278.1 402.999 278.1C404.479 278.1 405.789 278.44 406.929 279.12C408.089 279.78 408.999 280.72 409.659 281.94C410.319 283.14 410.649 284.53 410.649 286.11C410.649 286.21 410.639 286.32 410.619 286.44C410.619 286.54 410.619 286.65 410.619 286.77H396.909V285.18H409.479L408.639 285.81C408.639 284.67 408.389 283.66 407.889 282.78C407.409 281.88 406.749 281.18 405.909 280.68C405.069 280.18 404.099 279.93 402.999 279.93C401.919 279.93 400.949 280.18 400.089 280.68C399.229 281.18 398.559 281.88 398.079 282.78C397.599 283.68 397.359 284.71 397.359 285.87V286.2C397.359 287.4 397.619 288.46 398.139 289.38C398.679 290.28 399.419 290.99 400.359 291.51C401.319 292.01 402.409 292.26 403.629 292.26C404.589 292.26 405.479 292.09 406.299 291.75C407.139 291.41 407.859 290.89 408.459 290.19L409.659 291.57C408.959 292.41 408.079 293.05 407.019 293.49C405.979 293.93 404.829 294.15 403.569 294.15ZM417.355 288.78L417.265 286.08L429.985 273H432.535L423.265 282.72L422.005 284.07L417.355 288.78ZM415.435 294V273H417.655V294H415.435ZM430.525 294L421.465 283.56L422.965 281.94L433.165 294H430.525ZM436.763 294V273H444.623C446.403 273 447.933 273.29 449.213 273.87C450.493 274.43 451.473 275.25 452.153 276.33C452.853 277.39 453.203 278.68 453.203 280.2C453.203 281.68 452.853 282.96 452.153 284.04C451.473 285.1 450.493 285.92 449.213 286.5C447.933 287.06 446.403 287.34 444.623 287.34H437.993L438.983 286.32V294H436.763ZM451.103 294L445.703 286.38H448.103L453.533 294H451.103ZM438.983 286.5L437.993 285.45H444.563C446.663 285.45 448.253 284.99 449.333 284.07C450.433 283.15 450.983 281.86 450.983 280.2C450.983 278.52 450.433 277.22 449.333 276.3C448.253 275.38 446.663 274.92 444.563 274.92H437.993L438.983 273.87V286.5ZM460.422 282.39H471.522V284.28H460.422V282.39ZM460.662 292.08H473.292V294H458.442V273H472.842V274.92H460.662V292.08ZM463.722 271.29L467.832 267.57H470.682L465.822 271.29H463.722ZM482.591 294V274.92H475.211V273H492.191V274.92H484.811V294H482.591ZM491.323 294L500.923 273H503.113L512.713 294H510.373L501.553 274.29H502.453L493.633 294H491.323ZM495.103 288.39L495.763 286.59H507.973L508.633 288.39H495.103ZM523.948 294V276.27C523.948 274.87 524.358 273.74 525.178 272.88C525.998 272.02 527.178 271.59 528.718 271.59C529.318 271.59 529.898 271.67 530.458 271.83C531.018 271.99 531.488 272.24 531.868 272.58L531.148 274.17C530.848 273.91 530.498 273.72 530.098 273.6C529.698 273.46 529.268 273.39 528.808 273.39C527.908 273.39 527.218 273.64 526.738 274.14C526.258 274.64 526.018 275.38 526.018 276.36V278.76L526.078 279.75V294H523.948ZM521.128 280.02V278.25H530.878V280.02H521.128ZM540.181 294.15C538.541 294.15 537.101 293.81 535.861 293.13C534.621 292.43 533.651 291.48 532.951 290.28C532.251 289.06 531.901 287.67 531.901 286.11C531.901 284.55 532.231 283.17 532.891 281.97C533.571 280.77 534.491 279.83 535.651 279.15C536.831 278.45 538.151 278.1 539.611 278.1C541.091 278.1 542.401 278.44 543.541 279.12C544.701 279.78 545.611 280.72 546.271 281.94C546.931 283.14 547.261 284.53 547.261 286.11C547.261 286.21 547.251 286.32 547.231 286.44C547.231 286.54 547.231 286.65 547.231 286.77H533.521V285.18H546.091L545.251 285.81C545.251 284.67 545.001 283.66 544.501 282.78C544.021 281.88 543.361 281.18 542.521 280.68C541.681 280.18 540.711 279.93 539.611 279.93C538.531 279.93 537.561 280.18 536.701 280.68C535.841 281.18 535.171 281.88 534.691 282.78C534.211 283.68 533.971 284.71 533.971 285.87V286.2C533.971 287.4 534.231 288.46 534.751 289.38C535.291 290.28 536.031 290.99 536.971 291.51C537.931 292.01 539.021 292.26 540.241 292.26C541.201 292.26 542.091 292.09 542.911 291.75C543.751 291.41 544.471 290.89 545.071 290.19L546.271 291.57C545.571 292.41 544.691 293.05 543.631 293.49C542.591 293.93 541.441 294.15 540.181 294.15ZM537.631 275.79L541.741 272.07H544.591L539.731 275.79H537.631ZM551.596 294V271.74H553.726V294H551.596ZM566.343 294.15C564.703 294.15 563.263 293.81 562.023 293.13C560.783 292.43 559.813 291.48 559.113 290.28C558.413 289.06 558.063 287.67 558.063 286.11C558.063 284.55 558.393 283.17 559.053 281.97C559.733 280.77 560.653 279.83 561.813 279.15C562.993 278.45 564.313 278.1 565.773 278.1C567.253 278.1 568.563 278.44 569.703 279.12C570.863 279.78 571.773 280.72 572.433 281.94C573.093 283.14 573.423 284.53 573.423 286.11C573.423 286.21 573.413 286.32 573.393 286.44C573.393 286.54 573.393 286.65 573.393 286.77H559.683V285.18H572.253L571.413 285.81C571.413 284.67 571.163 283.66 570.663 282.78C570.183 281.88 569.523 281.18 568.683 280.68C567.843 280.18 566.873 279.93 565.773 279.93C564.693 279.93 563.723 280.18 562.863 280.68C562.003 281.18 561.333 281.88 560.853 282.78C560.373 283.68 560.133 284.71 560.133 285.87V286.2C560.133 287.4 560.393 288.46 560.913 289.38C561.453 290.28 562.193 290.99 563.133 291.51C564.093 292.01 565.183 292.26 566.403 292.26C567.363 292.26 568.253 292.09 569.073 291.75C569.913 291.41 570.633 290.89 571.233 290.19L572.433 291.57C571.733 292.41 570.853 293.05 569.793 293.49C568.753 293.93 567.603 294.15 566.343 294.15ZM577.968 294.15C577.528 294.15 577.148 293.99 576.828 293.67C576.528 293.35 576.378 292.96 576.378 292.5C576.378 292.02 576.528 291.63 576.828 291.33C577.148 291.03 577.528 290.88 577.968 290.88C578.408 290.88 578.778 291.03 579.078 291.33C579.398 291.63 579.558 292.02 579.558 292.5C579.558 292.96 579.398 293.35 579.078 293.67C578.778 293.99 578.408 294.15 577.968 294.15Z" fill="black"/>
</g>
</g>
<defs>
<filter id="filter0_d_2142_2670" x="0.339394" y="0.157576" width="853.321" height="658.321" filterUnits="userSpaceOnUse" color-interpolation-filters="sRGB">
<feFlood flood-opacity="0" result="BackgroundImageFix"/>
<feColorMatrix in="SourceAlpha" type="matrix" values="0 0 0 0 0 0 0 0 0 0 0 0 0 0 0 0 0 0 127 0" result="hardAlpha"/>
<feOffset dy="28.3182"/>
<feGaussianBlur stdDeviation="57.5803"/>
<feComposite in2="hardAlpha" operator="out"/>
<feColorMatrix type="matrix" values="0 0 0 0 0.546962 0 0 0 0 0.744705 0 0 0 0 0.710315 0 0 0 0.25 0"/>
<feBlend mode="normal" in2="BackgroundImageFix" result="effect1_dropShadow_2142_2670"/>
<feBlend mode="normal" in="SourceGraphic" in2="effect1_dropShadow_2142_2670" result="shape"/>
</filter>
<linearGradient id="paint0_linear_2142_2670" x1="427" y1="87" x2="427" y2="515" gradientUnits="userSpaceOnUse">
<stop stop-color="#D1E9F3"/>
<stop offset="1" stop-color="#E6DAF1"/>
</linearGradient>
<clipPath id="clip0_2142_2670">
<rect x="115.5" y="87" width="623" height="428" rx="30" fill="white"/>
</clipPath>
</defs>
</svg>
