<svg width="500" height="500" viewBox="0 0 500 500" fill="none" xmlns="http://www.w3.org/2000/svg">
<g clip-path="url(#clip0_749_691)">
<path d="M500 3.8147e-06H0.00012207V500H500V3.8147e-06Z" fill="url(#paint0_linear_749_691)"/>
<path d="M153.969 223.387C153.969 223.387 37.7535 243.666 26.0538 294.364C14.3544 345.063 139.93 378.601 164.109 373.922C188.288 369.242 178.929 448.019 96.2514 430.86C13.5743 413.7 -36.4085 386.552 -44.9236 336.483C-54.6733 279.155 55.6165 243.882 83.1569 236.15C109.685 228.703 150.805 222.332 153.969 223.387Z" fill="#2C8C76"/>
<path d="M176.19 247.508L138.278 304.693L141.619 319.801C166.182 338.305 167.884 342.595 205.225 367.24L372.791 162.319L360.322 118.678L313.373 92.9637L259.984 148.462L176.19 247.508Z" fill="#2EBFA5"/>
<path d="M141.619 319.801L120 348L173 389L205.225 367.24L141.619 319.801Z" fill="#2EB79E"/>
<path d="M115.838 382.23C126.131 363.416 126.409 363.583 120.216 355.288C114.025 346.991 115.983 335.807 122.825 325.261C128.53 316.461 125.37 315.58 124.482 310.294C123.506 304.484 127.942 294.382 177.302 229.831C177.302 229.831 245.784 140.741 277.036 100.028C300.619 69.3059 340.583 85.1333 358.722 98.5461C376.861 111.959 403.715 147.981 379.935 178.961C349.354 218.801 280.062 308.855 280.062 308.855C226.94 378.068 220.746 378.654 214.045 379.238C208.225 379.744 205.653 380.188 200.564 385.171C192.843 392.732 183.739 399.499 173.411 396.096C163.788 392.926 163.48 393.234 147.988 407.136C135.975 417.917 121.426 419.999 115.345 415.331C109.264 410.663 108.871 394.925 115.815 382.233L115.838 382.23ZM186.735 363.452L146.613 332.404C143.272 329.947 140.125 331.248 137.931 334.08L136.346 335.861C133.05 339.557 131.845 343.173 132.506 347.065C133.259 351.464 135.605 353.579 140.809 357.569C148.441 363.417 156.471 369.967 164.232 375.905C168.479 379.153 171.598 381.43 175.845 381.195C179.601 380.988 181.961 379.785 185.531 375.418L188.228 372.119C191.346 368.305 190.068 366.031 186.732 363.453L186.735 363.452ZM294.312 121.779L206.887 234.958L153.382 304.924C148.472 311.345 150.704 316.299 154.523 319.234C176.125 335.836 179.201 338.209 198.435 352.995C203.737 357.112 209.312 357.366 213.831 351.854C213.831 351.854 250.075 304.858 267.617 281.555C296.616 243.034 354.142 167.576 354.142 167.576C360.29 159.277 363.521 149.105 360.367 140.344C354.402 123.769 336.029 109.39 318.456 108.149C309.238 107.497 300.941 113.873 294.313 121.779L294.312 121.779Z" fill="white"/>
</g>
<defs>
<linearGradient id="paint0_linear_749_691" x1="62.0001" y1="16.3177" x2="146.399" y2="523.961" gradientUnits="userSpaceOnUse">
<stop stop-color="#20AC9B"/>
<stop offset="0.515625" stop-color="#126955"/>
<stop offset="1" stop-color="#123323"/>
</linearGradient>
<clipPath id="clip0_749_691">
<rect width="500" height="500" rx="115" fill="white"/>
</clipPath>
</defs>
</svg>
