<svg width="366" height="84" viewBox="0 0 366 84" fill="none" xmlns="http://www.w3.org/2000/svg">
<path fill-rule="evenodd" clip-rule="evenodd" d="M241.004 1.08376C242.322 0.330758 244.291 -0.39342 246.564 0.245964C249.542 1.08352 251.203 3.14966 251.98 5.38717C252.672 7.38004 252.681 9.54792 252.661 11.0318C252.571 17.3953 250.854 24.1113 248.673 29.7585C247.885 31.7968 246.499 33.797 244.964 35.4581C243.425 37.1228 241.53 38.6692 239.541 39.6443C237.023 40.8785 234.244 41.9927 231.302 42.6875C231.174 44.4316 231.117 46.0747 231.27 47.6409C231.503 50.0283 232.195 51.7975 233.587 53.1C235.52 54.9104 238.427 55.1852 242.55 54.9912C245.12 54.8703 246.799 54.1485 247.807 52.7625C248.564 51.7218 249.193 50.5167 249.933 49.0405L250.098 48.7115C250.762 47.384 251.538 45.8319 252.504 44.383C253.576 42.7746 255.749 42.34 257.358 43.4122C258.966 44.4845 259.401 46.6575 258.328 48.2659C257.614 49.3377 257.023 50.5171 256.314 51.9321L256.19 52.1783C255.466 53.6229 254.607 55.3142 253.468 56.8797C250.69 60.7005 246.489 61.8136 242.879 61.9834C238.929 62.1693 233.117 62.2489 228.803 58.2102C225.741 55.3443 224.634 51.7083 224.303 48.3215C224.144 46.688 224.158 45.0112 224.242 43.4096C222.523 43.3381 220.779 43.0717 219.023 42.5612C217.167 42.0216 216.1 40.0794 216.639 38.2232C217.179 36.3671 219.121 35.2999 220.977 35.8396C222.253 36.2106 223.551 36.3964 224.864 36.424C225.734 29.6736 227.71 23.0927 229.96 16.9691C231.58 12.5579 233.57 7.22931 238.035 3.33929C238.091 3.2907 238.151 3.23799 238.215 3.18177C238.845 2.62904 239.86 1.7374 241.004 1.08376ZM232.125 35.1724C233.568 34.6823 235.015 34.0669 236.46 33.3588C237.48 32.8585 238.704 31.9176 239.824 30.7063C240.947 29.4915 241.76 28.227 242.143 27.2357C244.134 22.0834 245.587 16.2131 245.661 10.9332C245.682 9.42817 245.612 8.38835 245.367 7.68278C245.263 7.38402 245.163 7.25712 245.11 7.20366C245.078 7.1704 244.996 7.09285 244.774 7.01713C244.717 7.03763 244.621 7.0793 244.478 7.16121C243.974 7.44912 243.471 7.88724 242.712 8.54875L242.633 8.61735C239.707 11.1666 238.217 14.7918 236.53 19.3828C234.624 24.5734 233.011 29.874 232.125 35.1724ZM244.841 6.99892C244.84 6.99955 244.833 7.00139 244.82 7.00256C244.834 6.99887 244.841 6.99829 244.841 6.99892ZM209.704 17.8051C211.529 17.1665 212.49 15.1698 211.851 13.3453C211.213 11.5209 209.216 10.5595 207.392 11.198C201.495 13.2617 195.863 15.201 190.023 16.3887C188.129 16.774 186.906 18.6218 187.291 20.5161C187.676 22.4103 189.524 23.6335 191.418 23.2483C197.793 21.9518 203.855 19.8523 209.704 17.8051ZM38.6942 17.8906C40.5109 17.2302 41.4483 15.2222 40.788 13.4055C40.1276 11.5888 38.1196 10.6514 36.3029 11.3117C34.946 11.8049 33.364 12.3273 31.6665 12.8878L31.6664 12.8878C28.3913 13.9691 24.6864 15.1924 21.3395 16.6221C16.1251 18.8495 10.7489 21.9516 7.30529 26.9037C6.10541 28.6292 5.29043 30.8929 5.93148 33.2338C6.6091 35.7083 8.60826 37.199 10.7935 37.8536C13.0519 38.53 15.4067 38.9028 17.5666 39.2138C17.9255 39.2654 18.2782 39.3153 18.6254 39.3644L18.6379 39.3662L18.6395 39.3664C20.4542 39.6231 22.1186 39.8585 23.7312 40.2139C27.4759 41.0393 30.2004 42.3622 32.0168 45.3322C32.677 46.4117 32.5436 46.8786 32.498 47.0237C32.4033 47.3251 32.0663 47.8748 31.0843 48.5874C29.0635 50.0537 25.9177 51.0912 23.3802 51.8602C16.8999 53.8239 10.6472 54.3016 4.16162 53.0544C2.26341 52.6894 0.428676 53.9323 0.0636342 55.8305C-0.301407 57.7287 0.941476 59.5634 2.83969 59.9285C10.5638 61.4139 17.9704 60.8138 25.4102 58.5594C27.7765 57.8423 32.0704 56.5206 35.1954 54.2529C36.7863 53.0985 38.4487 51.4375 39.1762 49.1218C39.9528 46.6497 39.4644 44.0932 37.9886 41.6801C34.7491 36.383 29.8449 34.3934 25.2379 33.378C23.3393 32.9595 21.3647 32.6811 19.5535 32.4257L19.5531 32.4256H19.553L19.553 32.4256L19.5509 32.4253L19.5461 32.4246C19.2127 32.3776 18.8849 32.3314 18.5641 32.2852C16.4509 31.981 14.5756 31.6713 12.8809 31.1714C12.926 31.0915 12.9822 31.0009 13.0523 30.9001C15.3648 27.5747 19.2713 25.1174 24.0893 23.0594C27.2136 21.7248 30.3077 20.708 33.3667 19.7028L33.3667 19.7028L33.3668 19.7027L33.3669 19.7027L33.3669 19.7027L33.367 19.7027C35.1551 19.1151 36.9311 18.5315 38.6942 17.8906ZM46.6576 33.3233C44.7593 32.959 42.925 34.2026 42.5607 36.1009C42.1964 37.9993 43.4399 39.8335 45.3383 40.1979C48.2286 40.7526 51.1615 41.1614 53.9911 41.5558L53.9978 41.5567C54.485 41.6246 54.9691 41.6921 55.4494 41.7599C56.6355 41.9271 57.8038 42.0965 58.9563 42.2784C57.339 43.6568 55.7461 45.0852 54.1907 46.5877C51.1169 49.5568 48.208 52.6841 45.3858 55.7328C45.3289 55.7943 45.2649 55.8627 45.1967 55.9358C44.959 56.1901 44.6698 56.4998 44.4498 56.7589C44.2975 56.9384 44.0921 57.1921 43.9024 57.489C43.7415 57.7409 43.4105 58.2971 43.2798 59.0538C43.1203 59.9773 43.2774 61.1965 44.1838 62.1989C44.9236 63.0169 45.8129 63.284 46.224 63.3821C47.0501 63.5792 47.9396 63.5351 48.5512 63.4896C51.299 63.2851 53.908 63.016 56.4538 62.7535H56.4539L56.4542 62.7534L56.4545 62.7534L56.4546 62.7534L56.4548 62.7534L56.4552 62.7533L56.4553 62.7533C61.1211 62.2721 65.5749 61.8128 70.2822 61.8128C72.2152 61.8128 73.7822 60.2458 73.7822 58.3128C73.7822 56.3798 72.2152 54.8128 70.2822 54.8128C65.2447 54.8128 60.1346 55.3356 55.2252 55.8378L55.2251 55.8378L54.84 55.8772C56.2275 54.425 57.6252 53.0026 59.054 51.6224C61.8648 48.9073 64.854 46.4102 67.9996 43.9255L68.0468 43.8882L68.0471 43.888C68.1945 43.7721 68.4541 43.5679 68.673 43.3669L68.69 43.3516C68.8451 43.2117 69.6071 42.5248 69.913 41.4159C70.1235 40.6527 70.1119 39.727 69.6807 38.8348C69.2935 38.0337 68.7141 37.5647 68.3473 37.3222C67.6843 36.884 66.9733 36.7058 66.6333 36.6256C63.215 35.8197 59.7598 35.2985 56.4269 34.8284C55.923 34.7574 55.4227 34.6876 54.9256 34.6183L54.9255 34.6182C52.0893 34.2226 49.3571 33.8414 46.6576 33.3233ZM65.1027 43.4594C65.1017 43.4597 65.0843 43.4554 65.0536 43.4453C65.0884 43.454 65.1038 43.459 65.1027 43.4594ZM105.132 34.1413C106.755 36.1771 106.637 38.7132 105.922 40.9117C104.136 46.4091 99.475 49.073 95.0776 50.3618C91.9384 51.2818 88.572 51.6192 85.6559 51.7368C85.694 51.7668 85.7327 51.797 85.7722 51.8274C87.5387 53.1858 89.9034 54.2837 91.275 54.8057C97.4471 57.1548 102.343 57.3801 105.662 53.8065C106.977 52.39 109.191 52.308 110.608 53.6233C112.024 54.9386 112.106 57.1531 110.791 58.5696C104.27 65.5921 95.3044 63.8291 88.7851 61.3479C87.0833 60.7002 84.0227 59.3124 81.5051 57.3763C80.2522 56.4129 78.9229 55.155 78.0321 53.5944C77.0933 51.9498 76.5889 49.8425 77.3552 47.5783C78.1478 45.2366 79.7614 43.2862 81.2164 41.8067C82.3901 40.6133 83.7051 39.4932 84.7443 38.608L84.7458 38.6067C85.0041 38.3868 85.2452 38.1814 85.4629 37.993C86.94 36.7145 89.0956 35.0797 90.8757 33.9831C92.0153 33.281 93.4884 32.6917 94.9581 32.2917C96.4305 31.8909 98.162 31.6082 99.827 31.7016C101.382 31.7889 103.628 32.2555 105.132 34.1413ZM88.6225 44.5027C88.801 44.3496 88.9803 44.1967 89.1599 44.0435L89.1614 44.0423C89.4548 43.792 89.7495 43.5407 90.0439 43.2858C91.2961 42.202 93.1487 40.8045 94.5472 39.943C94.9717 39.6814 95.7844 39.3214 96.7965 39.046C97.7341 38.7908 98.6171 38.67 99.2853 38.6849L99.2737 38.7216L99.2651 38.7481C98.5036 41.0914 96.4659 42.6604 93.1089 43.6443C91.6911 44.0598 90.1647 44.3296 88.6225 44.5027ZM99.9725 38.7754C99.9722 38.7757 99.9662 38.7736 99.9556 38.7683C99.9674 38.7725 99.9728 38.7751 99.9725 38.7754ZM99.4261 38.0336C99.4227 38.0098 99.4231 37.9966 99.4241 37.9959C99.4251 37.9952 99.4268 38.0071 99.4261 38.0336ZM130.233 43.2018C130.741 42.0298 131.959 40.2074 133.397 39.0012C134.895 37.744 135.575 37.9273 135.844 38.0648L135.842 38.0639C135.842 38.0637 135.841 38.0637 135.841 38.0638C135.841 38.0643 135.844 38.0675 135.85 38.0739C135.902 38.1277 136.176 38.4113 136.527 39.3282C136.821 40.0991 137.008 40.837 137.217 41.6641L137.217 41.6644L137.217 41.6645C137.31 42.0316 137.407 42.4162 137.52 42.8291C138.304 45.6927 138.613 48.4696 138.544 51.4963C138.5 53.4062 138.323 55.2965 138.03 57.2099C138.031 57.2067 138.03 57.2081 138.029 57.2173C138.026 57.2321 138.02 57.2673 138.007 57.336L138.003 57.3572C137.988 57.4378 137.966 57.5558 137.948 57.664L137.947 57.669C137.939 57.7153 137.882 58.0362 137.875 58.3594L137.875 58.3666C137.873 58.4418 137.864 58.8096 137.967 59.2515C138.008 59.4283 138.17 60.1119 138.745 60.7683C139.076 61.1457 139.594 61.5693 140.325 61.8003C141.07 62.0357 141.776 61.9884 142.334 61.8305C143.29 61.56 143.836 60.9665 143.968 60.8221C144.174 60.5967 144.306 60.3928 144.366 60.295C144.493 60.0901 144.573 59.9139 144.603 59.8473C145.051 58.8405 145.329 57.6465 145.514 56.7991C145.593 56.4335 145.658 56.1217 145.715 55.8503L145.715 55.8472L145.716 55.8446L145.716 55.8419C145.819 55.3455 145.894 54.9844 145.981 54.6754C146.069 54.3618 146.156 54.0488 146.243 53.7366L146.249 53.7161C147.604 48.8529 148.908 44.1741 151.093 40.2477C152.158 38.3337 153.226 37.6082 154.333 37.5253C156.094 37.3934 157.097 37.9874 157.872 38.9491C158.793 40.093 159.477 41.9198 159.841 44.183C160.295 46.9962 160.41 49.9241 160.461 53.0447C160.471 53.6699 160.478 54.3068 160.486 54.9523C160.515 57.4521 160.546 60.0807 160.739 62.6569C160.883 64.5845 162.563 66.0301 164.49 65.8858C166.418 65.7414 167.864 64.0617 167.719 62.1341C167.544 59.8005 167.517 57.4591 167.487 54.9887V54.9884V54.9882V54.9879V54.9877V54.9874V54.9872V54.9869C167.479 54.3122 167.471 53.6278 167.46 52.9313C167.408 49.7585 167.29 46.4083 166.752 43.0694C166.296 40.2359 165.327 37.0454 163.322 34.5571C161.17 31.8865 157.972 30.2332 153.811 30.5448C149.293 30.8832 146.546 34.0216 144.976 36.8442C144.557 37.5972 144.166 38.3701 143.8 39.1564C143.6 38.4158 143.354 37.5854 143.066 36.8297C142.49 35.3241 141.393 33.0753 139.115 31.876C135.027 29.7233 131.174 31.7287 128.898 33.6385C126.541 35.6151 124.703 38.3569 123.81 40.4199C123.069 42.1311 122.461 43.877 121.906 45.523C121.747 43.7426 121.56 41.943 121.319 40.1393C121.062 38.2234 119.301 36.8782 117.385 37.1347C115.469 37.3912 114.124 39.1522 114.381 41.0681C114.756 43.8732 114.993 46.7065 115.222 49.624C115.248 49.9589 115.274 50.295 115.3 50.6325L115.3 50.6327L115.3 50.6329V50.6331C115.5 53.2083 115.705 55.8544 116.004 58.4959C116.039 58.8096 116.115 59.2711 116.313 59.7637C116.499 60.223 116.952 61.1054 117.982 61.6791C119.146 62.3271 120.313 62.1879 121.067 61.9091C121.732 61.6632 122.188 61.283 122.417 61.0733C122.892 60.6391 123.246 60.1317 123.46 59.8046C123.706 59.4289 123.937 59.023 124.141 58.6428C124.902 57.2245 125.738 55.2582 125.669 55.4046C126.686 53.2342 127.443 51.0237 128.126 48.9902L128.272 48.5559C128.915 46.6392 129.502 44.8912 130.233 43.2018ZM144.843 58.8783C144.843 58.8794 144.844 58.8665 144.849 58.8364C144.846 58.8621 144.844 58.8771 144.843 58.8783ZM191.462 28.8178C195.561 26.9701 199.536 26.4277 204.097 27.6767C205.61 28.0911 207.612 29.0287 208.994 30.6396C209.724 31.4915 210.402 32.6803 210.528 34.1711C210.659 35.7075 210.167 37.1384 209.304 38.3528C207.458 40.9499 204.542 42.1837 202.166 42.8434C199.738 43.5177 197.21 43.7648 195.519 43.9301L195.481 43.9338C192.141 44.2604 188.687 44.2688 185.375 44.2087C185.19 45.7115 185.37 47.2995 185.933 48.4968C186.612 49.9433 187.983 51.3454 189.93 52.6166C191.849 53.8695 194.09 54.8387 196.131 55.5137C198.679 56.3569 202.538 57.2009 205.76 57.0034C207.362 56.9053 208.517 56.5655 209.256 56.1024C209.877 55.7136 210.329 55.175 210.532 54.1615C210.911 52.2661 212.755 51.0368 214.65 51.4159C216.546 51.795 217.775 53.6389 217.396 55.5343C216.807 58.4803 215.186 60.6483 212.972 62.0351C210.876 63.3478 208.432 63.8528 206.189 63.9903C201.721 64.2641 196.905 63.1431 193.932 62.1595C191.504 61.3562 188.671 60.1541 186.103 58.4781C183.564 56.8203 181.036 54.5358 179.597 51.4733C178.501 49.1403 178.115 46.3595 178.391 43.6789C177.264 43.0796 176.507 41.8836 176.533 40.5204C176.57 38.5878 178.167 37.0509 180.099 37.0876C180.296 37.0914 180.492 37.0953 180.688 37.0994C183.416 32.9523 187.849 30.4463 191.462 28.8178ZM190.552 37.213C191.987 37.1782 193.403 37.1037 194.8 36.967C196.558 36.7951 198.519 36.5913 200.293 36.0987C201.657 35.7199 202.567 35.26 203.129 34.7917C202.835 34.6275 202.517 34.5016 202.248 34.4281C199.468 33.6668 197.165 33.9253 194.339 35.1994C192.979 35.8124 191.699 36.478 190.552 37.213ZM272.019 35.9789C272.283 34.064 270.944 32.2979 269.03 32.0343C267.115 31.7706 265.349 33.1092 265.085 35.0242C264.708 37.7634 264.096 40.2816 263.433 43.0119L263.432 43.0135L263.432 43.0161L263.431 43.0167C263.136 44.2329 262.83 45.4913 262.53 46.83C261.862 49.8162 261.738 52.6523 263.254 55.9408C264.638 58.9447 267.077 61.1664 270.223 61.7794C272.517 62.2264 274.809 61.745 276.862 60.5799C276.671 66.9353 276.624 73.2787 276.624 79.6008C276.624 81.5338 278.191 83.1008 280.124 83.1008C282.057 83.1008 283.624 81.5338 283.624 79.6008C283.624 68.3224 283.776 57.1455 284.612 46.0225C284.651 45.6854 284.688 45.3558 284.725 45.0353C284.744 44.86 284.764 44.6873 284.783 44.5177C284.827 44.1379 284.98 42.2887 285.073 41.084C285.114 40.5578 285.165 39.9014 285.167 39.6504L285.167 39.6487V39.6481V39.6478C285.168 39.6181 285.169 39.5114 285.161 39.3796L285.16 39.3765C285.157 39.3277 285.145 39.1271 285.093 38.8791C285.073 38.7826 285 38.4342 284.799 38.0299L284.795 38.0233C284.716 37.8631 283.859 36.1263 281.722 36.0927C281.04 36.1488 279.932 36.5524 279.517 36.8302C279.267 37.0439 278.899 37.4488 278.771 37.6261C278.543 37.961 278.429 38.258 278.394 38.3487C278.309 38.5722 278.267 38.7564 278.256 38.8032L278.255 38.8055C278.226 38.9321 278.21 39.0356 278.205 39.0637L278.205 39.065C278.185 39.1894 278.17 39.3282 278.162 39.4014C278.14 39.6015 278.108 39.9238 278.065 40.3841C277.913 41.9861 277.777 43.588 277.655 45.1896C277.158 49.1783 276.554 51.8689 274.368 53.7973C273.098 54.9185 272.106 55.0147 271.562 54.9087C271.034 54.8059 270.243 54.3815 269.611 53.0106C268.947 51.5706 268.899 50.4223 269.361 48.3599C269.602 47.2868 269.871 46.1766 270.147 45.0379L270.147 45.0375L270.148 45.037C270.847 42.154 271.591 39.0883 272.019 35.9789ZM299.999 34.0034C301.931 34.0662 303.446 35.6833 303.383 37.6153C303.333 39.173 303.283 40.7334 303.234 42.2959L303.175 44.1797C307.211 38.7421 312.916 34.7397 320.921 34.7397C322.854 34.7397 324.421 36.3067 324.421 38.2397C324.421 40.1727 322.854 41.7397 320.921 41.7397C314.343 41.7397 309.782 45.7247 306.371 52.263C304.204 56.417 302.931 60.9797 302.243 65.7987C302.231 65.8818 302.217 65.9772 302.201 66.068C302.193 66.11 302.18 66.1863 302.16 66.2752C302.15 66.3187 302.132 66.397 302.104 66.4924L302.103 66.4964C302.086 66.555 302.016 66.799 301.874 67.0846C301.817 67.2001 301.618 67.5968 301.224 67.9952C300.869 68.3527 299.58 69.4366 297.735 68.8857C296.258 68.4447 295.686 67.2631 295.589 67.063L295.586 67.0582C295.412 66.698 295.341 66.3908 295.316 66.2772C295.259 66.0191 295.246 65.8109 295.242 65.7539L295.242 65.753C295.236 65.6649 295.234 65.5929 295.234 65.5512C295.232 65.4097 295.239 65.2791 295.241 65.2303L295.241 65.2298C295.254 64.9849 295.287 64.564 295.32 64.1567L295.354 63.7359C295.419 62.9393 295.487 62.1139 295.508 61.6892C295.825 55.1718 296.03 48.6533 296.237 42.1008V42.0995V42.0981C296.286 40.5301 296.336 38.9602 296.387 37.3878C296.45 35.4559 298.067 33.9406 299.999 34.0034ZM347.423 35.0124C340.773 34.8724 333.086 36.0128 328.783 43.837C327.419 46.3164 326.348 49.6461 326.313 52.9656C326.277 56.3156 327.328 60.1571 330.836 62.6328C335.545 65.9572 342.422 67.2286 347.029 67.9288L347.073 67.9355C349.608 68.3209 352.678 68.7875 355.656 68.5572C358.774 68.3161 362.015 67.3013 364.73 64.5856C366.097 63.2188 366.097 61.0027 364.73 59.6359C363.364 58.269 361.147 58.269 359.781 59.6359C358.55 60.8666 357.055 61.4281 355.116 61.578C353.055 61.7374 350.766 61.4166 348.081 61.0083C343.317 60.2842 338.05 59.1571 334.872 56.914C333.877 56.2112 333.292 54.9895 333.313 53.0401C333.319 52.4246 333.389 51.7872 333.51 51.1517C336.988 51.5491 340.487 51.5684 343.669 51.5859L343.783 51.5866C344.322 51.5895 344.884 51.5975 345.466 51.6057L345.467 51.6057C349.204 51.6585 353.732 51.7225 357.875 50.5529C359.417 50.1177 361.346 49.2048 362.712 47.6138C363.429 46.7787 364.053 45.6783 364.261 44.3282C364.473 42.9519 364.21 41.5868 363.582 40.3294C362.655 38.477 361.042 37.608 359.917 37.1715C359.103 36.8557 358.091 36.6188 357.538 36.4893C357.405 36.4582 357.298 36.4333 357.227 36.415C354 35.58 350.841 35.0844 347.423 35.0124ZM343.822 44.5867C341.541 44.5741 339.323 44.5588 337.174 44.4372C339.557 42.4821 342.889 41.9185 347.276 42.0109C350.076 42.0698 352.694 42.4725 355.474 43.1918C355.69 43.2477 355.908 43.2993 356.095 43.3434L356.139 43.3538C356.317 43.3961 356.473 43.4328 356.629 43.4719C356.675 43.4835 356.72 43.4949 356.763 43.5061C356.516 43.6336 356.242 43.7405 355.974 43.8161C352.891 44.6863 349.508 44.6478 345.691 44.6043C345.08 44.5973 344.457 44.5902 343.822 44.5867ZM357.58 43.7857C357.582 43.7874 357.584 43.7886 357.586 43.7895C357.587 43.7904 357.588 43.7908 357.588 43.7908C357.588 43.7907 357.585 43.789 357.58 43.7857Z" fill="url(#paint0_linear_2134_1943)"/>
<defs>
<linearGradient id="paint0_linear_2134_1943" x1="-0.499393" y1="33.5015" x2="365.501" y2="41.5015" gradientUnits="userSpaceOnUse">
<stop stop-color="#FFC635"/>
<stop offset="1" stop-color="#11E767"/>
</linearGradient>
</defs>
</svg>
